<?xml version="1.0" encoding="UTF-8"?>
<svg width="153px" height="39px" viewBox="0 0 153 39" version="1.1" xmlns="http://www.w3.org/2000/svg" xmlns:xlink="http://www.w3.org/1999/xlink">
    <title>7BCEF76F-BB48-4100-A0CF-77AE588B5DF9@3x</title>
    <defs>
        <polygon id="path-1" points="0.157041509 0.19474746 18.0257983 0.19474746 18.0257983 20.3976313 0.157041509 20.3976313"></polygon>
        <polygon id="path-3" points="0 0.00190972424 7.7108225 0.00190972424 7.7108225 7.71275443 0 7.71275443"></polygon>
    </defs>
    <g id="primary" stroke="none" stroke-width="1" fill="none" fill-rule="evenodd">
        <g id="homepage-amended" transform="translate(-200.000000, -21.000000)">
            <g id="54gene-logo-orig" transform="translate(200.000000, 21.000000)">
                <path d="M37.7849155,22.5589729 L42.744425,22.5589729 C42.7923901,23.7259032 43.1821071,24.6261383 43.9113553,25.2574576 C44.5428967,25.8410338 45.4431318,26.1325999 46.6100621,26.1325999 C48.0197051,26.1325999 49.0898168,25.7442152 49.819065,24.9658916 C50.5483132,24.0903052 50.9131594,22.8996144 50.9131594,21.3920425 C50.9131594,19.9333241 50.5234424,18.8152472 49.746229,18.0371456 C49.0169808,17.2108567 47.9708517,16.7971572 46.6100621,16.7971572 C45.8808139,16.7971572 45.2241797,16.9430512 44.6408255,17.2346173 C44.0081739,17.5754808 43.5467312,18.0129409 43.2549431,18.5476637 L38.5872218,18.3287116 L40.2646702,4.68994964 L52.5177718,4.68994964 C53.1981666,4.73880305 53.7939562,5.00683062 54.3046964,5.49225588 C54.8149925,5.97879144 55.0703626,6.58612816 55.0703626,7.3155984 L55.0703626,8.84715283 L55.0703626,9.06588287 L43.9113553,9.06588287 L43.2549431,13.9527784 C43.6926253,13.5641717 44.3239446,13.248401 45.1513437,13.0045781 C45.928557,12.7616434 46.7557341,12.639954 47.6310984,12.639954 C50.2076717,12.639954 52.2737269,13.4180556 53.8305962,14.9738147 C55.4349866,16.5782051 56.2372929,18.6453705 56.2372929,21.1730904 C56.2372929,23.9446332 55.3621507,26.1576927 53.6116441,27.8100483 C51.9091028,29.4148829 49.5752421,30.2169671 46.6100621,30.2169671 C43.8385193,30.2169671 41.6982958,29.5607769 40.1918343,28.2477305 C38.6840403,26.887163 37.8830665,24.9909845 37.7849155,22.5589729" id="Fill-1" fill="#787879"></path>
                <path d="M68.8723615,20.2979038 L68.8723615,9.21195457 L61.8705575,20.2979038 L68.8723615,20.2979038 Z M68.7993035,29.8522985 L68.7993035,24.2363769 L57.8592483,24.2363769 L57.8592483,19.7145496 L67.4136431,4.76296328 L71.2062222,4.76296328 C71.9354704,4.76296328 72.5428071,5.01811132 73.0295647,5.52862946 C73.51499,6.03914761 73.7827955,6.63538128 73.831871,7.31577605 L73.831871,8.84733048 L73.831871,20.1520097 L76.8221438,20.1520097 L76.8221438,24.2363769 L73.831871,24.2363769 L73.831871,29.8522985 L68.7993035,29.8522985 Z" id="Fill-3" fill="#787879"></path>
                <path d="M83.0391623,20.2979038 C83.0391623,23.6528007 84.0113451,25.5127833 85.9563771,25.8774074 C87.9005208,26.2420315 89.3354787,25.7932463 90.2596964,24.528165 C90.6971565,23.9936643 91.0129271,23.1549401 91.2078967,22.0119923 C91.4015338,20.8701549 91.4139692,19.7394205 91.2443147,18.6204553 C91.0733277,17.5026004 90.6722856,16.5053247 90.0407443,15.6299604 C89.4083147,14.7550402 88.484097,14.3173581 87.2694235,14.3173581 C85.6157356,14.3173581 84.4978807,14.9260271 83.9143045,16.1407006 C83.3307283,17.3564843 83.0391623,18.7425888 83.0391623,20.2979038 M91.3535687,28.6853682 L91.3535687,27.4456019 C90.4784264,28.8075017 89.2988386,29.6586614 87.8163597,29.9981926 C86.3327704,30.3377238 84.8622827,30.2169226 83.4037864,29.6335685 C81.9450679,29.0502144 80.6926441,27.9685554 79.6478473,26.3879255 C78.6014961,24.808406 78.0796528,22.7299154 78.0796528,20.1520097 C78.0796528,17.1379763 78.772483,14.6946396 80.1581434,12.8222216 C81.5440258,10.951136 83.7686325,10.0140388 86.8317414,10.0140388 C89.165602,10.0140388 91.3286978,10.6466904 93.3230273,11.9104393 C95.3160244,13.1755206 96.3133001,15.5093813 96.3133001,18.9122434 L96.3133001,29.1958864 C96.3133001,32.5989705 95.3160244,34.921284 93.3230273,36.1610504 C91.3286978,37.4010388 89.165602,38.0210329 86.8317414,38.0210329 C82.3576572,38.0210329 79.5861144,35.9298849 78.5171129,31.7484771 L83.8412464,31.7484771 C84.2300752,32.4288718 84.8258647,32.9520475 85.628393,33.3166716 C86.4304772,33.6812956 87.2330055,33.7783363 88.0350897,33.6084597 C88.8373959,33.4374727 89.5668662,32.9635946 90.2232784,32.1861592 C90.8794685,31.4078356 91.2556398,30.2409052 91.3535687,28.6853682" id="Fill-5" fill="#787879"></path>
                <path d="M102.676035,18.1827954 L110.115299,18.1827954 C110.017148,16.869971 109.677617,15.8977881 109.094041,15.2653585 C108.461833,14.5851858 107.562486,14.2443222 106.395556,14.2443222 C105.325444,14.2443222 104.450302,14.5851858 103.769907,15.2653585 C103.088402,15.9470856 102.723778,16.9190464 102.676035,18.1827954 M111.428124,23.871775 L115.074809,23.871775 C114.539198,25.9138476 113.517939,27.470717 112.011478,28.5397184 C110.503906,29.6586836 108.607505,30.2169448 106.322498,30.2169448 C103.551177,30.2169448 101.386971,29.3180421 99.8314341,27.5184601 C98.2747868,25.7679536 97.4975734,23.2644383 97.4975734,20.0061379 C97.4975734,16.8952859 98.2508042,14.4632743 99.7583761,12.7127678 C101.314135,10.9145181 103.478119,10.014061 106.249662,10.014061 C109.167099,10.014061 111.428124,10.8894253 113.032514,12.6399318 C114.588051,14.4392917 115.366375,16.943029 115.366375,20.1520319 L115.366375,20.6625501 L115.366375,20.9543382 C115.366375,21.1981611 115.341282,21.3680377 115.293539,21.4648563 L102.676035,21.4648563 C102.723778,22.9726502 103.088402,24.0905051 103.769907,24.8199753 C104.401227,25.598299 105.349427,25.9869057 106.614286,25.9869057 C107.440575,25.9869057 108.146063,25.816807 108.729639,25.4763875 C108.875311,25.4284224 109.008769,25.3429289 109.130681,25.2210174 L109.531723,24.8199753 C109.579688,24.6738592 109.762,24.4802221 110.078659,24.2363991 C110.39443,23.9936865 110.844547,23.871775 111.428124,23.871775" id="Fill-7" fill="#787879"></path>
                <path d="M133.836472,29.8523874 L131.28366,29.8523874 C130.554634,29.8523874 129.958622,29.6221102 129.496957,29.1593351 C129.034404,28.6978925 128.803905,28.1018808 128.803905,27.3726327 L128.803905,17.4536138 C128.803905,16.2866835 128.450828,15.4366341 127.746451,14.900801 C127.040963,14.3663003 126.251314,14.0984948 125.376172,14.0984948 C124.50103,14.0984948 123.722706,14.3663003 123.042311,14.900801 C122.360806,15.4366341 122.021053,16.2866835 122.021053,17.4536138 L122.021053,29.8523874 L116.915872,29.8523874 L116.915872,18.4746501 C116.915872,15.1686065 117.778578,12.9568794 119.50488,11.8376922 C121.230294,10.7196152 123.13913,10.1120565 125.230278,10.0141276 C127.369391,10.0141276 129.338628,10.5737212 131.137988,11.6915761 C132.936237,12.8107633 133.836472,15.0715659 133.836472,18.4746501 L133.836472,29.8523874 Z" id="Fill-9" fill="#787879"></path>
                <g id="Group-13" transform="translate(134.791001, 9.819313)">
                    <mask id="mask-2" fill="white">
                        <use xlink:href="#path-1"></use>
                    </mask>
                    <g id="Clip-12"></g>
                    <path d="M5.33550305,8.36348186 L12.7747672,8.36348186 C12.6766163,7.05065747 12.3370851,6.0784746 11.7535089,5.44604499 C11.1213013,4.76587228 10.2219544,4.42500871 9.05502409,4.42500871 C7.98491234,4.42500871 7.1097701,4.76587228 6.42937533,5.44604499 C5.74787025,6.12777213 5.38324615,7.09973295 5.33550305,8.36348186 M14.0875916,14.0524615 L17.7342766,14.0524615 C17.1986656,16.0945341 16.1774073,17.6514035 14.6709457,18.7204049 C13.1633739,19.8393701 11.2669733,20.3976313 8.98196604,20.3976313 C6.21064528,20.3976313 4.04643919,19.4987286 2.49090218,17.6991466 C0.934254862,15.9486401 0.157041509,13.4451248 0.157041509,10.1868244 C0.157041509,7.07597242 0.910272279,4.64396081 2.41784412,2.89345428 C3.97360319,1.09520464 6.13758723,0.19474746 8.90913004,0.19474746 C11.8265669,0.19474746 14.0875916,1.07011176 15.691982,2.82061829 C17.247519,4.61997823 18.0258427,7.12371553 18.0258427,10.3327184 L18.0258427,10.8432366 L18.0258427,11.1350247 C18.0258427,11.3788476 18.0007498,11.5487242 17.9530067,11.6455428 L5.33550305,11.6455428 C5.38324615,13.1533367 5.74787025,14.2711916 6.42937533,15.0006618 C7.06069463,15.7789855 8.00889492,16.1675922 9.27375414,16.1675922 C10.100043,16.1675922 10.8055306,15.9974935 11.3891068,15.657074 C11.5347788,15.6091089 11.6682374,15.5236154 11.7901489,15.4017039 L12.191191,15.0006618 C12.2391562,14.8545457 12.4214682,14.6609086 12.7381271,14.4170856 C13.0538978,14.174373 13.5040154,14.0524615 14.0875916,14.0524615" id="Fill-11" fill="#787879" mask="url(#mask-2)"></path>
                </g>
                <path d="M11.5662226,3.85542235 C11.5662226,5.98476488 9.84014282,7.7108447 7.71080029,7.7108447 C5.58145776,7.7108447 3.85537794,5.98476488 3.85537794,3.85542235 C3.85537794,1.72607983 5.58145776,0 7.71080029,0 C9.84014282,0 11.5662226,1.72607983 11.5662226,3.85542235" id="Fill-14" fill="#EF5983"></path>
                <path d="M28.5301254,30.0722721 C28.5301254,32.2016147 26.8040456,33.9276945 24.674703,33.9276945 C22.5453605,33.9276945 20.8192807,32.2016147 20.8192807,30.0722721 C20.8192807,27.9431517 22.5453605,26.2168498 24.674703,26.2168498 C26.8040456,26.2168498 28.5301254,27.9431517 28.5301254,30.0722721" id="Fill-16" fill="#EF5983"></path>
                <path d="M21.8095393,6.47711843 C21.8095393,8.60646096 20.0834595,10.3325408 17.954117,10.3325408 C15.8247745,10.3325408 14.0986946,8.60646096 14.0986946,6.47711843 C14.0986946,4.34799797 15.8247745,2.62169608 17.954117,2.62169608 C20.0834595,2.62169608 21.8095393,4.34799797 21.8095393,6.47711843" id="Fill-18" fill="#7CC471"></path>
                <path d="M10.6410057,14.1879853 C10.6410057,16.3173279 8.91492583,18.0434077 6.78558331,18.0434077 C4.65624078,18.0434077 2.93016096,16.3173279 2.93016096,14.1879853 C2.93016096,12.0586428 4.65624078,10.332563 6.78558331,10.332563 C8.91492583,10.332563 10.6410057,12.0586428 10.6410057,14.1879853" id="Fill-20" fill="#7CC471"></path>
                <polygon id="Fill-22" fill="#7CC471" points="16.0646891 6.47711843 6.78542787 13.6137135 8.60965864 15.0779835 17.2722566 8.79032743"></polygon>
                <path d="M18.3517615,27.4505983 C18.3517615,29.5799408 16.6256817,31.3060206 14.4963392,31.3060206 C12.3669967,31.3060206 10.6409168,29.5799408 10.6409168,27.4505983 C10.6409168,25.3214778 12.3669967,23.5951759 14.4963392,23.5951759 C16.6256817,23.5951759 18.3517615,25.3214778 18.3517615,27.4505983" id="Fill-24" fill="#3F4C78"></path>
                <path d="M30.5349583,19.7398424 C30.5349583,21.8689628 28.8088785,23.5952647 26.679536,23.5952647 C24.5501935,23.5952647 22.8241136,21.8689628 22.8241136,19.7398424 C22.8241136,17.6104999 24.5501935,15.88442 26.679536,15.88442 C28.8088785,15.88442 30.5349583,17.6104999 30.5349583,19.7398424" id="Fill-26" fill="#3F4C78"></path>
                <polygon id="Fill-28" fill="#3F4C78" points="23.775445 19.2947434 14.4964058 26.4313385 16.3206366 27.8956084 24.9830125 21.6079524"></polygon>
                <path d="M32.3855033,8.79043846 C32.3855033,10.9195589 30.6594235,12.6458608 28.530081,12.6458608 C26.4007385,12.6458608 24.6746586,10.9195589 24.6746586,8.79043846 C24.6746586,6.66109594 26.4007385,4.93501611 28.530081,4.93501611 C30.6594235,4.93501611 32.3855033,6.66109594 32.3855033,8.79043846" id="Fill-30" fill="#F5BD17"></path>
                <g id="Group-34" transform="translate(0.000000, 21.588544)">
                    <mask id="mask-4" fill="white">
                        <use xlink:href="#path-3"></use>
                    </mask>
                    <g id="Clip-33"></g>
                    <path d="M7.7108225,3.85733208 C7.7108225,5.98645254 5.98474267,7.71275443 3.85540015,7.71275443 C1.72605762,7.71275443 -2.22060958e-05,5.98645254 -2.22060958e-05,3.85733208 C-2.22060958e-05,1.72798955 1.72605762,0.00190972424 3.85540015,0.00190972424 C5.98474267,0.00190972424 7.7108225,1.72798955 7.7108225,3.85733208" id="Fill-32" fill="#F5BD17" mask="url(#mask-4)"></path>
                </g>
                <polygon id="Fill-35" fill="#F5BD17" points="27.3224469 7.63372293 2.01793454 25.4847592 3.84216531 26.9490292 28.5300144 9.94693193"></polygon>
            </g>
        </g>
    </g>
</svg>