<svg width="414" height="122" viewBox="0 0 414 122" fill="none" xmlns="http://www.w3.org/2000/svg">
<g opacity="0.3">
<path d="M116.304 98.441C116.304 94.2589 119.694 90.8687 123.877 90.8687H139.021C143.203 90.8687 146.594 94.2589 146.594 98.441V113.586C146.594 117.768 143.203 121.158 139.021 121.158H123.877C119.694 121.158 116.304 117.768 116.304 113.586V98.441Z" fill="#E7E9F6"/>
<path d="M116.304 37.8619C116.304 33.6798 119.694 30.2896 123.877 30.2896H139.021C143.203 30.2896 146.594 33.6798 146.594 37.8619V53.0067C146.594 57.1888 143.203 60.5791 139.021 60.5791H123.877C119.694 60.5791 116.304 57.1888 116.304 53.0067V37.8619Z" fill="#D4ECD1"/>
<path d="M55.7256 98.441C55.7256 94.2589 59.1159 90.8687 63.298 90.8687H78.4428C82.6249 90.8687 86.0151 94.2589 86.0151 98.441V113.586C86.0151 117.768 82.6249 121.158 78.4428 121.158H63.298C59.1159 121.158 55.7256 117.768 55.7256 113.586V98.441Z" fill="#D4ECD1"/>
<path d="M176.884 37.8619C176.884 33.6798 180.274 30.2896 184.456 30.2896H199.601C203.783 30.2896 207.173 33.6798 207.173 37.8619V53.0067C207.173 57.1888 203.783 60.5791 199.601 60.5791H184.456C180.274 60.5791 176.884 57.1888 176.884 53.0067V37.8619Z" fill="#E7E9F6"/>
<path d="M176.884 98.441C176.884 94.2589 180.274 90.8687 184.456 90.8687H199.601C203.783 90.8687 207.173 94.2589 207.173 98.441V113.586C207.173 117.768 203.783 121.158 199.601 121.158H184.456C180.274 121.158 176.884 117.768 176.884 113.586V98.441Z" fill="#D4ECD1"/>
<path d="M86.0151 8.98108C86.0151 4.79897 89.4054 1.40869 93.5875 1.40869H108.732C112.914 1.40869 116.305 4.79897 116.305 8.98108V24.1259C116.305 28.308 112.914 31.6982 108.732 31.6982H93.5875C89.4054 31.6982 86.0151 28.308 86.0151 24.1259V8.98108Z" fill="#FCEABA"/>
<path d="M237.463 37.8619C237.463 33.6798 240.853 30.2896 245.035 30.2896H260.18C264.362 30.2896 267.752 33.6798 267.752 37.8619V53.0067C267.752 57.1888 264.362 60.5791 260.18 60.5791H245.035C240.853 60.5791 237.463 57.1888 237.463 53.0067V37.8619Z" fill="#D4ECD1"/>
<path d="M298.042 37.8619C298.042 33.6798 301.432 30.2896 305.614 30.2896H320.759C324.941 30.2896 328.332 33.6798 328.332 37.8619V53.0067C328.332 57.1888 324.941 60.5791 320.759 60.5791H305.614C301.432 60.5791 298.042 57.1888 298.042 53.0067V37.8619Z" fill="#D4ECD1"/>
<path d="M237.463 98.441C237.463 94.2589 240.853 90.8687 245.035 90.8687H260.18C264.362 90.8687 267.752 94.2589 267.752 98.441V113.586C267.752 117.768 264.362 121.158 260.18 121.158H245.035C240.853 121.158 237.463 117.768 237.463 113.586V98.441Z" fill="#E7E9F6"/>
<path d="M298.042 98.441C298.042 94.2589 301.432 90.8687 305.614 90.8687H320.759C324.941 90.8687 328.332 94.2589 328.332 98.441V113.586C328.332 117.768 324.941 121.158 320.759 121.158H305.614C301.432 121.158 298.042 117.768 298.042 113.586V98.441Z" fill="#E7E9F6"/>
<path d="M146.594 68.1515C146.594 63.9694 149.985 60.5791 154.167 60.5791H169.311C173.494 60.5791 176.884 63.9694 176.884 68.1515V83.2963C176.884 87.4784 173.494 90.8687 169.311 90.8687H154.167C149.985 90.8687 146.594 87.4784 146.594 83.2963V68.1515Z" fill="#FCEABA"/>
<path d="M55.7256 37.8619C55.7256 33.6798 59.1159 30.2896 63.298 30.2896H78.4428C82.6249 30.2896 86.0151 33.6798 86.0151 37.8619V53.0067C86.0151 57.1888 82.6249 60.5791 78.4428 60.5791H63.298C59.1159 60.5791 55.7256 57.1888 55.7256 53.0067V37.8619Z" fill="#E7E9F6"/>
<path d="M146.594 7.57239C146.594 3.39028 149.985 0 154.167 0H169.311C173.494 0 176.884 3.39028 176.884 7.57239V22.7172C176.884 26.8993 173.494 30.2896 169.311 30.2896H154.167C149.985 30.2896 146.594 26.8993 146.594 22.7172V7.57239Z" fill="#F9B9CB"/>
<path d="M86.0151 68.1515C86.0151 63.9694 89.4054 60.5791 93.5875 60.5791H108.732C112.914 60.5791 116.305 63.9694 116.305 68.1515V83.2963C116.305 87.4784 112.914 90.8687 108.732 90.8687H93.5875C89.4054 90.8687 86.0151 87.4784 86.0151 83.2963V68.1515Z" fill="#F9B9CB"/>
<path d="M207.173 68.1515C207.173 63.9694 210.564 60.5791 214.746 60.5791H229.891C234.073 60.5791 237.463 63.9694 237.463 68.1515V83.2963C237.463 87.4784 234.073 90.8687 229.891 90.8687H214.746C210.564 90.8687 207.173 87.4784 207.173 83.2963V68.1515Z" fill="#F9B9CB"/>
<path d="M267.752 68.1515C267.752 63.9694 271.142 60.5791 275.324 60.5791H290.469C294.651 60.5791 298.042 63.9694 298.042 68.1515V83.2963C298.042 87.4784 294.651 90.8687 290.469 90.8687H275.324C271.142 90.8687 267.752 87.4784 267.752 83.2963V68.1515Z" fill="#F9B9CB"/>
<path d="M207.173 7.57239C207.173 3.39028 210.564 0 214.746 0H229.891C234.073 0 237.463 3.39028 237.463 7.57239V22.7172C237.463 26.8993 234.073 30.2896 229.891 30.2896H214.746C210.564 30.2896 207.173 26.8993 207.173 22.7172V7.57239Z" fill="#FCEABA"/>
<path d="M267.752 7.57239C267.752 3.39028 271.142 0 275.324 0H290.469C294.651 0 298.042 3.39028 298.042 7.57239V22.7172C298.042 26.8993 294.651 30.2896 290.469 30.2896H275.324C271.142 30.2896 267.752 26.8993 267.752 22.7172V7.57239Z" fill="#FCEABA"/>
<path d="M267.752 68.1515C267.752 63.9694 271.142 60.5791 275.324 60.5791H290.469C294.651 60.5791 298.042 63.9694 298.042 68.1515V83.2963C298.042 87.4784 294.651 90.8687 290.469 90.8687H275.324C271.142 90.8687 267.752 87.4784 267.752 83.2963V68.1515Z" fill="#FCEABA"/>
<path d="M328.332 68.1515C328.332 63.9694 331.722 60.5791 335.904 60.5791H351.049C355.231 60.5791 358.621 63.9694 358.621 68.1515V83.2963C358.621 87.4784 355.231 90.8687 351.049 90.8687H335.904C331.722 90.8687 328.332 87.4784 328.332 83.2963V68.1515Z" fill="#FCEABA"/>
<path d="M267.752 7.57239C267.752 3.39028 271.142 0 275.324 0H290.469C294.651 0 298.042 3.39028 298.042 7.57239V22.7172C298.042 26.8993 294.651 30.2896 290.469 30.2896H275.324C271.142 30.2896 267.752 26.8993 267.752 22.7172V7.57239Z" fill="#F9B9CB"/>
<path d="M328.332 7.57239C328.332 3.39028 331.722 0 335.904 0H351.049C355.231 0 358.621 3.39028 358.621 7.57239V22.7172C358.621 26.8993 355.231 30.2896 351.049 30.2896H335.904C331.722 30.2896 328.332 26.8993 328.332 22.7172V7.57239Z" fill="#F9B9CB"/>
<path d="M-5 37.8619C-5 33.6798 -1.60972 30.2896 2.57239 30.2896H17.7172C21.8993 30.2896 25.2896 33.6798 25.2896 37.8619V53.0067C25.2896 57.1888 21.8993 60.5791 17.7172 60.5791H2.57239C-1.60972 60.5791 -5 57.1888 -5 53.0067V37.8619Z" fill="#D4ECD1"/>
<path d="M-5 98.441C-5 94.2589 -1.60972 90.8687 2.57239 90.8687H17.7172C21.8993 90.8687 25.2896 94.2589 25.2896 98.441V113.586C25.2896 117.768 21.8993 121.158 17.7172 121.158H2.57239C-1.60972 121.158 -5 117.768 -5 113.586V98.441Z" fill="#E7E9F6"/>
<path d="M25.2896 68.1515C25.2896 63.9694 28.6798 60.5791 32.8619 60.5791H48.0067C52.1888 60.5791 55.5791 63.9694 55.5791 68.1515V83.2963C55.5791 87.4784 52.1888 90.8687 48.0067 90.8687H32.8619C28.6798 90.8687 25.2896 87.4784 25.2896 83.2963V68.1515Z" fill="#FCEABA"/>
<path d="M25.2896 7.57239C25.2896 3.39028 28.6798 0 32.8619 0H48.0067C52.1888 0 55.5791 3.39028 55.5791 7.57239V22.7172C55.5791 26.8993 52.1888 30.2896 48.0067 30.2896H32.8619C28.6798 30.2896 25.2896 26.8993 25.2896 22.7172V7.57239Z" fill="#F9B9CB"/>
<path d="M358.621 37.8619C358.621 33.6798 362.011 30.2896 366.193 30.2896H381.338C385.52 30.2896 388.911 33.6798 388.911 37.8619V53.0067C388.911 57.1888 385.52 60.5791 381.338 60.5791H366.193C362.011 60.5791 358.621 57.1888 358.621 53.0067V37.8619Z" fill="#E7E9F6"/>
<path d="M358.621 98.441C358.621 94.2589 362.011 90.8687 366.193 90.8687H381.338C385.52 90.8687 388.911 94.2589 388.911 98.441V113.586C388.911 117.768 385.52 121.158 381.338 121.158H366.193C362.011 121.158 358.621 117.768 358.621 113.586V98.441Z" fill="#D4ECD1"/>
<path d="M388.911 68.1515C388.911 63.9694 392.301 60.5791 396.483 60.5791H411.628C415.81 60.5791 419.2 63.9694 419.2 68.1515V83.2963C419.2 87.4784 415.81 90.8687 411.628 90.8687H396.483C392.301 90.8687 388.911 87.4784 388.911 83.2963V68.1515Z" fill="#F9B9CB"/>
<path d="M388.911 7.57239C388.911 3.39028 392.301 0 396.483 0H411.628C415.81 0 419.2 3.39028 419.2 7.57239V22.7172C419.2 26.8993 415.81 30.2896 411.628 30.2896H396.483C392.301 30.2896 388.911 26.8993 388.911 22.7172V7.57239Z" fill="#FCEABA"/>
</g>
</svg>
