<svg width="19" height="20" viewBox="0 0 19 20" fill="none" xmlns="http://www.w3.org/2000/svg">
<path fill-rule="evenodd" clip-rule="evenodd" d="M14.8909 0.255249C14.4689 0.255249 14.1268 0.597368 14.1268 1.01939V4.4865C14.1268 4.90852 14.4689 5.25064 14.8909 5.25064H15.0246C15.4466 5.25064 15.7888 4.90852 15.7888 4.4865V4.00184C15.7888 3.77236 15.9748 3.58634 16.2043 3.58634C16.4337 3.58634 16.6197 3.77237 16.6197 4.00184V5.31906C16.6197 5.74109 16.2776 6.08321 15.8556 6.08321H2.42612C2.00409 6.08321 1.66197 5.74109 1.66197 5.31906V4.00184C1.66197 3.77237 1.848 3.58634 2.07747 3.58634C2.30694 3.58634 2.49296 3.40032 2.49296 3.17085V2.68536C2.49296 2.26333 2.15084 1.92121 1.72882 1.92121H0.764145C0.34212 1.92121 0 2.26333 0 2.68536V6.08321V7.74834V18.6401C0 19.0621 0.342119 19.4042 0.764144 19.4042H17.5167C17.9388 19.4042 18.2809 19.0621 18.2809 18.6401V2.68536C18.2809 2.26333 17.9388 1.92121 17.5167 1.92121H16.5529C16.1309 1.92121 15.7888 1.57909 15.7888 1.15707V1.01939C15.7888 0.597368 15.4466 0.255249 15.0246 0.255249H14.8909ZM1.66162 16.976C1.66162 17.398 2.00374 17.7401 2.42577 17.7401H15.8552C16.2773 17.7401 16.6194 17.398 16.6194 16.976V8.51268C16.6194 8.09065 16.2773 7.74854 15.8552 7.74854H2.42577C2.00374 7.74854 1.66162 8.09065 1.66162 8.51268V16.976Z" fill="#81C677"/>
</svg>
