<?xml version="1.0" encoding="UTF-8"?>
<svg width="15px" height="16px" viewBox="0 0 15 16" version="1.1" xmlns="http://www.w3.org/2000/svg" xmlns:xlink="http://www.w3.org/1999/xlink">
    <title>4B52B519-31A9-45F0-8FE2-DF93AD82CE11-black</title>
    <g id="primary" stroke="none" stroke-width="1" fill="none" fill-rule="evenodd">
        <g id="homepage-amended" transform="translate(-312.000000, -4890.000000)" fill="#FFFFFF">
            <g id="Group-15" transform="translate(200.000000, 4890.000000)">
                <path d="M120.457462,15.023569 L113.731337,15.023569 C113.303131,15.023569 112.956229,14.6764513 112.956229,14.2484122 L112.956229,1.75490032 C112.956229,1.32675218 113.303186,0.97979798 113.731337,0.97979798 L126.224946,0.97979798 C126.652989,0.97979798 127,1.32675218 127,1.75490032 L127,14.2484122 C127,14.6765058 126.652934,15.023569 126.224946,15.023569 L122.646228,15.023569 L122.646228,9.58504691 L124.471689,9.58504691 L124.745025,7.46555834 L122.646228,7.46555834 L122.646228,6.1123988 C122.646228,5.49875795 122.816627,5.08058196 123.69658,5.08058196 L124.818918,5.08009153 L124.818918,3.18440395 C124.624814,3.15857447 123.958583,3.10086683 123.183474,3.10086683 C121.565305,3.10086683 120.457462,4.08859919 120.457462,5.90249341 L120.457462,7.46555834 L118.627315,7.46555834 L118.627315,9.58504691 L120.457462,9.58504691 L120.457462,15.023569 L120.457462,15.023569 Z" id="Facebook"></path>
            </g>
        </g>
    </g>
</svg>