<svg width="1185" height="1157" viewBox="0 0 1185 1157" fill="none" xmlns="http://www.w3.org/2000/svg">
<path fill-rule="evenodd" clip-rule="evenodd" d="M1120.86 1766.13L1119.98 1772.53L1114.2 1770.98L1115.08 1764.58L1120.86 1766.13ZM1038.09 1743.96L1037.21 1750.36L1031.43 1748.81L1032.31 1742.41L1038.09 1743.96ZM955.317 1721.78L954.435 1728.18L948.651 1726.63L949.533 1720.23L955.317 1721.78ZM789.612 1677.53L788.772 1683.63L783.263 1682.15L784.103 1676.06L789.612 1677.53ZM872.226 1699.83L871.428 1705.62L866.195 1704.22L866.993 1698.42L872.226 1699.83ZM706.519 1655.59L705.763 1661.07L700.806 1659.74L701.562 1654.26L706.519 1655.59ZM623.747 1633.41L622.991 1638.89L618.033 1637.56L618.788 1632.08L623.747 1633.41ZM540.973 1611.23L540.217 1616.71L535.26 1615.38L536.015 1609.9L540.973 1611.23ZM458.041 1589.16L457.327 1594.34L452.643 1593.09L453.357 1587.91L458.041 1589.16ZM375.107 1567.1L374.435 1571.98L370.029 1570.79L370.701 1565.92L375.107 1567.1ZM292.175 1545.03L291.545 1549.61L287.414 1548.5L288.044 1543.93L292.175 1545.03ZM209.243 1522.97L208.656 1527.24L204.799 1526.21L205.387 1521.94L209.243 1522.97ZM126.311 1500.91L125.765 1504.87L122.184 1503.91L122.73 1499.95L126.311 1500.91ZM43.3778 1478.84L42.8738 1482.5L39.5688 1481.62L40.0728 1477.96L43.3778 1478.84ZM1343.71 285.41L1337.28 332.041L1296.17 321.026L1290.17 364.615L1332.52 375.964L1325.71 425.338L1284.74 414.359L1279.13 455.052L1321.48 466.401L1314.26 518.823L1273.15 507.806L1267.92 545.758L1310.14 557.07L1302.58 611.93L1261.74 600.988L1256.87 636.348L1298.95 647.624L1291.01 705.226L1250.04 694.247L1245.54 726.864L1287.76 738.175L1279.44 798.522L1238.47 787.542L1234.33 817.569L1276.41 828.845L1267.76 891.628L1226.79 880.649L1222.98 908.238L1265.06 919.512L1256.07 984.735L1215.1 973.755L1211.61 999.059L1253.55 1010.3L1244.27 1077.65L1203.3 1066.67L1200.11 1089.84L1241.7 1100.99L1244.8 1078.51L1265.46 1084.04L1262.31 1106.9L1241.99 1101.46L1232.54 1170.04L1253 1175.52L1249.81 1198.68L1230.32 1193.46L1220.95 1261.43L1240.86 1266.77L1237.54 1290.84L1218.74 1285.8L1209.5 1352.86L1228.71 1358.01L1225.27 1383L1206.88 1378.08L1197.71 1444.68L1216.1 1449.6L1212.65 1474.6L1194.4 1469.71L1185.27 1536L1203.8 1540.97L1200.27 1566.57L1181.74 1561.6L1172.61 1627.9L1190.86 1632.79L1187.42 1657.78L1169.17 1652.89L1159.8 1720.86L1176.81 1725.42L1173.75 1747.67L1153.64 1742.28L1156.23 1723.46L1112.57 1711.76L1107.08 1751.61L1048.97 1736.04L1054.35 1696.95L1029.56 1690.31L1024.19 1729.25L966.351 1713.75L971.715 1674.81L946.645 1668.09L941.303 1706.88L883.737 1691.45L889.184 1651.9L863.288 1644.96L857.945 1683.75L801.756 1668.7L807.289 1628.54L779.6 1621.12L774.237 1660.06L720.252 1645.59L725.805 1605.28L696.052 1597.31L690.646 1636.55L638.59 1622.6L644.185 1581.99L612.503 1573.5L607.055 1613.05L556.927 1599.62L562.563 1558.7L529.093 1549.73L523.581 1589.73L475.105 1576.75L480.826 1535.22L445.152 1525.66L439.641 1565.66L393.918 1553.41L399.639 1511.88L361.623 1501.7L356.049 1542.16L312.255 1530.42L318.061 1488.28L277.703 1477.47L272.108 1518.09L231.069 1507.09L236.895 1464.8L193.785 1453.25L188.169 1494.02L149.883 1483.76L155.72 1441.39L192.561 1451.26L198.881 1405.39L161.829 1395.46L155.541 1441.1L111.472 1429.3L118.032 1381.67L78.2988 1371.02L84.5131 1325.92L125.277 1336.84L119.22 1380.81L159.439 1391.58L165.549 1347.23L125.677 1336.55L131.976 1290.83L173.224 1301.88L179.555 1255.93L220.803 1266.99L227.133 1221.04L268.383 1232.09L274.713 1186.14L315.962 1197.2L322.292 1151.25L363.541 1162.3L369.871 1116.35L411.12 1127.4L417.439 1081.53L377.569 1070.85L383.657 1026.65L423.595 1037.35L417.516 1081.47L458.7 1092.51L464.978 1046.94L425.106 1036.25L431.236 991.755L471.45 1002.53L465.372 1046.65L506.279 1057.61L512.515 1012.35L472.643 1001.66L478.815 956.86L519.304 967.709L513.226 1011.83L553.858 1022.72L560.052 977.754L520.18 967.071L526.394 921.963L567.159 932.886L561.081 977.006L601.437 987.82L607.589 943.163L567.718 932.48L573.974 887.068L615.014 898.065L608.935 942.185L648.878 952.887L654.988 908.535L615.255 897.889L621.553 852.172L662.664 863.187L669.015 817.086L710.264 828.138L716.594 782.191L757.844 793.243L764.174 747.296L805.423 758.348L811.753 712.399L853.001 723.451L859.332 677.503L900.581 688.554L906.858 642.984L866.988 632.302L873.118 587.803L913.331 598.578L907.252 642.698L948.161 653.659L954.397 608.392L914.525 597.71L920.697 552.907L961.186 563.756L955.107 607.876L995.74 618.763L1001.93 573.802L962.062 563.119L968.276 518.012L1009.04 528.934L1002.96 573.054L1043.32 583.868L1049.47 539.211L1009.6 528.528L1015.85 483.115L1056.89 494.112L1050.81 538.231L1090.9 548.971L1097.01 504.62L1057.14 493.937L1063.43 448.22L1104.68 459.272L1111.01 413.324L1152.12 424.339L1158.48 378.239L1199.72 389.291L1206.06 343.343L1247.3 354.395L1253.64 308.447L1295.3 319.61L1301.56 274.118L1343.71 285.41ZM109.644 1430.63L104.227 1469.94L68.6958 1460.42L74.1123 1421.1L109.644 1430.63ZM12.7444 1418.73L11.0649 1430.92L0.0476124 1427.96L1.7271 1415.77L12.7444 1418.73ZM279.888 1428.99L246.003 1419.91L240.144 1462.43L274.03 1471.51L279.888 1428.99ZM76.9465 1372.01L70.9002 1415.9L31.2375 1405.27L37.2838 1361.38L76.9465 1372.01ZM360.916 1452.44L330.06 1444.17L324.643 1483.49L355.499 1491.76L360.916 1452.44ZM442.103 1475.77L414.139 1468.28L409.079 1505.01L437.042 1512.5L442.103 1475.77ZM523.267 1499.26L498.06 1492.5L493.44 1526.04L518.648 1532.79L523.267 1499.26ZM604.592 1522.63L582.002 1516.58L577.718 1547.67L600.309 1553.72L604.592 1522.63ZM685.937 1545.85L665.825 1540.46L661.878 1569.12L681.989 1574.5L685.937 1545.85ZM767.282 1569.07L749.649 1564.34L746.037 1590.56L763.671 1595.28L767.282 1569.07ZM848.628 1592.29L833.474 1588.23L830.219 1611.85L845.374 1615.91L848.628 1592.29ZM930.524 1615.65L917.297 1612.11L914.337 1633.6L927.564 1637.14L930.524 1615.65ZM1013.21 1638.44L1000.68 1635.08L997.82 1655.81L1010.36 1659.17L1013.21 1638.44ZM1096.68 1660.8L1083.45 1657.26L1080.61 1677.84L1093.84 1681.38L1096.68 1660.8ZM246.418 1370.8L209.642 1360.94L204.036 1401.64L240.811 1411.49L246.418 1370.8ZM327.424 1394.4L293.816 1385.39L288.693 1422.58L322.301 1431.59L327.424 1394.4ZM408.59 1417.88L377.874 1409.65L373.212 1443.49L403.929 1451.72L408.59 1417.88ZM489.639 1441.18L461.814 1433.73L457.573 1464.51L485.397 1471.97L489.639 1441.18ZM570.804 1464.67L545.872 1457.99L542.071 1485.58L567.004 1492.26L570.804 1464.67ZM652.129 1488.04L629.813 1482.06L626.411 1506.75L648.727 1512.73L652.129 1488.04ZM733.495 1511.1L713.658 1505.79L710.613 1527.89L730.45 1533.21L733.495 1511.1ZM814.82 1534.47L797.462 1529.82L794.816 1549.03L812.174 1553.68L814.82 1534.47ZM1167.61 1631.54L1131.25 1621.79L1129.13 1637.19L1165.49 1646.93L1167.61 1631.54ZM896.165 1557.69L881.286 1553.71L879.018 1570.17L893.896 1574.16L896.165 1557.69ZM978.22 1580.94L965.132 1577.44L963.136 1591.92L976.224 1595.43L978.22 1580.94ZM1060.91 1603.73L1048.37 1600.37L1046.46 1614.25L1059 1617.61L1060.91 1603.73ZM25.5222 1327.02L23.8007 1339.51L12.5073 1336.49L14.2289 1323.99L25.5222 1327.02ZM213.086 1312.64L173.28 1301.97L167.212 1346.02L207.018 1356.69L213.086 1312.64ZM87.8189 1281.69L82.2345 1322.22L45.6016 1312.41L51.186 1271.87L87.8189 1281.69ZM293.955 1336.2L257.454 1326.42L251.89 1366.81L288.391 1376.59L293.955 1336.2ZM374.961 1359.81L341.628 1350.88L336.547 1387.76L369.88 1396.69L374.961 1359.81ZM456.127 1383.29L425.686 1375.14L421.045 1408.82L451.487 1416.98L456.127 1383.29ZM537.176 1406.59L509.628 1399.21L505.428 1429.69L532.976 1437.07L537.176 1406.59ZM618.342 1430.08L593.686 1423.47L589.927 1450.75L614.583 1457.36L618.342 1430.08ZM699.825 1453.33L677.646 1447.39L674.266 1471.93L696.445 1477.87L699.825 1453.33ZM781.032 1476.51L761.334 1471.24L758.331 1493.03L778.029 1498.31L781.032 1476.51ZM862.357 1499.88L845.274 1495.31L842.67 1514.21L859.753 1518.79L862.357 1499.88ZM943.861 1522.99L929.119 1519.04L926.872 1535.35L941.613 1539.3L943.861 1522.99ZM1025.89 1546.39L1012.81 1542.88L1010.83 1557.21L1023.92 1560.72L1025.89 1546.39ZM1109.29 1569.21L1096.07 1565.67L1094.16 1579.54L1107.38 1583.08L1109.29 1569.21ZM260.623 1278.05L221.093 1267.46L215.067 1311.2L254.597 1321.79L260.623 1278.05ZM136.151 1246.52L130.398 1288.27L92.6631 1278.16L98.4155 1236.4L136.151 1246.52ZM341.493 1301.61L305.267 1291.91L299.744 1331.99L335.971 1341.7L341.493 1301.61ZM422.499 1325.21L389.442 1316.36L384.403 1352.94L417.459 1361.79L422.499 1325.21ZM503.664 1348.7L473.499 1340.62L468.901 1374L499.066 1382.08L503.664 1348.7ZM584.714 1372L557.439 1364.69L553.281 1394.87L580.556 1402.18L584.714 1372ZM666.017 1395.52L641.498 1388.95L637.781 1415.93L662.3 1422.5L666.017 1395.52ZM747.362 1418.74L725.322 1412.84L721.963 1437.22L744.003 1443.13L747.362 1418.74ZM828.57 1441.92L809.146 1436.72L806.185 1458.21L825.609 1463.41L828.57 1441.92ZM910.052 1465.18L893.108 1460.64L890.525 1479.39L907.469 1483.93L910.052 1465.18ZM1179.95 1539.87L1143.87 1530.2L1141.75 1545.6L1177.83 1555.26L1179.95 1539.87ZM991.399 1488.4L976.794 1484.48L974.568 1500.64L989.172 1504.56L991.399 1488.4ZM1073.57 1511.84L1060.62 1508.37L1058.67 1522.54L1071.62 1526.01L1073.57 1511.84ZM37.6637 1235.77L36.0682 1247.35L25.6011 1244.55L27.1966 1232.97L37.6637 1235.77ZM184.163 1211.58L178.327 1253.94L140.041 1243.69L145.878 1201.32L184.163 1211.58ZM308.161 1243.46L268.905 1232.94L262.921 1276.38L302.176 1286.9L308.161 1243.46ZM389.03 1267.02L353.08 1257.39L347.599 1297.17L383.55 1306.8L389.03 1267.02ZM98.6912 1191.36L93.5687 1228.55L59.9657 1219.54L65.0883 1182.36L98.6912 1191.36ZM470.037 1290.62L437.255 1281.84L432.257 1318.11L465.04 1326.9L470.037 1290.62ZM551.202 1314.11L521.312 1306.1L516.756 1339.18L546.645 1347.18L551.202 1314.11ZM632.251 1337.41L605.252 1330.17L601.137 1360.05L628.136 1367.28L632.251 1337.41ZM713.575 1360.78L689.331 1354.28L685.614 1381.26L709.858 1387.76L713.575 1360.78ZM794.9 1384.15L773.135 1378.32L769.817 1402.4L791.582 1408.23L794.9 1384.15ZM876.244 1407.37L856.958 1402.2L854.039 1423.39L873.326 1428.56L876.244 1407.37ZM957.589 1430.59L940.783 1426.08L938.221 1444.68L955.027 1449.18L957.589 1430.59ZM1038.93 1453.81L1024.61 1449.97L1022.42 1465.82L1036.75 1469.66L1038.93 1453.81ZM1121.95 1477.31L1108.45 1473.7L1106.5 1487.88L1120 1491.49L1121.95 1477.31ZM232.018 1176.76L226.14 1219.43L187.578 1209.09L193.457 1166.42L232.018 1176.76ZM355.698 1208.87L316.718 1198.42L310.776 1241.55L349.756 1252L355.698 1208.87ZM147.022 1156.19L141.731 1194.6L107.027 1185.3L112.318 1146.9L147.022 1156.19ZM436.566 1232.43L400.892 1222.87L395.454 1262.35L431.128 1271.91L436.566 1232.43ZM517.574 1256.03L485.067 1247.32L480.112 1283.29L512.619 1292L517.574 1256.03ZM598.74 1279.52L569.125 1271.58L564.61 1304.35L594.225 1312.29L598.74 1279.52ZM679.926 1302.85L653.065 1295.66L648.992 1325.23L675.852 1332.42L679.926 1302.85ZM761.112 1326.19L737.006 1319.73L733.331 1346.4L757.437 1352.86L761.112 1326.19ZM842.436 1349.56L820.947 1343.8L817.671 1367.58L839.16 1373.34L842.436 1349.56ZM923.783 1372.78L904.771 1367.68L901.873 1388.72L920.885 1393.81L923.783 1372.78ZM1005.13 1396L988.595 1391.57L986.075 1409.86L1002.61 1414.29L1005.13 1396ZM1192.87 1448.2L1156.23 1438.38L1154.09 1453.93L1190.73 1463.75L1192.87 1448.2ZM1086.61 1419.25L1072.42 1415.45L1070.28 1431L1084.47 1434.8L1086.61 1419.25ZM49.8062 1144.53L48.3367 1155.19L38.6958 1152.61L40.1654 1141.94L49.8062 1144.53ZM279.872 1141.93L273.952 1184.91L235.116 1174.5L241.036 1131.53L279.872 1141.93ZM403.234 1174.28L364.53 1163.9L358.63 1206.73L397.334 1217.1L403.234 1174.28ZM194.877 1121.37L189.544 1160.08L154.564 1150.71L159.896 1112L194.877 1121.37ZM484.105 1197.84L448.705 1188.35L443.309 1227.52L478.708 1237.01L484.105 1197.84ZM565.111 1221.44L532.88 1212.81L527.967 1248.47L560.198 1257.11L565.111 1221.44ZM109.405 1101.16L104.786 1134.68L74.4882 1126.56L79.1069 1093.04L109.405 1101.16ZM646.276 1244.93L616.937 1237.07L612.464 1269.53L641.803 1277.39L646.276 1244.93ZM727.462 1268.26L700.877 1261.14L696.825 1290.56L723.41 1297.68L727.462 1268.26ZM808.649 1291.6L784.818 1285.21L781.186 1311.58L805.017 1317.96L808.649 1291.6ZM889.974 1314.97L868.759 1309.28L865.525 1332.76L886.74 1338.44L889.974 1314.97ZM971.32 1338.19L952.584 1333.17L949.728 1353.9L968.464 1358.92L971.32 1338.19ZM1052.66 1361.4L1036.41 1357.05L1033.93 1375.04L1050.19 1379.39L1052.66 1361.4ZM1134.84 1384.84L1120.23 1380.93L1118.11 1396.33L1132.71 1400.24L1134.84 1384.84ZM327.727 1107.11L321.765 1150.39L282.653 1139.91L288.616 1096.63L327.727 1107.11ZM450.772 1139.68L412.344 1129.39L406.485 1171.91L444.914 1182.21L450.772 1139.68ZM242.731 1086.55L237.357 1125.56L202.101 1116.12L207.475 1077.1L242.731 1086.55ZM531.642 1163.25L496.519 1153.84L491.164 1192.7L526.287 1202.11L531.642 1163.25ZM157.736 1065.99L152.949 1100.73L121.55 1092.32L126.336 1057.58L157.736 1065.99ZM612.648 1186.85L580.692 1178.29L575.821 1213.65L607.777 1222.21L612.648 1186.85ZM693.813 1210.34L664.75 1202.55L660.319 1234.71L689.382 1242.5L693.813 1210.34ZM775 1233.67L748.691 1226.62L744.68 1255.73L770.989 1262.78L775 1233.67ZM856.186 1257.01L832.631 1250.69L829.04 1276.76L852.596 1283.07L856.186 1257.01ZM937.532 1280.22L916.593 1274.61L913.38 1297.94L934.319 1303.55L937.532 1280.22ZM1018.88 1303.44L1000.42 1298.5L997.583 1319.07L1016.04 1324.02L1018.88 1303.44ZM1100.2 1326.81L1084.22 1322.53L1081.78 1340.21L1097.77 1344.5L1100.2 1326.81ZM1205.61 1355.69L1168.15 1345.65L1165.86 1362.27L1203.33 1372.31L1205.61 1355.69ZM61.7894 1053.39L60.4878 1062.84L51.9492 1060.55L53.2509 1051.11L61.7894 1053.39ZM375.581 1072.29L369.577 1115.87L330.19 1105.32L336.195 1061.74L375.581 1072.29ZM498.309 1105.09L460.156 1094.87L454.34 1137.09L492.493 1147.31L498.309 1105.09ZM290.745 1051.61L285.286 1091.23L249.48 1081.64L254.938 1042.02L290.745 1051.61ZM579.179 1128.66L544.33 1119.32L539.018 1157.88L573.866 1167.22L579.179 1128.66ZM205.591 1031.17L200.762 1066.22L169.087 1057.73L173.915 1022.68L205.591 1031.17ZM660.185 1152.26L628.504 1143.77L623.675 1178.83L655.356 1187.32L660.185 1152.26ZM741.351 1175.75L712.562 1168.03L708.174 1199.89L736.962 1207.6L741.351 1175.75ZM120.118 1010.95L116.003 1040.82L89.0109 1033.59L93.1257 1003.72L120.118 1010.95ZM822.538 1199.08L796.504 1192.1L792.535 1220.91L818.569 1227.89L822.538 1199.08ZM903.861 1222.45L880.445 1216.18L876.896 1241.94L900.313 1248.21L903.861 1222.45ZM985.207 1245.67L964.268 1240.06L961.097 1263.08L982.036 1268.69L985.207 1245.67ZM1066.41 1268.85L1048.09 1263.94L1045.3 1284.22L1063.62 1289.13L1066.41 1268.85ZM1148.45 1292.25L1132.05 1287.86L1129.64 1305.39L1146.03 1309.79L1148.45 1292.25ZM545.846 1070.5L507.97 1060.35L502.196 1102.26L540.072 1112.41L545.846 1070.5ZM338.599 1016.79L333.098 1056.72L297.016 1047.05L302.517 1007.12L338.599 1016.79ZM626.716 1094.07L592.143 1084.8L586.872 1123.06L621.445 1132.32L626.716 1094.07ZM253.604 996.228L248.692 1031.89L216.465 1023.25L221.378 987.593L253.604 996.228ZM707.723 1117.67L676.318 1109.25L671.53 1144.01L702.935 1152.42L707.723 1117.67ZM168.45 975.781L164.167 1006.87L136.072 999.34L140.355 968.253L168.45 975.781ZM788.909 1141L760.396 1133.36L756.029 1165.07L784.542 1172.71L788.909 1141ZM870.075 1164.49L844.316 1157.59L840.39 1186.09L866.148 1192.99L870.075 1164.49ZM951.399 1187.86L928.256 1181.66L924.728 1207.27L947.871 1213.47L951.399 1187.86ZM1032.74 1211.08L1012.08 1205.54L1008.93 1228.41L1029.59 1233.94L1032.74 1211.08ZM1114.09 1234.3L1095.9 1229.42L1093.15 1249.39L1111.34 1254.27L1114.09 1234.3ZM1218.81 1262.99L1179.83 1252.55L1177.25 1271.3L1216.23 1281.74L1218.81 1262.99ZM73.931 962.149L72.7553 970.683L65.043 968.616L66.2187 960.082L73.931 962.149ZM386.455 981.969L380.912 1022.2L344.554 1012.46L350.097 972.227L386.455 981.969ZM593.383 1035.91L555.781 1025.83L550.049 1067.44L587.651 1077.52L593.383 1035.91ZM674.253 1059.48L639.955 1050.29L634.727 1088.24L669.024 1097.43L674.253 1059.48ZM301.458 961.407L296.504 997.37L264.002 988.661L268.957 952.698L301.458 961.407ZM755.398 1083.11L724.13 1074.74L719.385 1109.18L750.652 1117.56L755.398 1083.11ZM216.304 940.959L211.98 972.351L183.609 964.749L187.934 933.358L216.304 940.959ZM836.446 1106.41L808.071 1098.81L803.745 1130.21L832.121 1137.81L836.446 1106.41ZM917.612 1129.9L892.129 1123.07L888.244 1151.27L913.727 1158.1L917.612 1129.9ZM130.832 920.745L127.221 946.955L103.533 940.608L107.144 914.397L130.832 920.745ZM998.936 1153.27L976.069 1147.14L972.584 1172.44L995.45 1178.57L998.936 1153.27ZM1080.28 1176.49L1059.89 1171.02L1056.79 1193.59L1077.17 1199.05L1080.28 1176.49ZM1162.32 1199.89L1143.72 1194.91L1140.99 1214.72L1159.59 1219.71L1162.32 1199.89ZM434.309 947.146L428.724 987.683L392.091 977.867L397.676 937.33L434.309 947.146ZM640.922 1001.32L603.594 991.317L597.903 1032.62L635.231 1042.62L640.922 1001.32ZM349.313 926.583L344.317 962.853L311.54 954.071L316.537 917.801L349.313 926.583ZM721.769 1025.04L687.747 1015.92L682.582 1053.41L716.604 1062.53L721.769 1025.04ZM802.935 1048.52L771.942 1040.22L767.218 1074.51L798.21 1082.82L802.935 1048.52ZM264.158 906.138L259.792 937.834L231.146 930.159L235.513 898.462L264.158 906.138ZM883.985 1071.82L855.884 1064.29L851.6 1095.39L879.701 1102.91L883.985 1071.82ZM179.004 885.69L175.267 912.816L150.753 906.248L154.49 879.122L179.004 885.69ZM965.148 1095.31L939.942 1088.55L936.099 1116.45L961.306 1123.2L965.148 1095.31ZM1046.47 1118.68L1023.88 1112.62L1020.44 1137.62L1043.03 1143.67L1046.47 1118.68ZM1127.84 1141.74L1107.73 1136.35L1104.64 1158.76L1124.75 1164.15L1127.84 1141.74ZM1231.99 1170.44L1191.64 1159.63L1188.74 1180.66L1229.09 1191.48L1231.99 1170.44ZM85.914 871.018L84.9064 878.333L78.2964 876.561L79.304 869.247L85.914 871.018ZM482.322 912.209L476.654 953.354L439.47 943.39L445.138 902.246L482.322 912.209ZM688.3 966.844L651.386 956.953L645.759 997.799L682.672 1007.69L688.3 966.844ZM397.327 891.648L392.246 928.525L358.919 919.595L363.999 882.717L397.327 891.648ZM769.305 990.446L735.698 981.44L730.574 1018.63L764.182 1027.63L769.305 990.446ZM850.472 1013.93L819.755 1005.7L815.072 1039.69L845.789 1047.92L850.472 1013.93ZM312.172 871.199L307.721 903.506L278.526 895.683L282.977 863.376L312.172 871.199ZM931.522 1037.23L903.696 1029.77L899.455 1060.56L927.28 1068.02L931.522 1037.23ZM227.018 850.754L223.197 878.487L198.133 871.771L201.954 844.038L227.018 850.754ZM1012.69 1060.72L987.754 1054.03L983.953 1081.62L1008.89 1088.3L1012.69 1060.72ZM1094.17 1083.97L1071.72 1077.95L1068.29 1102.8L1090.75 1108.82L1094.17 1083.97ZM141.546 830.537L138.439 853.091L118.057 847.63L121.164 825.075L141.546 830.537ZM1176.07 1107.34L1155.4 1101.8L1152.36 1123.9L1173.02 1129.44L1176.07 1107.34ZM530.176 877.388L524.466 918.837L487.007 908.799L492.717 867.35L530.176 877.388ZM735.837 932.253L699.335 922.472L693.771 962.861L730.273 972.641L735.837 932.253ZM445.181 856.824L440.059 894.007L406.456 885.003L411.578 847.82L445.181 856.824ZM816.843 955.854L783.51 946.922L778.429 983.807L811.762 992.738L816.843 955.854ZM360.027 836.377L355.534 868.989L326.063 861.092L330.555 828.481L360.027 836.377ZM898.009 979.341L867.568 971.184L862.927 1004.87L893.369 1013.02L898.009 979.341ZM979.058 1002.64L951.51 995.256L947.31 1025.74L974.858 1033.12L979.058 1002.64ZM274.872 815.93L271.009 843.97L245.67 837.18L249.533 809.14L274.872 815.93ZM1060.36 1026.16L1035.57 1019.52L1031.81 1046.8L1056.6 1053.45L1060.36 1026.16ZM1141.71 1049.38L1119.39 1043.4L1115.99 1068.09L1138.3 1074.07L1141.71 1049.38ZM189.717 795.484L186.484 818.952L165.276 813.269L168.509 789.802L189.717 795.484ZM97.898 779.888L97.0583 785.984L91.5497 784.508L92.3894 778.412L97.898 779.888ZM702.504 874.096L662.837 863.467L656.81 907.21L696.478 917.839L702.504 874.096ZM578.031 842.564L572.279 884.319L534.545 874.209L540.297 832.453L578.031 842.564ZM783.374 897.662L747.148 887.955L741.626 928.039L777.852 937.746L783.374 897.662ZM493.035 822.002L487.871 859.49L453.993 850.412L459.157 812.924L493.035 822.002ZM864.381 921.263L831.323 912.405L826.284 948.985L859.341 957.843L864.381 921.263ZM407.881 801.556L403.346 834.472L373.6 826.501L378.134 793.585L407.881 801.556ZM945.546 944.75L915.381 936.667L910.783 970.045L940.948 978.128L945.546 944.75ZM1026.59 968.046L999.321 960.738L995.163 990.918L1022.44 998.226L1026.59 968.046ZM322.727 781.108L318.822 809.453L293.207 802.589L297.112 774.245L322.727 781.108ZM1107.92 991.418L1083.4 984.848L1079.64 1012.13L1104.16 1018.7L1107.92 991.418ZM237.572 760.663L234.297 784.435L212.814 778.679L216.089 754.906L237.572 760.663ZM1189.79 1014.94L1167.2 1008.88L1163.84 1033.27L1186.43 1039.32L1189.79 1014.94ZM152.419 740.215L149.773 759.416L132.421 754.767L135.066 735.566L152.419 740.215ZM625.886 807.743L620.092 849.802L582.082 839.618L587.876 797.558L625.886 807.743ZM750.042 839.505L710.787 828.986L704.802 872.425L744.058 882.944L750.042 839.505ZM830.912 863.07L794.962 853.437L789.481 893.217L825.432 902.85L830.912 863.07ZM541.049 787.064L535.8 825.163L501.371 815.937L506.619 777.839L541.049 787.064ZM911.918 886.672L879.136 877.888L874.139 914.164L906.92 922.947L911.918 886.672ZM455.895 766.618L451.276 800.144L420.978 792.026L425.597 758.5L455.895 766.618ZM993.083 910.16L963.193 902.151L958.637 935.224L988.527 943.233L993.083 910.16ZM370.74 746.17L366.751 775.125L340.585 768.114L344.574 739.159L370.74 746.17ZM1074.27 933.492L1047.13 926.221L1043.02 956.096L1070.15 963.367L1074.27 933.492ZM1155.46 956.826L1131.07 950.293L1127.36 977.273L1151.74 983.806L1155.46 956.826ZM285.586 725.724L282.227 750.106L260.193 744.202L263.552 719.82L285.586 725.724ZM1277.76 992.683L1274.69 1014.93L1254.59 1009.54L1257.65 987.295L1277.76 992.683ZM200.431 705.276L197.702 725.088L179.799 720.291L182.528 700.479L200.431 705.276ZM110.04 688.641L109.326 693.824L104.643 692.569L105.357 687.387L110.04 688.641ZM673.899 772.805L668.021 815.473L629.46 805.141L635.339 762.472L673.899 772.805ZM797.579 804.915L758.599 794.47L752.657 837.601L791.637 848.046L797.579 804.915ZM588.904 752.243L583.613 790.646L548.908 781.346L554.198 742.944L588.904 752.243ZM878.449 828.478L842.774 818.919L837.335 858.396L873.011 867.955L878.449 828.478ZM959.456 852.081L926.95 843.371L921.994 879.341L954.5 888.051L959.456 852.081ZM503.75 731.795L499.089 765.626L468.516 757.434L473.177 723.603L503.75 731.795ZM1040.64 875.415L1011.03 867.48L1006.49 900.403L1036.11 908.338L1040.64 875.415ZM418.595 711.349L414.564 740.608L388.122 733.523L392.153 704.264L418.595 711.349ZM1121.81 898.902L1094.95 891.705L1090.85 921.427L1117.71 928.624L1121.81 898.902ZM1203.54 922.384L1178.89 915.777L1175.21 942.45L1199.87 949.057L1203.54 922.384ZM333.441 690.903L330.04 715.589L307.73 709.611L311.13 684.924L333.441 690.903ZM248.445 670.341L245.632 690.76L227.178 685.816L229.991 665.396L248.445 670.341ZM163.132 650.01L160.991 665.552L146.944 661.789L149.085 646.246L163.132 650.01ZM721.754 737.982L715.834 780.956L676.997 770.55L682.918 727.576L721.754 737.982ZM845.117 770.324L806.412 759.953L800.512 802.779L839.217 813.15L845.117 770.324ZM636.759 717.42L631.426 756.127L596.446 746.754L601.778 708.048L636.759 717.42ZM925.985 793.887L890.587 784.402L885.191 823.572L920.589 833.057L925.985 793.887ZM1007.15 817.375L974.782 808.701L969.847 844.519L1002.22 853.192L1007.15 817.375ZM551.605 696.974L546.902 731.109L516.053 722.843L520.756 688.708L551.605 696.974ZM1088.18 840.824L1058.7 832.926L1054.21 865.544L1083.69 873.443L1088.18 840.824ZM466.449 676.526L462.376 706.09L435.659 698.931L439.732 669.367L466.449 676.526ZM1169.34 864.31L1142.76 857.186L1138.71 886.605L1165.29 893.728L1169.34 864.31ZM381.295 656.08L377.852 681.072L355.266 675.02L358.71 650.028L381.295 656.08ZM1289.9 901.436L1286.96 922.771L1267.68 917.605L1270.62 896.27L1289.9 901.436ZM296.3 635.517L293.445 656.242L274.715 651.224L277.57 630.499L296.3 635.517ZM211.305 614.956L209.037 631.413L194.164 627.428L196.431 610.97L211.305 614.956ZM122.023 597.511L121.477 601.473L117.897 600.514L118.443 596.552L122.023 597.511ZM769.608 703.16L763.646 746.439L724.534 735.959L730.497 692.681L769.608 703.16ZM892.653 735.731L854.225 725.435L848.367 767.957L886.795 778.254L892.653 735.731ZM684.614 682.598L679.239 721.61L643.983 712.163L649.357 673.151L684.614 682.598ZM973.66 759.334L938.399 749.886L933.045 788.75L968.306 798.199L973.66 759.334ZM599.617 662.036L594.831 696.781L563.432 688.367L568.218 653.623L599.617 662.036ZM1054.67 782.935L1022.44 774.299L1017.54 809.813L1049.77 818.45L1054.67 782.935ZM1135.72 806.233L1106.51 798.408L1102.06 830.721L1131.26 838.546L1135.72 806.233ZM514.463 641.589L510.306 671.763L483.038 664.456L487.194 634.283L514.463 641.589ZM1217.43 829.866L1190.57 822.669L1186.56 851.782L1213.42 858.979L1217.43 829.866ZM429.309 621.142L425.782 646.744L402.645 640.544L406.172 614.943L429.309 621.142ZM344.154 600.696L341.257 621.725L322.252 616.633L325.149 595.603L344.154 600.696ZM259.158 580.134L256.849 596.896L241.701 592.837L244.01 576.075L259.158 580.134ZM174.163 559.571L172.442 572.068L161.148 569.042L162.87 556.545L174.163 559.571ZM817.462 668.338L811.458 711.922L772.071 701.368L778.076 657.784L817.462 668.338ZM940.191 701.14L902.038 690.917L896.222 733.135L934.375 743.359L940.191 701.14ZM732.467 647.776L727.05 687.093L691.52 677.573L696.936 638.256L732.467 647.776ZM1021.06 724.705L986.212 715.368L980.879 754.081L1015.73 763.419L1021.06 724.705ZM647.473 627.214L642.644 662.264L610.969 653.776L615.797 618.726L647.473 627.214ZM1102.2 748.344L1070.39 739.818L1065.54 775.027L1097.35 783.553L1102.2 748.344ZM1183.25 771.642L1154.33 763.891L1149.92 795.897L1178.84 803.648L1183.25 771.642ZM562.318 606.767L558.119 637.245L530.576 629.864L534.775 599.387L562.318 606.767ZM477.164 586.321L473.595 612.227L450.183 605.954L453.752 580.048L477.164 586.321ZM392.009 565.873L389.07 587.208L369.789 582.042L372.728 560.707L392.009 565.873ZM1302.04 810.19L1299.23 830.61L1280.78 825.665L1283.59 805.246L1302.04 810.19ZM307.014 545.311L304.662 562.379L289.238 558.246L291.589 541.178L307.014 545.311ZM222.176 524.633L220.37 537.738L208.527 534.565L210.332 521.46L222.176 524.633ZM134.165 506.265L133.746 509.313L130.991 508.574L131.411 505.527L134.165 506.265ZM865.318 633.516L859.272 677.405L819.609 666.777L825.656 622.889L865.318 633.516ZM987.728 666.549L949.851 656.4L944.077 698.314L981.954 708.463L987.728 666.549ZM780.48 612.839L774.98 652.765L738.898 643.097L744.399 603.171L780.48 612.839ZM1068.6 690.114L1034.02 680.851L1028.75 719.107L1063.33 728.371L1068.6 690.114ZM695.327 592.392L690.456 627.746L658.506 619.185L663.376 583.831L695.327 592.392ZM1149.74 713.753L1118.2 705.301L1113.39 740.205L1144.93 748.657L1149.74 713.753ZM610.331 571.829L606.049 602.917L577.954 595.389L582.237 564.301L610.331 571.829ZM1231.34 737.198L1202.14 729.374L1197.77 761.077L1226.97 768.901L1231.34 737.198ZM525.018 551.498L521.407 577.71L497.72 571.363L501.331 545.151L525.018 551.498ZM440.023 530.935L436.999 552.88L417.168 547.566L420.191 525.621L440.023 530.935ZM354.868 510.489L352.474 527.861L336.775 523.654L339.168 506.282L354.868 510.489ZM270.031 489.812L268.183 503.221L256.065 499.974L257.912 486.565L270.031 489.812ZM185.353 469.018L184.009 478.771L175.195 476.409L176.539 466.657L185.353 469.018ZM828.337 578.016L822.794 618.247L786.436 608.505L791.979 568.274L828.337 578.016ZM1035.27 631.958L997.663 621.883L991.931 663.492L1029.53 673.568L1035.27 631.958ZM1116.13 655.523L1081.84 646.333L1076.61 684.284L1110.91 693.474L1116.13 655.523ZM743.34 557.454L738.386 593.419L705.884 584.71L710.839 548.745L743.34 557.454ZM1197.3 679.011L1166.03 670.633L1161.25 705.383L1192.51 713.761L1197.3 679.011ZM658.186 537.007L653.861 568.4L625.491 560.798L629.816 529.405L658.186 537.007ZM573.031 516.561L569.336 543.382L545.098 536.887L548.793 510.067L573.031 516.561ZM487.877 496.114L484.811 518.363L464.705 512.975L467.77 490.726L487.877 496.114ZM1314.19 718.944L1311.5 738.45L1293.87 733.727L1296.56 714.22L1314.19 718.944ZM402.881 475.551L400.404 493.533L384.153 489.179L386.631 471.196L402.881 475.551ZM317.886 454.989L315.996 468.704L303.602 465.383L305.491 451.668L317.886 454.989ZM233.366 434.08L231.939 444.443L222.574 441.934L224.001 431.571L233.366 434.08ZM146.467 414.904L146.131 417.342L143.927 416.751L144.263 414.313L146.467 414.904ZM876.191 543.194L870.606 583.73L833.973 573.914L839.558 533.379L876.191 543.194ZM1082.8 597.367L1045.48 587.365L1039.79 628.669L1077.11 638.671L1082.8 597.367ZM791.194 522.631L786.198 558.9L753.421 550.118L758.418 513.849L791.194 522.631ZM1163.81 620.968L1129.65 611.815L1124.46 649.463L1158.62 658.615L1163.81 620.968ZM1245.37 644.719L1213.69 636.23L1208.96 670.523L1240.64 679.012L1245.37 644.719ZM706.04 502.186L701.674 533.882L673.028 526.207L677.395 494.511L706.04 502.186ZM620.885 481.739L617.149 508.863L592.635 502.295L596.372 475.17L620.885 481.739ZM535.731 461.292L532.624 483.846L512.242 478.384L515.35 455.831L535.731 461.292ZM450.736 440.73L448.217 459.016L431.691 454.588L434.21 436.301L450.736 440.73ZM365.74 420.168L363.808 434.187L351.139 430.792L353.07 416.773L365.74 420.168ZM281.22 399.258L279.751 409.926L270.111 407.343L271.58 396.675L281.22 399.258ZM196.543 378.466L195.577 385.475L189.242 383.778L190.208 376.768L196.543 378.466ZM924.044 508.373L918.418 549.213L881.51 539.323L887.137 498.483L924.044 508.373ZM1130.34 562.776L1093.29 552.848L1087.64 593.847L1124.69 603.776L1130.34 562.776ZM839.048 487.81L834.01 524.383L800.958 515.527L805.997 478.954L839.048 487.81ZM1211.21 586.341L1177.46 577.299L1172.3 614.794L1206.04 623.836L1211.21 586.341ZM753.895 467.362L749.487 499.364L720.566 491.615L724.975 459.613L753.895 467.362ZM668.741 446.916L664.962 474.346L640.172 467.704L643.951 440.274L668.741 446.916ZM583.745 426.354L580.554 449.518L559.621 443.909L562.812 420.745L583.745 426.354ZM498.59 405.907L496.029 424.499L479.228 419.997L481.789 401.405L498.59 405.907ZM1326.33 627.698L1323.77 646.29L1306.96 641.788L1309.53 623.196L1326.33 627.698ZM413.754 385.23L411.738 399.859L398.517 396.317L400.533 381.687L413.754 385.23ZM329.076 364.435L327.565 375.408L317.649 372.751L319.16 361.779L329.076 364.435ZM244.557 343.528L243.507 351.148L236.621 349.302L237.671 341.683L244.557 343.528ZM158.767 323.542L158.515 325.371L156.862 324.928L157.114 323.1L158.767 323.542ZM972.058 473.435L966.348 514.885L928.889 504.848L934.599 463.398L972.058 473.435ZM1177.88 528.185L1141.1 518.331L1135.49 559.024L1172.27 568.878L1177.88 528.185ZM887.062 452.872L881.939 490.055L848.336 481.051L853.459 443.868L887.062 452.872ZM1259.44 551.935L1225.28 542.782L1220.17 579.818L1254.33 588.971L1259.44 551.935ZM801.908 432.426L797.415 465.036L767.945 457.14L772.437 424.529L801.908 432.426ZM716.754 411.979L712.891 440.018L687.551 433.228L691.414 405.189L716.754 411.979ZM631.599 391.533L628.366 415.001L607.158 409.318L610.391 385.85L631.599 391.533ZM546.446 371.084L543.842 389.981L526.765 385.405L529.368 366.508L546.446 371.084ZM461.608 350.407L459.55 365.341L446.054 361.725L448.112 346.791L461.608 350.407ZM376.93 329.614L375.377 340.891L365.186 338.16L366.739 326.883L376.93 329.614ZM292.411 308.705L291.319 316.629L284.158 314.71L285.25 306.786L292.411 308.705ZM208.208 287.566L207.494 292.747L202.812 291.492L203.526 286.311L208.208 287.566ZM1144.55 470.028L1104.74 459.362L1098.67 503.41L1138.48 514.076L1144.55 470.028ZM1019.91 438.612L1014.16 480.368L976.426 470.257L982.178 428.501L1019.91 438.612ZM1225.41 493.594L1188.91 483.814L1183.35 524.202L1219.85 533.982L1225.41 493.594ZM934.917 418.05L929.752 455.538L895.874 446.46L901.039 408.973L934.917 418.05ZM849.763 397.603L845.228 430.519L815.482 422.548L820.016 389.633L849.763 397.603ZM764.608 377.157L760.703 405.501L735.088 398.638L738.993 370.293L764.608 377.157ZM679.453 356.71L676.178 380.482L654.695 374.726L657.97 350.954L679.453 356.71ZM594.459 336.147L591.772 355.654L574.144 350.93L576.831 331.424L594.459 336.147ZM1338.47 536.453L1336.03 554.13L1320.06 549.85L1322.49 532.173L1338.47 536.453ZM509.464 315.585L507.364 330.824L493.592 327.134L495.692 311.895L509.464 315.585ZM424.784 294.792L423.189 306.373L412.723 303.569L414.318 291.988L424.784 294.792ZM340.266 273.883L339.132 282.112L331.695 280.119L332.829 271.89L340.266 273.883ZM256.063 252.743L255.307 258.23L250.35 256.902L251.106 251.415L256.063 252.743ZM171.068 232.182L170.9 233.4L169.798 233.105L169.966 231.886L171.068 232.182ZM1192.06 435.59L1152.53 424.998L1146.53 468.588L1186.06 479.18L1192.06 435.59ZM1067.77 403.79L1061.97 445.85L1023.96 435.665L1029.76 393.605L1067.77 403.79ZM1273.34 459.267L1236.7 449.449L1231.2 489.381L1267.84 499.199L1273.34 459.267ZM982.772 383.228L977.565 421.021L943.411 411.869L948.618 374.076L982.772 383.228ZM897.617 362.781L893.04 396.002L863.019 387.958L867.595 354.737L897.617 362.781ZM812.464 342.334L808.517 370.983L782.626 364.046L786.573 335.397L812.464 342.334ZM727.468 321.772L724.109 346.155L702.074 340.25L705.433 315.868L727.468 321.772ZM642.313 301.325L639.584 321.136L621.681 316.338L624.41 296.528L642.313 301.325ZM557.318 280.763L555.176 296.307L541.129 292.543L543.271 276.999L557.318 280.763ZM472.639 259.97L471.002 271.856L460.26 268.978L461.897 257.091L472.639 259.97ZM388.12 239.061L386.944 247.595L379.232 245.528L380.407 236.994L388.12 239.061ZM303.918 217.921L303.12 223.712L297.887 222.309L298.685 216.518L303.918 217.921ZM220.033 196.549L219.529 200.208L216.224 199.322L216.728 195.664L220.033 196.549ZM1115.62 368.968L1109.79 411.333L1071.5 401.074L1077.34 358.71L1115.62 368.968ZM1239.46 400.961L1200.48 390.517L1194.52 433.803L1233.5 444.248L1239.46 400.961ZM1030.78 348.29L1025.49 386.693L990.79 377.394L996.08 338.991L1030.78 348.29ZM945.631 327.844L940.97 361.674L910.397 353.482L915.058 319.652L945.631 327.844ZM860.476 307.396L856.445 336.655L830.004 329.57L834.035 300.311L860.476 307.396ZM775.323 286.95L771.922 311.638L749.611 305.659L753.012 280.972L775.323 286.95ZM690.167 266.503L687.396 286.618L669.218 281.747L671.989 261.632L690.167 266.503ZM1350.77 445.091L1348.42 462.158L1332.99 458.026L1335.35 440.958L1350.77 445.091ZM605.173 245.941L602.99 261.789L588.666 257.951L590.85 242.103L605.173 245.941ZM520.493 225.148L518.814 237.339L507.797 234.387L509.476 222.196L520.493 225.148ZM435.815 204.354L434.64 212.887L426.927 210.821L428.103 202.287L435.815 204.354ZM351.614 183.214L350.816 189.005L345.582 187.603L346.38 181.812L351.614 183.214ZM267.729 161.845L267.225 165.502L263.92 164.616L264.424 160.959L267.729 161.845ZM183.527 140.704L183.401 141.619L182.575 141.397L182.701 140.483L183.527 140.704ZM1163.64 334.03L1157.72 377.005L1118.88 366.598L1124.8 323.624L1163.64 334.03ZM1287.55 366.518L1248.29 356L1242.39 398.828L1281.65 409.346L1287.55 366.518ZM1078.64 313.469L1073.31 352.176L1038.33 342.803L1043.66 304.096L1078.64 313.469ZM993.486 293.021L988.783 327.157L957.934 318.891L962.637 284.755L993.486 293.021ZM908.331 272.575L904.258 302.138L877.541 294.979L881.614 265.416L908.331 272.575ZM823.177 252.128L819.734 277.12L797.148 271.068L800.591 246.076L823.177 252.128ZM738.181 231.565L735.326 252.29L716.596 247.272L719.451 226.547L738.181 231.565ZM653.027 211.119L650.802 227.272L636.204 223.36L638.429 207.208L653.027 211.119ZM568.349 190.325L566.627 202.821L555.335 199.795L557.056 187.299L568.349 190.325ZM483.67 169.532L482.453 178.371L474.465 176.23L475.683 167.392L483.67 169.532ZM399.469 148.393L398.629 154.489L393.12 153.012L393.96 146.917L399.469 148.393ZM315.584 127.022L315.038 130.984L311.457 130.024L312.003 126.062L315.584 127.022ZM232.017 105.419L231.681 107.858L229.477 107.267L229.813 104.829L232.017 105.419ZM1211.49 299.209L1205.53 342.487L1166.42 332.007L1172.38 288.729L1211.49 299.209ZM1126.49 278.646L1121.12 317.658L1085.86 308.211L1091.24 269.199L1126.49 278.646ZM1041.5 258.084L1036.71 292.829L1005.31 284.415L1010.1 249.671L1041.5 258.084ZM956.345 237.637L952.188 267.81L924.92 260.504L929.076 230.33L956.345 237.637ZM871.032 217.305L867.547 242.602L844.685 236.476L848.17 211.179L871.032 217.305ZM786.036 196.744L783.139 217.773L764.134 212.681L767.031 191.652L786.036 196.744ZM701.04 176.181L698.731 192.944L683.583 188.885L685.892 172.122L701.04 176.181ZM1362.91 353.845L1360.69 369.998L1346.09 366.087L1348.31 349.933L1362.91 353.845ZM616.204 155.503L614.44 168.304L602.872 165.204L604.635 152.403L616.204 155.503ZM531.524 134.709L530.265 143.853L522.002 141.639L523.262 132.496L531.524 134.709ZM447.324 113.569L446.442 119.97L440.657 118.42L441.539 112.019L447.324 113.569ZM363.439 92.1996L362.851 96.4665L358.995 95.4333L359.583 91.1663L363.439 92.1996ZM279.713 70.7133L279.377 73.1517L277.174 72.5612L277.509 70.1228L279.713 70.7133ZM195.986 49.2278L195.902 49.8366L195.352 49.6891L195.436 49.0804L195.986 49.2278ZM1259.34 264.386L1253.34 307.969L1213.95 297.415L1219.96 253.832L1259.34 264.386ZM1174.35 243.824L1168.93 283.14L1133.4 273.62L1138.82 234.304L1174.35 243.824ZM1089.35 223.262L1084.52 258.312L1052.85 249.824L1057.68 214.774L1089.35 223.262ZM1004.2 202.815L1000 233.293L972.457 225.913L976.655 195.435L1004.2 202.815ZM919.045 182.368L915.476 208.274L892.064 202.001L895.633 176.095L919.045 182.368ZM833.891 161.921L830.952 183.256L811.671 178.09L814.61 156.755L833.891 161.921ZM748.896 141.359L746.544 158.427L731.12 154.294L733.471 137.226L748.896 141.359ZM664.058 120.681L662.252 133.787L650.409 130.613L652.214 117.508L664.058 120.681ZM579.379 99.888L578.078 109.336L569.539 107.048L570.841 97.6002L579.379 99.888ZM495.019 78.8642L494.138 85.2641L488.354 83.7144L489.235 77.3145L495.019 78.8642ZM411.135 57.4932L410.547 61.7602L406.691 60.727L407.278 56.46L411.135 57.4932ZM327.567 35.8916L327.189 38.6344L324.711 37.9703L325.088 35.2274L327.567 35.8916ZM244.159 14.1738L243.949 15.698L242.572 15.3289L242.782 13.8047L244.159 14.1738ZM1307.2 229.564L1301.15 273.452L1261.49 262.824L1267.54 218.936L1307.2 229.564ZM1222.36 208.887L1216.86 248.812L1180.78 239.144L1186.28 199.219L1222.36 208.887ZM1137.21 188.44L1132.34 223.795L1100.39 215.234L1105.26 179.879L1137.21 188.44ZM1052.05 167.993L1047.81 198.776L1019.99 191.322L1024.24 160.539L1052.05 167.993ZM966.9 147.545L963.289 173.757L939.601 167.41L943.212 141.198L966.9 147.545ZM881.745 127.1L878.764 148.739L859.208 143.499L862.189 121.86L881.745 127.1ZM796.749 106.537L794.356 123.909L778.657 119.703L781.05 102.33L796.749 106.537ZM1375.05 262.599L1372.96 277.839L1359.18 274.148L1361.28 258.909L1375.05 262.599ZM711.912 85.8598L710.064 99.2695L697.946 96.0224L699.793 82.6126L711.912 85.8598ZM627.235 65.0656L625.891 74.8193L617.077 72.4577L618.421 62.704L627.235 65.0656ZM542.873 44.0426L541.95 50.7469L535.891 49.1234L536.814 42.4191L542.873 44.0426ZM458.989 22.6716L458.359 27.2429L454.228 26.136L454.857 21.5646L458.989 22.6716ZM375.264 1.18449L374.886 3.92838L372.406 3.26394L372.784 0.520046L375.264 1.18449ZM291.855 -20.5325L291.645 -19.0084L290.267 -19.3774L290.477 -20.9016L291.855 -20.5325ZM1354.58 195.089L1348.62 238.368L1309.5 227.888L1315.47 184.609L1354.58 195.089ZM1270.22 174.064L1264.67 214.296L1228.32 204.553L1233.86 164.322L1270.22 174.064ZM1185.22 153.502L1180.27 189.467L1147.77 180.758L1152.72 144.794L1185.22 153.502ZM1100.07 133.055L1095.74 164.448L1067.37 156.846L1071.7 125.453L1100.07 133.055ZM1014.91 112.608L1011.22 139.429L986.979 132.934L990.674 106.114L1014.91 112.608ZM929.758 92.162L926.693 114.411L906.586 109.023L909.651 86.7744L929.758 92.162ZM844.604 71.7154L842.168 89.3921L826.193 85.1117L828.629 67.435L844.604 71.7154ZM759.767 51.0362L757.877 64.7514L745.483 61.4303L747.372 47.7151L759.767 51.0362ZM675.089 30.2442L673.704 40.3023L664.614 37.8667L666 27.8086L675.089 30.2442ZM590.728 9.21901L589.763 16.2288L583.428 14.5314L584.394 7.52158L590.728 9.21901ZM506.684 -12.0358L506.054 -7.46441L501.923 -8.57137L502.553 -13.1428L506.684 -12.0358ZM422.959 -33.5218L422.581 -30.779L420.103 -31.4432L420.48 -34.186L422.959 -33.5218ZM339.55 -55.2399L339.34 -53.7158L337.963 -54.0848L338.173 -55.609L339.55 -55.2399ZM256.459 -77.1873L256.333 -76.273L255.507 -76.4944L255.633 -77.4087L256.459 -77.1873ZM1318.07 139.241L1312.49 179.777L1275.85 169.961L1281.44 129.426L1318.07 139.241ZM1233.08 118.68L1228.08 154.949L1195.3 146.166L1200.3 109.897L1233.08 118.68ZM1147.92 98.2335L1143.56 129.93L1114.91 122.254L1119.28 90.5579L1147.92 98.2335ZM1062.77 77.7866L1059.03 104.912L1034.52 98.3433L1038.25 71.2183L1062.77 77.7866ZM977.614 57.3384L974.506 79.8931L954.124 74.4317L957.232 51.8771L977.614 57.3384ZM892.617 36.7776L890.098 55.0641L873.572 50.636L876.091 32.3495L892.617 36.7776ZM1387.04 171.469L1385.11 185.488L1372.44 182.093L1374.37 168.074L1387.04 171.469ZM807.622 16.2149L805.69 30.2345L793.021 26.8396L794.952 12.82L807.622 16.2149ZM722.944 -4.57856L721.516 5.78396L712.151 3.27469L713.579 -7.08782L722.944 -4.57856ZM638.582 -25.6027L637.575 -18.2885L630.965 -20.0596L631.972 -27.3738L638.582 -25.6027ZM554.539 -46.8583L553.867 -41.9814L549.46 -43.1624L550.132 -48.0392L554.539 -46.8583ZM470.813 -68.3435L470.393 -65.2963L467.64 -66.0342L468.059 -69.0814L470.813 -68.3435ZM387.405 -90.0613L387.153 -88.2327L385.501 -88.6755L385.753 -90.5041L387.405 -90.0613ZM304.156 -111.893L304.03 -110.979L303.204 -111.2L303.329 -112.115L304.156 -111.893ZM1365.61 104.651L1360.07 144.882L1323.71 135.14L1329.25 94.9087L1365.61 104.651ZM1280.93 83.8581L1275.89 120.431L1242.84 111.575L1247.88 75.0019L1280.93 83.8581ZM1195.78 63.4107L1191.37 95.4125L1162.45 87.6633L1166.86 55.6615L1195.78 63.4107ZM1110.62 42.9633L1106.84 70.3937L1082.05 63.7515L1085.83 36.3211L1110.62 42.9633ZM1025.47 22.5178L1022.32 45.3758L1001.66 39.8407L1004.81 16.9828L1025.47 22.5178ZM940.472 1.95513L937.911 20.5472L921.109 16.0451L923.67 -2.54695L940.472 1.95513ZM855.477 -18.6076L853.503 -4.28252L840.558 -7.75133L842.531 -22.0764L855.477 -18.6076ZM770.799 -39.3999L769.329 -28.733L759.688 -31.3163L761.158 -41.9832L770.799 -39.3999ZM686.438 -60.4251L685.388 -52.8054L678.502 -54.6506L679.551 -62.2702L686.438 -60.4251ZM602.236 -81.5643L601.564 -76.6875L597.157 -77.8684L597.828 -82.7452L602.236 -81.5643ZM518.51 -103.052L518.09 -100.003L515.335 -100.742L515.755 -103.79L518.51 -103.052ZM435.101 -124.768L434.849 -122.939L433.196 -123.382L433.448 -125.21L435.101 -124.768ZM351.851 -146.601L351.725 -145.686L350.899 -145.908L351.025 -146.822L351.851 -146.601ZM268.919 -168.664L268.835 -168.055L268.284 -168.202L268.368 -168.811L268.919 -168.664ZM1325.29 51.5765L1321.14 81.7497L1293.87 74.4433L1298.03 44.2701L1325.29 51.5765ZM1240.46 30.8984L1236.85 57.1102L1213.16 50.7632L1216.77 24.5515L1240.46 30.8984ZM1155.78 10.105L1152.67 32.6586L1132.29 27.1972L1135.4 4.64364L1155.78 10.105ZM1071.1 -10.6884L1068.5 8.20803L1051.42 3.63225L1054.02 -15.2642L1071.1 -10.6884ZM986.423 -31.4816L984.323 -16.2422L970.551 -19.9324L972.651 -35.1718L986.423 -31.4816ZM901.903 -52.3904L900.266 -40.5037L889.524 -43.382L891.161 -55.2687L901.903 -52.3904ZM1398.23 80.916L1396.67 92.1927L1386.48 89.4621L1388.04 78.1853L1398.23 80.916ZM817.7 -73.5298L816.441 -64.3871L808.178 -66.6012L809.437 -75.744L817.7 -73.5298ZM733.498 -94.6693L732.616 -88.2693L726.832 -89.8191L727.714 -96.219L733.498 -94.6693ZM649.614 -116.04L649.026 -111.773L645.17 -112.806L645.758 -117.073L649.614 -116.04ZM566.047 -137.643L565.669 -134.899L563.19 -135.563L563.568 -138.307L566.047 -137.643ZM482.639 -159.359L482.429 -157.835L481.051 -158.204L481.261 -159.728L482.639 -159.359ZM399.548 -181.307L399.422 -180.393L398.595 -180.614L398.721 -181.528L399.548 -181.307ZM1358.71 27.2634L1358.33 30.0063L1355.85 29.3421L1356.23 26.5992L1358.71 27.2634ZM1275.77 5.20039L1275.44 7.63882L1273.23 7.04836L1273.57 4.60993L1275.77 5.20039ZM1192.84 -16.8632L1192.55 -14.7302L1190.62 -15.2467L1190.91 -17.3797L1192.84 -16.8632ZM1109.91 -38.9281L1109.66 -37.0984L1108 -37.5413L1108.26 -39.3709L1109.91 -38.9281ZM1026.98 -60.9909L1026.77 -59.4667L1025.39 -59.8358L1025.6 -61.3599L1026.98 -60.9909ZM944.044 -83.0536L943.876 -81.8349L942.775 -82.13L942.943 -83.3487L944.044 -83.0536ZM861.112 -105.119L860.986 -104.204L860.158 -104.426L860.284 -105.34L861.112 -105.119ZM778.179 -127.181L778.095 -126.573L777.545 -126.72L777.629 -127.329L778.179 -127.181Z" fill="#A2ABC8" fill-opacity="0.1"/>
</svg>
