<svg width="1069" height="1140" viewBox="0 0 1069 1140" fill="none" xmlns="http://www.w3.org/2000/svg">
<path fill-rule="evenodd" clip-rule="evenodd" d="M-777.082 1347.49L-780.272 1353.1L-774.774 1355.4L-771.584 1349.8L-777.082 1347.49ZM-698.417 1380.45L-701.607 1386.05L-696.11 1388.36L-692.92 1382.75L-698.417 1380.45ZM-619.752 1413.4L-622.942 1419.01L-617.445 1421.31L-614.255 1415.7L-619.752 1413.4ZM-462.368 1479.49L-465.406 1484.83L-460.171 1487.03L-457.132 1481.68L-462.368 1479.49ZM-540.976 1446.73L-543.863 1451.8L-538.891 1453.88L-536.004 1448.81L-540.976 1446.73ZM-383.592 1512.82L-386.325 1517.63L-381.615 1519.6L-378.881 1514.8L-383.592 1512.82ZM-304.928 1545.78L-307.662 1550.58L-302.95 1552.55L-300.216 1547.75L-304.928 1545.78ZM-226.263 1578.73L-228.997 1583.53L-224.286 1585.51L-221.552 1580.7L-226.263 1578.73ZM-147.543 1611.87L-150.126 1616.41L-145.675 1618.27L-143.092 1613.73L-147.543 1611.87ZM-68.822 1645.01L-71.2529 1649.28L-67.0653 1651.04L-64.6344 1646.76L-68.822 1645.01ZM9.89785 1678.15L7.61931 1682.16L11.5454 1683.8L13.824 1679.8L9.89785 1678.15ZM88.6163 1711.29L86.4895 1715.03L90.1542 1716.57L92.281 1712.83L88.6163 1711.29ZM167.336 1744.43L165.362 1747.9L168.765 1749.33L170.74 1745.86L167.336 1744.43ZM246.057 1777.58L244.234 1780.78L247.375 1782.1L249.198 1778.89L246.057 1777.58ZM-53.868 38.5603L-77.1112 79.4191L-38.0407 95.7856L-59.7678 133.979L-100.017 117.12L-124.627 160.382L-85.6858 176.694L-105.97 212.351L-146.219 195.491L-172.349 241.423L-133.277 257.79L-152.194 291.043L-192.313 274.238L-219.658 322.308L-180.848 338.565L-198.473 369.548L-238.462 352.798L-267.174 403.27L-228.233 419.581L-244.491 448.161L-284.609 431.356L-314.689 484.232L-275.748 500.544L-290.715 526.854L-330.703 510.104L-361.998 565.115L-323.058 581.427L-336.809 605.601L-376.796 588.851L-409.306 645.999L-370.366 662.311L-382.978 684.482L-422.834 667.787L-456.408 726.806L-417.467 743.117L-429.016 763.418L-468.548 746.858L-457.344 727.161L-476.975 718.937L-488.369 738.966L-469.06 747.054L-503.244 807.146L-522.684 799.003L-534.23 819.299L-515.708 827.058L-549.588 886.615L-568.503 878.691L-580.504 899.788L-562.634 907.274L-596.059 966.031L-614.321 958.381L-626.778 980.28L-609.302 987.6L-642.499 1045.96L-659.975 1038.64L-672.433 1060.53L-655.087 1067.8L-688.132 1125.89L-705.738 1118.51L-718.5 1140.95L-700.893 1148.32L-733.938 1206.41L-751.283 1199.14L-763.74 1221.04L-746.395 1228.31L-780.276 1287.87L-796.443 1281.09L-807.533 1300.59L-788.424 1308.59L-779.041 1292.1L-737.546 1309.48L-757.412 1344.4L-702.179 1367.54L-682.694 1333.29L-659.131 1343.16L-678.54 1377.28L-623.57 1400.3L-604.161 1366.19L-580.336 1376.17L-599.669 1410.15L-544.96 1433.07L-525.247 1398.41L-500.636 1408.72L-519.97 1442.71L-466.57 1465.08L-446.553 1429.89L-420.24 1440.91L-439.649 1475.03L-388.344 1496.52L-368.252 1461.21L-339.976 1473.05L-359.537 1507.44L-310.064 1528.16L-289.82 1492.57L-259.71 1505.18L-279.424 1539.84L-231.784 1559.79L-211.386 1523.94L-179.577 1537.26L-199.518 1572.32L-153.448 1591.62L-132.748 1555.23L-98.8444 1569.43L-118.785 1604.48L-75.3323 1622.69L-54.6319 1586.3L-18.5028 1601.43L-38.6717 1636.89L2.94842 1654.32L23.9524 1617.4L62.3071 1633.47L42.0621 1669.05L81.0641 1685.39L102.144 1648.33L143.115 1665.5L122.793 1701.22L159.178 1716.46L180.295 1679.34L145.283 1664.67L168.149 1624.48L203.362 1639.23L180.611 1679.22L222.492 1696.76L246.231 1655.04L283.992 1670.85L306.476 1631.33L267.735 1615.1L245.82 1653.63L207.598 1637.61L229.704 1598.75L267.597 1614.63L290.384 1574.57L251.184 1558.15L274.086 1517.89L234.886 1501.46L257.787 1461.2L218.585 1444.78L241.488 1404.52L202.287 1388.1L225.19 1347.84L185.988 1331.42L208.891 1291.16L169.691 1274.74L192.557 1234.54L230.448 1250.41L252.476 1211.69L214.521 1195.79L192.531 1234.45L153.392 1218.05L176.106 1178.12L213.998 1194L236.179 1155.01L197.961 1139L175.97 1177.66L137.093 1161.37L159.656 1121.71L197.548 1137.58L219.88 1098.33L181.401 1082.21L159.409 1120.87L120.794 1104.69L143.205 1065.29L181.098 1081.17L203.582 1041.64L164.84 1025.41L142.849 1064.07L104.496 1048.01L126.755 1008.88L164.647 1024.75L187.282 984.961L148.279 968.622L126.288 1007.28L88.3281 991.38L110.435 952.518L148.196 968.336L170.984 928.278L131.914 911.911L154.892 871.517L115.691 855.095L138.593 814.835L99.3915 798.413L122.294 758.153L83.0928 741.731L105.996 701.471L66.7955 685.049L89.6974 644.788L50.4972 628.366L73.2114 588.437L111.103 604.311L133.283 565.321L95.0658 549.311L73.0751 587.969L34.1975 571.683L56.7605 532.02L94.6526 547.895L116.984 508.638L78.5053 492.519L56.514 531.178L17.8987 515.002L40.3095 475.606L78.2022 491.48L100.686 451.956L61.945 435.728L39.9538 474.386L1.59999 458.32L23.859 419.191L61.7517 435.065L84.3875 395.274L45.3855 378.936L23.395 417.594L-14.6983 401.637L7.40844 362.776L45.3004 378.649L68.0878 338.592L28.887 322.169L51.7896 281.909L12.7194 265.542L35.6975 225.149L-3.50322 208.727L19.3992 168.466L-19.8023 152.043L3.10019 111.783L-36.4929 95.1974L-13.8183 55.3372L-53.868 38.5603ZM223.125 1698.93L203.527 1733.38L237.295 1747.53L256.892 1713.08L223.125 1698.93ZM306.678 1748.65L300.601 1759.33L311.072 1763.72L317.148 1753.04L306.678 1748.65ZM90.0121 1593.73L122.216 1607.22L101.02 1644.48L68.8164 1630.99L90.0121 1593.73ZM284.46 1672.46L262.584 1710.91L300.278 1726.7L322.154 1688.25L284.46 1672.46ZM11.9512 1562.85L41.275 1575.13L21.6755 1609.58L-7.64828 1597.3L11.9512 1562.85ZM-66.1647 1531.78L-39.5894 1542.91L-57.8979 1575.09L-84.4732 1563.96L-66.1647 1531.78ZM-144.355 1500.84L-120.399 1510.88L-137.113 1540.26L-161.069 1530.22L-144.355 1500.84ZM-222.602 1469.72L-201.133 1478.71L-216.631 1505.95L-238.1 1496.96L-222.602 1469.72ZM-300.772 1438.46L-281.659 1446.47L-295.942 1471.57L-315.055 1463.57L-300.772 1438.46ZM-378.944 1407.2L-362.185 1414.22L-375.253 1437.19L-392.011 1430.17L-378.944 1407.2ZM-457.114 1375.94L-442.712 1381.98L-454.488 1402.68L-468.89 1396.64L-457.114 1375.94ZM-535.808 1344.47L-523.238 1349.73L-533.95 1368.56L-546.52 1363.3L-535.808 1344.47ZM-614.775 1312.05L-602.861 1317.04L-613.195 1335.2L-625.109 1330.21L-614.775 1312.05ZM-694.095 1278.82L-681.525 1284.09L-691.783 1302.12L-704.353 1296.85L-694.095 1278.82ZM151.699 1568.06L186.649 1582.7L166.365 1618.36L131.415 1603.72L151.699 1568.06ZM73.5621 1537.31L105.502 1550.69L86.9659 1583.28L55.0257 1569.9L73.5621 1537.31ZM-4.62899 1506.38L24.5627 1518.61L7.69657 1548.25L-21.4952 1536.03L-4.62899 1506.38ZM-82.6138 1475.36L-56.1706 1486.44L-71.5172 1513.42L-97.9604 1502.34L-82.6138 1475.36ZM-160.805 1444.43L-137.111 1454.35L-150.863 1478.53L-174.557 1468.6L-160.805 1444.43ZM-239.052 1413.3L-217.844 1422.19L-230.152 1443.82L-251.361 1434.94L-239.052 1413.3ZM-317.146 1381.91L-298.294 1389.81L-309.311 1409.18L-328.164 1401.28L-317.146 1381.91ZM-395.393 1350.79L-378.897 1357.7L-388.471 1374.53L-404.967 1367.62L-395.393 1350.79ZM-732.209 1212.34L-697.652 1226.82L-705.326 1240.31L-739.884 1225.83L-732.209 1212.34ZM-473.564 1319.53L-459.424 1325.45L-467.63 1339.88L-481.77 1333.95L-473.564 1319.53ZM-552.313 1287.86L-539.875 1293.07L-547.094 1305.77L-559.533 1300.55L-552.313 1287.86ZM-631.282 1255.44L-619.365 1260.44L-626.282 1272.59L-638.198 1267.6L-631.282 1255.44ZM352.277 1668.21L346.048 1679.16L356.781 1683.65L363.01 1672.7L352.277 1668.21ZM213.254 1542.34L251.084 1558.18L229.129 1596.78L191.299 1580.93L213.254 1542.34ZM330.719 1594.28L310.514 1629.79L345.328 1644.38L365.533 1608.86L330.719 1594.28ZM135.249 1511.65L169.937 1526.18L149.806 1561.57L115.117 1547.03L135.249 1511.65ZM57.1115 1480.9L88.7903 1494.17L70.4057 1526.49L38.7269 1513.22L57.1115 1480.9ZM-21.0795 1449.96L7.85077 1462.08L-8.93922 1491.6L-37.8695 1479.48L-21.0795 1449.96ZM-99.0638 1418.95L-72.883 1429.91L-88.0778 1456.62L-114.259 1445.66L-99.0638 1418.95ZM-177.256 1388.01L-153.824 1397.83L-167.424 1421.73L-190.856 1411.92L-177.256 1388.01ZM-255.559 1356.7L-234.48 1365.53L-246.712 1387.03L-267.79 1378.2L-255.559 1356.7ZM-333.597 1325.5L-314.877 1333.34L-325.742 1352.44L-344.462 1344.6L-333.597 1325.5ZM-411.844 1294.37L-395.608 1301.17L-405.031 1317.73L-421.266 1310.93L-411.844 1294.37ZM-490.069 1262.93L-476.06 1268.79L-484.19 1283.09L-498.2 1277.22L-490.069 1262.93ZM-568.894 1231.39L-556.455 1236.6L-563.598 1249.16L-576.037 1243.95L-568.894 1231.39ZM-648.442 1198.57L-635.872 1203.83L-642.787 1215.99L-655.357 1210.72L-648.442 1198.57ZM196.803 1485.92L234.372 1501.66L212.569 1539.99L175.001 1524.25L196.803 1485.92ZM313.993 1536.92L293.18 1573.5L329.042 1588.53L349.855 1551.94L313.993 1536.92ZM118.797 1455.23L153.225 1469.65L133.245 1504.77L98.8169 1490.35L118.797 1455.23ZM40.6621 1424.48L72.0776 1437.64L53.8442 1469.69L22.4287 1456.53L40.6621 1424.48ZM-37.5301 1393.55L-8.86216 1405.56L-25.4999 1434.8L-54.1678 1422.79L-37.5301 1393.55ZM-115.515 1362.53L-89.5941 1373.39L-104.637 1399.83L-130.558 1388.97L-115.515 1362.53ZM-193.837 1331.54L-170.535 1341.3L-183.983 1364.94L-207.285 1355.18L-193.837 1331.54ZM-272.009 1300.28L-251.063 1309.06L-263.219 1330.43L-284.165 1321.65L-272.009 1300.28ZM-350.048 1269.08L-331.589 1276.81L-342.301 1295.64L-360.761 1287.91L-350.048 1269.08ZM-428.349 1237.77L-412.246 1244.51L-421.592 1260.94L-437.695 1254.2L-428.349 1237.77ZM-686.293 1132.19L-651.998 1146.56L-659.672 1160.05L-693.967 1145.69L-686.293 1132.19ZM-506.521 1206.51L-492.641 1212.32L-500.696 1226.48L-514.576 1220.67L-506.521 1206.51ZM-585.476 1174.92L-573.168 1180.08L-580.235 1192.5L-592.543 1187.35L-585.476 1174.92ZM398.095 1588.52L392.323 1598.67L402.27 1602.83L408.043 1592.69L398.095 1588.52ZM297.378 1479.94L276.261 1517.06L312.646 1532.3L333.762 1495.18L297.378 1479.94ZM180.353 1429.51L217.66 1445.14L196.008 1483.2L158.701 1467.57L180.353 1429.51ZM102.347 1398.81L136.513 1413.13L116.684 1447.98L82.5181 1433.67L102.347 1398.81ZM376.977 1516.09L358.443 1548.67L390.378 1562.05L408.912 1529.47L376.977 1516.09ZM24.2106 1368.07L55.3656 1381.12L37.2846 1412.9L6.12958 1399.85L24.2106 1368.07ZM-53.9806 1337.13L-25.575 1349.03L-42.0605 1378.01L-70.466 1366.11L-53.9806 1337.13ZM-131.966 1306.12L-106.307 1316.86L-121.198 1343.04L-146.857 1332.29L-131.966 1306.12ZM-210.212 1274.99L-187.171 1284.64L-200.62 1308.28L-223.66 1298.63L-210.212 1274.99ZM-288.459 1243.87L-267.774 1252.53L-279.779 1273.64L-300.464 1264.97L-288.459 1243.87ZM-366.629 1212.61L-348.301 1220.29L-358.861 1238.85L-377.19 1231.17L-366.629 1212.61ZM-444.799 1181.35L-428.827 1188.04L-438.097 1204.34L-454.069 1197.65L-444.799 1181.35ZM-522.97 1150.09L-509.353 1155.8L-517.256 1169.69L-530.873 1163.99L-522.97 1150.09ZM-602.636 1118.05L-589.804 1123.42L-596.872 1135.85L-609.704 1130.47L-602.636 1118.05ZM280.817 1423.15L259.549 1460.53L296.196 1475.89L317.464 1438.5L280.817 1423.15ZM163.903 1373.09L200.948 1388.61L179.448 1426.4L142.404 1410.88L163.903 1373.09ZM360.252 1458.74L341.11 1492.39L374.092 1506.2L393.233 1472.55L360.252 1458.74ZM85.897 1342.4L119.8 1356.6L100.124 1391.19L66.2208 1376.99L85.897 1342.4ZM7.76005 1311.65L38.6536 1324.59L20.7248 1356.11L-10.1687 1343.17L7.76005 1311.65ZM-70.4319 1280.72L-42.287 1292.51L-58.6213 1321.22L-86.7662 1309.43L-70.4319 1280.72ZM-148.547 1249.65L-123.02 1260.34L-137.759 1286.25L-163.286 1275.56L-148.547 1249.65ZM-226.662 1218.58L-203.753 1228.17L-217.049 1251.55L-239.959 1241.95L-226.662 1218.58ZM-304.909 1187.45L-284.486 1196.01L-296.338 1216.84L-316.76 1208.29L-304.909 1187.45ZM-383.081 1156.19L-365.012 1163.76L-375.497 1182.19L-393.566 1174.63L-383.081 1156.19ZM-461.251 1124.94L-445.539 1131.52L-454.657 1147.55L-470.369 1140.97L-461.251 1124.94ZM-640.825 1051.7L-606.005 1066.28L-613.756 1079.91L-648.576 1065.32L-640.825 1051.7ZM-539.552 1093.62L-526.066 1099.27L-533.817 1112.9L-547.303 1107.25L-539.552 1093.62ZM443.913 1508.83L438.596 1518.18L447.759 1522.01L453.076 1512.67L443.913 1508.83ZM264.258 1366.35L242.838 1404.01L279.746 1419.47L301.167 1381.81L264.258 1366.35ZM147.453 1316.68L184.235 1332.09L162.888 1369.61L126.106 1354.2L147.453 1316.68ZM343.691 1401.94L324.398 1435.86L357.642 1449.79L376.935 1415.87L343.691 1401.94ZM69.4461 1285.98L103.088 1300.08L83.5642 1334.4L49.9222 1320.3L69.4461 1285.98ZM-8.6904 1255.24L21.9407 1268.07L4.16314 1299.32L-26.468 1286.49L-8.6904 1255.24ZM423.289 1438.1L406.579 1467.48L435.373 1479.54L452.083 1450.16L423.289 1438.1ZM-86.8815 1224.3L-58.999 1235.98L-75.1815 1264.43L-103.064 1252.75L-86.8815 1224.3ZM-164.998 1193.23L-139.732 1203.82L-154.395 1229.59L-179.66 1219.01L-164.998 1193.23ZM-243.113 1162.16L-220.465 1171.65L-233.609 1194.75L-256.256 1185.27L-243.113 1162.16ZM-321.36 1131.04L-301.198 1139.48L-312.899 1160.05L-333.061 1151.61L-321.36 1131.04ZM-399.531 1099.78L-381.725 1107.24L-392.058 1125.4L-409.864 1117.94L-399.531 1099.78ZM-477.701 1068.52L-462.252 1074.99L-471.218 1090.75L-486.667 1084.28L-477.701 1068.52ZM-556.657 1036.94L-542.777 1042.75L-550.452 1056.24L-564.332 1050.43L-556.657 1036.94ZM247.697 1309.56L226.125 1347.48L263.295 1363.05L284.867 1325.13L247.697 1309.56ZM131.001 1260.26L167.522 1275.56L146.327 1312.82L109.806 1297.52L131.001 1260.26ZM327.131 1345.15L307.686 1379.33L341.191 1393.37L360.636 1359.19L327.131 1345.15ZM52.9956 1229.57L86.3753 1243.55L67.003 1277.61L33.6234 1263.62L52.9956 1229.57ZM406.564 1380.74L389.246 1411.19L419.087 1423.69L436.405 1393.24L406.564 1380.74ZM-25.1409 1198.82L5.22878 1211.54L-12.3971 1242.53L-42.7667 1229.8L-25.1409 1198.82ZM-103.332 1167.89L-75.7119 1179.46L-91.7421 1207.64L-119.362 1196.06L-103.332 1167.89ZM-181.448 1136.82L-156.445 1147.29L-170.956 1172.8L-195.959 1162.32L-181.448 1136.82ZM-259.564 1105.75L-237.178 1115.13L-250.169 1137.96L-272.555 1128.58L-259.564 1105.75ZM-337.735 1074.49L-317.835 1082.82L-329.46 1103.26L-349.359 1094.92L-337.735 1074.49ZM-415.905 1043.23L-398.362 1050.58L-408.619 1068.61L-426.162 1061.26L-415.905 1043.23ZM-494.151 1012.11L-478.964 1018.47L-487.779 1033.96L-502.966 1027.6L-494.151 1012.11ZM-594.715 970.641L-559.11 985.556L-567.392 1000.12L-602.998 985.201L-594.715 970.641ZM489.788 1429.33L485.078 1437.61L493.193 1441.01L497.902 1432.73L489.788 1429.33ZM231.137 1252.77L209.413 1290.96L246.844 1306.64L268.568 1268.45L231.137 1252.77ZM114.551 1203.85L150.81 1219.04L129.767 1256.03L93.5074 1240.84L114.551 1203.85ZM310.516 1288.17L290.766 1322.89L324.796 1337.14L344.545 1302.43L310.516 1288.17ZM36.5451 1173.15L69.6642 1187.03L50.4437 1220.81L17.3247 1206.94L36.5451 1173.15ZM390.004 1323.95L372.534 1354.66L402.637 1367.27L420.107 1336.56L390.004 1323.95ZM-41.592 1142.41L-11.4837 1155.02L-28.9573 1185.74L-59.0656 1173.12L-41.592 1142.41ZM-119.783 1111.47L-92.4233 1122.93L-108.302 1150.84L-135.661 1139.38L-119.783 1111.47ZM469.603 1360.11L454.715 1386.28L480.368 1397.02L495.256 1370.85L469.603 1360.11ZM-197.899 1080.4L-173.158 1090.76L-187.517 1116.01L-212.258 1105.64L-197.899 1080.4ZM-276.146 1049.28L-253.891 1058.6L-266.731 1081.17L-288.985 1071.85L-276.146 1049.28ZM-354.316 1018.02L-334.417 1026.35L-345.89 1046.52L-365.789 1038.19L-354.316 1018.02ZM-432.355 986.816L-414.943 994.11L-425.049 1011.87L-442.461 1004.58L-432.355 986.816ZM-511.18 955.284L-495.6 961.81L-504.339 977.172L-519.919 970.646L-511.18 955.284ZM98.1009 1147.43L134.097 1162.51L113.206 1199.23L77.2097 1184.15L98.1009 1147.43ZM293.955 1231.38L274.055 1266.36L308.345 1280.73L328.246 1245.75L293.955 1231.38ZM20.0946 1116.74L52.9514 1130.5L33.8821 1164.02L1.02535 1150.26L20.0946 1116.74ZM373.388 1266.97L355.614 1298.21L386.241 1311.04L404.015 1279.8L373.388 1266.97ZM-58.0419 1085.99L-28.1962 1098.49L-45.518 1128.94L-75.3638 1116.44L-58.0419 1085.99ZM452.878 1302.75L437.382 1329.99L464.082 1341.17L479.578 1313.93L452.878 1302.75ZM-136.158 1054.92L-109.061 1066.27L-124.863 1094.05L-151.96 1082.7L-136.158 1054.92ZM-214.349 1023.98L-189.87 1034.24L-204.077 1059.21L-228.557 1048.96L-214.349 1023.98ZM-292.596 992.861L-270.602 1002.07L-283.366 1024.51L-305.359 1015.3L-292.596 992.861ZM-370.766 961.604L-351.129 969.83L-362.526 989.864L-382.163 981.638L-370.766 961.604ZM-448.938 930.345L-431.655 937.585L-441.609 955.084L-458.892 947.844L-448.938 930.345ZM-548.848 889.155L-511.802 904.673L-521.148 921.102L-558.193 905.583L-548.848 889.155ZM535.607 1349.64L531.353 1357.12L538.682 1360.19L542.936 1352.71L535.607 1349.64ZM277.394 1174.59L257.341 1209.84L291.894 1224.31L311.947 1189.06L277.394 1174.59ZM81.6504 1091.02L117.386 1105.99L96.6464 1142.44L60.9109 1127.47L81.6504 1091.02ZM3.64413 1060.32L36.2394 1073.98L17.3219 1107.23L-15.2734 1093.58L3.64413 1060.32ZM356.828 1210.18L338.902 1241.69L369.791 1254.63L387.716 1223.12L356.828 1210.18ZM-74.6236 1029.52L-44.9081 1041.97L-62.0772 1072.15L-91.7927 1059.7L-74.6236 1029.52ZM436.317 1245.96L420.67 1273.46L447.632 1284.76L463.279 1257.25L436.317 1245.96ZM-152.608 998.506L-125.641 1009.8L-141.291 1037.31L-168.258 1026.02L-152.608 998.506ZM-230.8 967.57L-206.582 977.715L-220.637 1002.42L-244.856 992.279L-230.8 967.57ZM515.915 1282.11L502.85 1305.08L525.363 1314.51L538.427 1291.54L515.915 1282.11ZM-309.046 936.445L-287.314 945.548L-299.927 967.72L-321.658 958.617L-309.046 936.445ZM-387.216 905.188L-367.841 913.304L-379.087 933.073L-398.462 924.956L-387.216 905.188ZM-466.042 873.656L-448.368 881.06L-458.245 898.424L-475.92 891.02L-466.042 873.656ZM260.834 1117.8L240.629 1153.31L275.443 1167.9L295.649 1132.38L260.834 1117.8ZM65.1989 1034.6L100.674 1049.46L80.0862 1085.65L44.6112 1070.79L65.1989 1034.6ZM340.268 1153.38L322.19 1185.16L353.339 1198.21L371.418 1166.43L340.268 1153.38ZM-12.8825 1004.04L19.4503 1017.59L0.762292 1050.44L-31.5705 1036.89L-12.8825 1004.04ZM-91.0741 973.105L-61.62 985.443L-78.7141 1015.49L-108.168 1003.15L-91.0741 973.105ZM419.757 1189.16L403.958 1216.94L431.181 1228.34L446.98 1200.57L419.757 1189.16ZM-169.059 942.09L-142.354 953.277L-157.853 980.523L-184.559 969.336L-169.059 942.09ZM499.246 1224.94L485.725 1248.71L509.022 1258.47L522.543 1234.7L499.246 1224.94ZM-247.25 911.155L-223.294 921.19L-237.198 945.63L-261.153 935.595L-247.25 911.155ZM-325.496 880.03L-304.026 889.024L-316.487 910.928L-337.956 901.934L-325.496 880.03ZM-403.592 848.639L-384.478 856.646L-395.646 876.279L-414.76 868.272L-403.592 848.639ZM-503.053 807.801L-464.701 823.867L-475.186 842.299L-513.539 826.233L-503.053 807.801ZM581.48 1270.14L577.835 1276.55L584.117 1279.18L587.762 1272.77L581.48 1270.14ZM244.218 1060.82L223.71 1096.87L259.048 1111.67L279.557 1075.62L244.218 1060.82ZM48.8034 978.374L83.8848 993.069L63.525 1028.86L28.4436 1014.16L48.8034 978.374ZM323.652 1096.41L305.27 1128.72L336.944 1141.99L355.325 1109.67L323.652 1096.41ZM-29.3322 947.627L2.60718 961.006L-15.929 993.591L-47.8684 980.211L-29.3322 947.627ZM-107.525 916.69L-78.332 928.919L-95.2738 958.7L-124.466 946.471L-107.525 916.69ZM403.142 1132.18L387.038 1160.49L414.785 1172.11L430.888 1143.81L403.142 1132.18ZM-185.51 885.674L-159.066 896.752L-174.412 923.729L-200.856 912.652L-185.51 885.674ZM482.629 1167.96L468.806 1192.26L492.626 1202.24L506.45 1177.94L482.629 1167.96ZM-263.701 854.74L-240.006 864.665L-253.758 888.839L-277.452 878.913L-263.701 854.74ZM-342.002 823.427L-320.664 832.366L-333.048 854.136L-354.387 845.197L-342.002 823.427ZM562.229 1204.12L550.986 1223.88L570.357 1231.99L581.599 1212.23L562.229 1204.12ZM-420.696 791.95L-401.058 800.176L-412.075 819.543L-431.713 811.316L-420.696 791.95ZM227.658 1004.02L206.998 1040.34L242.598 1055.26L263.258 1018.94L227.658 1004.02ZM32.353 921.958L67.0426 936.49L46.9112 971.879L12.2215 957.347L32.353 921.958ZM307.093 1039.61L288.559 1072.19L320.494 1085.57L339.028 1052.99L307.093 1039.61ZM-45.783 891.21L-14.1042 904.48L-32.4893 936.799L-64.1681 923.529L-45.783 891.21ZM386.581 1075.39L370.325 1103.97L398.334 1115.7L414.589 1087.12L386.581 1075.39ZM-123.975 860.275L-95.045 872.394L-111.834 901.908L-140.765 889.789L-123.975 860.275ZM-201.959 829.26L-175.779 840.227L-190.973 866.938L-217.154 855.97L-201.959 829.26ZM466.07 1111.17L452.094 1135.74L476.175 1145.83L490.152 1121.26L466.07 1111.17ZM-280.283 798.27L-256.72 808.141L-270.319 832.047L-293.882 822.176L-280.283 798.27ZM-358.453 767.012L-337.245 775.896L-349.553 797.532L-370.761 788.648L-358.453 767.012ZM545.559 1146.95L533.861 1167.51L554.017 1175.96L565.714 1155.39L545.559 1146.95ZM627.353 1190.64L624.315 1195.98L629.55 1198.17L632.589 1192.83L627.353 1190.64ZM93.9092 896.235L131.608 912.027L109.804 950.356L72.1055 934.564L93.9092 896.235ZM211.098 947.231L190.285 983.818L226.146 998.84L246.959 962.254L211.098 947.231ZM15.9025 865.543L50.3298 879.965L30.3501 915.087L-4.07717 900.665L15.9025 865.543ZM290.532 982.822L271.847 1015.67L304.043 1029.16L322.729 996.309L290.532 982.822ZM-62.2336 834.795L-30.8171 847.955L-49.0504 880.007L-80.4669 866.847L-62.2336 834.795ZM370.021 1018.6L353.614 1047.44L381.884 1059.28L398.291 1030.44L370.021 1018.6ZM-140.426 803.86L-111.758 815.869L-128.395 845.115L-157.063 833.106L-140.426 803.86ZM-218.41 772.844L-192.49 783.703L-207.533 810.147L-233.453 799.288L-218.41 772.844ZM449.509 1054.38L435.381 1079.21L459.725 1089.41L473.853 1064.58L449.509 1054.38ZM-296.657 741.72L-273.355 751.482L-286.955 775.388L-310.257 765.627L-296.657 741.72ZM528.998 1090.16L517.148 1110.99L537.565 1119.54L549.415 1098.71L528.998 1090.16ZM-375.427 710.377L-353.957 719.371L-366.114 740.74L-387.583 731.747L-375.427 710.377ZM608.486 1125.93L598.916 1142.76L615.406 1149.67L624.977 1132.84L608.486 1125.93ZM194.537 890.44L173.573 927.293L209.696 942.425L230.661 905.572L194.537 890.44ZM77.4578 839.82L114.765 855.448L93.1128 893.509L55.8058 877.881L77.4578 839.82ZM-0.548469 809.127L33.6174 823.439L13.789 858.295L-20.3769 843.983L-0.548469 809.127ZM273.917 925.841L254.927 959.224L287.647 972.93L306.637 939.548L273.917 925.841ZM-78.6841 778.38L-47.5301 791.43L-65.6117 823.216L-96.7657 810.165L-78.6841 778.38ZM353.405 961.62L336.694 990.996L365.488 1003.06L382.199 973.682L353.405 961.62ZM-156.877 747.445L-128.47 759.345L-144.956 788.324L-173.362 776.425L-156.877 747.445ZM432.895 997.397L418.462 1022.77L443.329 1033.18L457.762 1007.81L432.895 997.397ZM-234.992 716.374L-209.203 727.178L-224.094 753.355L-249.883 742.552L-234.992 716.374ZM-313.108 685.305L-289.936 695.012L-303.384 718.652L-326.555 708.945L-313.108 685.305ZM512.383 1033.18L500.23 1054.54L521.17 1063.31L533.324 1041.95L512.383 1033.18ZM-431.212 639.06L-442.302 658.554L-423.193 666.559L-412.103 647.064L-431.212 639.06ZM591.872 1068.95L581.997 1086.31L599.012 1093.44L608.887 1076.08L591.872 1068.95ZM673.173 1110.95L670.59 1115.49L675.04 1117.35L677.623 1112.81L673.173 1110.95ZM177.923 833.46L156.655 870.846L193.301 886.197L214.569 848.811L177.923 833.46ZM61.0068 783.405L98.0523 798.924L76.5536 836.716L39.5081 821.198L61.0068 783.405ZM257.356 869.05L238.214 902.699L271.197 916.515L290.338 882.866L257.356 869.05ZM-16.9984 752.711L16.906 766.913L-2.77133 801.504L-36.6757 787.301L-16.9984 752.711ZM-95.1356 721.964L-64.243 734.905L-82.1723 766.423L-113.065 753.482L-95.1356 721.964ZM336.845 904.827L319.982 934.47L349.037 946.641L365.9 916.999L336.845 904.827ZM-173.251 690.895L-145.107 702.685L-161.518 731.532L-189.662 719.743L-173.251 690.895ZM416.334 940.606L401.75 966.243L426.879 976.77L441.463 951.133L416.334 940.606ZM-251.443 659.96L-225.916 670.653L-240.731 696.696L-266.257 686.003L-251.443 659.96ZM-330.082 628.672L-306.649 638.488L-319.944 661.859L-343.377 652.043L-330.082 628.672ZM495.822 976.384L483.517 998.015L504.72 1006.9L517.025 985.266L495.822 976.384ZM575.256 1011.97L565.078 1029.87L582.615 1037.21L592.793 1019.32L575.256 1011.97ZM654.799 1047.94L647.052 1061.56L660.401 1067.15L668.149 1053.53L654.799 1047.94ZM161.362 776.667L139.942 814.321L176.85 829.783L198.271 792.128L161.362 776.667ZM44.5562 726.99L81.3395 742.399L59.993 779.923L23.2098 764.515L44.5562 726.99ZM240.795 812.257L221.502 846.172L254.746 860.098L274.039 826.183L240.795 812.257ZM-33.4487 696.297L0.192541 710.389L-19.3314 744.71L-52.9726 730.618L-33.4487 696.297ZM-111.641 665.362L-80.8784 678.248L-98.7316 709.632L-129.494 696.745L-111.641 665.362ZM320.283 848.036L303.269 877.945L332.587 890.226L349.601 860.317L320.283 848.036ZM-189.702 634.48L-161.688 646.215L-177.947 674.796L-205.961 663.061L-189.702 634.48ZM399.774 883.814L385.038 909.718L410.429 920.354L425.165 894.45L399.774 883.814ZM-267.893 603.544L-242.627 614.128L-257.291 639.904L-282.556 629.321L-267.893 603.544ZM479.262 919.592L466.805 941.49L488.269 950.482L500.727 928.584L479.262 919.592ZM-385.393 559.37L-396.027 578.064L-377.703 585.74L-367.069 567.046L-385.393 559.37ZM558.696 955.182L548.366 973.341L566.165 980.797L576.496 962.638L558.696 955.182ZM638.129 990.772L629.926 1005.19L644.061 1011.11L652.264 996.693L638.129 990.772ZM719.047 1031.45L717.072 1034.92L720.474 1036.34L722.449 1032.87L719.047 1031.45ZM144.802 719.876L123.23 757.797L160.4 773.368L181.972 735.447L144.802 719.876ZM28.1072 670.575L64.627 685.873L43.4318 723.132L6.91192 707.833L28.1072 670.575ZM224.235 755.465L204.79 789.647L238.296 803.683L257.741 769.501L224.235 755.465ZM-50.0308 639.828L-16.5199 653.865L-35.8917 687.919L-69.4025 673.881L-50.0308 639.828ZM303.669 791.055L286.351 821.499L316.191 833.999L333.51 803.556L303.669 791.055ZM-128.167 609.079L-97.5358 621.911L-115.238 653.029L-145.869 640.197L-128.167 609.079ZM-206.152 578.065L-178.4 589.69L-194.507 618.003L-222.258 606.378L-206.152 578.065ZM383.158 826.834L368.118 853.272L394.033 864.128L409.073 837.69L383.158 826.834ZM-284.867 546.91L-259.339 557.603L-273.851 583.112L-299.378 572.418L-284.867 546.91ZM462.647 862.611L449.885 885.044L471.874 894.255L484.635 871.822L462.647 862.611ZM542.136 898.39L531.654 916.816L549.715 924.382L560.197 905.956L542.136 898.39ZM621.569 933.981L613.214 948.668L627.61 954.699L635.965 940.011L621.569 933.981ZM701.003 969.57L694.774 980.519L705.507 985.015L711.735 974.066L701.003 969.57ZM128.242 663.084L106.518 701.272L143.95 716.953L165.674 678.764L128.242 663.084ZM11.6557 614.159L47.9151 629.348L26.8716 666.34L-9.38783 651.151L11.6557 614.159ZM207.676 698.674L188.078 733.124L221.845 747.269L241.442 712.819L207.676 698.674ZM-66.3496 583.467L-33.2323 597.34L-52.5289 631.261L-85.6462 617.388L-66.3496 583.467ZM287.108 734.263L269.638 764.974L299.741 777.584L317.211 746.873L287.108 734.263ZM-144.617 552.664L-114.379 565.331L-131.929 596.182L-162.167 583.515L-144.617 552.664ZM-222.602 521.65L-195.112 533.166L-211.066 561.21L-238.556 549.695L-222.602 521.65ZM366.597 770.042L351.406 796.746L377.582 807.712L392.773 781.007L366.597 770.042ZM446.086 805.82L433.173 828.519L455.422 837.84L468.335 815.141L446.086 805.82ZM525.575 841.598L514.941 860.292L533.264 867.967L543.899 849.274L525.575 841.598ZM-339.574 479.681L-349.752 497.573L-332.214 504.919L-322.036 487.028L-339.574 479.681ZM605.008 877.188L596.501 892.143L611.16 898.284L619.667 883.329L605.008 877.188ZM684.388 912.59L677.856 924.073L689.112 928.788L695.644 917.305L684.388 912.59ZM764.865 951.758L763.346 954.428L765.964 955.525L767.483 952.855L764.865 951.758ZM111.68 606.292L89.8043 644.747L127.498 660.537L149.374 622.082L111.68 606.292ZM-4.79483 557.744L31.2022 572.823L10.3104 609.548L-25.6866 594.469L-4.79483 557.744ZM191.06 641.694L171.159 676.678L205.449 691.042L225.35 656.059L191.06 641.694ZM-82.8002 527.051L-49.9442 540.815L-69.013 574.335L-101.869 560.572L-82.8002 527.051ZM270.548 677.472L252.926 708.45L283.29 721.169L300.913 690.191L270.548 677.472ZM-161.069 496.249L-131.091 508.806L-148.488 539.389L-178.466 526.831L-161.069 496.249ZM349.982 713.061L334.487 740.3L361.186 751.485L376.682 724.246L349.982 713.061ZM-239.576 465.015L-211.824 476.641L-227.626 504.42L-255.379 492.794L-239.576 465.015ZM429.526 749.028L416.461 771.995L438.972 781.425L452.037 758.458L429.526 749.028ZM508.96 784.617L498.021 803.845L516.869 811.741L527.807 792.512L508.96 784.617ZM588.449 820.396L579.79 835.618L594.71 841.868L603.369 826.646L588.449 820.396ZM667.827 855.798L661.143 867.548L672.66 872.372L679.344 860.623L667.827 855.798ZM747.151 891.011L742.29 899.556L750.666 903.065L755.527 894.52L747.151 891.011ZM174.499 584.9L154.445 620.152L188.998 634.626L209.052 599.375L174.499 584.9ZM-21.2453 501.329L14.4903 516.298L-6.2498 552.757L-41.9853 537.787L-21.2453 501.329ZM-99.2516 470.636L-66.6562 484.29L-85.5727 517.543L-118.168 503.889L-99.2516 470.636ZM253.933 620.491L236.006 652.003L266.895 664.943L284.821 633.43L253.933 620.491ZM-177.444 439.701L-147.729 452.148L-165.05 482.597L-194.765 470.149L-177.444 439.701ZM333.422 656.268L317.774 683.775L344.736 695.07L360.384 667.563L333.422 656.268ZM412.91 692.048L399.541 715.549L422.576 725.198L435.945 701.698L412.91 692.048ZM492.4 727.826L481.309 747.321L500.418 755.326L511.508 735.831L492.4 727.826ZM-293.755 399.991L-303.478 417.083L-286.725 424.101L-277.002 407.009L-293.755 399.991ZM571.833 763.415L562.87 779.171L578.314 785.641L587.277 769.885L571.833 763.415ZM651.267 799.006L644.43 811.023L656.21 815.957L663.046 803.94L651.267 799.006ZM730.536 834.03L725.371 843.11L734.271 846.838L739.436 837.759L730.536 834.03ZM810.629 871.88L809.413 874.016L811.507 874.894L812.723 872.757L810.629 871.88ZM157.938 528.109L137.734 563.627L172.548 578.211L192.753 542.693L157.938 528.109ZM-37.6968 444.913L-2.22175 459.774L-22.8095 495.965L-58.2845 481.104L-37.6968 444.913ZM237.373 563.699L219.295 595.478L250.445 608.527L268.523 576.748L237.373 563.699ZM-115.832 414.165L-83.3687 427.764L-102.134 460.751L-134.597 447.152L-115.832 414.165ZM-194.493 383.199L-164.384 395.812L-181.478 425.86L-211.586 413.248L-194.493 383.199ZM316.861 599.478L301.062 627.251L328.285 638.655L344.084 610.882L316.861 599.478ZM396.35 635.256L382.83 659.023L406.126 668.782L419.647 645.015L396.35 635.256ZM475.838 671.034L464.597 690.796L483.967 698.91L495.209 679.149L475.838 671.034ZM555.272 706.624L546.157 722.647L561.863 729.226L570.978 713.203L555.272 706.624ZM634.706 742.214L627.718 754.498L639.759 759.542L646.747 747.258L634.706 742.214ZM713.976 777.238L708.659 786.586L717.82 790.423L723.138 781.076L713.976 777.238ZM793.299 812.452L789.805 818.594L795.825 821.116L799.319 814.974L793.299 812.452ZM141.378 471.318L121.022 507.103L156.098 521.796L176.454 486.011L141.378 471.318ZM-54.1472 388.498L-18.9337 403.249L-39.3697 439.173L-74.5832 424.422L-54.1472 388.498ZM220.813 506.908L202.583 538.953L233.994 552.112L252.224 520.066L220.813 506.908ZM-132.153 357.806L-100.081 371.24L-118.77 404.094L-150.842 390.659L-132.153 357.806ZM300.301 542.685L284.35 570.725L311.835 582.239L327.786 554.198L300.301 542.685ZM379.79 578.463L366.117 602.498L389.676 612.367L403.349 588.332L379.79 578.463ZM459.223 614.054L447.677 634.35L467.571 642.683L479.117 622.387L459.223 614.054ZM538.713 649.832L529.445 666.122L545.412 672.811L554.68 656.52L538.713 649.832ZM-247.937 320.302L-257.204 336.592L-241.236 343.281L-231.969 326.991L-247.937 320.302ZM618.091 685.234L610.799 698.052L623.364 703.316L630.656 690.497L618.091 685.234ZM697.415 720.445L691.946 730.06L701.369 734.007L706.838 724.393L697.415 720.445ZM776.683 755.471L772.885 762.148L779.43 764.889L783.228 758.213L776.683 755.471ZM856.393 792.003L855.481 793.605L857.052 794.263L857.963 792.661L856.393 792.003ZM124.763 414.337L104.102 450.656L139.702 465.569L160.363 429.25L124.763 414.337ZM-70.5979 332.083L-35.6467 346.724L-55.9299 382.38L-90.8811 367.738L-70.5979 332.083ZM204.198 449.927L185.664 482.507L217.599 495.885L236.133 463.305L204.198 449.927ZM-149.258 301.116L-116.794 314.715L-135.255 347.167L-167.719 333.568L-149.258 301.116ZM283.686 485.705L267.431 514.279L295.439 526.012L311.694 497.438L283.686 485.705ZM363.174 521.484L349.198 546.052L373.28 556.14L387.256 531.572L363.174 521.484ZM442.663 557.263L430.965 577.825L451.121 586.268L462.818 565.706L442.663 557.263ZM522.152 593.039L512.733 609.596L528.963 616.395L538.381 599.838L522.152 593.039ZM601.531 628.441L594.088 641.527L606.914 646.9L614.357 633.814L601.531 628.441ZM680.855 663.654L675.234 673.535L684.919 677.592L690.54 667.711L680.855 663.654ZM760.124 698.679L756.174 705.622L762.98 708.473L766.929 701.53L760.124 698.679ZM839.283 733.328L836.701 737.868L841.151 739.732L843.733 735.192L839.283 733.328ZM-9.04151 306.36L28.7884 322.207L6.83287 360.802L-30.997 344.955L-9.04151 306.36ZM108.202 357.545L87.3894 394.131L123.252 409.154L144.064 372.568L108.202 357.545ZM-87.0474 275.668L-52.3586 290.199L-72.4901 325.588L-107.179 311.057L-87.0474 275.668ZM187.637 393.135L168.951 425.982L201.147 439.47L219.833 406.623L187.637 393.135ZM267.125 428.913L250.718 457.754L278.988 469.597L295.395 440.755L267.125 428.913ZM346.614 464.692L332.486 489.528L356.83 499.725L370.958 474.889L346.614 464.692ZM426.103 500.47L414.254 521.3L434.671 529.853L446.52 509.023L426.103 500.47ZM505.536 536.059L495.813 553.151L512.566 560.169L522.289 543.077L505.536 536.059ZM-202.118 240.614L-210.929 256.103L-195.747 262.463L-186.936 246.974L-202.118 240.614ZM584.97 571.649L577.374 585.002L590.462 590.484L598.058 577.131L584.97 571.649ZM664.294 606.863L658.522 617.011L668.468 621.177L674.241 611.03L664.294 606.863ZM743.563 641.887L739.461 649.097L746.529 652.058L750.631 644.847L743.563 641.887ZM822.723 676.535L819.988 681.343L824.699 683.316L827.434 678.509L822.723 676.535ZM902.156 712.126L901.549 713.193L902.595 713.632L903.203 712.564L902.156 712.126ZM-25.5677 250.08L11.9998 265.817L-9.72733 304.011L-47.2949 288.273L-25.5677 250.08ZM91.6427 300.753L70.6781 337.606L106.802 352.738L127.766 315.885L91.6427 300.753ZM-103.968 219.222L-69.1468 233.809L-89.0508 268.798L-123.872 254.211L-103.968 219.222ZM171.076 336.343L152.238 369.457L184.697 383.055L203.535 349.94L171.076 336.343ZM250.565 372.122L234.006 401.23L262.538 413.182L279.097 384.074L250.565 372.122ZM330.053 407.899L315.773 433.001L340.379 443.309L354.659 418.206L330.053 407.899ZM409.487 443.489L397.334 464.853L418.274 473.625L430.428 452.262L409.487 443.489ZM488.976 479.267L479.102 496.626L496.116 503.753L505.991 486.395L488.976 479.267ZM568.41 514.857L560.662 528.477L574.012 534.069L581.76 520.45L568.41 514.857ZM647.734 550.07L641.809 560.486L652.018 564.762L657.943 554.347L647.734 550.07ZM727.003 585.095L722.749 592.573L730.079 595.643L734.332 588.166L727.003 585.095ZM806.162 619.743L803.276 624.817L808.249 626.901L811.136 621.826L806.162 619.743ZM885.213 654.014L883.389 657.22L886.53 658.535L888.353 655.33L885.213 654.014ZM75.0816 243.961L53.9653 281.081L90.3502 296.323L111.467 259.203L75.0816 243.961ZM-41.8875 193.718L-4.84276 209.236L-26.4187 247.164L-63.4634 231.646L-41.8875 193.718ZM154.462 279.363L135.32 313.012L168.301 326.828L187.443 293.179L154.462 279.363ZM233.95 315.141L217.087 344.784L246.142 356.955L263.005 327.312L233.95 315.141ZM313.439 350.919L298.855 376.556L323.984 387.082L338.568 361.445L313.439 350.919ZM392.926 386.697L380.621 408.328L401.824 417.21L414.129 395.579L392.926 386.697ZM472.416 422.476L462.39 440.101L479.666 447.338L489.692 429.713L472.416 422.476ZM-156.354 160.735L-164.862 175.69L-150.203 181.831L-141.695 166.875L-156.354 160.735ZM551.849 458.065L543.95 471.951L557.562 477.653L565.461 463.767L551.849 458.065ZM631.174 493.279L625.097 503.961L635.567 508.347L641.644 497.665L631.174 493.279ZM710.498 528.491L706.245 535.969L713.574 539.039L717.828 531.562L710.498 528.491ZM789.657 563.14L786.77 568.214L791.744 570.297L794.631 565.223L789.657 563.14ZM868.706 597.412L866.883 600.616L870.024 601.932L871.847 598.728L868.706 597.412ZM947.865 632.059L947.409 632.86L948.194 633.189L948.65 632.388L947.865 632.059ZM58.4663 186.98L37.0459 224.635L73.9545 240.096L95.3749 202.442L58.4663 186.98ZM-58.8627 137.083L-21.5547 152.712L-42.9022 190.238L-80.2102 174.61L-58.8627 137.083ZM137.9 222.571L118.607 256.487L151.851 270.413L171.144 236.497L137.9 222.571ZM217.389 258.349L200.374 288.259L229.692 300.54L246.707 270.63L217.389 258.349ZM296.878 294.127L282.142 320.031L307.533 330.667L322.269 304.763L296.878 294.127ZM376.366 329.906L363.909 351.804L385.374 360.795L397.831 338.897L376.366 329.906ZM455.801 365.495L445.471 383.655L463.27 391.111L473.601 372.952L455.801 365.495ZM535.289 401.274L527.238 415.427L541.111 421.238L549.162 407.085L535.289 401.274ZM614.614 436.486L608.385 447.435L619.117 451.931L625.345 440.981L614.614 436.486ZM693.937 471.7L689.532 479.444L697.123 482.624L701.528 474.88L693.937 471.7ZM773.096 506.348L770.057 511.689L775.293 513.882L778.331 508.541L773.096 506.348ZM852.145 540.619L850.171 544.09L853.574 545.516L855.548 542.045L852.145 540.619ZM931.085 574.513L929.87 576.65L931.964 577.527L933.18 575.391L931.085 574.513ZM41.9061 130.189L20.334 168.11L57.5041 183.681L79.0761 145.76L41.9061 130.189ZM121.34 165.779L101.895 199.961L135.4 213.996L154.845 179.814L121.34 165.779ZM200.774 201.369L183.456 231.813L213.296 244.313L230.615 213.87L200.774 201.369ZM280.263 237.147L265.223 263.585L291.138 274.44L306.177 248.002L280.263 237.147ZM359.806 273.112L347.197 295.278L368.924 304.38L381.533 282.214L359.806 273.112ZM439.24 308.704L428.758 327.13L446.819 334.696L457.301 316.27L439.24 308.704ZM518.674 344.293L510.318 358.98L524.715 365.011L533.07 350.324L518.674 344.293ZM-110.535 81.0461L-118.587 95.2L-104.713 101.012L-96.6615 86.8578L-110.535 81.0461ZM598.053 379.694L591.672 390.911L602.666 395.516L609.047 384.3L598.053 379.694ZM677.378 414.908L672.82 422.92L680.672 426.209L685.23 418.197L677.378 414.908ZM756.536 449.555L753.345 455.163L758.843 457.466L762.033 451.858L756.536 449.555ZM835.585 483.827L833.458 487.566L837.122 489.101L839.249 485.362L835.585 483.827ZM914.579 517.91L913.364 520.046L915.458 520.924L916.673 518.787L914.579 517.91ZM993.574 551.994L993.271 552.528L993.794 552.747L994.097 552.213L993.574 551.994ZM25.3464 73.3971L3.62263 111.585L41.0542 127.265L62.778 89.0773L25.3464 73.3971ZM104.78 108.987L85.1827 143.436L118.95 157.582L138.547 123.132L104.78 108.987ZM184.213 144.577L166.743 175.288L196.846 187.898L214.317 157.187L184.213 144.577ZM263.702 180.355L248.511 207.06L274.687 218.025L289.878 191.321L263.702 180.355ZM343.191 216.133L330.278 238.832L352.528 248.153L365.441 225.453L343.191 216.133ZM422.679 251.911L412.045 270.605L430.369 278.281L441.003 259.587L422.679 251.911ZM502.113 287.501L493.606 302.456L508.265 308.596L516.772 293.641L502.113 287.501ZM581.492 322.903L574.96 334.386L586.216 339.101L592.748 327.618L581.492 322.903ZM660.816 358.116L656.107 366.395L664.222 369.794L668.931 361.515L660.816 358.116ZM740.03 392.953L736.84 398.56L742.336 400.863L745.526 395.255L740.03 392.953ZM819.079 427.224L816.952 430.962L820.617 432.498L822.744 428.759L819.079 427.224ZM898.019 461.119L896.652 463.522L899.008 464.509L900.375 462.105L898.019 461.119ZM976.903 494.824L976.144 496.16L977.453 496.708L978.213 495.372L976.903 494.824ZM8.78585 16.6046L-13.0902 55.0601L24.6038 70.8502L46.4799 32.3947L8.78585 16.6046ZM88.1642 52.0067L68.2633 86.9902L102.554 101.355L122.455 66.3712L88.1642 52.0067ZM167.652 87.7851L150.03 118.763L180.394 131.483L198.017 100.505L167.652 87.7851ZM247.141 123.563L231.797 150.535L258.236 161.61L273.579 134.638L247.141 123.563ZM326.631 159.34L313.565 182.307L336.078 191.738L349.143 168.771L326.631 159.34ZM406.119 195.12L395.333 214.081L413.918 221.866L424.704 202.905L406.119 195.12ZM485.553 230.709L476.894 245.931L491.814 252.181L500.473 236.96L485.553 230.709ZM-64.7172 1.35685L-72.3132 14.7097L-59.2247 20.1926L-51.6287 6.83968L-64.7172 1.35685ZM564.932 266.112L558.248 277.862L569.765 282.686L576.449 270.936L564.932 266.112ZM644.256 301.324L639.394 309.87L647.77 313.379L652.632 304.832L644.256 301.324ZM723.47 336.161L720.128 342.036L725.886 344.448L729.228 338.573L723.47 336.161ZM802.519 370.433L800.241 374.438L804.167 376.083L806.445 372.077L802.519 370.433ZM881.513 404.514L880.146 406.918L882.502 407.906L883.87 405.501L881.513 404.514ZM960.398 438.221L959.638 439.556L960.947 440.105L961.707 438.769L960.398 438.221ZM-7.61023 -39.6213L-29.1823 -1.70012L7.98786 13.8705L29.5599 -24.0506L-7.61023 -39.6213ZM71.6037 -4.78581L51.5505 30.4653L86.1036 44.9397L106.157 9.68857L71.6037 -4.78581ZM151.038 30.8049L133.112 62.3172L163.999 75.256L181.925 43.7436L151.038 30.8049ZM230.526 66.5819L214.878 94.0888L241.84 105.383L257.488 77.8764L230.526 66.5819ZM310.016 102.361L296.647 125.861L319.682 135.511L333.051 112.01L310.016 102.361ZM389.504 138.139L378.414 157.634L397.523 165.639L408.613 146.144L389.504 138.139ZM468.993 173.918L460.182 189.407L475.364 195.766L484.175 180.278L468.993 173.918ZM548.372 209.318L541.536 221.336L553.315 226.27L560.152 214.253L548.372 209.318ZM627.695 244.532L622.681 253.345L631.32 256.964L636.333 248.151L627.695 244.532ZM706.91 279.368L703.416 285.51L709.436 288.032L712.93 281.89L706.91 279.368ZM786.014 313.829L783.736 317.834L787.662 319.479L789.941 315.473L786.014 313.829ZM865.008 347.911L863.641 350.314L865.997 351.301L867.364 348.898L865.008 347.911ZM943.893 381.617L943.134 382.952L944.443 383.501L945.202 382.165L943.893 381.617ZM1022.67 414.947L1022.21 415.748L1023 416.077L1023.45 415.276L1022.67 414.947ZM55.0441 -61.5779L34.8392 -26.0601L69.6537 -11.4762L89.8586 -46.994L55.0441 -61.5779ZM134.477 -25.9877L116.399 5.79142L147.549 18.8401L165.627 -12.939L134.477 -25.9877ZM213.965 9.79068L198.167 37.5633L225.39 48.9674L241.189 21.1947L213.965 9.79068ZM293.455 45.5698L279.935 69.337L303.231 79.0959L316.752 55.3287L293.455 45.5698ZM372.944 81.3459L361.701 101.109L381.072 109.223L392.314 89.4602L372.944 81.3459ZM452.377 116.938L443.262 132.96L458.968 139.54L468.083 123.517L452.377 116.938ZM-18.8424 -78.1434L-25.8304 -65.8593L-13.7895 -60.8153L-6.80148 -73.0995L-18.8424 -78.1434ZM531.811 152.527L524.823 164.811L536.864 169.855L543.852 157.571L531.811 152.527ZM611.135 187.74L605.97 196.82L614.87 200.548L620.035 191.468L611.135 187.74ZM690.35 222.577L686.704 228.985L692.986 231.617L696.631 225.208L690.35 222.577ZM769.454 257.036L767.023 261.309L771.211 263.064L773.642 258.791L769.454 257.036ZM848.448 291.12L846.929 293.79L849.546 294.886L851.065 292.216L848.448 291.12ZM927.332 324.825L926.421 326.428L927.991 327.085L928.903 325.483L927.332 324.825ZM1006.16 358.344L1005.71 359.145L1006.49 359.474L1006.95 358.673L1006.16 358.344ZM38.5927 -117.993L18.5395 -82.7421L53.0926 -68.2677L73.1458 -103.519L38.5927 -117.993ZM117.917 -82.7789L99.6874 -50.7331L131.099 -37.5749L149.328 -69.6207L117.917 -82.7789ZM197.406 -47.0014L181.455 -18.9611L208.94 -7.44758L224.891 -35.4879L197.406 -47.0014ZM276.894 -11.224L263.222 12.8108L286.781 22.6796L300.453 -1.35518L276.894 -11.224ZM356.383 24.5557L344.99 44.5841L364.621 52.8079L376.015 32.7795L356.383 24.5557ZM435.817 60.145L426.55 76.4356L442.518 83.1246L451.785 66.834L435.817 60.145ZM515.251 95.7343L508.11 108.286L520.413 113.44L527.554 100.888L515.251 95.7343ZM594.574 130.948L589.257 140.295L598.42 144.133L603.736 134.786L594.574 130.948ZM673.789 165.784L669.991 172.461L676.535 175.202L680.333 168.526L673.789 165.784ZM752.948 200.433L750.517 204.706L754.705 206.46L757.136 202.187L752.948 200.433ZM831.943 234.515L830.423 237.186L833.041 238.282L834.561 235.611L831.943 234.515ZM910.827 268.222L909.916 269.825L911.486 270.482L912.397 268.88L910.827 268.222ZM989.657 301.74L989.201 302.541L989.986 302.87L990.442 302.069L989.657 301.74ZM1068.38 334.882L1068.07 335.415L1068.6 335.635L1068.9 335.101L1068.38 334.882ZM102.565 -135.427L87.5252 -108.989L113.44 -98.1338L128.479 -124.572L102.565 -135.427ZM181.944 -100.026L168.879 -77.0593L191.39 -67.6293L204.455 -90.5963L181.944 -100.026ZM261.268 -64.8133L250.026 -45.0516L269.397 -36.9373L280.638 -56.699L261.268 -64.8133ZM340.592 -29.6002L331.173 -13.0429L347.403 -6.24439L356.821 -22.8017L340.592 -29.6002ZM419.915 5.61254L412.319 18.9654L425.408 24.4482L433.004 11.0953L419.915 5.61254ZM499.184 40.6375L493.26 51.0527L503.468 55.3292L509.393 44.914L499.184 40.6375ZM27.3053 -156.703L21.6844 -146.822L31.3695 -142.765L36.9903 -152.645L27.3053 -156.703ZM578.344 75.2862L573.787 83.2972L581.64 86.5869L586.197 78.5759L578.344 75.2862ZM657.504 109.935L654.314 115.543L659.81 117.845L663 112.237L657.504 109.935ZM736.552 144.206L734.425 147.944L738.09 149.48L740.217 145.741L736.552 144.206ZM815.492 178.1L814.125 180.504L816.48 181.491L817.848 179.086L815.492 178.1ZM894.376 211.806L893.616 213.142L894.925 213.69L895.685 212.354L894.376 211.806ZM973.15 245.136L972.695 245.937L973.481 246.267L973.937 245.466L973.15 245.136ZM91.0023 -175.08L89.6352 -172.677L91.991 -171.69L93.3582 -174.093L91.0023 -175.08ZM169.723 -141.938L168.507 -139.801L170.602 -138.924L171.817 -141.06L169.723 -141.938ZM248.442 -108.797L247.379 -106.928L249.21 -106.161L250.274 -108.029L248.442 -108.797ZM327.162 -75.6567L326.25 -74.0536L327.821 -73.3957L328.733 -74.9988L327.162 -75.6567ZM405.882 -42.5146L405.122 -41.1791L406.431 -40.6308L407.191 -41.9663L405.882 -42.5146ZM484.601 -9.37258L483.993 -8.30476L485.04 -7.86632L485.647 -8.93414L484.601 -9.37258ZM563.321 23.7676L562.866 24.5687L563.652 24.898L564.107 24.0969L563.321 23.7676ZM642.041 56.9097L641.737 57.4431L642.26 57.6621L642.564 57.1287L642.041 56.9097Z" fill="#A2ABC8" fill-opacity="0.1"/>
</svg>
