<?xml version="1.0" encoding="UTF-8"?>
<svg width="17px" height="16px" viewBox="0 0 17 16" version="1.1" xmlns="http://www.w3.org/2000/svg" xmlns:xlink="http://www.w3.org/1999/xlink">
    <title>760BC5B5-66C0-4CF8-B615-D93A6DE39C96-black</title>
    <g id="primary" stroke="none" stroke-width="1" fill="none" fill-rule="evenodd">
        <g id="homepage-amended" transform="translate(-274.000000, -4890.000000)" fill="#FFFFFF">
            <g id="Group-15" transform="translate(200.000000, 4890.000000)">
                <path d="M83.6615943,0.000924469561 C84.945907,0.00401935994 85.2481788,0.0156573644 85.9388263,0.0471696027 C86.7731309,0.0852226529 87.342931,0.217739367 87.84151,0.411520558 C88.356953,0.611804682 88.7940808,0.879825103 89.2298707,1.31558387 C89.6656294,1.75137374 89.9336499,2.18850155 90.1339651,2.70394458 C90.3277152,3.20252355 90.4602319,3.77232364 90.4982849,4.60662821 C90.5314557,5.33362558 90.5426052,5.63028982 90.5449494,7.09502774 L90.5449494,8.5817604 C90.5434257,9.53382674 90.5381817,9.99239061 90.5255881,10.3964088 L90.5192405,10.5806041 C90.513494,10.7335366 90.5065776,10.8883901 90.4982849,11.0701395 C90.4602319,11.904444 90.3277152,12.4742441 90.1339651,12.9728231 C89.9336499,13.4882661 89.6656294,13.9253939 89.2298707,14.3611838 C88.7940808,14.7969426 88.356953,15.064963 87.84151,15.2652782 C87.342931,15.4590283 86.7731309,15.591545 85.9388263,15.6295981 C85.757077,15.6378908 85.6022235,15.6448071 85.449291,15.6505537 L85.2650957,15.6569012 C84.8610775,15.6694948 84.4025136,15.6747388 83.4504473,15.6762625 L81.9637146,15.6762625 C80.4989767,15.6739183 80.2023124,15.6627689 79.4753151,15.6295981 C78.6410105,15.591545 78.0712104,15.4590283 77.5726314,15.2652782 C77.0571884,15.064963 76.6200606,14.7969426 76.1842707,14.3611838 C75.748512,13.9253939 75.4804916,13.4882661 75.2802074,12.9728231 C75.0864262,12.4742441 74.9539095,11.904444 74.9158565,11.0701395 C74.8843442,10.379492 74.8727062,10.0772201 74.8696113,8.79290741 L74.8696113,6.8838778 C74.8727062,5.59954757 74.8843442,5.29727571 74.9158565,4.60662821 C74.9539095,3.77232364 75.0864262,3.20252355 75.2802074,2.70394458 C75.4804916,2.18850155 75.748512,1.75137374 76.1842707,1.31558387 C76.6200606,0.879825103 77.0571884,0.611804682 77.5726314,0.411520558 C78.0712104,0.217739367 78.6410105,0.0852226529 79.4753151,0.0471696027 C80.1659626,0.0156573644 80.4682344,0.00401935994 81.7525647,0.000924469561 Z M83.4372642,1.41277522 L81.9768976,1.41277522 C80.9708023,1.41426988 80.5311811,1.41977688 80.1114366,1.43419421 L79.9311695,1.44093287 C79.8096779,1.44580805 79.6834346,1.45146771 79.539691,1.45802611 C78.7754563,1.49287437 78.3604198,1.62056833 78.0842163,1.7279134 C77.7183407,1.87010673 77.4572277,2.03996086 77.1829533,2.31426641 C76.9086477,2.58854085 76.7387936,2.84965385 76.5966003,3.21552941 C76.4892552,3.49173295 76.3615612,3.90676945 76.326713,4.67100413 C76.3201546,4.81474778 76.3144949,4.94099106 76.3096197,5.06248262 L76.3028811,5.24274975 C76.2884637,5.66249422 76.2829568,6.1021154 76.2814621,7.10821077 L76.2814621,8.56857737 C76.2835973,10.005836 76.293921,10.2870453 76.326713,11.0057635 C76.3615612,11.7699982 76.4892552,12.1850347 76.5966003,12.4612383 C76.7387936,12.8271138 76.9086788,13.0882268 77.1829533,13.3625013 C77.4572277,13.6368068 77.7183407,13.8066609 78.0842163,13.9488543 C78.3604198,14.0561993 78.7754563,14.1838933 79.539691,14.2187416 C80.1864643,14.2482544 80.4788745,14.2595678 81.5787299,14.263092 L81.9768475,14.2639925 C82.0487158,14.2640992 82.1234748,14.2641855 82.2013235,14.2642531 L83.2128423,14.2642531 C83.29069,14.2641855 83.3654481,14.2640992 83.4373158,14.2639925 L83.8354299,14.263092 C84.9352775,14.2595678 85.2277014,14.2482544 85.8744504,14.2187416 C86.6386851,14.1838933 87.0537216,14.0561993 87.3299251,13.9488543 C87.6958007,13.8066609 87.9569137,13.6368068 88.2311881,13.3625013 C88.5054937,13.0882268 88.6753478,12.8271138 88.8175411,12.4612383 C88.9248862,12.1850347 89.0525802,11.7699982 89.0874284,11.0057635 C89.1169412,10.3589172 89.1282547,10.066453 89.1317788,8.96666704 L89.1326793,8.56857737 C89.1327861,8.49671444 89.1328724,8.42196138 89.13294,8.34411901 L89.13294,7.33267235 C89.1328724,7.25482885 89.1327861,7.18007472 89.1326793,7.10821077 L89.1317788,6.71011555 C89.1282547,5.61031472 89.1169412,5.31785052 89.0874284,4.67100413 C89.0525802,3.90676945 88.9248862,3.49173295 88.8175411,3.21552941 C88.6753478,2.84965385 88.5054937,2.58854085 88.2311881,2.31426641 C87.9569137,2.03996086 87.6958007,1.87010673 87.3299251,1.7279134 C87.0537216,1.62056833 86.6386851,1.49287437 85.8744504,1.45802611 C85.1557322,1.42523412 84.8745229,1.41491045 83.4372642,1.41277522 Z M82.7070863,3.81327034 C84.9300938,3.81327034 86.7321842,5.61536074 86.7321842,7.8383994 C86.7321842,10.0614069 84.9300938,11.8634973 82.7070863,11.8634973 C80.4840476,11.8634973 78.6819572,10.0614069 78.6819572,7.8383994 C78.6819572,5.61536074 80.4840476,3.81327034 82.7070863,3.81327034 Z M82.7070863,5.22558923 C81.2640573,5.22558923 80.0942761,6.39537048 80.0942761,7.8383994 C80.0942761,9.2813972 81.2640573,10.4511785 82.7070863,10.4511785 C84.1500841,10.4511785 85.3198653,9.2813972 85.3198653,7.8383994 C85.3198653,6.39537048 84.1500841,5.22558923 82.7070863,5.22558923 Z M86.8912105,2.71362119 C87.4106984,2.71362119 87.8318334,3.13475614 87.8318334,3.65424406 C87.8318334,4.17373198 87.4106984,4.5948358 86.8912105,4.5948358 C86.3717537,4.5948358 85.9506187,4.17373198 85.9506187,3.65424406 C85.9506187,3.13475614 86.3717537,2.71362119 86.8912105,2.71362119 Z" id="Instagram"></path>
            </g>
        </g>
    </g>
</svg>