<?xml version="1.0" encoding="UTF-8"?>
<svg width="15px" height="14px" viewBox="0 0 15 14" version="1.1" xmlns="http://www.w3.org/2000/svg" xmlns:xlink="http://www.w3.org/1999/xlink">
    <title>0007DD05-D50D-4841-A22F-887654C3491F-black</title>
    <g id="primary" stroke="none" stroke-width="1" fill="none" fill-rule="evenodd">
        <g id="homepage-amended" transform="translate(-238.000000, -4891.000000)" fill="#FFFFFF">
            <g id="Group-15" transform="translate(200.000000, 4890.000000)">
                <path d="M52.7845118,14.3703704 L49.6084639,14.3703704 L49.6084639,9.77786143 C49.6084639,8.57577849 49.111652,7.75514984 48.0191726,7.75514984 C47.1835484,7.75514984 46.7188433,8.30892779 46.5025443,8.84262919 C46.4214321,9.03419286 46.4341059,9.30104356 46.4341059,9.56789426 L46.4341059,14.3703704 L43.2876301,14.3703704 C43.2876301,14.3703704 43.3281862,6.23518832 43.2876301,5.49570237 L46.4341059,5.49570237 L46.4341059,6.88851245 C46.6199879,6.27952402 47.6254407,5.41037706 49.2299405,5.41037706 C51.220568,5.41037706 52.7845118,6.68691051 52.7845118,9.4357237 L52.7845118,14.3703704 L52.7845118,14.3703704 Z M40.1056678,4.38563691 L40.0853898,4.38563691 C39.0714878,4.38563691 38.4141414,3.7072171 38.4141414,2.84727189 C38.4141414,1.97059623 39.090921,1.30639731 40.125101,1.30639731 C41.158436,1.30639731 41.7938146,1.96892319 41.8140926,2.84476232 C41.8140926,3.70470753 41.158436,4.38563691 40.1056678,4.38563691 L40.1056678,4.38563691 L40.1056678,4.38563691 Z M38.7766114,5.49570237 L41.5775155,5.49570237 L41.5775155,14.3703704 L38.7766114,14.3703704 L38.7766114,5.49570237 L38.7766114,5.49570237 Z" id="LinkedIn"></path>
            </g>
        </g>
    </g>
</svg>