<svg width="800" height="477" viewBox="0 0 800 477" fill="none" xmlns="http://www.w3.org/2000/svg">
<g opacity="0.3">
<path d="M160 260C160 248.954 168.954 240 180 240H220C231.046 240 240 248.954 240 260V300C240 311.046 231.046 320 220 320H180C168.954 320 160 311.046 160 300V260Z" fill="#E7E9F6"/>
<path d="M160 417C160 405.954 168.954 397 180 397H220C231.046 397 240 405.954 240 417V457C240 468.046 231.046 477 220 477H180C168.954 477 160 468.046 160 457V417Z" fill="#D4ECD1"/>
<path d="M160 100C160 88.9543 168.954 80 180 80H220C231.046 80 240 88.9543 240 100V140C240 151.046 231.046 160 220 160H180C168.954 160 160 151.046 160 140V100Z" fill="#D4ECD1"/>
<path d="M0 260C0 248.954 8.95431 240 20 240H60C71.0457 240 80 248.954 80 260V300C80 311.046 71.0457 320 60 320H20C8.95431 320 0 311.046 0 300V260Z" fill="#D4ECD1"/>
<path d="M0 417C0 405.954 8.95431 397 20 397H60C71.0457 397 80 405.954 80 417V457C80 468.046 71.0457 477 60 477H20C8.95431 477 0 468.046 0 457V417Z" fill="#E7E9F6"/>
<path d="M320 100C320 88.9543 328.954 80 340 80H380C391.046 80 400 88.9543 400 100V140C400 151.046 391.046 160 380 160H340C328.954 160 320 151.046 320 140V100Z" fill="#E7E9F6"/>
<path d="M640 100C640 88.9543 648.954 80 660 80H700C711.046 80 720 88.9543 720 100V140C720 151.046 711.046 160 700 160H660C648.954 160 640 151.046 640 140V100Z" fill="#E7E9F6"/>
<path d="M320 260C320 248.954 328.954 240 340 240H380C391.046 240 400 248.954 400 260V300C400 311.046 391.046 320 380 320H340C328.954 320 320 311.046 320 300V260Z" fill="#D4ECD1"/>
<path d="M640 260C640 248.954 648.954 240 660 240H700C711.046 240 720 248.954 720 260V300C720 311.046 711.046 320 700 320H660C648.954 320 640 311.046 640 300V260Z" fill="#D4ECD1"/>
<path d="M320 417C320 405.954 328.954 397 340 397H380C391.046 397 400 405.954 400 417V457C400 468.046 391.046 477 380 477H340C328.954 477 320 468.046 320 457V417Z" fill="#E7E9F6"/>
<path d="M640 417C640 405.954 648.954 397 660 397H700C711.046 397 720 405.954 720 417V457C720 468.046 711.046 477 700 477H660C648.954 477 640 468.046 640 457V417Z" fill="#E7E9F6"/>
<path d="M480 100C480 88.9543 488.954 80 500 80H540C551.046 80 560 88.9543 560 100V140C560 151.046 551.046 160 540 160H500C488.954 160 480 151.046 480 140V100Z" fill="#D4ECD1"/>
<path d="M480 260C480 248.954 488.954 240 500 240H540C551.046 240 560 248.954 560 260V300C560 311.046 551.046 320 540 320H500C488.954 320 480 311.046 480 300V260Z" fill="#E7E9F6"/>
<path d="M480 417C480 405.954 488.954 397 500 397H540C551.046 397 560 405.954 560 417V457C560 468.046 551.046 477 540 477H500C488.954 477 480 468.046 480 457V417Z" fill="#D4ECD1"/>
<path d="M240 180C240 168.954 248.954 160 260 160H300C311.046 160 320 168.954 320 180V220C320 231.046 311.046 240 300 240H260C248.954 240 240 231.046 240 220V180Z" fill="#FCEABA"/>
<path d="M240 337C240 325.954 248.954 317 260 317H300C311.046 317 320 325.954 320 337V377C320 388.046 311.046 397 300 397H260C248.954 397 240 388.046 240 377V337Z" fill="#F9B9CB"/>
<path d="M240 20C240 8.95431 248.954 0 260 0H300C311.046 0 320 8.95431 320 20V60C320 71.0457 311.046 80 300 80H260C248.954 80 240 71.0457 240 60V20Z" fill="#F9B9CB"/>
<path d="M80 180C80 168.954 88.9543 160 100 160H140C151.046 160 160 168.954 160 180V220C160 231.046 151.046 240 140 240H100C88.9543 240 80 231.046 80 220V180Z" fill="#F9B9CB"/>
<path d="M80 337C80 325.954 88.9543 317 100 317H140C151.046 317 160 325.954 160 337V377C160 388.046 151.046 397 140 397H100C88.9543 397 80 388.046 80 377V337Z" fill="#FCEABA"/>
<path d="M400 180C400 168.954 408.954 160 420 160H460C471.046 160 480 168.954 480 180V220C480 231.046 471.046 240 460 240H420C408.954 240 400 231.046 400 220V180Z" fill="#F9B9CB"/>
<path d="M720 180C720 168.954 728.954 160 740 160H780C791.046 160 800 168.954 800 180V220C800 231.046 791.046 240 780 240H740C728.954 240 720 231.046 720 220V180Z" fill="#F9B9CB"/>
<path d="M400 337C400 325.954 408.954 317 420 317H460C471.046 317 480 325.954 480 337V377C480 388.046 471.046 397 460 397H420C408.954 397 400 388.046 400 377V337Z" fill="#FCEABA"/>
<path d="M720 337C720 325.954 728.954 317 740 317H780C791.046 317 800 325.954 800 337V377C800 388.046 791.046 397 780 397H740C728.954 397 720 388.046 720 377V337Z" fill="#FCEABA"/>
<path d="M400 20C400 8.95431 408.954 0 420 0H460C471.046 0 480 8.95431 480 20V60C480 71.0457 471.046 80 460 80H420C408.954 80 400 71.0457 400 60V20Z" fill="#FCEABA"/>
<path d="M720 20C720 8.95431 728.954 0 740 0H780C791.046 0 800 8.95431 800 20V60C800 71.0457 791.046 80 780 80H740C728.954 80 720 71.0457 720 60V20Z" fill="#FCEABA"/>
<path d="M560 180C560 168.954 568.954 160 580 160H620C631.046 160 640 168.954 640 180V220C640 231.046 631.046 240 620 240H580C568.954 240 560 231.046 560 220V180Z" fill="#FCEABA"/>
<path d="M560 337C560 325.954 568.954 317 580 317H620C631.046 317 640 325.954 640 337V377C640 388.046 631.046 397 620 397H580C568.954 397 560 388.046 560 377V337Z" fill="#F9B9CB"/>
<path d="M560 20C560 8.95431 568.954 0 580 0H620C631.046 0 640 8.95431 640 20V60C640 71.0457 631.046 80 620 80H580C568.954 80 560 71.0457 560 60V20Z" fill="#F9B9CB"/>
</g>
</svg>
