<svg width="443" height="441" viewBox="0 0 443 441" fill="none" xmlns="http://www.w3.org/2000/svg">
<path d="M377.7 247.785C371.253 283.86 352.669 316.647 325.03 340.71L314.478 328.591C339.353 306.934 356.079 277.425 361.882 244.958L377.7 247.785Z" fill="#F05F87"/>
<path d="M374.269 219.116L385.383 249.682L353.355 244.024L374.269 219.116Z" fill="#F05F87"/>
<path d="M297.851 351.611L308.031 320.721L329.692 344.982L297.851 351.611Z" fill="#F05F87"/>
<path d="M119.062 342.371C91.0441 318.75 71.9415 286.262 64.9218 250.294L80.6937 247.216C87.0114 279.587 104.204 308.826 129.42 330.085L119.062 342.371Z" fill="#F5BF2F"/>
<path d="M145.606 353.734L113.578 348.076L134.492 323.168L145.606 353.734Z" fill="#F5BF2F"/>
<path d="M69.0712 221.306L90.7324 245.567L58.891 252.196L69.0712 221.306Z" fill="#F5BF2F"/>
<g clip-path="url(#clip0)">
<path d="M334.166 137.266V166.611C334.166 171.536 338.155 175.529 343.076 175.529C347.997 175.529 351.985 171.536 351.985 166.611V137.266H334.166Z" fill="#81C677"/>
<path d="M354.93 111.709H352.431V107.302C352.431 106.536 351.811 105.916 351.045 105.916H334.318C333.552 105.916 332.931 106.536 332.931 107.302V111.709H331.222C330.456 111.709 329.835 112.33 329.835 113.096V119.583C329.835 120.349 330.456 120.97 331.222 120.97H332.779V166.619C332.779 172.297 337.398 176.916 343.076 176.916C348.753 176.916 353.372 172.297 353.372 166.619V120.97H354.929C355.695 120.97 356.316 120.349 356.316 119.583V113.096C356.316 112.33 355.695 111.709 354.93 111.709ZM335.705 108.689H349.658V111.709H335.705V108.689ZM350.599 166.619C350.599 170.767 347.224 174.142 343.076 174.142C338.928 174.142 335.553 170.767 335.553 166.619V120.97H350.599V166.619ZM353.543 118.197H332.609V114.482H353.543V118.197Z" fill="black"/>
<path d="M379.946 129.558H361.862C359.666 129.558 357.88 131.344 357.88 133.539V147.604C357.88 149.406 359.083 150.932 360.729 151.421L361.111 153.018C361.217 153.459 361.532 153.821 361.954 153.986C362.118 154.05 362.289 154.081 362.46 154.081C362.731 154.081 363 154.002 363.231 153.847L366.611 151.585H379.946C382.142 151.585 383.929 149.799 383.929 147.604V133.539C383.929 131.344 382.142 129.558 379.946 129.558ZM381.155 147.604C381.155 148.27 380.613 148.812 379.946 148.812H366.19C365.915 148.812 365.647 148.894 365.419 149.046L363.345 150.434L363.211 149.876C363.061 149.252 362.504 148.812 361.862 148.812C361.196 148.812 360.653 148.27 360.653 147.604V133.539C360.653 132.873 361.196 132.331 361.862 132.331H379.946C380.613 132.331 381.155 132.873 381.155 133.539V147.604Z" fill="black"/>
<path d="M375.964 136.899C375.364 136.423 374.492 136.524 374.016 137.124L370.4 141.687L368.397 139.835C367.834 139.315 366.957 139.35 366.437 139.912C365.917 140.475 365.952 141.352 366.514 141.872L369.616 144.74C369.873 144.977 370.21 145.108 370.558 145.108C370.593 145.108 370.629 145.107 370.665 145.104C371.05 145.074 371.405 144.885 371.644 144.583L376.19 138.847C376.666 138.247 376.565 137.375 375.964 136.899Z" fill="black"/>
</g>
<path d="M166.468 71.0902C200.933 58.6366 238.62 58.3373 273.279 70.2419L268.058 85.4398C236.865 74.7257 202.947 74.9951 171.928 86.2033L166.468 71.0902Z" fill="#81C677"/>
<path d="M143.355 88.397L164.269 63.4884L175.383 94.0544L143.355 88.397Z" fill="#81C677"/>
<path d="M296.308 88.3294L264.467 94.9581L274.647 64.0683L296.308 88.3294Z" fill="#81C677"/>
<g clip-path="url(#clip1)">
<path d="M116.822 147.795C113.081 147.795 109.324 148.308 106.563 149.398L102.008 146.71C102.077 146.341 102.123 145.964 102.123 145.576C102.123 142.867 100.378 140.58 97.9625 139.719V134.983C104.465 134.645 110.443 132.694 110.443 128.796V127.568C109.588 128.128 108.564 128.651 107.336 129.11C104.286 130.249 100.218 130.877 95.8823 130.877C91.5463 130.877 87.4787 130.249 84.4286 129.11C83.2006 128.651 82.1764 128.128 81.3218 127.568V128.796C81.3218 132.694 87.2996 134.645 93.8022 134.983V139.719C91.3863 140.58 89.6421 142.867 89.6421 145.576C89.6421 145.964 89.6883 146.341 89.7566 146.71L85.2021 149.398C82.441 148.308 78.6833 147.795 74.9429 147.795C67.6953 147.795 60.3823 149.724 60.3823 154.035C60.3823 158.345 67.6953 160.275 74.9429 160.275C82.1904 160.275 89.5034 158.345 89.5034 154.035C89.5034 153.309 89.2953 152.651 88.9159 152.058L91.8556 150.303C92.9455 151.233 94.3403 151.816 95.8823 151.816C97.4244 151.816 98.8191 151.233 99.9092 150.303L102.849 152.058C102.469 152.651 102.261 153.309 102.261 154.035C102.261 158.345 109.574 160.275 116.822 160.275C124.069 160.275 131.382 158.345 131.382 154.035C131.382 149.724 124.069 147.795 116.822 147.795Z" fill="black"/>
<path d="M95.8823 118.396C103.924 118.396 110.443 115.602 110.443 112.156C110.443 108.709 103.924 105.916 95.8823 105.916C87.8408 105.916 81.3218 108.709 81.3218 112.156C81.3218 115.602 87.8408 118.396 95.8823 118.396Z" fill="black"/>
<path d="M85.8842 125.213C88.4803 126.182 92.031 126.717 95.8823 126.717C99.7335 126.717 103.284 126.182 105.881 125.213C108.908 124.082 110.443 122.489 110.443 120.476V119.247C109.588 119.808 108.564 120.331 107.336 120.79C104.286 121.929 100.218 122.556 95.8823 122.556C91.5463 122.556 87.4787 121.929 84.4286 120.79C83.2006 120.331 82.1764 119.808 81.3218 119.248V120.476C81.3218 122.489 82.8567 124.082 85.8842 125.213Z" fill="#F5BF2F"/>
<path d="M116.822 164.435C112.486 164.435 108.418 163.808 105.368 162.669C104.14 162.21 103.116 161.687 102.261 161.126V162.355C102.261 164.367 103.796 165.961 106.824 167.092C109.42 168.061 112.97 168.595 116.822 168.595C120.673 168.595 124.224 168.061 126.82 167.092C129.847 165.961 131.382 164.367 131.382 162.355V161.126C130.528 161.687 129.503 162.21 128.276 162.669C125.225 163.808 121.158 164.435 116.822 164.435Z" fill="#F5BF2F"/>
<path d="M116.822 172.755C112.486 172.755 108.418 172.128 105.368 170.989C104.14 170.53 103.116 170.007 102.261 169.447V170.675C102.261 174.986 109.574 176.916 116.822 176.916C124.069 176.916 131.382 174.986 131.382 170.675V169.447C130.528 170.007 129.503 170.53 128.276 170.989C125.225 172.128 121.158 172.755 116.822 172.755Z" fill="black"/>
<path d="M74.9429 164.435C70.6069 164.435 66.5392 163.808 63.4891 162.669C62.2613 162.21 61.237 161.687 60.3823 161.126V162.355C60.3823 164.367 61.9173 165.961 64.9448 167.092C67.5408 168.061 71.0915 168.595 74.9429 168.595C78.7941 168.595 82.3449 168.061 84.9411 167.092C87.9685 165.961 89.5034 164.367 89.5034 162.355V161.126C88.6488 161.687 87.6244 162.21 86.3966 162.669C83.3465 163.808 79.2789 164.435 74.9429 164.435Z" fill="#F5BF2F"/>
<path d="M74.9429 172.756C70.6069 172.756 66.5392 172.128 63.4891 170.989C62.2613 170.53 61.237 170.008 60.3823 169.447V170.676C60.3823 174.986 67.6953 176.916 74.9429 176.916C82.1904 176.916 89.5034 174.986 89.5034 170.676V169.447C88.6488 170.008 87.6246 170.53 86.3966 170.989C83.3465 172.128 79.2789 172.756 74.9429 172.756Z" fill="black"/>
</g>
<g clip-path="url(#clip2)">
<path d="M241.734 346.728C235.458 340.369 225.212 340.302 218.853 346.595L205.27 360.178C205.004 360.328 204.789 360.543 204.639 360.809L191.106 374.325C184.797 380.652 184.813 390.897 191.123 397.207C197.483 403.5 207.711 403.5 214.087 397.207L214.104 397.19L227.62 383.624C227.72 383.557 227.803 383.491 227.886 383.408C227.969 383.325 228.035 383.242 228.102 383.142L241.601 369.61C247.961 363.333 248.011 353.088 241.734 346.728ZM211.746 394.849C206.682 399.847 198.529 399.863 193.464 394.849C188.466 389.817 188.466 381.698 193.464 376.667L206.15 363.981L224.349 382.212L211.746 394.849ZM239.26 367.235L226.69 379.838L208.491 361.639L221.078 349.053C226.092 344.038 234.245 344.038 239.26 349.053C244.275 354.068 244.275 362.22 239.26 367.235Z" fill="black"/>
<path d="M224.349 382.212L211.746 394.848C206.682 399.846 198.529 399.863 193.464 394.848C188.466 389.817 188.466 381.697 193.464 376.666L206.15 363.98L224.349 382.212Z" fill="#F05F87"/>
<path d="M226.341 356.508L220.613 362.153L220.596 362.17C219.948 362.801 218.886 362.784 218.255 362.137C217.624 361.489 217.624 360.443 218.288 359.796L224.033 354.15C224.697 353.486 225.744 353.502 226.375 354.167C227.005 354.814 227.005 355.86 226.341 356.508Z" fill="black"/>
<path d="M252.676 385.433C252.676 385.433 252.676 385.433 252.66 385.416C246.466 379.123 236.337 379.057 230.044 385.267C229.994 385.317 229.945 385.367 229.895 385.416C223.602 391.71 223.602 401.905 229.878 408.198C236.155 414.491 246.367 414.491 252.66 408.215C258.953 401.922 258.953 391.726 252.676 385.433ZM228.5 396.807C228.5 389.75 234.229 384.022 241.286 384.022C244.092 384.022 246.832 384.952 249.057 386.662L231.14 404.595C229.43 402.353 228.5 399.613 228.5 396.807ZM250.319 405.84C245.786 410.373 238.579 410.838 233.498 406.936L251.414 389.02C255.333 394.101 254.868 401.307 250.319 405.84Z" fill="black"/>
<path d="M249.057 386.662L231.14 404.595C229.43 402.353 228.5 399.614 228.5 396.807C228.5 389.75 234.229 384.022 241.286 384.022C244.092 384.022 246.832 384.952 249.057 386.662Z" fill="#F05F87"/>
</g>
<defs>
<clipPath id="clip0">
<rect width="71" height="71" fill="white" transform="translate(321.382 105.916)"/>
</clipPath>
<clipPath id="clip1">
<rect width="71" height="71" fill="white" transform="translate(60.3823 105.916)"/>
</clipPath>
<clipPath id="clip2">
<rect width="71" height="71.0033" fill="white" transform="translate(186.382 341.916)"/>
</clipPath>
</defs>
</svg>
