<?xml version="1.0" encoding="UTF-8"?>
<svg width="41px" height="38px" viewBox="0 0 41 38" version="1.1" xmlns="http://www.w3.org/2000/svg" xmlns:xlink="http://www.w3.org/1999/xlink">
    <title>50FC66D9-E727-46D7-9A47-AEB7C31DDDA8@3x</title>
    <g id="primary" stroke="none" stroke-width="1" fill="none" fill-rule="evenodd" stroke-linejoin="round">
        <g id="homepage-amended" transform="translate(-779.000000, -2867.000000)" stroke-width="2">
            <g id="news" transform="translate(200.000000, 2868.000000)">
                <g id="Group-2" transform="translate(338.000000, 0.000000)">
                    <g id="section-icon-3" transform="translate(242.000000, 0.000000)">
                        <path d="M28.8931948,30.7440519 L28.8931948,8.67496104 L28.8931948,8.34405195 L28.8931948,0.778857143 L0.779428571,0.778857143 L0.779428571,30.7440519 C0.779428571,33.2240519 2.82150649,35.234961 5.34150649,35.234961 L33.4552727,35.234961" id="Stroke-1" stroke="#252939" stroke-linecap="round"></path>
                        <polyline id="Stroke-3" stroke="#252939" stroke-linecap="round" points="33.8840519 30.4766753 33.8840519 12.0397922 33.8840519 8.34420779 28.8934026 8.34420779"></polyline>
                        <path d="M28.8931948,30.7440519 C28.8931948,33.2240519 30.9357922,35.234961 33.4552727,35.234961 L33.8838442,35.234961 L34.3113766,35.234961 C36.8308571,35.234961 38.875013,33.2240519 38.875013,30.7440519 L38.875013,12.0396364 L33.8838442,12.0396364" id="Stroke-5" stroke="#252939" stroke-linecap="round"></path>
                        <line x1="11.4774026" y1="7.9238961" x2="5.4774026" y2="7.9238961" id="Stroke-7" stroke="#252939" stroke-linecap="square"></line>
                        <line x1="11.4774026" y1="12.2597403" x2="5.4774026" y2="12.2597403" id="Stroke-9" stroke="#252939" stroke-linecap="square"></line>
                        <line x1="11.4774026" y1="16.2597403" x2="5.4774026" y2="16.2597403" id="Stroke-11" stroke="#252939" stroke-linecap="square"></line>
                        <line x1="24.2001039" y1="20.2597403" x2="5.47750649" y2="20.2597403" id="Stroke-15" stroke="#252939" stroke-linecap="square"></line>
                        <line x1="24.2001039" y1="24.2597403" x2="5.47750649" y2="24.2597403" id="Stroke-17" stroke="#252939" stroke-linecap="square"></line>
                        <line x1="24.2001039" y1="28.2597403" x2="5.47750649" y2="28.2597403" id="Stroke-19" stroke="#252939" stroke-linecap="square"></line>
                        <path d="M24.1350649,7.9238961 L24.1350649,16.4238961 L15.1350649,16.4238961 L15.1350649,7.9238961 L24.1350649,7.9238961 Z" id="Stroke-21" stroke="#F5BF2F" stroke-linecap="square"></path>
                    </g>
                </g>
            </g>
        </g>
    </g>
</svg>