<svg width="42" height="46" viewBox="0 0 42 46" fill="none" xmlns="http://www.w3.org/2000/svg">
<path d="M8.95958 28.7447L8.96176 28.7406H31.7427L31.7449 28.7447L31.9496 29.1346L32.6801 30.5263L34.897 34.7494L35.2877 35.4939C36.7264 38.2346 38.0639 40.7823 38.1242 40.897L38.1242 40.897C38.2711 41.1696 38.3454 41.4649 38.3454 41.7776C38.3454 42.8024 37.5112 43.6366 36.4864 43.6366H25.0976C24.3771 43.6366 23.7931 44.2208 23.7931 44.9411C23.7931 45.6615 24.3771 46.2457 25.0976 46.2457H36.4865C38.9504 46.2457 40.9546 44.2415 40.9546 41.7776C40.9546 41.0419 40.7714 40.3121 40.4245 39.6659C40.4243 39.6656 40.4242 39.6653 40.424 39.6651L28.3003 16.5693V7.65013H29.1048C29.8253 7.65013 30.4094 7.06597 30.4094 6.34561V2.12752C30.4094 1.40716 29.8253 0.822998 29.1048 0.822998H11.5998C10.8793 0.822998 10.2952 1.40716 10.2952 2.12752V6.34561C10.2952 7.06597 10.8793 7.65013 11.5998 7.65013H12.4043V16.5693L0.280557 39.6651C0.280378 39.6654 0.2802 39.6657 0.280022 39.6661C-0.0668795 40.3122 -0.25 41.042 -0.25 41.7776C-0.25 44.2415 1.75416 46.2457 4.21809 46.2457H15.6069C16.3274 46.2457 16.9115 45.6615 16.9115 44.9411C16.9115 44.2208 16.3274 43.6366 15.6069 43.6366H4.21809C3.19323 43.6366 2.35905 42.8024 2.35905 41.7776C2.35905 41.465 2.43338 41.1696 2.5803 40.897L2.58023 40.897C2.63924 40.7849 3.94413 38.2991 5.36233 35.5975L5.80751 34.7494L8.02439 30.5263L8.75491 29.1346L8.95958 28.7447ZM10.3314 26.1315L14.8638 17.4971L14.8639 17.497C14.9619 17.3101 15.0133 17.1022 15.0133 16.8908V7.65013H25.6913V16.8908C25.6913 17.102 25.7425 17.3101 25.8408 17.4972L30.3732 26.1315H10.3314ZM12.9043 3.43204H27.8003V5.04109H12.9043V3.43204Z" fill="#4A557D" stroke="#4A557D" stroke-width="0.5"/>
</svg>
