<?xml version="1.0" encoding="UTF-8"?>
<svg width="16px" height="14px" viewBox="0 0 16 14" version="1.1" xmlns="http://www.w3.org/2000/svg" xmlns:xlink="http://www.w3.org/1999/xlink">
    <title>46BE2667-13F2-46C8-A24B-011F3F0BE231-black</title>
    <g id="primary" stroke="none" stroke-width="1" fill="none" fill-rule="evenodd">
        <g id="homepage-amended" transform="translate(-200.000000, -4891.000000)" fill="#FFFFFF">
            <g id="Group-15" transform="translate(200.000000, 4890.000000)">
                <path d="M15.6767677,2.85293771 C15.1007475,3.11525512 14.4805595,3.29264962 13.8300063,3.371911 C14.4943619,2.96428107 15.0041306,2.31792343 15.2442924,1.54795578 C14.6222642,1.9253909 13.9349046,2.19997495 13.2006168,2.34717465 C12.615395,1.70647853 11.7789695,1.30639731 10.8532884,1.30639731 C9.07829958,1.30639731 7.63824902,2.78311221 7.63824902,4.60423666 C7.63824902,4.86277972 7.66585382,5.11377407 7.72106343,5.35533255 C5.04799833,5.21756873 2.67858606,3.90598169 1.09130988,1.90840632 C0.814341691,2.3971848 0.656074154,2.96428107 0.656074154,3.56817726 C0.656074154,4.71180567 1.22381294,5.72144461 2.08692311,6.31307416 C1.56059153,6.29703317 1.06370508,6.14700271 0.629389511,5.90166988 L0.629389511,5.94224416 C0.629389511,7.54068189 1.73818243,8.87397145 3.2104386,9.17591954 C2.94083169,9.25329374 2.65650222,9.29198084 2.36297114,9.29198084 C2.15593512,9.29198084 1.9534999,9.2721655 1.7575058,9.2334784 C2.16697704,10.5431783 3.35398358,11.4971455 4.76182853,11.5226224 C3.66131705,12.4077078 2.27371561,12.9351733 0.767413526,12.9351733 C0.507928377,12.9351733 0.251203708,12.9200759 0,12.8898811 C1.42348768,13.824033 3.11474195,14.3703704 4.93021783,14.3703704 C10.8468473,14.3703704 14.0812101,9.34576535 14.0812101,4.98733331 C14.0812101,4.84390796 14.0784496,4.70048262 14.0729286,4.55988803 C14.701398,4.09469925 15.2470529,3.51439275 15.6767677,2.85293771" id="Twitter"></path>
            </g>
        </g>
    </g>
</svg>