<?xml version="1.0" encoding="UTF-8"?>
<svg width="18px" height="13px" viewBox="0 0 18 13" version="1.1" xmlns="http://www.w3.org/2000/svg" xmlns:xlink="http://www.w3.org/1999/xlink">
    <title>7358C122-9103-4A8B-A6F6-DF7194156904@3x</title>
    <defs>
        <rect id="path-1" x="0" y="0" width="18" height="12.8571429" rx="2"></rect>
        <linearGradient x1="50%" y1="0%" x2="50%" y2="100%" id="linearGradient-3">
            <stop stop-color="#FFFFFF" offset="0%"></stop>
            <stop stop-color="#F0F0F0" offset="100%"></stop>
        </linearGradient>
        <path d="M6.42857143,4.28571429 C6.66526489,4.28571429 6.85714286,4.47759225 6.85714286,4.71428571 C6.85714286,4.95097918 6.66526489,5.14285714 6.42857143,5.14285714 C6.19187796,5.14285714 6,4.95097918 6,4.71428571 C6,4.47759225 6.19187796,4.28571429 6.42857143,4.28571429 Z M4.71428571,4.28571429 C4.95097918,4.28571429 5.14285714,4.47759225 5.14285714,4.71428571 C5.14285714,4.95097918 4.95097918,5.14285714 4.71428571,5.14285714 C4.47759225,5.14285714 4.28571429,4.95097918 4.28571429,4.71428571 C4.28571429,4.47759225 4.47759225,4.28571429 4.71428571,4.28571429 Z M3,4.28571429 C3.23669346,4.28571429 3.42857143,4.47759225 3.42857143,4.71428571 C3.42857143,4.95097918 3.23669346,5.14285714 3,5.14285714 C2.76330654,5.14285714 2.57142857,4.95097918 2.57142857,4.71428571 C2.57142857,4.47759225 2.76330654,4.28571429 3,4.28571429 Z M1.28571429,4.28571429 C1.52240775,4.28571429 1.71428571,4.47759225 1.71428571,4.71428571 C1.71428571,4.95097918 1.52240775,5.14285714 1.28571429,5.14285714 C1.04902082,5.14285714 0.857142857,4.95097918 0.857142857,4.71428571 C0.857142857,4.47759225 1.04902082,4.28571429 1.28571429,4.28571429 Z M2.14285714,3.42857143 C2.37955061,3.42857143 2.57142857,3.62044939 2.57142857,3.85714286 C2.57142857,4.09383632 2.37955061,4.28571429 2.14285714,4.28571429 C1.90616368,4.28571429 1.71428571,4.09383632 1.71428571,3.85714286 C1.71428571,3.62044939 1.90616368,3.42857143 2.14285714,3.42857143 Z M3.85714286,3.42857143 C4.09383632,3.42857143 4.28571429,3.62044939 4.28571429,3.85714286 C4.28571429,4.09383632 4.09383632,4.28571429 3.85714286,4.28571429 C3.62044939,4.28571429 3.42857143,4.09383632 3.42857143,3.85714286 C3.42857143,3.62044939 3.62044939,3.42857143 3.85714286,3.42857143 Z M5.57142857,3.42857143 C5.80812204,3.42857143 6,3.62044939 6,3.85714286 C6,4.09383632 5.80812204,4.28571429 5.57142857,4.28571429 C5.33473511,4.28571429 5.14285714,4.09383632 5.14285714,3.85714286 C5.14285714,3.62044939 5.33473511,3.42857143 5.57142857,3.42857143 Z M6.42857143,2.57142857 C6.66526489,2.57142857 6.85714286,2.76330654 6.85714286,3 C6.85714286,3.23669346 6.66526489,3.42857143 6.42857143,3.42857143 C6.19187796,3.42857143 6,3.23669346 6,3 C6,2.76330654 6.19187796,2.57142857 6.42857143,2.57142857 Z M4.71428571,2.57142857 C4.95097918,2.57142857 5.14285714,2.76330654 5.14285714,3 C5.14285714,3.23669346 4.95097918,3.42857143 4.71428571,3.42857143 C4.47759225,3.42857143 4.28571429,3.23669346 4.28571429,3 C4.28571429,2.76330654 4.47759225,2.57142857 4.71428571,2.57142857 Z M3,2.57142857 C3.23669346,2.57142857 3.42857143,2.76330654 3.42857143,3 C3.42857143,3.23669346 3.23669346,3.42857143 3,3.42857143 C2.76330654,3.42857143 2.57142857,3.23669346 2.57142857,3 C2.57142857,2.76330654 2.76330654,2.57142857 3,2.57142857 Z M1.28571429,2.57142857 C1.52240775,2.57142857 1.71428571,2.76330654 1.71428571,3 C1.71428571,3.23669346 1.52240775,3.42857143 1.28571429,3.42857143 C1.04902082,3.42857143 0.857142857,3.23669346 0.857142857,3 C0.857142857,2.76330654 1.04902082,2.57142857 1.28571429,2.57142857 Z M2.14285714,1.71428571 C2.37955061,1.71428571 2.57142857,1.90616368 2.57142857,2.14285714 C2.57142857,2.37955061 2.37955061,2.57142857 2.14285714,2.57142857 C1.90616368,2.57142857 1.71428571,2.37955061 1.71428571,2.14285714 C1.71428571,1.90616368 1.90616368,1.71428571 2.14285714,1.71428571 Z M3.85714286,1.71428571 C4.09383632,1.71428571 4.28571429,1.90616368 4.28571429,2.14285714 C4.28571429,2.37955061 4.09383632,2.57142857 3.85714286,2.57142857 C3.62044939,2.57142857 3.42857143,2.37955061 3.42857143,2.14285714 C3.42857143,1.90616368 3.62044939,1.71428571 3.85714286,1.71428571 Z M5.57142857,1.71428571 C5.80812204,1.71428571 6,1.90616368 6,2.14285714 C6,2.37955061 5.80812204,2.57142857 5.57142857,2.57142857 C5.33473511,2.57142857 5.14285714,2.37955061 5.14285714,2.14285714 C5.14285714,1.90616368 5.33473511,1.71428571 5.57142857,1.71428571 Z M1.28571429,0.857142857 C1.52240775,0.857142857 1.71428571,1.04902082 1.71428571,1.28571429 C1.71428571,1.52240775 1.52240775,1.71428571 1.28571429,1.71428571 C1.04902082,1.71428571 0.857142857,1.52240775 0.857142857,1.28571429 C0.857142857,1.04902082 1.04902082,0.857142857 1.28571429,0.857142857 Z M3,0.857142857 C3.23669346,0.857142857 3.42857143,1.04902082 3.42857143,1.28571429 C3.42857143,1.52240775 3.23669346,1.71428571 3,1.71428571 C2.76330654,1.71428571 2.57142857,1.52240775 2.57142857,1.28571429 C2.57142857,1.04902082 2.76330654,0.857142857 3,0.857142857 Z M4.71428571,0.857142857 C4.95097918,0.857142857 5.14285714,1.04902082 5.14285714,1.28571429 C5.14285714,1.52240775 4.95097918,1.71428571 4.71428571,1.71428571 C4.47759225,1.71428571 4.28571429,1.52240775 4.28571429,1.28571429 C4.28571429,1.04902082 4.47759225,0.857142857 4.71428571,0.857142857 Z M6.42857143,0.857142857 C6.66526489,0.857142857 6.85714286,1.04902082 6.85714286,1.28571429 C6.85714286,1.52240775 6.66526489,1.71428571 6.42857143,1.71428571 C6.19187796,1.71428571 6,1.52240775 6,1.28571429 C6,1.04902082 6.19187796,0.857142857 6.42857143,0.857142857 Z" id="path-4"></path>
        <filter x="-8.3%" y="-11.7%" width="116.7%" height="146.7%" filterUnits="objectBoundingBox" id="filter-5">
            <feOffset dx="0" dy="1" in="SourceAlpha" result="shadowOffsetOuter1"></feOffset>
            <feColorMatrix values="0 0 0 0 0   0 0 0 0 0   0 0 0 0 0  0 0 0 0.06 0" type="matrix" in="shadowOffsetOuter1"></feColorMatrix>
        </filter>
    </defs>
    <g id="primary" stroke="none" stroke-width="1" fill="none" fill-rule="evenodd">
        <g id="homepage-amended" transform="translate(-1119.000000, -4791.000000)">
            <g id="locations" transform="translate(1119.000000, 4709.000000)">
                <g id="US" transform="translate(0.000000, 82.000000)">
                    <mask id="mask-2" fill="white">
                        <use xlink:href="#path-1"></use>
                    </mask>
                    <use id="Mask" fill="#FFFFFF" xlink:href="#path-1"></use>
                    <path d="M18,12 L18,12.8571429 L0,12.8571429 L0,12 L18,12 Z M18,10.2857143 L18,11.1428571 L0,11.1428571 L0,10.2857143 L18,10.2857143 Z M18,8.57142857 L18,9.42857143 L0,9.42857143 L0,8.57142857 L18,8.57142857 Z M18,6.85714286 L18,7.71428571 L0,7.71428571 L0,6.85714286 L18,6.85714286 Z M18,5.14285714 L18,6 L0,6 L0,5.14285714 L18,5.14285714 Z M18,3.42857143 L18,4.28571429 L0,4.28571429 L0,3.42857143 L18,3.42857143 Z M18,1.71428571 L18,2.57142857 L0,2.57142857 L0,1.71428571 L18,1.71428571 Z M18,0 L18,0.857142857 L0,0.857142857 L0,0 L18,0 Z" id="Rectangle-511" fill="#D02F44" mask="url(#mask-2)"></path>
                    <rect id="Rectangle-511" fill="#46467F" mask="url(#mask-2)" x="0" y="0" width="7.71428571" height="6"></rect>
                    <g id="Oval-43" mask="url(#mask-2)">
                        <use fill="black" fill-opacity="1" filter="url(#filter-5)" xlink:href="#path-4"></use>
                        <use fill="url(#linearGradient-3)" fill-rule="evenodd" xlink:href="#path-4"></use>
                    </g>
                </g>
            </g>
        </g>
    </g>
</svg>