<?xml version="1.0" encoding="UTF-8"?>
<svg width="7px" height="14px" viewBox="0 0 7 14" version="1.1" xmlns="http://www.w3.org/2000/svg" xmlns:xlink="http://www.w3.org/1999/xlink">
    <title>25F8E8CA-D83C-47E9-82D0-6BF3DFB795A1@3x</title>
    <g id="primary" stroke="none" stroke-width="1" fill="none" fill-rule="evenodd">
        <g id="homepage-amended" transform="translate(-1250.000000, -3729.000000)" fill="#FFFFFF" fill-rule="nonzero">
            <g id="in-the-know" transform="translate(303.000000, 3504.000000)">
                <g id="Group-10" transform="translate(511.000000, 65.000000)">
                    <g id="Group-9" transform="translate(30.000000, 30.000000)">
                        <g id="email-field" transform="translate(0.000000, 116.000000)">
                            <g id="submit-btn" transform="translate(395.000000, 0.000000)">
                                <path d="M11.4074316,14.2808887 C11.8660696,13.8877704 12.5420641,13.9129951 12.970286,14.3207836 L13.0524889,14.4074316 L17.7191595,19.8518807 C18.0686835,20.2596587 18.0919851,20.8484531 17.7890643,21.2803667 L17.7191595,21.3703952 L13.0524889,26.8148443 C12.6331627,27.3040582 11.8966454,27.3607134 11.4074316,26.9413872 C10.9487935,26.5482689 10.8703341,25.8763693 11.2078323,25.3908177 L11.2808887,25.2963298 L15.2964692,20.6103602 L11.2808887,15.9259461 C10.8877704,15.467308 10.9129951,14.7913135 11.3207836,14.3630916 L11.4074316,14.2808887 Z" id="arrow-mark"></path>
                            </g>
                        </g>
                    </g>
                </g>
            </g>
        </g>
    </g>
</svg>