<?xml version="1.0" encoding="UTF-8"?>
<svg width="38px" height="42px" viewBox="0 0 38 42" version="1.1" xmlns="http://www.w3.org/2000/svg" xmlns:xlink="http://www.w3.org/1999/xlink">
    <title>26F3505D-85AD-43E3-82B8-EE5BF8642898@3x</title>
    <g id="primary" stroke="none" stroke-width="1" fill="none" fill-rule="evenodd">
        <g id="homepage-amended" transform="translate(-778.000000, -800.000000)" fill-rule="nonzero">
            <g id="insights" transform="translate(302.000000, 800.000000)">
                <g id="Group-2" transform="translate(176.000000, 0.000000)">
                    <g id="section-icon-1" transform="translate(300.000000, 0.000000)">
                        <path d="M31.8571429,-0.000171428571 C35.2491419,-0.000171428571 38,2.75068668 38,6.14268571 C38,9.53468475 35.2491419,12.2855429 31.8571429,12.2855429 C31.009433,12.2855429 30.2017671,12.1137318 29.4670756,11.8030401 L27.0434117,14.8335558 C28.5233204,16.1890673 29.4508571,18.134747 29.4508571,20.2972857 C29.4508571,22.7503531 28.2568925,24.9244804 26.4169383,26.2744161 L27.7952196,28.571401 C28.4022036,28.3862606 29.0464741,28.286586 29.7140072,28.2864 L29.7140072,28.2864 L29.949997,28.2905469 C33.470347,28.414606 36.2857143,31.3065578 36.2857143,34.8569714 C36.2857143,38.4854954 33.3438208,41.427389 29.7145642,41.4284004 C26.0852781,41.4294109 23.1428571,38.4876152 23.1428571,34.8586857 C23.1428571,32.6134134 24.2687943,30.6311544 25.9869269,29.4456035 L24.6580881,27.2308396 C23.8356955,27.5429556 22.9434352,27.7138571 22.0111429,27.7138571 C18.0920937,27.7138571 14.8795873,24.692778 14.5923294,20.8575051 L12.2045652,20.8577096 C11.7265367,23.7739147 9.19409314,25.9998286 6.14285714,25.9998286 C2.75085811,25.9998286 -6.57252031e-14,23.2489705 -6.57252031e-14,19.8569714 C-6.57252031e-14,16.4649724 2.75085811,13.7141143 6.14285714,13.7141143 C9.19426039,13.7141143 11.7268143,15.9402721 12.2046438,18.8567128 L14.7115313,18.8570588 C15.3839614,15.449036 18.397019,12.8798571 22.0111429,12.8798571 C23.2298745,12.8798571 24.380174,13.1718993 25.3954109,13.6896826 L27.7673046,10.7257803 C26.5075188,9.6007475 25.7142857,7.9641558 25.7142857,6.14268571 C25.7142857,2.75068668 28.4651438,-0.000171428571 31.8571429,-0.000171428571 Z M29.7142857,30.2864 L29.4993324,30.2914345 C27.0741501,30.4044528 25.1428571,32.406027 25.1428571,34.8586857 C25.1428571,37.3828577 27.1895376,39.4291033 29.7140071,39.4284004 C32.2390364,39.4276967 34.2857143,37.3810188 34.2857143,34.8569714 C34.2857143,32.3323244 32.2393549,30.2864 29.7142857,30.2864 L29.7142857,30.2864 Z M22.0111429,14.8798571 C19.0059359,14.8798571 16.5714286,17.3056354 16.5714286,20.2972857 C16.5714286,23.2881907 19.0060483,25.7138571 22.0111429,25.7138571 C25.016778,25.7138571 27.4508571,23.2885063 27.4508571,20.2972857 C27.4508571,17.3053197 25.0168904,14.8798571 22.0111429,14.8798571 Z M6.14285714,15.7141143 C3.85542761,15.7141143 2,17.5695419 2,19.8569714 C2,22.144401 3.85542761,23.9998286 6.14285714,23.9998286 C8.43028668,23.9998286 10.2857143,22.144401 10.2857143,19.8569714 C10.2857143,17.5695419 8.43028668,15.7141143 6.14285714,15.7141143 Z M31.8571429,1.99982857 C29.5697133,1.99982857 27.7142857,3.85525618 27.7142857,6.14268571 C27.7142857,8.43011525 29.5697133,10.2855429 31.8571429,10.2855429 C34.1445724,10.2855429 36,8.43011525 36,6.14268571 C36,3.85525618 34.1445724,1.99982857 31.8571429,1.99982857 Z" id="Combined-Shape" fill="#252939"></path>
                        <path d="M13.2355925,24.4425535 L14.9964075,25.3909894 C14.0278838,27.1890981 14.7071168,29.4361611 16.516702,30.4098774 C18.2663495,31.3513419 20.4292868,30.7563155 21.447221,29.0915971 L21.5483762,28.9155882 L23.3087666,29.8648118 C21.8145559,32.6359126 18.3494941,33.6672383 15.5690123,32.171094 C12.8575481,30.7120874 11.7956233,27.3867685 13.1283401,24.651735 L13.2355925,24.4425535 Z M30.0471135,14.7586437 C33.1911318,14.9343511 35.596047,17.6346575 35.4194635,20.7861541 C35.2470025,23.8650908 32.6751976,26.2395837 29.6250058,26.1836614 L29.4063473,26.1755103 L29.518567,24.1786611 C31.5590824,24.2933347 33.3077224,22.7250917 33.4225947,20.6742847 C33.5337679,18.6901684 32.0739409,16.9830031 30.1313438,16.7716336 L29.9355151,16.7555277 L30.0471135,14.7586437 Z M23.7096286,10.9419542 L23.8052762,11.1507511 L21.9708952,11.9476489 C21.1545464,10.0684937 18.9695248,9.20638626 17.0902489,10.0218191 C15.2738236,10.8109165 14.4077278,12.8795815 15.0892309,14.7136347 L15.1652762,14.9024654 L13.3308952,15.6993632 C12.0745909,12.8074732 13.4012832,9.44381968 16.2937487,8.1872654 C19.1158604,6.96272844 22.3852054,8.19563459 23.7096286,10.9419542 Z" id="Combined-Shape" fill="#F05F87"></path>
                    </g>
                </g>
            </g>
        </g>
    </g>
</svg>