<?xml version="1.0" encoding="UTF-8"?>
<svg width="44px" height="47px" viewBox="0 0 44 47" version="1.1" xmlns="http://www.w3.org/2000/svg" xmlns:xlink="http://www.w3.org/1999/xlink">
    <title>D8ECF944-C733-4818-AF8B-CD6E60B02DB3@3x</title>
    <g id="primary" stroke="none" stroke-width="1" fill="none" fill-rule="evenodd">
        <g id="homepage-amended" transform="translate(-200.000000, -4709.000000)">
            <g id="logo-icon" transform="translate(200.000000, 4709.000000)">
                <path d="M15.6381936,5.2127412 C15.6381936,8.09172838 13.3044396,10.4254824 10.4254524,10.4254824 C7.54646521,10.4254824 5.21271118,8.09172838 5.21271118,5.2127412 C5.21271118,2.33375403 7.54646521,1.81051755e-15 10.4254524,1.81051755e-15 C13.3044396,1.81051755e-15 15.6381936,2.33375403 15.6381936,5.2127412" id="Fill-14" fill="#F05F87"></path>
                <path d="M38.5743149,40.6593514 C38.5743149,43.5383386 36.2405609,45.8720926 33.3615737,45.8720926 C30.4825866,45.8720926 28.1488325,43.5383386 28.1488325,40.6593514 C28.1488325,37.7806644 30.4825866,35.4466102 33.3615737,35.4466102 C36.2405609,35.4466102 38.5743149,37.7806644 38.5743149,40.6593514" id="Fill-16" fill="#F05F87"></path>
                <path d="M29.4877162,8.75741723 C29.4877162,11.6364044 27.1539622,13.9701584 24.274975,13.9701584 C21.3959878,13.9701584 19.0622338,11.6364044 19.0622338,8.75741723 C19.0622338,5.87873029 21.3959878,3.54467603 24.274975,3.54467603 C27.1539622,3.54467603 29.4877162,5.87873029 29.4877162,8.75741723" id="Fill-18" fill="#81C677"></path>
                <path d="M14.3872498,19.1829297 C14.3872498,22.0619168 12.0534958,24.3956709 9.17450859,24.3956709 C6.29552141,24.3956709 3.96176738,22.0619168 3.96176738,19.1829297 C3.96176738,16.3039425 6.29552141,13.9701885 9.17450859,13.9701885 C12.0534958,13.9701885 14.3872498,16.3039425 14.3872498,19.1829297" id="Fill-20" fill="#81C677"></path>
                <polygon id="Fill-22" fill="#81C677" points="21.7203655 8.75741723 9.17429842 18.4064828 11.6407579 20.3862556 23.3530626 11.8850019"></polygon>
                <path d="M24.8126121,37.1147054 C24.8126121,39.9936925 22.4788581,42.3274466 19.5998709,42.3274466 C16.7208837,42.3274466 14.3871297,39.9936925 14.3871297,37.1147054 C14.3871297,34.2360184 16.7208837,31.9019642 19.5998709,31.9019642 C22.4788581,31.9019642 24.8126121,34.2360184 24.8126121,37.1147054" id="Fill-24" fill="#4A557D"></path>
                <path d="M41.2849584,26.6893431 C41.2849584,29.56803 38.9512044,31.9020843 36.0722172,31.9020843 C33.19323,31.9020843 30.859476,29.56803 30.859476,26.6893431 C30.859476,23.8103559 33.19323,21.4766018 36.0722172,21.4766018 C38.9512044,21.4766018 41.2849584,23.8103559 41.2849584,26.6893431" id="Fill-26" fill="#4A557D"></path>
                <polygon id="Fill-28" fill="#4A557D" points="32.1457278 26.087545 19.599961 35.7366106 22.0664204 37.7163834 33.7784249 29.2151296"></polygon>
                <path d="M43.7869961,11.885152 C43.7869961,14.763839 41.4532421,17.0978932 38.5742549,17.0978932 C35.6952677,17.0978932 33.3615137,14.763839 33.3615137,11.885152 C33.3615137,9.00616485 35.6952677,6.67241082 38.5742549,6.67241082 C41.4532421,6.67241082 43.7869961,9.00616485 43.7869961,11.885152" id="Fill-30" fill="#F5BF2F"></path>
                <path d="M10.4254824,34.404212 C10.4254824,37.282899 8.09172838,39.6169532 5.2127412,39.6169532 C2.33375403,39.6169532 -7.84557604e-15,37.282899 -7.84557604e-15,34.404212 C-7.84557604e-15,31.5252249 2.33375403,29.1914708 5.2127412,29.1914708 C8.09172838,29.1914708 10.4254824,31.5252249 10.4254824,34.404212" id="Fill-32" fill="#F5BF2F"></path>
                <polygon id="Fill-35" fill="#F5BF2F" points="36.9414677 10.3212096 2.72838754 34.4567838 5.19484699 36.4365566 38.5741648 13.4487942"></polygon>
            </g>
        </g>
    </g>
</svg>