<?xml version="1.0" encoding="UTF-8"?>
<svg width="73px" height="63px" viewBox="0 0 73 63" version="1.1" xmlns="http://www.w3.org/2000/svg" xmlns:xlink="http://www.w3.org/1999/xlink">
    <title>BCAE3F33-69DB-4D57-B6F4-51A4C29021BE@3x</title>
    <g id="primary" stroke="none" stroke-width="1" fill="none" fill-rule="evenodd">
        <g id="homepage-amended" transform="translate(-1080.000000, -2215.000000)">
            <g id="what-we-do" transform="translate(0.000000, 1694.000000)">
                <g id="Group-11" transform="translate(404.000000, 385.000000)">
                    <g id="tilt-img-3" transform="translate(676.000000, 136.000000)">
                        <path d="M29.4612121,33.7372767 L47.2644924,37.9834836 C48.8030196,38.3504331 49.7923628,39.848832 49.5254783,41.407835 L46.410493,59.6039912 C46.1309243,61.2370887 44.5804021,62.3343406 42.9473046,62.054772 C42.9029979,62.0471872 42.8588672,62.0386075 42.8149461,62.0290394 L24.8220811,58.1093607 C23.2464643,57.7661184 22.2240552,56.2387126 22.5072765,54.6512085 L25.8118466,36.1285241 C26.1028456,34.4974245 27.6610142,33.4110584 29.2921138,33.7020574 C29.3488062,33.7121717 29.4051957,33.7239164 29.4612121,33.7372767 Z" id="tilt-medium-yellow-block" fill="#F5BF2F"></path>
                        <path d="M58.1822365,0.49151777 L71.1763283,3.59069957 C72.2020131,3.83533258 72.8615752,4.83426517 72.6836522,5.87360056 L70.4108529,19.1501356 C70.2244738,20.2388672 69.1907923,20.9703685 68.1020606,20.7839894 C68.0725228,20.7789329 68.0431024,20.7732131 68.0138216,20.7668344 L54.8813874,17.9059824 C53.8309762,17.6771542 53.1493702,16.6588837 53.3381844,15.6005476 L55.7493261,2.0856827 C55.9433254,0.998283031 56.9821045,0.274038958 58.0695042,0.468038287 C58.1072992,0.474781163 58.1448922,0.482610901 58.1822365,0.49151777 Z" id="tilt-small-pink-block" fill="#F05F87"></path>
                        <path d="M4.24580873,8.49151777 L12.1763283,10.3830022 C13.2020131,10.6276352 13.8615752,11.6265678 13.6836522,12.6659032 L12.2934939,20.7864992 C12.1071148,21.8752309 11.0734333,22.6067321 9.98470166,22.420353 C9.95516384,22.4152965 9.92574341,22.4095767 9.89646264,22.403198 L1.8813874,20.6571437 C0.830976179,20.4283155 0.149370164,19.4100449 0.338184357,18.3517088 L1.81289836,10.0856827 C2.00689769,8.99828303 3.04567683,8.27403896 4.13307649,8.46803829 C4.17087147,8.47478116 4.20846446,8.4826109 4.24580873,8.49151777 Z" id="tilt-tiny-green-block" fill="#81C677"></path>
                    </g>
                </g>
            </g>
        </g>
    </g>
</svg>