<svg fill="none" height="419" viewBox="0 0 1440 419" width="1440" xmlns="http://www.w3.org/2000/svg" xmlns:xlink="http://www.w3.org/1999/xlink"><mask id="a" height="420" maskUnits="userSpaceOnUse" width="1442" x="-1" y="-1"><path d="m-1-1h1442v420h-1442z" fill="#c4c4c4"/></mask><g mask="url(#a)"><path clip-rule="evenodd" d="m2223.51 1346.49 3.21 5.61-5.54 2.3-3.21-5.6zm-79.22 32.96 3.22 5.6-5.54 2.31-3.21-5.61zm-79.21 32.95 3.21 5.61-5.53 2.3-3.22-5.61zm-158.48 66.09 3.06 5.34-5.28 2.2-3.06-5.35zm79.15-32.76 2.91 5.07-5.01 2.08-2.9-5.07zm-158.48 66.09 2.75 4.81-4.74 1.97-2.75-4.8zm-79.21 32.96 2.75 4.8-4.74 1.97-2.76-4.8zm-79.22 32.95 2.76 4.8-4.75 1.98-2.75-4.81zm-79.27 33.14 2.6 4.54-4.48 1.86-2.6-4.54zm-79.27 33.14 2.45 4.27-4.22 1.76-2.44-4.28zm-79.27 33.14 2.3 4.01-3.96 1.64-2.29-4zm-79.26 33.14 2.14 3.74-3.69 1.54-2.15-3.74zm-79.27 33.14 1.98 3.47-3.42 1.43-1.99-3.47zm-79.27 33.15 1.83 3.2-3.16 1.32-1.84-3.21zm302.01-1739.0197 23.41 40.8588-39.34 16.3665 21.88 38.1934 40.53-16.859 24.78 43.262-39.22 16.313 20.43 35.656 40.53-16.86 26.31 45.932-39.34 16.367 19.05 33.253 40.4-16.805 27.53 48.07-39.08 16.257 17.75 30.983 40.27-16.75 28.91 50.472-39.21 16.311 16.37 28.58 40.4-16.805 30.29 52.876-39.22 16.312 15.08 26.31 40.26-16.75 31.52 55.012-39.22 16.311 13.85 24.174 40.27-16.75 32.73 57.148-39.21 16.312 12.7 22.171 40.14-16.695 33.81 59.019-39.22 16.311 11.63 20.301 39.81-16.56-11.28-19.697 19.77-8.224 11.47 20.029-19.44 8.088 34.42 60.092 19.57-8.143 11.63 20.297-18.65 7.758 34.12 59.557 19.04-7.924 12.09 21.097-18 7.486 33.66 58.757 18.39-7.65 12.55 21.899-17.6 7.32 33.43 58.36 17.59-7.32 12.55 21.89-17.47 7.27 33.28 58.09 17.73-7.38 12.85 22.44-17.73 7.37 33.27 58.09 17.47-7.27 12.54 21.9-17.46 7.27 34.11 59.56 16.29-6.78 11.16 19.5-19.24 8-9.45-16.49-41.78 17.38 20 34.92-55.62 23.14-19.62-34.25-23.73 9.87 19.55 34.12-55.36 23.02-19.54-34.11-23.99 9.98 19.47 33.98-55.09 22.92-19.85-34.66-24.79 10.31 19.47 33.99-53.77 22.37-20.16-35.19-26.5 11.02 19.55 34.12-51.66 21.49-20.24-35.31-28.47 11.84 19.7 34.39-49.82 20.72-20.39-35.59-30.32 12.61 19.86 34.66-47.98 19.95-20.54-35.85-32.03 13.32 20.08 35.06-46.39 19.3-20.84-36.39-34.15 14.2 20.09 35.05-43.76 18.21-20.85-36.39-36.38 15.13 20.31 35.46-41.91 17.43-21.15-36.92-38.62 16.07 20.38 35.58-39.27 16.34-21.23-37.06-41.25 17.17 20.46 35.72-36.64 15.24-21.26-37.12 35.25-14.67-23.02-40.19-35.46 14.75 22.91 39.99-42.18 17.54-23.9-41.72-38.02 15.81-22.65-39.52 39.02-16.23 22.06 38.53 38.49-16.02-22.26-38.86-38.16 15.88-22.94-40.06 39.47-16.42-23.06-40.26 39.47-16.43-23.06-40.26 39.48-16.42-23.06-40.26 39.47-16.42-23.06-40.26 39.47-16.42-23.06-40.26 39.47-16.42-23.02-40.2-38.16 15.87-22.18-38.72 38.22-15.9 22.14 38.66 39.42-16.4-22.88-39.93-38.15 15.88-22.34-38.99 38.49-16.01 22.14 38.66 39.15-16.29-22.72-39.66-38.16 15.87-22.48-39.25 38.74-16.12 22.15 38.66 38.88-16.18-22.56-39.4-38.16 15.88-22.64-39.53 39.01-16.23 22.14 38.66 38.62-16.06-22.41-39.13-38.16 15.87-22.79-39.789 39.28-16.339 22.14 38.658 38.23-15.9-22.27-38.862-38.02 15.818-22.95-40.058 39.35-16.367-23.14-40.394 39.47-16.422-23.06-40.26 39.47-16.422-23.06-40.26 39.48-16.422-23.07-40.26 39.48-16.422-23.06-40.261 39.47-16.422-22.87-39.929-38.16 15.874-22.33-38.99 38.48-16.01 22.14 38.658 39.15-16.286-22.72-39.663-38.15 15.875-22.49-39.257 38.75-16.119 22.14 38.659 38.89-16.176-22.57-39.396-38.16 15.874-22.64-39.524 39.01-16.228 22.15 38.658 38.62-16.066-22.42-39.129-38.15 15.874-22.8-39.791 39.28-16.338 22.14 38.658 38.36-15.957-22.26-38.861-38.16 15.873-22.94-40.057 39.47-16.423-23.06-40.26 39.34-16.367-23.14-40.393 39.48-16.422-23.06-40.261 39.47-16.423-23.06-40.26 39.87-16.5856-22.83-39.8602zm-278.92 1660.3697 19.73 34.45-34 14.15-19.74-34.45zm-84.14 49.72 6.12 10.68-10.54 4.39-6.12-10.68zm218.18-154.92-32.43 13.49 21.34 37.26 32.43-13.49zm-195.81 78.73 22.03 38.45-37.95 15.79-22.03-38.45zm274.42-109.61-29.53 12.28 19.73 34.45 29.53-12.28zm78.66-31.07-26.76 11.13 18.43 32.18 26.76-11.13zm78.73-30.94-24.12 10.04 16.83 29.38 24.12-10.04zm78.8-31.12-21.62 8.99 15.6 27.25 21.62-9zm78.71-31.26-19.24 8.01 14.38 25.1 19.25-8zm78.72-31.26-16.87 7.02 13.15 22.97 16.88-7.02zm78.72-31.26-14.51 6.04 11.86 20.7 14.5-6.03zm79.24-31.47-12.66 5.26 10.79 18.83 12.66-5.26zm79.52-32.42-12 4.99 10.41 18.16 11.99-4.99zm79.87-33.23-12.66 5.27 10.33 18.03 12.66-5.27zm-851.7 289.24-35.19 14.64 20.42 35.66 35.2-14.64zm78.68-30.75-32.16 13.38 18.67 32.59 32.16-13.38zm78.74-30.93-29.39 12.23 16.98 29.64 29.4-12.22zm78.53-31.02-26.63 11.08 15.46 26.98 26.62-11.08zm78.74-30.93-23.86 9.92 13.85 24.18 23.86-9.93zm78.79-31.13-21.35 8.89 12.39 21.63 21.36-8.88zm78.64-31.39-18.98 7.9 11.09 19.37 18.99-7.9zm78.79-31.12-16.61 6.91 9.64 16.83 16.62-6.91zm339.17-138.45-34.8 14.48 7.73 13.49 34.8-14.48zm-260.45 107.19-14.24 5.92 8.27 14.43 14.23-5.93zm79.3-31.67-12.53 5.21 7.28 12.7 12.52-5.22zm79.52-32.42-12 5 6.97 12.15 11.99-4.99zm-990.43 412.77 6.28 10.95-10.81 4.49-6.27-10.95zm140-125.87-38.1 15.84 22.11 38.6 38.1-15.85zm-118.29 51.94 20.35 35.51-35.06 14.59-20.35-35.52zm196.84-82.63-34.93 14.53 20.27 35.39 34.93-14.54zm78.68-30.75-31.9 13.27 18.51 32.32 31.9-13.27zm78.74-30.94-29.14 12.12 16.91 29.52 29.13-12.12zm78.53-31.01-26.37 10.96 15.3 26.71 26.37-10.96zm78.73-30.94-23.59 9.82 13.69 23.9 23.6-9.81zm78.85-31.31-21.22 8.83 12.31 21.5 21.23-8.83zm78.59-31.2-18.85 7.84 10.94 19.1 18.85-7.84zm78.79-31.13-16.35 6.8 9.49 16.56 16.35-6.8zm78.77-31.44-14.11 5.86 8.19 14.3 14.11-5.87zm79.38-31.54-12.53 5.21 7.19 12.56 12.53-5.21zm80.1-32.82-12.66 5.26 6.97 12.16 12.65-5.27zm-851.15 287.35-37.83 15.74 21.96 38.33 37.83-15.74zm-118.01 51 20.96 36.58-36.11 15.03-20.96-36.59zm196.56-81.69-34.67 14.42 20.12 35.12 34.67-14.42zm78.68-30.75-31.63 13.16 18.36 32.05 31.63-13.16zm78.74-30.93-28.87 12.01 16.76 29.24 28.87-12.01zm78.53-31.02-26.1 10.86 15.15 26.44 26.1-10.86zm78.87-30.99-23.46 9.76 13.54 23.64 23.46-9.76zm78.72-31.26-21.09 8.78 12.24 21.37 21.09-8.78zm78.58-31.2-18.59 7.73 10.79 18.83 18.59-7.73zm78.85-31.31-16.21 6.74 9.41 16.43 16.21-6.74zm259.75-105.58-34.54 14.37 7.73 13.49 34.53-14.36zm-181.03 74.32-13.98 5.81 8.11 14.16 13.98-5.81zm79.5-31.59-12.39 5.16 7.12 12.42 12.39-5.15zm-990.43 413.6 5.81 10.15-10.02 4.16-5.81-10.14zm101.42-108.58 21.26 37.12-36.64 15.24-21.26-37.12zm117.84-50.43-37.57 15.63 21.8 38.06 37.57-15.63zm78.55-30.7-34.41 14.32 19.97 34.85 34.41-14.31zm-276.55 117.28 18.66 32.58-32.15 13.38-18.67-32.58zm355.23-148.02-31.37 13.05 18.21 31.78 31.37-13.05zm78.74-30.94-28.61 11.9 16.6 28.98 28.61-11.9zm78.53-31.01-25.84 10.74 14.99 26.18 25.84-10.75zm78.79-31.13-23.2 9.65 13.54 23.64 23.2-9.65zm78.79-31.12-20.83 8.66 12.09 21.11 20.83-8.67zm78.72-31.26-18.46 7.68 10.64 18.56 18.45-7.68zm78.72-31.26-16.09 6.69 9.34 16.3 16.08-6.69zm78.71-31.26-13.71 5.71 7.96 13.89 13.71-5.7zm80.22-32.04-12.92 5.37 7.12 12.43 12.92-5.38zm-889.62 305.1 21.42 37.38-36.9 15.36-21.42-37.39zm117.73-50.06-37.3 15.52 21.65 37.79 37.3-15.52zm-197.72 85.65 19.28 33.65-33.21 13.81-19.28-33.65zm276.27-116.34-34.14 14.2 19.82 34.59 34.14-14.2zm78.69-30.75-31.11 12.94 18.05 31.52 31.11-12.94zm78.73-30.93-28.34 11.79 16.45 28.71 28.34-11.79zm78.66-31.07-25.7 10.69 14.84 25.91 25.71-10.69zm78.67-31.07-23.07 9.59 13.39 23.38 23.06-9.6zm78.79-31.13-20.57 8.56 11.94 20.83 20.56-8.55zm78.72-31.26-18.2 7.57 10.56 18.44 18.19-7.57zm78.71-31.25-15.82 6.58 9.18 16.03 15.82-6.58zm180.83-73.24-35.06 14.58 7.8 13.63 35.07-14.59zm-101.98 41.92-13.58 5.65 7.8 13.63 13.58-5.65zm-990.333 415.21 5.354 9.35-9.226 3.83-5.354-9.34zm180.913-142.48 21.57 37.66-37.17 15.46-21.57-37.66zm117.62-49.67-37.04 15.41 21.49 37.52 37.04-15.41zm-197.61 85.26 19.43 33.92-33.48 13.93-19.43-33.92zm276.16-115.96-33.88 14.1 19.66 34.32 33.88-14.1zm78.68-30.74-30.84 12.83 17.9 31.25 30.84-12.83zm-435 182.86 16.83 29.38-28.99 12.06-16.83-29.38zm513.74-213.8-28.08 11.68 16.3 28.45 28.07-11.68zm78.66-31.07-25.44 10.59 14.76 25.77 25.45-10.58zm78.66-31.07-22.81 9.49 13.24 23.1 22.81-9.48zm78.79-31.12-20.3 8.44 11.78 20.57 20.31-8.44zm78.72-31.26-17.93 7.46 10.41 18.16 17.93-7.46zm78.72-31.26-15.56 6.47 9.03 15.76 15.56-6.47zm79.5-31.58-13.97 5.81 7.73 13.49 13.97-5.81zm-809.97 272.62 21.73 37.92-37.43 15.57-21.73-37.92zm117.51-49.3-36.77 15.3 21.34 37.26 36.78-15.3zm-197.5 84.89 19.59 34.18-33.74 14.04-19.58-34.18zm276.05-115.58-33.61 13.98 19.51 34.06 33.61-13.99zm-356.03 151.17 17.44 30.45-30.05 12.5-17.44-30.45zm434.72-181.92-30.58 12.72 17.74 30.99 30.59-12.73zm78.73-30.93-27.81 11.57 16.14 28.18 27.82-11.58zm78.67-31.07-25.18 10.47 14.61 25.51 25.18-10.48zm78.66-31.07-22.55 9.38 13.09 22.83 22.54-9.38zm78.71-31.26-20.03 8.33 11.7 20.44 20.04-8.34zm78.72-31.26-17.67 7.35 10.33 18.03 17.67-7.35zm78.79-31.12-15.29 6.36 8.88 15.49 15.29-6.36zm101.27-41.469-35.86 14.915 8.34 14.56 35.86-14.915zm-1092.078 458.689 4.743 8.28-8.172 3.4-4.742-8.28zm260.458-176.56 21.88 38.19-37.7 15.68-21.87-38.19zm117.4-48.92-36.51 15.19 21.19 36.99 36.51-15.19zm-197.33 84.32 19.88 34.72-34.26 14.25-19.89-34.71zm275.88-115.02-33.35 13.88 19.35 33.78 33.35-13.87zm-355.93 150.8 17.6 30.71-30.32 12.61-17.59-30.71zm434.61-181.54-30.32 12.61 17.6 30.72 30.32-12.62zm78.74-30.94-27.55 11.46 15.99 27.91 27.55-11.46zm-593.502 248.64 14.992 26.17-25.832 10.74-14.992-26.17zm672.162-279.71-24.91 10.36 14.46 25.25 24.91-10.37zm78.79-31.12-22.41 9.32 12.93 22.57 22.41-9.32zm78.72-31.26-20.04 8.33 11.56 20.17 20.03-8.33zm78.58-31.204-17.53 7.294 10.18 17.76 17.53-7.29zm79.38-31.532-15.69 6.527 8.8 15.361 15.69-6.526zm-613.54 192.146-36.24 15.08 21.03 36.72 36.25-15.08zm-197.22 83.95 20.04 34.98-34.53 14.37-20.04-34.98zm275.78-114.64-33.09 13.76 19.2 33.52 33.09-13.76zm-355.77 150.23 17.9 31.24-30.84 12.83-17.9-31.24zm434.45-180.98-30.06 12.5 17.45 30.45 30.05-12.5zm-514.49 216.76 15.6 27.24-26.883 11.18-15.603-27.24zm593.15-247.83-27.29 11.35 15.92 27.78 27.28-11.35zm78.74-30.93-24.65 10.25 14.3 24.97 24.65-10.25zm78.79-31.129-22.15 9.209 12.85 22.44 22.15-9.21zm78.72-31.257-19.78 8.226 11.48 20.034 19.77-8.226zm78.71-31.259-17.4 7.24 10.02 17.499 17.41-7.24zm100.61-41.19-37.3 15.518 9.41 16.429 37.3-15.519zm-1092.027 460.485 4.284 7.48-7.381 3.07-4.283-7.48zm260.017-175.05 20.19 35.25-34.79 14.47-20.2-35.25zm197.11-83.57-35.99 14.97 20.89 36.45 35.98-14.97zm78.55-30.7-32.82 13.66 19.05 33.25 32.82-13.65zm-355.65 149.86 18.05 31.51-31.1 12.94-18.05-31.51zm434.47-180.66-29.93 12.45 17.29 30.18 29.92-12.45zm-514.51 216.44 15.75 27.5-27.147 11.3-15.757-27.51zm593.03-247.454-27.15 11.294 15.76 27.51 27.15-11.29zm78.74-30.936-24.39 10.145 14.16 24.705 24.39-10.141zm-751.927 314.54 13.155 22.97-22.669 9.43-13.156-22.97zm830.717-345.665-21.88 9.104 12.7 22.171 21.88-9.103zm78.72-31.257-19.51 8.116 11.32 19.769 19.51-8.116zm79.38-31.532-17.8 7.404 9.95 17.364 17.79-7.404zm-731.96 244.144 20.35 35.51-35.06 14.59-20.34-35.52zm197.01-83.2-35.73 14.86 20.73 36.19 35.73-14.86zm-276.99 118.79 18.2 31.78-31.37 13.04-18.2-31.78zm355.61-149.35-32.56 13.55 18.82 32.85 32.56-13.55zm78.74-30.935-29.66 12.338 17.21 30.047 29.66-12.34zm-514.4 216.055 15.91 27.78-27.41 11.4-15.911-27.77zm592.93-247.07-26.89 11.187 15.61 27.246 26.89-11.187zm-672.972 282.85 13.615 23.77-23.459 9.76-13.615-23.77zm751.712-313.785-24.13 10.035 14 24.44 24.13-10.035zm78.79-31.125-21.62 8.994 12.55 21.904 21.62-8.994zm78.64-31.391-19.25 8.007 11.25 19.633 19.25-8.007zm100.16-40.838-38.62 16.066 10.55 18.432 38.63-16.066zm-1092.111 462.339 3.671 6.41-6.325 2.63-3.672-6.41zm339.621-209.32 20.65 36.05-35.59 14.8-20.65-36.05zm196.78-82.446-35.33 14.695 20.5 35.791 35.33-14.7zm-276.77 118.036 18.51 32.31-31.9 13.27-18.51-32.32zm355.45-148.783-32.17 13.379 18.67 32.585 32.16-13.38zm78.74-30.937-29.4 12.229 17.06 29.781 29.4-12.228zm-514.24 215.49 16.22 28.31-27.94 11.62-16.22-28.3zm592.77-246.506-26.63 11.078 15.45 26.977 26.63-11.077zm-672.809 282.286 13.92 24.3-23.987 9.98-13.92-24.3zm751.539-313.22-23.86 9.925 13.85 24.174 23.86-9.926zm78.85-31.313-21.49 8.939 12.47 21.77 21.49-8.939zm-910.544 380.693 11.32 19.76-19.505 8.11-11.321-19.76zm989.784-412.17-19.77 8.226 11.09 19.367 19.78-8.227zm-652.88 212.07 20.81 36.32-35.85 14.92-20.81-36.32zm196.67-82.061-34.93 14.531 20.27 35.389 34.93-14.532zm-276.66 117.651 18.67 32.58-32.16 13.38-18.66-32.58zm355.34-148.4-31.9 13.27 18.52 32.319 31.9-13.27zm-435.38 184.18 16.37 28.58-28.21 11.73-16.36-28.58zm514.12-215.115-29.13 12.119 16.91 29.514 29.13-12.119zm78.53-31.015-26.36 10.967 15.3 26.711 26.36-10.968zm-672.695 281.91 14.075 24.57-24.25 10.09-14.074-24.57zm751.565-312.9-23.73 9.871 13.7 23.906 23.72-9.871zm78.72-31.258-21.36 8.884 12.39 21.636 21.36-8.884zm-910.328 379.938 11.779 20.56-20.296 8.45-11.779-20.57zm-82.366 43.69 3.059 5.34-5.271 2.19-3.06-5.34zm537.174-294.405-37.97 15.792 21.96 38.329 37.96-15.792zm-118.01 50.996 20.96 36.587-36.12 15.022-20.95-36.586zm196.56-81.688-34.67 14.422 20.12 35.122 34.67-14.422zm-276.55 117.279 18.81 32.848-32.42 13.49-18.81-32.851zm355.23-148.027-31.64 13.16 18.36 32.053 31.64-13.161zm-435.27 183.805 16.52 28.84-28.47 11.84-16.52-28.84zm514.01-214.74-28.87 12.009 16.75 29.246 28.87-12.009zm78.53-31.016-26.11 10.859 15.15 26.444 26.1-10.859zm-672.588 281.536 14.228 24.83-24.515 10.2-14.227-24.83zm751.378-312.66-23.47 9.762 13.7 23.906 23.46-9.761zm-831.421 348.44 11.932 20.83-20.56 8.55-11.932-20.83zm910.741-379.783-21.62 8.994 12.24 21.369 21.62-8.993zm-990.785 415.553 9.637 16.83-16.606 6.91-9.637-16.83zm416.835-235.49 21.12 36.853-36.38 15.132-21.11-36.853zm117.9-50.62-37.57 15.628 21.81 38.061 37.56-15.628zm78.55-30.693-34.4 14.312 19.96 34.856 34.41-14.312zm-276.38 116.714 19.12 33.383-32.95 13.706-19.12-33.382zm355.06-147.461-31.37 13.05 18.21 31.786 31.37-13.051zm-435.1 183.24 16.82 29.376-28.99 12.064-16.83-29.378zm513.84-214.175-28.6 11.9 16.6 28.979 28.6-11.899zm-593.89 249.953 14.54 25.372-25.045 10.41-14.533-25.37zm672.55-281.024-25.97 10.804 15 26.177 25.97-10.803zm78.66-31.069-23.33 9.707 13.54 23.64 23.34-9.707zm-831.251 347.875 12.238 21.36-21.086 8.77-12.239-21.36zm950.181-394.12 11.17 19.494-19.24 8.005-11.17-19.494zm-1030.225 429.89 9.944 17.36-17.134 7.13-9.944-17.36zm-81.869 42 2.602 4.54-4.481 1.86-2.602-4.54zm498.714-277.49 21.41 37.386-36.9 15.352-21.42-37.387zm117.73-50.054-37.31 15.518 21.65 37.792 37.31-15.518zm-197.72 85.644 19.27 33.649-33.21 13.816-19.28-33.649zm276.27-116.339-34.14 14.203 19.81 34.59 34.14-14.203zm78.68-30.747-31.11 12.941 18.06 31.518 31.1-12.941zm-435 182.863 16.98 29.643-29.25 12.171-16.98-29.642zm513.66-213.932-28.34 11.79 16.53 28.847 28.34-11.789zm-593.7 249.711 14.69 25.637-25.31 10.527-14.685-25.637zm672.44-280.646-25.71 10.693 14.92 26.043 25.71-10.693zm79.19-31.288-23.6 9.816 13.39 23.371 23.59-9.816zm-831.674 347.712 12.391 21.631-21.351 8.885-12.391-21.634zm-79.989 35.596 10.249 17.89-17.659 7.34-10.25-17.89zm-80.098 35.96 7.801 13.62-13.443 5.59-7.801-13.62zm496.881-271.273 21.57 37.654-37.17 15.462-21.57-37.655zm117.62-49.677-37.04 15.409 21.5 37.525 37.04-15.409zm-197.61 85.267 19.43 33.915-33.48 13.926-19.42-33.915zm276.16-115.96-33.87 14.092 19.66 34.321 33.87-14.092zm78.74-30.935-30.98 12.886 17.98 31.384 30.98-12.886zm-434.94 182.674 17.13 29.909-29.52 12.281-17.13-29.909zm513.55-213.556-28.21 11.735 16.37 28.581 28.21-11.735zm-593.6 249.334 14.84 25.904-25.56 10.636-14.84-25.904zm672.33-280.27-25.44 10.584 14.77 25.776 25.44-10.583zm-752.369 316.048 12.545 21.898-21.615 8.992-12.544-21.898zm870.689-360.222 10.71 18.694-18.45 7.676-10.71-18.694zm-950.677 395.812 10.402 18.159-17.924 7.456-10.402-18.159zm-79.988 35.59 8.261 14.418-14.234 5.92-8.261-14.417zm-81.483 40.678 1.989 3.47-3.426 1.42-1.989-3.47zm578.258-311.574 21.72 37.921-37.43 15.571-21.72-37.921zm117.51-49.301-36.78 15.298 21.35 37.259 36.77-15.299zm-197.5 84.89 19.58 34.182-33.74 14.036-19.58-34.182zm276.18-115.637-33.74 14.037 19.5 34.054 33.75-14.038zm-356.17 151.227 17.44 30.444-30.05 12.5-17.44-30.443zm434.85-181.976-30.84 12.832 17.82 31.118 30.85-12.832zm78.53-31.014-27.94 11.625 16.22 28.313 27.94-11.625zm-593.42 248.769 15.14 26.438-26.09 10.856-15.15-26.438zm672.69-279.924-25.71 10.693 14.61 25.509 25.71-10.694zm-752.737 315.702 12.85 22.432-22.142 9.211-12.85-22.433zm-80.044 35.778 10.555 18.426-18.187 7.566-10.556-18.426zm-79.988 35.591 8.413 14.687-14.497 6.031-8.413-14.688zm-79.989 35.589 6.273 10.949-10.808 4.496-6.272-10.949zm576.758-306.486 21.88 38.189-37.69 15.68-21.88-38.189zm117.4-48.925-36.51 15.189 21.19 36.992 36.51-15.189zm-197.39 84.515 19.74 34.45-34 14.145-19.74-34.45zm275.94-115.207-33.35 13.873 19.44 33.921 33.34-13.873zm-355.92 150.796 17.59 30.711-30.31 12.61-17.6-30.711zm434.74-181.599-30.45 12.667 17.67 30.851 30.45-12.667zm78.53-31.014-27.69 11.516 16.07 28.044 27.68-11.515zm-593.32 248.392 15.3 26.704-26.36 10.966-15.3-26.705zm-80.04 35.778 13 22.699-22.402 9.321-13.004-22.699zm-80.045 35.778 10.709 18.694-18.452 7.675-10.709-18.693zm871.195-361.917 10.24 17.892-17.66 7.347-10.24-17.892zm-951.183 397.507 8.567 14.955-14.761 6.141-8.567-14.955zm-79.934 35.402 6.578 11.483-11.334 4.715-6.578-11.483zm-81.039 39.168 1.53 2.67-2.637 1.097-1.529-2.67zm657.746-345.466 22.03 38.455-37.96 15.79-22.03-38.455zm117.29-48.548-36.25 15.079 21.04 36.726 36.25-15.08zm-197.22 83.95 20.04 34.984-34.53 14.364-20.04-34.983zm275.77-114.643-33.09 13.764 19.21 33.52 33.08-13.763zm-355.82 150.421 17.75 30.978-30.58 12.719-17.74-30.978zm434.63-181.223-30.18 12.557 17.52 30.583 30.18-12.558zm-514.62 216.812 15.61 27.239-26.89 11.185-15.6-27.239zm593.68-248.046-27.95 11.626 15.92 27.779 27.94-11.626zm-673.78 284.013 13.16 22.967-22.667 9.43-13.157-22.967zm-79.984 35.589 11.015 19.228-18.979 7.896-11.015-19.229zm-80.044 35.779 8.72 15.222-15.025 6.25-8.719-15.222zm-79.932 35.402 6.73 11.75-11.597 4.824-6.731-11.749zm-79.878 35.213 4.895 8.545-8.435 3.509-4.895-8.545zm576.648-306.111 20.2 35.252-34.8 14.474-20.19-35.251zm197.11-83.571-35.98 14.97 20.88 36.458 35.99-14.97zm78.55-30.693-32.82 13.654 19.05 33.253 32.82-13.654zm-355.65 149.855 18.06 31.512-31.11 12.94-18.05-31.513zm434.39-180.79-29.92 12.447 17.44 30.449 29.93-12.447zm-514.43 216.567 15.76 27.507-27.15 11.295-15.76-27.507zm-80.04 35.78 13.46 23.501-23.2 9.649-13.46-23.5zm-80.048 35.778 11.168 19.495-19.243 8.005-11.167-19.495zm791.648-327.835 9.79 17.092-16.87 7.018-9.79-17.092zm-871.636 363.424 9.025 15.756-15.552 6.47-9.025-15.756zm-79.988 35.591 6.884 12.017-11.862 4.934-6.884-12.017zm-79.823 35.024 5.201 9.08-8.962 3.728-5.201-9.079zm-80.652 37.85 1.224 2.136-2.109.878-1.224-2.137zm657.249-343.771 20.34 35.518-35.05 14.584-20.35-35.518zm197-83.196-35.72 14.861 20.73 36.191 35.72-14.861zm-276.99 118.786 18.2 31.779-31.36 13.049-18.21-31.779zm355.67-149.534-32.69 13.599 18.9 32.987 32.69-13.599zm79.21-30.966-30.32 12.613 17.22 30.048 30.31-12.612zm-514.92 216.279 15.91 27.773-27.42 11.404-15.91-27.773zm-80.05 35.778 13.62 23.767-23.46 9.759-13.62-23.767zm-80.041 35.778 11.32 19.762-19.505 8.114-11.321-19.761zm-79.989 35.59 9.179 16.023-15.815 6.579-9.179-16.023zm-79.988 35.59 7.036 12.284-12.125 5.044-7.036-12.284zm-79.824 35.024 5.355 9.348-9.226 3.837-5.354-9.347zm-79.876 35.214 3.518 6.142-6.062 2.522-3.519-6.142zm656.468-341.134 20.5 35.785-35.32 14.693-20.5-35.785zm196.9-82.82-35.46 14.751 20.57 35.924 35.46-14.751zm-276.88 118.41 18.35 32.046-31.63 13.158-18.36-32.046zm355.43-149.102-32.3 13.434 18.82 32.854 32.3-13.435zm-435.48 184.879 16.06 28.04-27.67 11.514-16.06-28.041zm-80.04 35.778 13.77 24.035-23.73 9.869-13.77-24.035zm-79.99 35.591 11.627 20.296-20.033 8.333-11.627-20.296zm-80.044 35.778 9.332 16.29-16.079 6.689-9.332-16.291zm792.144-329.53 9.33 16.29-16.08 6.689-9.33-16.29zm-872.077 364.932 7.343 12.818-12.652 5.264-7.343-12.819zm-79.878 35.211 5.508 9.615-9.49 3.947-5.507-9.614zm-79.822 35.026 3.825 6.677-6.59 2.741-3.825-6.676zm-80.266 36.532.918 1.602-1.581.658-.918-1.602zm736.743-377.666 20.8 36.319-35.85 14.913-20.8-36.319zm196.72-82.254-35.19 14.641 20.42 35.656 35.2-14.642zm-276.71 117.844 18.66 32.58-32.16 13.378-18.66-32.58zm355.92-148.811-32.69 13.599 18.59 32.452 32.69-13.599zm-435.97 184.589 16.37 28.574-28.2 11.733-16.37-28.574zm-80.04 35.779 14.07 24.568-24.25 10.088-14.07-24.568zm-80.044 35.779 11.784 20.562-20.301 8.444-11.779-20.563zm-80.044 35.776 9.485 16.557-16.343 6.799-9.485-16.557zm-79.934 35.403 7.496 13.085-12.916 5.373-7.495-13.086zm-79.877 35.212 5.66 9.881-9.752 4.057-5.661-9.881zm-79.823 35.025 3.978 6.943-6.853 2.851-3.978-6.943zm-79.712 34.649 2.601 4.54-4.481 1.864-2.601-4.54zm854.244-426.968-38.09 15.847 22.11 38.595 38.09-15.847zm-118.06 51.185 20.96 36.586-36.11 15.023-20.96-36.586zm196.62-81.877-34.94 14.531 20.28 35.389 34.93-14.531zm-276.61 117.467 18.82 32.847-32.42 13.488-18.82-32.847zm-80.04 35.778 16.52 28.841-28.47 11.843-16.52-28.842zm-80.04 35.779 14.22 24.836-24.51 10.197-14.23-24.836zm-80.05 35.778 11.93 20.83-20.56 8.553-11.928-20.83zm-79.986 35.589 9.791 17.092-16.871 7.018-9.79-17.092zm712.596-295.445 8.87 15.489-15.29 6.36-8.87-15.489zm-792.585 331.035 7.649 13.353-13.179 5.482-7.649-13.353zm-79.878 35.214 5.813 10.148-10.016 4.166-5.813-10.147zm-79.822 35.024 4.13 7.21-7.117 2.961-4.131-7.211zm-79.713 34.648 2.754 4.808-4.744 1.974-2.754-4.808zm-79.988 35.591.612 1.067-1.054.439-.612-1.068zm934.206-462.046-37.83 15.737 21.88 38.194 37.83-15.738zm-118.03 50.673 21.11 36.853-36.38 15.132-21.11-36.853zm196.97-81.531-35.06 14.587 20.04 34.989 35.07-14.587zm-276.96 117.121 18.97 33.114-32.69 13.598-18.97-33.115zm-80.04 35.779 16.67 29.108-28.73 11.952-16.68-29.108zm-80.05 35.777 14.38 25.102-24.78 10.308-14.38-25.103zm-79.99 35.59 12.24 21.364-21.09 8.772-12.23-21.363zm-80.041 35.778 9.944 17.359-17.134 7.127-9.943-17.358zm-79.988 35.59 7.802 13.62-13.443 5.592-7.802-13.619zm-79.878 35.213 5.966 10.416-10.28 4.276-5.966-10.415zm-79.823 35.025 4.284 7.478-7.381 3.07-4.283-7.477zm-79.712 34.648 2.907 5.074-5.008 2.084-2.907-5.075zm-79.602 34.271 1.836 3.206-3.163 1.315-1.836-3.205zm815.784-410.053 21.27 37.12-36.64 15.242-21.26-37.12zm117.79-50.243-37.3 15.518 21.72 37.928 37.31-15.518zm-197.72 85.645 19.28 33.649-33.22 13.816-19.27-33.649zm-80.04 35.778 16.98 29.643-29.26 12.171-16.98-29.643zm-80.05 35.778 14.69 25.637-25.31 10.526-14.68-25.637zm-80.04 35.778 12.39 21.631-21.35 8.882-12.39-21.631zm-80.045 35.779 10.096 17.625-17.396 7.237-10.097-17.625zm633.165-261.741 8.56 14.955-14.76 6.141-8.56-14.955zm-713.153 297.33 7.955 13.886-13.707 5.702-7.955-13.886zm-79.878 35.214 6.119 10.682-10.543 4.386-6.12-10.682zm-79.879 35.212 4.284 7.478-7.381 3.07-4.283-7.477zm-79.711 34.649 2.907 5.074-5.009 2.084-2.906-5.075zm-79.601 34.272 1.836 3.204-3.163 1.316-1.836-3.204zm-79.712 34.647.459.801-.791.329-.458-.801zm895.614-445.079 21.57 37.655-37.17 15.461-21.57-37.654zm118.14-49.897-37.56 15.629 21.49 37.526 37.57-15.628zm-198.13 85.488 19.43 33.916-33.48 13.926-19.43-33.916zm-80.05 35.778 17.14 29.91-29.53 12.281-17.13-29.91zm-80.04 35.778 14.84 25.904-25.57 10.636-14.84-25.904zm-80.04 35.779 12.54 21.898-21.61 8.991-12.55-21.898zm-79.994 35.589 10.403 18.16-17.924 7.456-10.403-18.159zm-80.043 35.779 8.108 14.153-13.97 5.811-8.107-14.153zm-79.878 35.212 6.272 10.949-10.807 4.496-6.272-10.95zm-79.878 35.214 4.436 7.744-7.644 3.18-4.436-7.744zm-79.711 34.648 3.059 5.341-5.271 2.193-3.06-5.341zm-79.602 34.271 1.989 3.471-3.427 1.426-1.989-3.471zm-79.491 33.894 1.224 2.137-2.109.877-1.224-2.136zm895.387-444.324 21.72 37.921-37.43 15.571-21.72-37.921zm-79.99 35.59 19.58 34.182-33.74 14.035-19.58-34.182zm-79.99 35.59 17.44 30.444-30.05 12.5-17.43-30.443zm-80.04 35.778 15.15 26.438-26.1 10.855-15.15-26.438zm-80.1 35.965 12.7 22.166-21.88 9.102-12.7-22.166zm-79.987 35.592 10.557 18.426-18.189 7.566-10.555-18.426zm-79.988 35.589 8.413 14.687-14.497 6.031-8.413-14.687zm633.605-263.2469 8.11 14.1539-13.98 5.812-8.1-14.1542zm-713.539 298.6479 6.425 11.217-11.07 4.605-6.426-11.216zm-79.879 35.214 4.59 8.012-7.907 3.289-4.59-8.012zm-79.711 34.647 3.213 5.608-5.536 2.303-3.213-5.608zm-79.6 34.272 2.141 3.739-3.69 1.535-2.142-3.739zm-79.547 34.083 1.224 2.136-2.109.878-1.224-2.137zm-79.546 34.084.305.534-.526.219-.306-.534zm974.992-478.5969 21.87 38.1879-37.69 15.68-21.88-38.1877zm-79.99 35.5899 19.73 34.449-34 14.146-19.73-34.45zm-79.99 35.59 17.59 30.711-30.31 12.61-17.59-30.711zm-80.04 35.778 15.29 26.705-26.35 10.965-15.3-26.704zm-80.05 35.778 13.01 22.699-22.41 9.321-13-22.7zm-80.04 35.778 10.71 18.694-18.45 7.676-10.712-18.694zm-79.989 35.59 8.567 14.955-14.762 6.14-8.566-14.955zm-79.934 35.402 6.578 11.483-11.334 4.715-6.578-11.483zm-79.878 35.213 4.742 8.279-8.171 3.399-4.742-8.279zm-79.766 34.837 3.212 5.607-5.535 2.303-3.212-5.608zm-79.602 34.271 2.142 3.738-3.69 1.536-2.142-3.739zm-79.491 33.895 1.377 2.403-2.372.987-1.377-2.404zm-79.435 33.705.765 1.336-1.318.548-.765-1.336zm974.875-478.2194 22.03 38.4555-37.96 15.7901-22.02-38.4555zm-79.93 35.4021 20.04 34.9835-34.53 14.3648-20.04-34.9838zm-80.04 35.7784 17.74 30.9779-30.57 12.72-17.75-30.9781zm-80.05 35.7779 15.45 26.972-26.62 11.075-15.45-26.972zm-80.04 35.777 13.16 22.967-22.67 9.431-13.16-22.967zm-80.04 35.78 10.86 18.961-18.72 7.785-10.86-18.961zm-79.993 35.589 8.719 15.222-15.024 6.25-8.72-15.221zm554.113-229.352141 7.65 13.352841-13.18 5.4829-7.65-13.35291zm-634.047 264.755141 6.731 11.75-11.598 4.824-6.73-11.75zm-79.878 35.212 4.896 8.546-8.435 3.509-4.895-8.547zm-79.767 34.837 3.365 5.875-5.798 2.412-3.365-5.875zm-79.601 34.272 2.294 4.005-3.953 1.645-2.295-4.006zm-79.546 34.081 1.377 2.404-2.373.988-1.377-2.405zm-79.436 33.707.765 1.336-1.318.548-.765-1.336zm974.765-477.8423 21.73 37.9212-37.43 15.5707-21.73-37.9212zm-79.76 34.83551 20.19 35.25119-34.79 14.4743-20.2-35.25111zm-79.99 35.59069 18.05 31.5123-31.1 12.9388-18.06-31.5124zm-80.05 35.777 15.76 27.5069-27.15 11.2942-15.76-27.5066zm-80.04 35.7791 13.46 23.5-23.19 9.65-13.47-23.501zm-80.04 35.778 11.16 19.495-19.24 8.005-11.17-19.495zm-80.048 35.779 8.873 15.489-15.288 6.359-8.872-15.488zm-79.933 35.4 6.884 12.018-11.862 4.934-6.884-12.017zm-79.877 35.214 5.049 8.813-8.699 3.619-5.049-8.813zm-79.768 34.836 3.518 6.142-6.062 2.522-3.518-6.142zm-79.657 34.461 2.294 4.005-3.953 1.645-2.295-4.006zm-79.545 34.082 1.376 2.403-2.372.987-1.376-2.403zm-79.437 33.706.765 1.335-1.318.549-.765-1.336zm-79.324 33.33.459.801-.791.329-.459-.801zm974.379-476.5249 20.35 35.5178-35.06 14.5839-20.35-35.5178zm-79.99 35.5903 18.21 31.77904-31.37 13.04866-18.2-31.7791zm-80.04 35.7783 15.91 27.7726-27.41 11.4041-15.91-27.7727zm-80.04 35.7791 13.61 23.7672-23.46 9.7589-13.61-23.7671zm-80.05 35.7761 11.32 19.7631-19.5 8.114-11.32-19.7628zm-79.986 35.5921 9.178 16.022-15.815 6.58-9.178-16.023zm474.506-195.0815 7.04 12.2842-12.12 5.044-7.04-12.2842zm-554.495 230.6705 7.037 12.284-12.125 5.044-7.037-12.284zm-79.878 35.213 5.202 9.08-8.962 3.728-5.202-9.08zm-79.767 34.837 3.671 6.408-6.326 2.632-3.671-6.409zm-79.657 34.459 2.448 4.273-4.218 1.755-2.448-4.273zm-79.545 34.084 1.529 2.67-2.635 1.096-1.53-2.67zm-79.436 33.705.918 1.603-1.581.657-.918-1.602zm-79.379 33.519.459.801-.791.329-.459-.801zm974.327-476.337 20.19 35.2508-34.79 14.4744-20.2-35.2512zm-79.88 35.2142 18.36 32.0458-31.63 13.1581-18.36-32.0458zm-80.04 35.7774 16.06 28.0403-27.68 11.51353-16.06-28.04033zm-80.05 35.7774 13.77 24.0348-23.72 9.8688-13.77-24.03478zm-80.04 35.7797 11.47 20.0284-19.77 8.2238-11.47-20.0284zm-79.99 35.5893 9.33 16.2906-16.078 6.689-9.331-16.2906zm-79.988 35.5893 7.19 12.5517-12.389 5.154-7.19-12.5519zm-79.878 35.2137 5.354 9.347-9.226 3.838-5.354-9.347zm-79.768 34.836 3.825 6.677-6.59 2.741-3.825-6.676zm-79.711 34.649 2.447 4.273-4.217 1.754-2.448-4.273zm-79.547 34.082 1.53 2.671-2.636 1.096-1.53-2.671zm-79.435 33.707.918 1.603-1.582.657-.918-1.602zm-79.38 33.518.459.801-.791.329-.459-.801zm-79.269 33.142.305.533-.527.22-.306-.534zm972.556-470.309 15.14 26.438-26.09 10.8553-15.15-26.4383zm-79.93 35.401 13.15 22.9667-22.67 9.43-13.15-22.967zm-79.88 35.2127 11.32 19.7617-19.51 8.1143-11.32-19.7617zm-79.88 35.2131 9.48 16.5573-16.34 6.79852-9.48-16.55732zm-79.88 35.21275 7.65 13.35285-13.18 5.4828-7.65-13.3529zm-79.82 35.02495 5.966 10.4152-10.28 4.2765-5.966-10.4152zm475.17-197.3405 5.66 9.881-9.75 4.057-5.66-9.88zm-554.882 231.9892 4.589 8.011-7.909 3.2897-4.589-8.0109zm-79.713 34.6488 3.213 5.608-5.535 2.302-3.213-5.608zm-79.6 34.271 2.141 3.738-3.69 1.536-2.142-3.739zm-79.492 33.894 1.377 2.404-2.372.987-1.377-2.405zm-79.435 33.706.765 1.336-1.318.548-.765-1.336zm-79.324 33.33.459.801-.792.33-.459-.801zm888.306-420.216 1.38 2.403-2.37.987-1.38-2.403zm-79.27 33.142 1.23 2.137-2.11.877-1.23-2.136zm-79.27 33.141 1.07 1.869-1.84.767-1.07-1.868zm-79.27 33.1403.92 1.6031-1.58.6579-.92-1.6031zm-79.27 33.1421.77 1.3355-1.32.5483-.76-1.3355zm-79.265 33.142.612 1.06786-1.054.43843-.612-1.06783zm-79.27 33.1402.459.8011-.792.3293-.458-.8011zm-79.269 33.1421.306.5334-.527.2191-.306-.5335z" fill="#a2abc8" fill-opacity=".1" fill-rule="evenodd"/></g></svg>