<svg fill="none" height="44" viewBox="0 0 44 44" width="44" xmlns="http://www.w3.org/2000/svg"><path d="m7.92249 19.4285v18.1853c0 3.0524 2.47211 5.5269 5.52161 5.5269 3.0494 0 5.5214-2.4745 5.5214-5.5269v-18.1853z" fill="#f5bf2f"/><g fill="#fff"><path d="m20.7899 3.5903h-1.5481v-2.730925c0-.474633-.3847-.859375-.8594-.859375h-10.36591c-.47463 0-.85937.384742-.85937.859375v2.730925h-1.0591c-.47463 0-.85937.38474-.85937.85937v4.02042c0 .47463.38474.85937.85937.85937h.96499v28.28964c0 3.5185 2.8625 6.3809 6.38089 6.3809 3.5183 0 6.3808-2.8625 6.3808-6.3809v-28.28964h.965c.4747 0 .8594-.38474.8594-.85937v-4.02042c.0002-.47463-.3846-.85937-.8592-.85937zm-11.91403-1.87155h8.64733v1.87155h-8.64733zm9.23033 35.90035c0 2.5708-2.0914 4.6621-4.6622 4.6621-2.5707 0-4.66206-2.0913-4.66206-4.6621v-28.28964h9.32426zm1.8243-30.00839h-12.9731v-2.30166h12.9731z"/><path d="m36.2934 14.6516h-11.2071c-1.3608 0-2.4679 1.1068-2.4679 2.4673v8.7163c0 1.1166.7459 2.0624 1.7656 2.3655l.2368.9892c.0655.2736.2607.4977.5226.6001.1013.0396.2075.0591.3132.0591.1679 0 .3345-.0491.478-.1451l2.0947-1.4016h8.2641c1.3608 0 2.4678-1.1068 2.4678-2.4673v-8.7162c.0001-1.3605-1.107-2.4673-2.4678-2.4673zm.7492 11.1836c0 .4127-.3361.7485-.7491.7485h-8.5251c-.1702 0-.3365.0505-.4779.1451l-1.2856.8602-.0828-.346c-.0926-.3866-.4382-.6592-.8357-.6592-.4131 0-.7492-.3358-.7492-.7485v-8.7164c0-.4128.3361-.7485.7492-.7485h11.2071c.4131 0 .7491.3357.7491.7485z"/><path d="m33.8257 19.2009c-.372-.2947-.9124-.2322-1.2073.1397l-2.241 2.8278-1.2414-1.1478c-.3486-.3222-.8922-.3008-1.2144.0476-.3222.3486-.3009.8922.0476 1.2144l1.9224 1.7772c.1593.1474.3679.2284.5834.2284.022 0 .0441-.0009.0663-.0026.2386-.0185.4586-.1355.6072-.323l2.817-3.5546c.2948-.3718.2322-.9124-.1398-1.2071z"/></g></svg>