<svg fill="none" height="39" viewBox="0 0 40 39" width="40" xmlns="http://www.w3.org/2000/svg" xmlns:xlink="http://www.w3.org/1999/xlink"><clipPath id="a"><path d="m0 0h40v39h-40z"/></clipPath><g clip-path="url(#a)"><path d="m39.8558 30.7867-2.3234-6.6968c1.1195-2.2673 1.7117-4.7893 1.7156-7.3267.007-4.4117-1.7164-8.58344-4.8523-11.74612-3.1367-3.16346-7.3172-4.9440669-11.7703-5.01371253-4.6172-.07196707-8.9578 1.66762253-12.2203 4.89918253-3.14692 3.11703-4.89223 7.22535-4.94692 11.61615-3.10156 2.3122-4.932032 5.9183-4.925782 9.7689.003125 1.8023.4125 3.5945 1.188282 5.2142l-1.6 4.6128c-.275.7932-.074219 1.6537.524218 2.2465.421872.4178.976562.6399 1.548442.6399.23984 0 .48281-.0394.72031-.1199l4.65703-1.5856c1.63515.7692 3.44372 1.1747 5.26332 1.1778h.0195c3.9461-.0008 7.614-1.8603 9.9406-5.0075 2.4211-.0627 4.8156-.6431 6.9813-1.6924l6.7617 2.3014c.2812.0959.5703.1424.8562.1424.6781 0 1.3383-.2639 1.8391-.76.7109-.7049.95-1.7279.6234-2.6705zm-27.0023 5.3279h-.0156c-1.6102-.0023-3.20941-.3954-4.62504-1.1375-.29062-.1517-.63203-.1788-.94296-.0728l-4.77578 1.6259 1.6414-4.7305c.10625-.308.07969-.6462-.07422-.934-.74843-1.4022-1.14531-2.9863-1.14765-4.5812-.00391-2.566 1.0039-4.9982 2.76562-6.8191.57578 3.4754 2.24844 6.6783 4.84063 9.2002 2.5734 2.5042 5.8078 4.0975 9.2976 4.6191-1.8429 1.7992-4.3265 2.8299-6.964 2.8299zm24.6953-4.325c-.068.0666-.1484.0851-.2383.0542l-7.2383-2.4631c-.1257-.0434-.2562-.0643-.3867-.0643-.1922 0-.3836.0457-.557.137-2.0664 1.0826-4.4016 1.6568-6.7539 1.6607h-.0219c-7.8805 0-14.38905-6.3401-14.51405-14.1435-.0625-3.9304 1.44687-7.62389 4.24995-10.40043 2.8032-2.77653 6.5321-4.27082 10.4993-4.20891 7.8859.12381 14.2914 6.58305 14.2789 14.39804-.0032 2.3301-.5828 4.6431-1.6766 6.6899-.1539.2878-.1805.626-.0734.9348l2.4875 7.1696c.0304.089.0117.1687-.0555.236z" fill="#fff"/><path d="m19.8179 33.2836c-1.8429 1.7992-4.3265 2.8299-6.964 2.8299h-.0156c-1.6102-.0023-3.20942-.3954-4.62504-1.1375-.29063-.1517-.63203-.1788-.94297-.0728l-4.77578 1.6259 1.6414-4.7305c.10625-.308.07969-.6462-.07422-.934-.74843-1.4022-1.14531-2.9863-1.14765-4.5812-.00391-2.566 1.0039-4.9982 2.76562-6.819.57578 3.4753 2.24844 6.6782 4.84064 9.2001 2.5734 2.5042 5.8078 4.0975 9.2976 4.6191z" fill="#f5bf2f"/></g></svg>