<svg width="84" height="83" viewBox="0 0 84 83" fill="none" xmlns="http://www.w3.org/2000/svg">
<path d="M48.194 1.33998C48.1943 1.16406 48.1598 0.989827 48.0926 0.827254C48.0254 0.66468 47.9268 0.516965 47.8024 0.392575C47.678 0.268185 47.5303 0.169565 47.3677 0.102367C47.2052 0.0351692 47.0309 0.000714716 46.855 0.000978061H1.339C1.16309 0.000714716 0.988851 0.0351692 0.826277 0.102367C0.663703 0.169565 0.515988 0.268185 0.391598 0.392575C0.267208 0.516965 0.168588 0.66468 0.10139 0.827254C0.0341927 0.989827 -0.000261846 1.16406 1.49827e-06 1.33998V12.05C-0.000261846 12.2259 0.0341927 12.4001 0.10139 12.5627C0.168588 12.7253 0.267208 12.873 0.391598 12.9974C0.515988 13.1218 0.663703 13.2204 0.826277 13.2876C0.988851 13.3548 1.16309 13.3892 1.339 13.389H5.355V64.259C5.355 66.7202 5.83978 69.1573 6.78165 71.4312C7.72352 73.7051 9.10405 75.7712 10.8444 77.5116C12.5848 79.2519 14.6509 80.6325 16.9247 81.5743C19.1986 82.5162 21.6358 83.001 24.097 83.001C26.5582 83.001 28.9954 82.5162 31.2693 81.5743C33.5431 80.6325 35.6092 79.2519 37.3496 77.5116C39.09 75.7712 40.4705 73.7051 41.4123 71.4312C42.3542 69.1573 42.839 66.7202 42.839 64.259V13.388H46.855C47.0309 13.3882 47.2052 13.3538 47.3677 13.2866C47.5303 13.2194 47.678 13.1208 47.8024 12.9964C47.9268 12.872 48.0254 12.7243 48.0926 12.5617C48.1598 12.3991 48.1943 12.2249 48.194 12.049V1.33998ZM40.161 64.259C40.1777 66.3793 39.7746 68.4819 38.9747 70.4456C38.1749 72.4093 36.9943 74.1953 35.5009 75.7005C34.0075 77.2057 32.2309 78.4004 30.2736 79.2157C28.3162 80.031 26.2169 80.4507 24.0965 80.4507C21.9762 80.4507 19.8768 80.031 17.9194 79.2157C15.9621 78.4004 14.1855 77.2057 12.6921 75.7005C11.1987 74.1953 10.0181 72.4093 9.21826 70.4456C8.41844 68.4819 8.01527 66.3793 8.032 64.259V13.388H40.161V64.259ZM45.516 10.711H2.677V2.67798H45.516V10.711Z" fill="#6572A4"/>
<path d="M10.71 62.9239V69.6139H13.387V66.9369H16.064V64.2599H13.387V62.9249C13.387 62.4749 13.405 62.0249 13.433 61.5819H34.761C34.789 62.0279 34.807 62.4749 34.807 62.9249V64.2599H32.129V66.9369H34.81V69.6139H37.487V62.9239C37.4847 58.9449 36.4972 55.0283 34.6127 51.5237C32.7282 48.0192 30.0052 45.0359 26.687 42.8399C30.0049 40.6437 32.7276 37.6603 34.6121 34.1558C36.4966 30.6514 37.4842 26.7349 37.487 22.7559V16.0649H34.81V18.7419H32.129V21.4189H34.81V22.7539C34.81 23.2039 34.792 23.6539 34.764 24.0969H13.433C13.405 23.6509 13.387 23.2039 13.387 22.7539V21.4189H16.064V18.7429H13.387V16.0649H10.71V22.7549C10.7122 26.734 11.6997 30.6506 13.5842 34.1551C15.4688 37.6596 18.1917 40.643 21.51 42.8389C18.1919 45.0353 15.4691 48.0189 13.5846 51.5235C11.7001 55.0281 10.7125 58.9448 10.71 62.9239ZM32.637 53.5489H15.557C16.0067 52.6209 16.5224 51.7263 17.1 50.8719H31.092C31.6707 51.7259 32.1871 52.6206 32.637 53.5489ZM13.776 58.9039C13.9512 57.9974 14.185 57.1032 14.476 56.2269H33.726C34.0163 57.1034 34.2501 57.9976 34.426 58.9039H13.776ZM15.558 32.1299H32.637C32.1872 33.058 31.6716 33.9526 31.094 34.8069H17.101C16.5234 33.9526 16.0077 33.058 15.558 32.1299ZM34.419 26.7749C34.2438 27.6815 34.0099 28.5757 33.719 29.4519H14.472C14.1816 28.5755 13.9478 27.6813 13.772 26.7749H34.419ZM19.272 37.4849H28.921C27.5045 38.9807 25.8794 40.2639 24.096 41.2949C22.3125 40.2639 20.6874 38.9807 19.271 37.4849H19.272ZM24.097 44.3849C25.8807 45.4155 27.5058 46.6988 28.922 48.1949H19.272C20.6884 46.6992 22.3135 45.416 24.097 44.3849Z" fill="#6572A4"/>
<path d="M18.7426 68.2749C17.9483 68.2749 17.1718 68.5104 16.5114 68.9517C15.851 69.393 15.3362 70.0202 15.0323 70.7541C14.7283 71.4879 14.6488 72.2953 14.8037 73.0744C14.9587 73.8534 15.3412 74.569 15.9028 75.1306C16.4645 75.6923 17.1801 76.0748 17.9591 76.2297C18.7381 76.3847 19.5456 76.3052 20.2794 76.0012C21.0133 75.6972 21.6405 75.1825 22.0817 74.5221C22.523 73.8616 22.7586 73.0852 22.7586 72.2909C22.7572 71.2262 22.3337 70.2055 21.5808 69.4526C20.828 68.6998 19.8073 68.2762 18.7426 68.2749ZM18.7426 73.6299C18.4777 73.6299 18.2189 73.5514 17.9987 73.4042C17.7785 73.2571 17.6068 73.048 17.5055 72.8033C17.4041 72.5586 17.3776 72.2894 17.4293 72.0297C17.481 71.7699 17.6085 71.5313 17.7957 71.3441C17.983 71.1568 18.2216 71.0293 18.4813 70.9776C18.7411 70.926 19.0103 70.9525 19.255 71.0538C19.4996 71.1552 19.7088 71.3268 19.8559 71.547C20.003 71.7672 20.0816 72.0261 20.0816 72.2909C20.0813 72.6459 19.9401 72.9864 19.6891 73.2374C19.438 73.4885 19.0976 73.6296 18.7426 73.6299Z" fill="#6572A4"/>
<path d="M26.7734 68.2749H29.4504V70.9519H26.7734V68.2749Z" fill="#6572A4"/>
<path d="M62.9204 34.8069H49.5333C49.3574 34.8066 49.1832 34.8411 49.0206 34.9083C48.858 34.9755 48.7103 35.0741 48.5859 35.1985C48.4615 35.3229 48.3629 35.4706 48.2957 35.6332C48.2285 35.7957 48.1941 35.97 48.1943 36.1459V41.5009C48.1941 41.6768 48.2285 41.851 48.2957 42.0136C48.3629 42.1762 48.4615 42.3239 48.5859 42.4483C48.7103 42.5727 48.858 42.6713 49.0206 42.7385C49.1832 42.8057 49.3574 42.8402 49.5333 42.8399H50.8723V77.6459C50.8723 78.3491 51.0109 79.0455 51.28 79.6952C51.5491 80.3449 51.9435 80.9352 52.4408 81.4325C52.938 81.9297 53.5284 82.3242 54.1781 82.5933C54.8278 82.8624 55.5241 83.0009 56.2273 83.0009C56.9306 83.0009 57.6269 82.8624 58.2766 82.5933C58.9263 82.3242 59.5166 81.9297 60.0139 81.4325C60.5111 80.9352 60.9056 80.3449 61.1747 79.6952C61.4438 79.0455 61.5823 78.3491 61.5823 77.6459V42.8389H62.9213C63.0972 42.8391 63.2715 42.8047 63.4341 42.7375C63.5966 42.6703 63.7444 42.5717 63.8687 42.4473C63.9931 42.3229 64.0917 42.1752 64.1589 42.0126C64.2261 41.85 64.2606 41.6758 64.2603 41.4999V36.1449C64.2605 35.969 64.2259 35.7948 64.1586 35.6322C64.0913 35.4697 63.9925 35.3221 63.868 35.1978C63.7436 35.0735 63.5958 34.975 63.4331 34.9079C63.2705 34.8408 63.0963 34.8065 62.9204 34.8069ZM56.2264 80.3229C55.5166 80.3221 54.8362 80.0398 54.3343 79.5379C53.8324 79.0361 53.5501 78.3556 53.5493 77.6459V56.2259H58.9043V77.6449C58.9038 78.355 58.6215 79.0358 58.1194 79.5379C57.6173 80.04 56.9364 80.3224 56.2264 80.3229ZM58.9034 53.5489H53.5483V42.8389H58.9034V53.5489ZM61.5803 40.1619H50.8703V37.4849H61.5803V40.1619Z" fill="#6572A4"/>
<path d="M81.6616 34.8069H68.2745C68.0986 34.8066 67.9244 34.8411 67.7618 34.9083C67.5992 34.9755 67.4515 35.0741 67.3271 35.1985C67.2028 35.3229 67.1041 35.4706 67.0369 35.6332C66.9697 35.7957 66.9353 35.97 66.9355 36.1459V41.5009C66.9353 41.6768 66.9697 41.851 67.0369 42.0136C67.1041 42.1762 67.2028 42.3239 67.3271 42.4483C67.4515 42.5727 67.5992 42.6713 67.7618 42.7385C67.9244 42.8057 68.0986 42.8402 68.2745 42.8399H69.6136V77.6459C69.6136 78.3491 69.7521 79.0455 70.0212 79.6952C70.2903 80.3449 70.6847 80.9352 71.182 81.4325C71.6792 81.9297 72.2696 82.3242 72.9193 82.5933C73.569 82.8624 74.2653 83.0009 74.9685 83.0009C75.6718 83.0009 76.3681 82.8624 77.0178 82.5933C77.6675 82.3242 78.2578 81.9297 78.7551 81.4325C79.2524 80.9352 79.6468 80.3449 79.9159 79.6952C80.185 79.0455 80.3235 78.3491 80.3235 77.6459V42.8389H81.6625C81.8385 42.8391 82.0127 42.8047 82.1753 42.7375C82.3378 42.6703 82.4856 42.5717 82.61 42.4473C82.7343 42.3229 82.833 42.1752 82.9001 42.0126C82.9673 41.85 83.0018 41.6758 83.0016 41.4999V36.1449C83.0017 35.969 82.9671 35.7948 82.8998 35.6322C82.8325 35.4697 82.7337 35.3221 82.6093 35.1978C82.4848 35.0735 82.337 34.975 82.1743 34.9079C82.0117 34.8408 81.8375 34.8065 81.6616 34.8069ZM74.9676 80.3229C74.2578 80.3221 73.5774 80.0398 73.0755 79.5379C72.5736 79.0361 72.2914 78.3556 72.2906 77.6459V56.2259H77.6455V77.6449C77.645 78.355 77.3627 79.0358 76.8606 79.5379C76.3585 80.04 75.6776 80.3224 74.9676 80.3229ZM77.6446 53.5489H72.2896V42.8389H77.6446V53.5489ZM80.3215 40.1619H69.6115V37.4849H80.3215V40.1619Z" fill="#6572A4"/>
<path d="M57.5643 18.7429C58.5785 18.7406 59.5539 18.3524 60.2923 17.6569L72.3483 24.8889C72.3166 25.07 72.2979 25.2532 72.2923 25.4369C72.2852 26.3681 72.5997 27.2732 73.1825 27.9995C73.7653 28.7258 74.5808 29.2289 75.4914 29.4238C76.402 29.6187 77.3519 29.4935 78.181 29.0693C79.01 28.6452 79.6673 27.9481 80.0421 27.0956C80.4168 26.2431 80.486 25.2874 80.238 24.3898C79.99 23.4922 79.44 22.7077 78.6807 22.1685C77.9215 21.6294 76.9995 21.3686 76.0703 21.4303C75.1411 21.4919 74.2617 21.8722 73.5803 22.5069L61.5263 15.2749C61.5579 15.0938 61.5766 14.9107 61.5823 14.7269C61.576 14.564 61.5593 14.4017 61.5323 14.2409L73.2383 8.38794C73.9654 9.44036 75.0456 10.1973 76.283 10.5215C77.5205 10.8456 78.8331 10.7155 79.9828 10.1547C81.1325 9.59392 82.0431 8.63962 82.5495 7.46493C83.0558 6.29023 83.1243 4.97296 82.7426 3.75207C82.3608 2.53118 81.5542 1.48756 80.4689 0.810515C79.3835 0.133475 78.0915 -0.13213 76.8271 0.0618833C75.5628 0.255897 74.4098 0.896677 73.5774 1.86798C72.745 2.83928 72.2884 4.07677 72.2903 5.35594C72.2903 5.52194 72.3253 5.67994 72.3403 5.84194L60.3453 11.8419C59.8724 11.3854 59.2947 11.0521 58.6629 10.8711C58.0311 10.6901 57.3645 10.6671 56.7217 10.804C56.0789 10.941 55.4796 11.2337 54.9764 11.6565C54.4732 12.0793 54.0816 12.6192 53.8359 13.2288C53.5902 13.8384 53.498 14.499 53.5673 15.1525C53.6367 15.8061 53.8655 16.4326 54.2337 16.977C54.6019 17.5214 55.0982 17.9671 55.6789 18.2748C56.2596 18.5826 56.907 18.743 57.5643 18.7419V18.7429ZM77.6483 2.67794C78.1777 2.67794 78.6953 2.83494 79.1355 3.1291C79.5757 3.42325 79.9189 3.84134 80.1215 4.3305C80.3241 4.81965 80.3771 5.35791 80.2738 5.8772C80.1705 6.39648 79.9156 6.87348 79.5412 7.24786C79.1668 7.62225 78.6898 7.87721 78.1705 7.9805C77.6512 8.08379 77.113 8.03078 76.6238 7.82817C76.1347 7.62555 75.7166 7.28243 75.4224 6.8422C75.1283 6.40197 74.9713 5.8844 74.9713 5.35494C74.9721 4.6452 75.2544 3.96475 75.7562 3.46289C76.2581 2.96103 76.9385 2.67873 77.6483 2.67794ZM76.3063 24.1009C76.5711 24.1009 76.83 24.1795 77.0502 24.3266C77.2704 24.4737 77.442 24.6829 77.5434 24.9275C77.6447 25.1722 77.6712 25.4414 77.6195 25.7012C77.5679 25.9609 77.4403 26.1995 77.2531 26.3868C77.0658 26.574 76.8272 26.7015 76.5675 26.7532C76.3078 26.8049 76.0385 26.7784 75.7938 26.677C75.5492 26.5757 75.3401 26.404 75.1929 26.1838C75.0458 25.9636 74.9673 25.7048 74.9673 25.4399C74.9675 25.0849 75.1087 24.7445 75.3597 24.4934C75.6108 24.2424 75.9512 24.1012 76.3063 24.1009ZM57.5643 13.3909C57.8291 13.3909 58.088 13.4695 58.3082 13.6166C58.5284 13.7637 58.7 13.9729 58.8013 14.2175C58.9027 14.4622 58.9292 14.7314 58.8776 14.9912C58.8259 15.2509 58.6984 15.4895 58.5111 15.6768C58.3238 15.864 58.0852 15.9915 57.8255 16.0432C57.5657 16.0949 57.2965 16.0684 57.0519 15.967C56.8072 15.8657 56.598 15.694 56.4509 15.4738C56.3038 15.2537 56.2253 14.9948 56.2253 14.7299C56.225 14.5539 56.2594 14.3795 56.3266 14.2168C56.3937 14.054 56.4923 13.9061 56.6167 13.7815C56.741 13.6568 56.8887 13.5579 57.0513 13.4904C57.2139 13.4229 57.3882 13.3881 57.5643 13.3879V13.3909Z" fill="#6572A4"/>
</svg>
