<svg fill="none" height="27" viewBox="0 0 27 27" width="27" xmlns="http://www.w3.org/2000/svg"><rect fill="#048ac8" height="27" rx="3" width="27"/><path clip-rule="evenodd" d="m21.9999 21.4545h-3.7572v-5.4328c0-1.4221-.5877-2.3929-1.8801-2.3929-.9885 0-1.5383.6551-1.7942 1.2865-.0959.2266-.0809.5423-.0809.858v5.6812h-3.7222s.0479-9.6238 0-10.4986h3.7222v1.6477c.2199-.7204 1.4093-1.7486 3.3074-1.7486 2.3549 0 4.205 1.5101 4.205 4.7619zm-14.99885-11.8118h-.02399c-1.19943 0-1.97706-.80256-1.97706-1.81987 0-1.03709.80062-1.82283 2.02404-1.82283 1.22242 0 1.97407.78376 1.99805 1.81986 0 1.01731-.77563 1.82284-2.02104 1.82284zm-1.5726 1.3132h3.31343v10.4986h-3.31343z" fill="#fff" fill-rule="evenodd"/></svg>