<svg width="98" height="97" viewBox="0 0 98 97" fill="none" xmlns="http://www.w3.org/2000/svg">
<path fill-rule="evenodd" clip-rule="evenodd" d="M77.6015 48.5C76.3227 48.5002 75.0728 48.8793 74.0097 49.5898C72.9465 50.3004 72.1181 51.3107 71.6288 52.4922C71.1395 53.6737 71.0101 54.9734 71.2597 56.2275C71.5092 57.4817 72.125 58.6339 73.0292 59.5381C73.9334 60.4423 75.0856 61.0581 76.3397 61.3076C77.5939 61.5571 78.8946 61.4287 80.0761 60.9395C81.2575 60.4502 82.2678 59.6218 82.9784 58.5586C83.689 57.4954 84.0681 56.2456 84.0683 54.9668C84.0667 53.2521 83.3842 51.608 82.1718 50.3955C80.9593 49.1831 79.3161 48.5016 77.6015 48.5Z" fill="#6572A4"/>
<path fill-rule="evenodd" clip-rule="evenodd" d="M38.801 67.9004C37.5219 67.9004 36.2717 68.2796 35.2082 68.9902C34.1447 69.7008 33.3158 70.7109 32.8264 71.8926C32.3369 73.0743 32.2087 74.3744 32.4582 75.6289C32.7077 76.8834 33.3243 78.036 34.2287 78.9404C35.1331 79.8449 36.2848 80.4604 37.5393 80.71C38.7937 80.9595 40.0949 80.8322 41.2766 80.3428C42.4583 79.8533 43.4683 79.0244 44.1789 77.9609C44.8895 76.8974 45.2688 75.6462 45.2688 74.3672C45.2672 72.6525 44.5847 71.0093 43.3723 69.7969C42.1598 68.5844 40.5156 67.902 38.801 67.9004Z" fill="#6572A4"/>
<path fill-rule="evenodd" clip-rule="evenodd" d="M17.7844 27.4839C16.5053 27.4839 15.2551 27.8631 14.1916 28.5737C13.1281 29.2843 12.2992 30.2944 11.8098 31.4761C11.3203 32.6578 11.1921 33.9579 11.4416 35.2124C11.6911 36.4669 12.3077 37.619 13.2121 38.5234C14.1165 39.4279 15.2682 40.0439 16.5227 40.2935C17.7771 40.543 19.0773 40.4148 20.259 39.9253C21.4407 39.4358 22.4507 38.6069 23.1613 37.5435C23.8719 36.48 24.2512 35.2297 24.2512 33.9507C24.2496 32.236 23.5681 30.5923 22.3557 29.3799C21.1432 28.1674 19.499 27.4855 17.7844 27.4839Z" fill="#6572A4"/>
<path fill-rule="evenodd" clip-rule="evenodd" d="M56.5835 6.4668C55.3044 6.4668 54.0532 6.84604 52.9897 7.55664C51.9262 8.26724 51.0983 9.27729 50.6089 10.459C50.1194 11.6407 49.9921 12.9408 50.2417 14.1953C50.4912 15.4498 51.1068 16.6019 52.0112 17.5063C52.9156 18.4108 54.0673 19.0268 55.3217 19.2764C56.5762 19.5259 57.8764 19.3982 59.0581 18.9087C60.2398 18.4192 61.2498 17.5899 61.9604 16.5264C62.671 15.4629 63.0503 14.2126 63.0503 12.9336C63.0487 11.2189 62.3662 9.57525 61.1538 8.36279C59.9413 7.15034 58.2981 6.46839 56.5835 6.4668Z" fill="#6572A4"/>
<path fill-rule="evenodd" clip-rule="evenodd" d="M43.4922 84.0678H34.1113C32.8012 84.0517 31.5387 84.5555 30.5996 85.4691C29.6605 86.3827 29.1216 87.6317 29.1016 88.9418V93.2035C29.1018 93.4871 29.1767 93.7654 29.3184 94.0111C29.46 94.2568 29.6629 94.4606 29.9082 94.6029C32.6091 96.1732 35.6776 97.0004 38.8018 97.0004C41.9259 97.0004 44.9945 96.1732 47.6953 94.6029C47.9409 94.461 48.1454 94.2569 48.2871 94.0111C48.4288 93.7653 48.5032 93.4872 48.5029 93.2035V88.9428C48.4832 87.6325 47.944 86.383 47.0049 85.4691C46.0657 84.5553 44.8025 84.0517 43.4922 84.0678Z" fill="#6572A4"/>
<path fill-rule="evenodd" clip-rule="evenodd" d="M82.291 64.6669H72.9102C71.6 64.6509 70.3356 65.1546 69.3965 66.0683C68.4574 66.9819 67.9204 68.2308 67.9004 69.5409V73.8026C67.9003 74.0863 67.9736 74.3655 68.1152 74.6112C68.2569 74.857 68.4615 75.0609 68.707 75.203C71.4079 76.7733 74.4754 77.6005 77.5996 77.6005C80.7238 77.6005 83.7933 76.7733 86.4941 75.203C86.7398 75.0611 86.9423 74.857 87.084 74.6112C87.2257 74.3655 87.3011 74.0863 87.3008 73.8026V69.5409C87.281 68.2308 86.7419 66.9819 85.8027 66.0683C84.8636 65.1546 83.6012 64.6506 82.291 64.6669Z" fill="#6572A4"/>
<path fill-rule="evenodd" clip-rule="evenodd" d="M22.4746 43.6503H13.0938C11.7833 43.634 10.5204 44.1378 9.58105 45.0517C8.64169 45.9655 8.10276 47.2149 8.08301 48.5253V52.787C8.08312 53.0706 8.15818 53.3489 8.2998 53.5946C8.44143 53.8403 8.64528 54.0452 8.89062 54.1874C11.5915 55.7577 14.659 56.5849 17.7832 56.5849C20.9074 56.5849 23.9759 55.7577 26.6768 54.1874C26.9222 54.0453 27.1269 53.8404 27.2686 53.5946C27.4102 53.3489 27.4845 53.0706 27.4844 52.787V48.5263C27.4649 47.2159 26.9265 45.9667 25.9873 45.0526C25.0481 44.1386 23.7851 43.6343 22.4746 43.6503Z" fill="#6572A4"/>
<path fill-rule="evenodd" clip-rule="evenodd" d="M61.2744 22.6327H51.8936C50.5833 22.6167 49.319 23.1207 48.3799 24.0346C47.4407 24.9484 46.9035 26.1975 46.8838 27.5077V31.7684C46.8837 32.0521 46.957 32.3308 47.0986 32.5765C47.2403 32.8223 47.4449 33.0263 47.6904 33.1683C50.3913 34.7386 53.4588 35.5658 56.583 35.5658C59.7072 35.5658 62.7767 34.7386 65.4775 33.1683C65.7232 33.0264 65.9257 32.8223 66.0674 32.5765C66.2091 32.3308 66.2845 32.0521 66.2842 31.7684V27.5062C66.2642 26.1962 65.7253 24.9477 64.7861 24.0341C63.847 23.1204 62.5845 22.6167 61.2744 22.6327Z" fill="#6572A4"/>
<path fill-rule="evenodd" clip-rule="evenodd" d="M90.5346 19.3999C89.2556 19.3999 88.0063 19.7791 86.9428 20.4897C85.8793 21.2003 85.0495 22.2104 84.56 23.3921C84.0706 24.5738 83.9433 25.8744 84.1928 27.1289C84.4424 28.3834 85.0579 29.5355 85.9624 30.4399C86.8668 31.3444 88.0184 31.9604 89.2729 32.21C90.5274 32.4595 91.8276 32.3313 93.0092 31.8418C94.1909 31.3523 95.201 30.5235 95.9116 29.46C96.6222 28.3965 97.0014 27.1462 97.0014 25.8672C96.9998 24.1525 96.3194 22.5084 95.1069 21.2959C93.8944 20.0834 92.2493 19.4015 90.5346 19.3999ZM90.5346 29.1001C89.8952 29.1003 89.2696 28.9108 88.7378 28.5557C88.206 28.2005 87.7912 27.6957 87.5464 27.105C87.3015 26.5142 87.2381 25.864 87.3628 25.2368C87.4874 24.6096 87.7954 24.0338 88.2475 23.5815C88.6996 23.1293 89.2747 22.8211 89.9018 22.6963C90.529 22.5715 91.1802 22.6352 91.771 22.8799C92.3618 23.1246 92.8668 23.5391 93.2221 24.0708C93.5774 24.6025 93.7671 25.2277 93.7671 25.8672C93.7663 26.7242 93.4257 27.5458 92.8198 28.1519C92.2139 28.758 91.3917 29.099 90.5346 29.1001Z" fill="#6572A4"/>
<path fill-rule="evenodd" clip-rule="evenodd" d="M6.467 72.751C5.18795 72.751 3.93772 73.1302 2.87422 73.8408C1.81073 74.5514 0.981861 75.5615 0.492389 76.7432C0.00291669 77.9249 -0.125306 79.225 0.124225 80.4795C0.373755 81.734 0.990306 82.8866 1.89473 83.791C2.79916 84.6954 3.9508 85.311 5.20528 85.5605C6.45975 85.8101 7.75992 85.6819 8.94161 85.1924C10.1233 84.7029 11.1333 83.874 11.844 82.8105C12.5546 81.7471 12.9338 80.4968 12.9338 79.2178C12.9322 77.5031 12.2507 75.8589 11.0383 74.6465C9.82583 73.434 8.18167 72.7526 6.467 72.751ZM6.467 82.4512C5.82729 82.4514 5.20211 82.2615 4.67012 81.9062C4.13814 81.551 3.72361 81.0461 3.47872 80.4551C3.23382 79.8641 3.16939 79.2134 3.29415 78.5859C3.4189 77.9585 3.72657 77.382 4.17891 76.9297C4.63126 76.4773 5.20773 76.1697 5.83516 76.0449C6.46259 75.9202 7.11333 75.9846 7.7043 76.2295C8.29528 76.4744 8.80019 76.8889 9.15547 77.4209C9.51076 77.9529 9.70059 78.5781 9.7004 79.2178C9.69934 80.0749 9.35823 80.8969 8.75215 81.5029C8.14608 82.109 7.32412 82.4501 6.467 82.4512Z" fill="#6572A4"/>
<path fill-rule="evenodd" clip-rule="evenodd" d="M87.3992 21.4427L73.4519 14.7098C73.0688 14.5453 72.6373 14.5351 72.2469 14.6814C71.8565 14.8278 71.5388 15.1192 71.3582 15.4949C71.1775 15.8707 71.1486 16.3018 71.2781 16.698C71.4076 17.0943 71.6858 17.4249 72.0535 17.6214L85.9988 24.3548C86.19 24.4473 86.3981 24.5008 86.6101 24.513C86.8222 24.5251 87.0347 24.4956 87.2351 24.4256C87.4356 24.3555 87.6198 24.2463 87.7781 24.1048C87.9364 23.9632 88.0651 23.7918 88.157 23.6004C88.2491 23.409 88.3035 23.2017 88.3152 22.9895C88.327 22.7774 88.2958 22.565 88.2254 22.3645C88.155 22.1641 88.0469 21.9793 87.9051 21.8211C87.7633 21.6629 87.5908 21.5345 87.3992 21.4427Z" fill="#6572A4"/>
<path fill-rule="evenodd" clip-rule="evenodd" d="M72.7505 84.0669C71.4714 84.0669 70.2221 84.4461 69.1587 85.1567C68.0952 85.8673 67.2653 86.8774 66.7758 88.0591C66.2864 89.2408 66.1591 90.5409 66.4087 91.7954C66.6582 93.0499 67.2738 94.2015 68.1782 95.106C69.0826 96.0104 70.2343 96.6269 71.4887 96.8765C72.7432 97.126 74.0434 96.9978 75.2251 96.5083C76.4068 96.0188 77.4168 95.19 78.1274 94.1265C78.838 93.063 79.2173 91.8127 79.2173 90.5337C79.2157 88.819 78.5352 87.1749 77.3227 85.9624C76.1103 84.7499 74.4651 84.0685 72.7505 84.0669ZM72.7505 93.7661C72.111 93.7659 71.4871 93.5766 70.9555 93.2212C70.424 92.8658 70.0086 92.3608 69.7641 91.77C69.5196 91.1792 69.4556 90.529 69.5805 89.9019C69.7055 89.2748 70.013 88.6986 70.4653 88.2466C70.9176 87.7946 71.4944 87.4873 72.1215 87.3628C72.7487 87.2382 73.4 87.3025 73.9907 87.5474C74.5814 87.7922 75.0848 88.206 75.4399 88.7378C75.795 89.2696 75.985 89.8952 75.9848 90.5347C75.9835 91.3918 75.6419 92.213 75.0356 92.8188C74.4293 93.4247 73.6076 93.7653 72.7505 93.7661Z" fill="#6572A4"/>
<path fill-rule="evenodd" clip-rule="evenodd" d="M69.6171 86.1107L55.6679 79.3773C55.2842 79.2085 54.8501 79.1949 54.4569 79.3402C54.0638 79.4855 53.7421 79.7779 53.5604 80.1557C53.3788 80.5334 53.3504 80.9668 53.4823 81.3647C53.6143 81.7625 53.8961 82.0942 54.2675 82.2885L68.2147 89.0219C68.5999 89.201 69.0393 89.2223 69.4394 89.0795C69.8394 88.9367 70.1687 88.6417 70.3534 88.2592C70.5381 87.8766 70.5646 87.4367 70.4276 87.0346C70.2906 86.6325 70.0008 86.301 69.621 86.1107H69.6171Z" fill="#6572A4"/>
<path fill-rule="evenodd" clip-rule="evenodd" d="M48.5029 43.6499C47.2238 43.6497 45.9727 44.0283 44.9091 44.7388C43.8455 45.4493 43.0169 46.4594 42.5273 47.6411C42.0377 48.8228 41.9087 50.1229 42.1581 51.3774C42.4076 52.632 43.0243 53.7844 43.9286 54.689C44.833 55.5935 45.9847 56.2099 47.2392 56.4595C48.4937 56.7091 49.7938 56.5808 50.9755 56.0913C52.1573 55.6019 53.1682 54.773 53.8788 53.7095C54.5895 52.646 54.9687 51.3958 54.9687 50.1167C54.9671 48.4022 54.2854 46.7578 53.0732 45.5454C51.8609 44.333 50.2174 43.6518 48.5029 43.6499ZM48.5029 53.3491C47.8634 53.3491 47.2377 53.1604 46.706 52.8052C46.1743 52.4499 45.7603 51.9448 45.5156 51.354C45.2709 50.7633 45.2072 50.113 45.332 49.4858C45.4567 48.8587 45.7646 48.2827 46.2167 47.8306C46.6689 47.3784 47.2449 47.0705 47.872 46.9458C48.4991 46.8211 49.1484 46.8847 49.7392 47.1294C50.3299 47.3741 50.8351 47.7891 51.1904 48.3208C51.5456 48.8525 51.7353 49.4773 51.7353 50.1167C51.7342 50.9738 51.3931 51.7958 50.787 52.4019C50.181 53.0079 49.36 53.3481 48.5029 53.3491Z" fill="#6572A4"/>
<path fill-rule="evenodd" clip-rule="evenodd" d="M45.6598 45.8742L34.9459 37.5236C34.6075 37.26 34.1783 37.1416 33.7526 37.1945C33.3269 37.2474 32.9391 37.4664 32.6754 37.8048C32.4118 38.1432 32.2934 38.5725 32.3463 38.9982C32.3992 39.4239 32.6192 39.8117 32.9577 40.0753L43.6715 48.4249C43.839 48.5555 44.0313 48.6516 44.236 48.7081C44.4407 48.7646 44.6541 48.7802 44.8649 48.754C45.0756 48.7279 45.2788 48.6606 45.4635 48.5558C45.6482 48.451 45.8105 48.3112 45.9411 48.1437C46.0716 47.9762 46.1678 47.7849 46.2243 47.5802C46.2808 47.3755 46.2973 47.1611 46.2711 46.9503C46.245 46.7396 46.1767 46.5364 46.0719 46.3517C45.9671 46.167 45.8273 46.0047 45.6598 45.8742Z" fill="#6572A4"/>
<path fill-rule="evenodd" clip-rule="evenodd" d="M77.6006 42.0327C74.0834 42.0327 70.646 43.0758 67.7216 45.0298C64.7972 46.9838 62.5168 49.7608 61.1709 53.0103C59.8249 56.2597 59.473 59.8351 60.1591 63.2847C60.8453 66.7342 62.5393 69.9031 65.0263 72.3901C67.5133 74.8771 70.6822 76.5702 74.1318 77.2563C77.5814 77.9425 81.1558 77.5906 84.4052 76.2446C87.6547 74.8987 90.4317 72.6192 92.3857 69.6948C94.3397 66.7704 95.3838 63.3321 95.3838 59.8149C95.3793 55.1 93.5048 50.5796 90.1709 47.2456C86.8369 43.9116 82.3155 42.0372 77.6006 42.0327ZM77.6006 74.3657C74.7229 74.3655 71.9092 73.5115 69.5166 71.9126C67.124 70.3137 65.2602 68.041 64.1591 65.3823C63.058 62.7236 62.7695 59.7984 63.331 56.9761C63.8925 54.1537 65.2786 51.5616 67.3134 49.5269C69.3483 47.4921 71.9403 46.1058 74.7627 45.5444C77.5851 44.9831 80.5103 45.2723 83.1689 46.3735C85.8275 47.4748 88.1014 49.3392 89.7002 51.7319C91.2989 54.1246 92.1513 56.9373 92.1513 59.8149C92.1474 63.6728 90.6137 67.3723 87.8857 70.1001C85.1577 72.8279 81.4584 74.362 77.6006 74.3657Z" fill="#6572A4"/>
<path fill-rule="evenodd" clip-rule="evenodd" d="M77.6013 58.2043C76.9618 58.2045 76.3362 58.0155 75.8044 57.6604C75.2726 57.3053 74.8578 56.8 74.613 56.2092C74.3681 55.6185 74.3048 54.9692 74.4294 54.342C74.554 53.7148 74.8621 53.138 75.3142 52.6858C75.7663 52.2335 76.3413 51.9258 76.9685 51.801C77.5956 51.6762 78.2468 51.7399 78.8376 51.9846C79.4284 52.2293 79.9335 52.6434 80.2888 53.175C80.6441 53.7067 80.8337 54.3324 80.8337 54.9719C80.8324 55.8288 80.4922 56.6501 79.8864 57.2561C79.2806 57.8621 78.4581 58.2028 77.6013 58.2043Z" fill="#F5BF2F"/>
<path fill-rule="evenodd" clip-rule="evenodd" d="M84.0654 72.84C82.0532 73.8293 79.8409 74.3439 77.5986 74.3439C75.3563 74.3439 73.1441 73.8293 71.1318 72.84V69.5402C71.1508 69.0871 71.3477 68.6596 71.6807 68.3517C72.0136 68.0439 72.454 67.8801 72.9072 67.8966H82.2861C82.7393 67.8801 83.1817 68.0439 83.5146 68.3517C83.8476 68.6596 84.0445 69.0871 84.0635 69.5402V72.84H84.0654Z" fill="#F5BF2F"/>
<path fill-rule="evenodd" clip-rule="evenodd" d="M38.7998 61.4336C35.2826 61.4336 31.8453 62.4766 28.9209 64.4307C25.9965 66.3847 23.717 69.1617 22.3711 72.4111C21.0251 75.6606 20.6732 79.236 21.3593 82.6855C22.0455 86.1351 23.7386 89.304 26.2256 91.791C28.7126 94.278 31.8815 95.9711 35.331 96.6572C38.7806 97.3434 42.356 96.9915 45.6054 95.6455C48.8549 94.2996 51.6319 92.0201 53.5859 89.0957C55.5399 86.1713 56.583 82.733 56.583 79.2158C56.5785 74.5009 54.7041 69.9805 51.3701 66.6465C48.0361 63.3125 43.5147 61.4381 38.7998 61.4336ZM38.7998 93.7666C35.9221 93.7666 33.1095 92.9132 30.7168 91.3145C28.324 89.7157 26.4586 87.4428 25.3574 84.7842C24.2561 82.1255 23.9688 79.2004 24.5302 76.3779C25.0917 73.5555 26.4768 70.9626 28.5117 68.9277C30.5465 66.8929 33.1395 65.5067 35.9619 64.9453C38.7843 64.3839 41.7095 64.6722 44.3681 65.7734C47.0268 66.8747 49.2996 68.7401 50.8984 71.1328C52.4972 73.5255 53.3506 76.3381 53.3506 79.2158C53.3466 83.0735 51.8117 86.7722 49.084 89.5C46.3562 92.2278 42.6575 93.7626 38.7998 93.7666Z" fill="#6572A4"/>
<path fill-rule="evenodd" clip-rule="evenodd" d="M38.8015 77.6005C38.162 77.6005 37.5363 77.4109 37.0046 77.0556C36.4729 76.7003 36.0589 76.1962 35.8142 75.6054C35.5695 75.0146 35.5058 74.3644 35.6306 73.7372C35.7554 73.1101 36.0631 72.5341 36.5154 72.082C36.9676 71.6299 37.5444 71.3218 38.1716 71.1972C38.7988 71.0726 39.4481 71.1369 40.0388 71.3818C40.6295 71.6266 41.1349 72.0404 41.49 72.5722C41.8451 73.104 42.0341 73.7296 42.0339 74.3691C42.0329 75.2261 41.6928 76.0473 41.0867 76.6533C40.4806 77.2592 39.6585 77.5997 38.8015 77.6005Z" fill="#4A557D"/>
<path fill-rule="evenodd" clip-rule="evenodd" d="M45.2646 92.2384C43.2524 93.2277 41.0402 93.7423 38.7979 93.7423C36.5555 93.7423 34.3424 93.2277 32.3301 92.2384V88.9386C32.3491 88.4855 32.5469 88.058 32.8799 87.7502C33.2129 87.4423 33.6542 87.2786 34.1074 87.2951H43.4873C43.9403 87.2788 44.3811 87.4423 44.7139 87.7502C45.0466 88.058 45.2447 88.4857 45.2637 88.9386V92.2384H45.2646Z" fill="#4A557D"/>
<path fill-rule="evenodd" clip-rule="evenodd" d="M17.7829 21.0166C14.2658 21.0166 10.8274 22.0597 7.90304 24.0137C4.97864 25.9677 2.70016 28.7452 1.35421 31.9946C0.00825417 35.244 -0.344649 38.8195 0.341512 42.269C1.02767 45.7186 2.7217 48.8875 5.2087 51.3745C7.6957 53.8615 10.8646 55.555 14.3142 56.2412C17.7637 56.9274 21.3392 56.575 24.5886 55.229C27.838 53.883 30.615 51.6041 32.569 48.6797C34.5231 45.7553 35.5661 42.3169 35.5661 38.7998C35.5616 34.0848 33.6862 29.5645 30.3523 26.2305C27.0183 22.8965 22.4979 21.0211 17.7829 21.0166ZM17.7829 53.3496C14.9052 53.3496 12.0926 52.4967 9.69991 50.8979C7.30717 49.2992 5.44179 47.0263 4.34054 44.3677C3.23928 41.709 2.951 38.7838 3.51241 35.9614C4.07383 33.139 5.45998 30.5461 7.49483 28.5112C9.52969 26.4764 12.1226 25.0907 14.945 24.5293C17.7675 23.9679 20.6926 24.2562 23.3513 25.3574C26.0099 26.4587 28.2828 28.3236 29.8816 30.7163C31.4803 33.109 32.3337 35.9221 32.3337 38.7998C32.3295 42.6574 30.7948 46.3558 28.0671 49.0835C25.3394 51.8112 21.6405 53.3454 17.7829 53.3496Z" fill="#6572A4"/>
<path fill-rule="evenodd" clip-rule="evenodd" d="M17.781 37.1828C17.1415 37.1828 16.5158 36.9932 15.9841 36.6379C15.4524 36.2827 15.0384 35.7775 14.7937 35.1867C14.549 34.596 14.4853 33.9457 14.6101 33.3186C14.7348 32.6914 15.0427 32.1154 15.4948 31.6633C15.947 31.2112 16.523 30.9033 17.1501 30.7785C17.7773 30.6538 18.4275 30.7174 19.0183 30.9621C19.609 31.2068 20.1132 31.6219 20.4685 32.1535C20.8237 32.6852 21.0134 33.31 21.0134 33.9494C21.0123 34.8065 20.6712 35.6285 20.0652 36.2346C19.4591 36.8407 18.6381 37.1818 17.781 37.1828Z" fill="#81C677"/>
<path fill-rule="evenodd" clip-rule="evenodd" d="M24.249 51.8224C22.2366 52.8113 20.0245 53.3254 17.7822 53.3254C15.54 53.3254 13.3269 52.8113 11.3145 51.8224V48.5226C11.3334 48.0695 11.5313 47.643 11.8643 47.3351C12.1972 47.0273 12.6386 46.8635 13.0918 46.88H22.4707C22.9239 46.8635 23.3653 47.0273 23.6982 47.3351C24.0312 47.643 24.2291 48.0695 24.248 48.5226V51.8224H24.249Z" fill="#81C677"/>
<path fill-rule="evenodd" clip-rule="evenodd" d="M56.584 0C53.0668 0 49.6285 1.04256 46.7041 2.99658C43.7797 4.9506 41.5002 7.72812 40.1543 10.9775C38.8083 14.227 38.4564 17.8024 39.1425 21.252C39.8287 24.7015 41.5227 27.8704 44.0097 30.3574C46.4967 32.8444 49.6656 34.538 53.1152 35.2241C56.5648 35.9103 60.1402 35.5579 63.3896 34.2119C66.639 32.866 69.4161 30.587 71.3701 27.6626C73.3241 24.7382 74.3672 21.2999 74.3672 17.7827C74.3627 13.0678 72.4873 8.54736 69.1533 5.21338C65.8193 1.87939 61.2989 0.00450091 56.584 0ZM56.584 32.333C53.7062 32.333 50.8937 31.4796 48.5009 29.8809C46.1082 28.2821 44.2428 26.0093 43.1416 23.3506C42.0403 20.6919 41.752 17.7668 42.3134 14.9443C42.8749 12.1219 44.261 9.52899 46.2959 7.49414C48.3307 5.45929 50.9227 4.07362 53.7451 3.51221C56.5675 2.95079 59.4936 3.23908 62.1523 4.34033C64.811 5.44159 67.0828 7.30648 68.6816 9.69922C70.2804 12.092 71.1338 14.905 71.1338 17.7827C71.1298 21.6405 69.5959 25.3394 66.8681 28.0674C64.1404 30.7953 60.4417 32.3298 56.584 32.334V32.333Z" fill="#6572A4"/>
<path fill-rule="evenodd" clip-rule="evenodd" d="M56.5847 16.1672C55.9452 16.1674 55.3196 15.9779 54.7878 15.6228C54.256 15.2677 53.8412 14.7629 53.5964 14.1721C53.3515 13.5814 53.2882 12.9312 53.4128 12.304C53.5374 11.6767 53.8455 11.1009 54.2976 10.6487C54.7497 10.1964 55.3247 9.88825 55.9519 9.76342C56.579 9.6386 57.2302 9.70235 57.821 9.94702C58.4118 10.1917 58.9169 10.6062 59.2722 11.1379C59.6275 11.6696 59.8171 12.2949 59.8171 12.9343C59.8163 13.7913 59.4738 14.6129 58.8679 15.219C58.262 15.8251 57.4417 16.1662 56.5847 16.1672Z" fill="#F05F87"/>
<path fill-rule="evenodd" clip-rule="evenodd" d="M63.0498 30.8063C61.0375 31.7954 58.8253 32.3097 56.583 32.3097C54.3407 32.3097 52.1286 31.7954 50.1162 30.8063V27.506C50.1352 27.0529 50.3321 26.6259 50.665 26.318C50.998 26.0102 51.4384 25.8464 51.8916 25.863H61.2705C61.7237 25.8464 62.166 26.0102 62.499 26.318C62.832 26.6259 63.0289 27.0529 63.0479 27.506V30.8063H63.0498Z" fill="#F05F87"/>
<path fill-rule="evenodd" clip-rule="evenodd" d="M41.6479 16.7309C41.3686 16.406 40.9715 16.2053 40.5443 16.1723C40.1172 16.1393 39.6944 16.2769 39.3686 16.5551L28.1684 26.142C28.0024 26.2785 27.8652 26.4466 27.765 26.6366C27.6649 26.8267 27.6042 27.0349 27.5854 27.249C27.5666 27.463 27.5902 27.6786 27.6557 27.8832C27.7212 28.0878 27.8276 28.2771 27.9672 28.4404C28.1068 28.6036 28.2772 28.7374 28.4691 28.8339C28.6611 28.9304 28.87 28.9877 29.0844 29.0024C29.2987 29.017 29.5139 28.9888 29.7172 28.9194C29.9205 28.8499 30.1084 28.7408 30.269 28.5981L41.4691 19.0112C41.6306 18.8732 41.7634 18.7048 41.8598 18.5156C41.9562 18.3263 42.014 18.1199 42.0307 17.9081C42.0473 17.6964 42.0221 17.4836 41.9565 17.2817C41.8908 17.0797 41.7858 16.8923 41.6479 16.7309Z" fill="#6572A4"/>
<path fill-rule="evenodd" clip-rule="evenodd" d="M77.2768 42.6815L67.5776 29.7484C67.3168 29.4158 66.936 29.1988 66.517 29.1434C66.0981 29.0879 65.6737 29.1986 65.3354 29.452C64.9971 29.7053 64.7712 30.0807 64.7065 30.4984C64.6418 30.916 64.744 31.3425 64.9897 31.6863L74.6889 44.6204C74.8148 44.794 74.9746 44.9406 75.1577 45.0521C75.3408 45.1635 75.5434 45.2378 75.7553 45.2698C75.9673 45.3019 76.1842 45.2914 76.392 45.2391C76.5999 45.1868 76.7947 45.0937 76.9663 44.9652C77.1378 44.8366 77.2815 44.6749 77.3901 44.4901C77.4986 44.3052 77.5704 44.1009 77.5991 43.8885C77.6278 43.6761 77.6136 43.4598 77.5581 43.2528C77.5025 43.0457 77.4061 42.8519 77.2749 42.6824L77.2768 42.6815Z" fill="#6572A4"/>
<path fill-rule="evenodd" clip-rule="evenodd" d="M64.0097 65.1625C63.8823 64.9926 63.7237 64.8498 63.541 64.7416C63.3582 64.6334 63.1555 64.5616 62.9453 64.5316C62.735 64.5016 62.5201 64.514 62.3144 64.5668C62.1087 64.6195 61.9159 64.7118 61.7461 64.8392L52.7148 71.6117C52.5451 71.7392 52.4029 71.8987 52.2949 72.0814C52.1868 72.2641 52.1158 72.466 52.0859 72.6762C52.056 72.8863 52.0663 73.1005 52.1191 73.306C52.1719 73.5116 52.2651 73.7047 52.3925 73.8744C52.52 74.0441 52.6805 74.1873 52.8632 74.2953C53.0459 74.4033 53.2469 74.4744 53.457 74.5043C53.6671 74.5342 53.8823 74.5219 54.0878 74.4691C54.2934 74.4163 54.4865 74.3241 54.6562 74.1967L63.6855 67.4242C63.8555 67.2971 63.9991 67.138 64.1074 66.9555C64.2157 66.773 64.2862 66.5708 64.3164 66.3607C64.3465 66.1507 64.3357 65.9365 64.2832 65.7309C64.2306 65.5252 64.137 65.3323 64.0097 65.1625Z" fill="#6572A4"/>
<path fill-rule="evenodd" clip-rule="evenodd" d="M22.6299 77.6001H11.3125C10.8907 77.6106 10.4899 77.7864 10.1953 78.0884C9.90072 78.3904 9.73633 78.7954 9.73633 79.2173C9.73633 79.6392 9.90072 80.0442 10.1953 80.3462C10.4899 80.6482 10.8907 80.823 11.3125 80.8335H22.6299C23.0516 80.823 23.4525 80.6482 23.7471 80.3462C24.0417 80.0442 24.2061 79.6392 24.2061 79.2173C24.2061 78.7954 24.0417 78.3904 23.7471 78.0884C23.4525 77.7864 23.0516 77.6106 22.6299 77.6001Z" fill="#6572A4"/>
<path fill-rule="evenodd" clip-rule="evenodd" d="M17.7844 0C16.5053 0 15.2551 0.379241 14.1916 1.08984C13.1281 1.80045 12.2992 2.8105 11.8098 3.99219C11.3203 5.17388 11.1921 6.47404 11.4416 7.72852C11.6911 8.98299 12.3067 10.1351 13.2111 11.0396C14.1156 11.944 15.2682 12.56 16.5227 12.8096C17.7771 13.0591 19.0773 12.9309 20.259 12.4414C21.4407 11.9519 22.4507 11.1231 23.1613 10.0596C23.8719 8.99608 24.2512 7.74585 24.2512 6.4668C24.2496 4.75213 23.5681 3.10796 22.3557 1.89551C21.1432 0.683054 19.499 0.00158864 17.7844 0ZM17.7844 9.69971C17.145 9.69971 16.5201 9.51003 15.9885 9.15479C15.4568 8.79954 15.0418 8.29486 14.7971 7.7041C14.5524 7.11335 14.4887 6.46308 14.6135 5.83594C14.7382 5.2088 15.0461 4.63281 15.4982 4.18066C15.9504 3.72852 16.5264 3.42064 17.1535 3.2959C17.7807 3.17115 18.4309 3.23528 19.0217 3.47998C19.6124 3.72468 20.1166 4.13875 20.4719 4.67041C20.8271 5.20207 21.0168 5.82737 21.0168 6.4668C21.0157 7.32392 20.6756 8.14539 20.0695 8.75146C19.4635 9.35754 18.6415 9.69865 17.7844 9.69971Z" fill="#6572A4"/>
<path fill-rule="evenodd" clip-rule="evenodd" d="M17.7842 9.69971C17.5719 9.69971 17.3621 9.74197 17.166 9.82324C16.9699 9.90452 16.7917 10.0237 16.6416 10.1738C16.4915 10.324 16.3722 10.5021 16.291 10.6982C16.2099 10.8944 16.1678 11.1046 16.168 11.3169V22.6338C16.168 23.0624 16.3385 23.4738 16.6416 23.7769C16.9447 24.0799 17.3556 24.25 17.7842 24.25C18.2128 24.25 18.6237 24.0799 18.9268 23.7769C19.2298 23.4738 19.4004 23.0624 19.4004 22.6338V11.3169C19.4005 11.1046 19.3585 10.8944 19.2773 10.6982C19.1962 10.5021 19.0778 10.324 18.9277 10.1738C18.7777 10.0237 18.5994 9.90452 18.4033 9.82324C18.2072 9.74197 17.9965 9.69971 17.7842 9.69971Z" fill="#6572A4"/>
</svg>
