<svg xmlns="http://www.w3.org/2000/svg" width="14.659" height="20.343" viewBox="0 0 14.659 20.343">
  <g id="location" transform="translate(-1318.199 -1339.4)">
    <g id="Ellipse_85" data-name="Ellipse 85" transform="translate(1322 1344)" fill="none" stroke="#54649b" stroke-width="0.6">
      <circle cx="3.5" cy="3.5" r="3.5" stroke="none"/>
      <circle cx="3.5" cy="3.5" r="3.2" fill="none"/>
    </g>
    <g id="Ellipse_85-2" data-name="Ellipse 85" transform="translate(1318.199 1339.4)" fill="none">
      <path d="M7.33,0a7.33,7.33,0,0,1,7.33,7.33c0,4.048-6.542,13.014-7.33,13.014S0,11.378,0,7.33A7.33,7.33,0,0,1,7.33,0Z" stroke="none"/>
      <path d="M 7.329526901245117 0.6000022888183594 C 3.618846893310547 0.6000022888183594 0.5999965667724609 3.618850708007813 0.5999965667724609 7.329531669616699 C 0.5999965667724609 8.865091323852539 1.722227096557617 11.55799102783203 3.678926467895508 14.71772193908691 C 5.26654052734375 17.28143692016602 6.759212970733643 19.11538314819336 7.329526901245117 19.64131355285645 C 7.899840831756592 19.11538314819336 9.392513275146484 17.28143692016602 10.98012733459473 14.71772193908691 C 12.93682670593262 11.55799102783203 14.05905723571777 8.865091323852539 14.05905723571777 7.329531669616699 C 14.05905723571777 3.618850708007813 11.04020690917969 0.6000022888183594 7.329526901245117 0.6000022888183594 M 7.329526901245117 1.9073486328125e-06 C 11.377516746521 1.9073486328125e-06 14.65905666351318 3.28154182434082 14.65905666351318 7.329531669616699 C 14.65905666351318 11.3775110244751 8.117217063903809 20.34332084655762 7.329526901245117 20.34332084655762 C 6.541836738586426 20.34332084655762 -2.86102294921875e-06 11.3775110244751 -2.86102294921875e-06 7.329531669616699 C -2.86102294921875e-06 3.28154182434082 3.281537055969238 1.9073486328125e-06 7.329526901245117 1.9073486328125e-06 Z" stroke="none" fill="#54649b"/>
    </g>
  </g>
</svg>
