<svg fill="none" height="502" viewBox="0 0 1440 502" width="1440" xmlns="http://www.w3.org/2000/svg" xmlns:xlink="http://www.w3.org/1999/xlink"><mask id="a" height="502" maskUnits="userSpaceOnUse" width="1440" x="0" y="0"><path d="m0 0h1440v502h-1440z" fill="#c4c4c4"/></mask><g mask="url(#a)"><path clip-rule="evenodd" d="m2221.42 1347.49 3.21 5.61-5.53 2.3-3.21-5.6zm-79.1 32.96 3.21 5.6-5.53 2.31-3.21-5.61zm-79.11 32.95 3.21 5.61-5.53 2.3-3.2-5.61zm-158.26 66.09 3.06 5.34-5.27 2.2-3.05-5.35zm79.05-32.76 2.9 5.07-5 2.08-2.9-5.07zm-158.27 66.09 2.75 4.81-4.73 1.97-2.75-4.8zm-79.1 32.96 2.75 4.8-4.74 1.97-2.75-4.8zm-79.1 32.95 2.75 4.8-4.74 1.98-2.75-4.81zm-79.16 33.14 2.59 4.54-4.47 1.86-2.6-4.54zm-79.16 33.14 2.44 4.27-4.21 1.76-2.44-4.28zm-79.16 33.14 2.29 4.01-3.95 1.64-2.29-4zm-79.16 33.14 2.14 3.74-3.69 1.54-2.14-3.74zm-79.16 33.14 1.98 3.47-3.42 1.43-1.98-3.47zm-79.16 33.15 1.83 3.2-3.16 1.32-1.83-3.21zm301.6-1739.0197 23.37 40.8588-39.29 16.3665 21.85 38.1934 40.48-16.859 24.74 43.262-39.16 16.313 20.4 35.656 40.48-16.86 26.27 45.932-39.29 16.367 19.02 33.253 40.35-16.805 27.5 48.07-39.03 16.257 17.72 30.983 40.21-16.75 28.88 50.472-39.16 16.312 16.35 28.579 40.34-16.805 30.25 52.876-39.16 16.312 15.05 26.31 40.21-16.75 31.47 55.012-39.16 16.311 13.83 24.174 40.21-16.75 32.69 57.149-39.16 16.311 12.69 22.171 40.08-16.695 33.76 59.019-39.16 16.311 11.61 20.301 39.76-16.56-11.27-19.697 19.74-8.224 11.46 20.029-19.42 8.088 34.38 60.092 19.54-8.143 11.61 20.296-18.62 7.759 34.07 59.557 19.02-7.924 12.07 21.097-17.97 7.486 33.61 58.757 18.36-7.65 12.53 21.899-17.57 7.32 33.38 58.36 17.57-7.32 12.53 21.89-17.44 7.27 33.23 58.09 17.7-7.38 12.83 22.44-17.7 7.37 33.23 58.09 17.44-7.27 12.53 21.9-17.45 7.27 34.07 59.56 16.26-6.78 11.15 19.5-19.21 8-9.44-16.49-41.72 17.38 19.97 34.92-55.54 23.14-19.59-34.25-23.7 9.87 19.52 34.12-55.28 23.02-19.51-34.11-23.96 9.98 19.44 33.98-55.01 22.92-19.83-34.66-24.75 10.31 19.45 33.99-53.7 22.37-20.13-35.19-26.46 11.02 19.52 34.12-51.6 21.49-20.2-35.31-28.43 11.84 19.67 34.39-49.75 20.72-20.36-35.59-30.28 12.61 19.83 34.66-47.91 19.95-20.51-35.85-31.99 13.32 20.05 35.06-46.32 19.3-20.82-36.39-34.09 14.2 20.05 35.05-43.7 18.21-20.81-36.39-36.33 15.13 20.28 35.46-41.85 17.43-21.13-36.92-38.56 16.07 20.35 35.58-39.22 16.34-21.19-37.06-41.2 17.17 20.43 35.72-36.59 15.24-21.23-37.12 35.21-14.67-23-40.19-35.41 14.75 22.88 39.99-42.11 17.54-23.88-41.72-37.97 15.81-22.61-39.52 38.96-16.23 22.04 38.53 38.43-16.02-22.23-38.86-38.1 15.88-22.92-40.06 39.42-16.42-23.03-40.26 39.42-16.43-23.03-40.26 39.42-16.42-23.03-40.26 39.42-16.42-23.03-40.26 39.42-16.42-23.03-40.26 39.42-16.42-22.99-40.2-38.11 15.87-22.15-38.72 38.17-15.9 22.11 38.66 39.36-16.4-22.84-39.93-38.1 15.88-22.31-38.99 38.43-16.01 22.12 38.66 39.09-16.29-22.69-39.66-38.1 15.87-22.46-39.25 38.7-16.12 22.11 38.66 38.83-16.18-22.53-39.4-38.11 15.88-22.61-39.53 38.96-16.23 22.11 38.66 38.57-16.06-22.38-39.13-38.11 15.87-22.76-39.789 39.22-16.339 22.12 38.658 38.17-15.9-22.23-38.862-37.97 15.818-22.92-40.058 39.29-16.367-23.11-40.394 39.42-16.422-23.03-40.26 39.42-16.422-23.03-40.26 39.42-16.422-23.03-40.26 39.42-16.422-23.03-40.261 39.42-16.422-22.84-39.929-38.1 15.874-22.31-38.99 38.43-16.01 22.12 38.658 39.09-16.285-22.69-39.664-38.1 15.875-22.46-39.257 38.7-16.119 22.11 38.659 38.83-16.176-22.53-39.396-38.11 15.874-22.61-39.524 38.96-16.228 22.11 38.658 38.57-16.066-22.38-39.129-38.11 15.874-22.76-39.791 39.22-16.338 22.11 38.658 38.31-15.957-22.23-38.861-38.1 15.873-22.92-40.057 39.42-16.423-23.03-40.26 39.29-16.367-23.11-40.393 39.42-16.422-23.03-40.261 39.42-16.423-23.03-40.26 39.82-16.5856-22.8-39.8602zm-278.54 1660.3697 19.71 34.45-33.96 14.15-19.71-34.45zm-84.02 49.72 6.11 10.68-10.53 4.39-6.11-10.68zm217.88-154.92-32.39 13.49 21.32 37.26 32.38-13.49zm-195.54 78.73 22 38.45-37.91 15.79-21.99-38.45zm274.03-109.61-29.49 12.28 19.71 34.46 29.49-12.29zm78.55-31.07-26.72 11.13 18.41 32.18 26.73-11.13zm78.63-30.94-24.09 10.04 16.81 29.38 24.09-10.04zm78.69-31.12-21.59 8.99 15.58 27.24 21.59-8.99zm78.6-31.26-19.22 8.01 14.37 25.1 19.22-8zm78.61-31.26-16.85 7.02 13.14 22.97 16.85-7.02zm78.61-31.26-14.48 6.04 11.84 20.7 14.48-6.04zm79.13-31.47-12.64 5.26 10.77 18.83 12.64-5.26zm79.41-32.42-11.98 4.99 10.39 18.16 11.98-4.99zm79.76-33.23-12.64 5.27 10.32 18.03 12.64-5.27zm-850.52 289.24-35.14 14.64 20.4 35.66 35.14-14.64zm78.58-30.75-32.12 13.38 18.64 32.59 32.12-13.38zm78.63-30.93-29.36 12.23 16.96 29.64 29.36-12.22zm78.42-31.02-26.6 11.08 15.44 26.98 26.59-11.08zm78.62-30.93-23.82 9.92 13.83 24.18 23.82-9.93zm78.69-31.13-21.33 8.89 12.38 21.63 21.33-8.88zm78.53-31.39-18.96 7.9 11.08 19.37 18.96-7.9zm78.68-31.12-16.59 6.91 9.63 16.83 16.59-6.91zm338.7-138.45-34.75 14.48 7.72 13.49 34.75-14.48zm-260.09 107.19-14.22 5.92 8.25 14.43 14.22-5.93zm79.19-31.67-12.51 5.21 7.26 12.7 12.51-5.22zm79.41-32.42-11.98 5 6.95 12.15 11.98-4.99zm-989.05 412.77 6.26 10.95-10.79 4.49-6.27-10.95zm139.8-125.87-38.05 15.84 22.08 38.6 38.04-15.85zm-118.13 51.94 20.32 35.51-35.01 14.59-20.31-35.52zm196.57-82.63-34.89 14.53 20.25 35.39 34.88-14.54zm78.57-30.75-31.86 13.27 18.49 32.32 31.86-13.27zm78.63-30.94-29.09 12.12 16.88 29.52 29.09-12.12zm78.42-31.01-26.33 10.96 15.28 26.71 26.33-10.96zm78.63-30.94-23.57 9.82 13.68 23.9 23.56-9.81zm78.74-31.31-21.2 8.83 12.3 21.5 21.2-8.83zm78.47-31.2-18.82 7.84 10.92 19.1 18.83-7.84zm78.68-31.13-16.32 6.8 9.47 16.56 16.33-6.8zm78.67-31.44-14.09 5.86 8.18 14.3 14.08-5.87zm79.26-31.54-12.51 5.21 7.19 12.56 12.5-5.21zm80-32.82-12.65 5.26 6.96 12.16 12.64-5.27zm-849.97 287.35-37.78 15.74 21.92 38.33 37.78-15.74zm-117.85 51 20.93 36.58-36.06 15.03-20.93-36.59zm196.29-81.69-34.62 14.42 20.09 35.12 34.62-14.42zm78.57-30.75-31.59 13.16 18.34 32.05 31.59-13.16zm78.63-30.93-28.83 12.01 16.73 29.24 28.83-12.01zm78.42-31.02-26.07 10.86 15.13 26.44 26.07-10.86zm78.76-30.99-23.43 9.76 13.52 23.64 23.43-9.76zm78.61-31.26-21.06 8.78 12.22 21.37 21.06-8.78zm78.47-31.2-18.56 7.73 10.77 18.84 18.57-7.74zm78.74-31.31-16.19 6.74 9.4 16.43 16.19-6.74zm259.39-105.58-34.49 14.37 7.72 13.49 34.48-14.36zm-180.78 74.32-13.96 5.81 8.1 14.16 13.96-5.81zm79.4-31.59-12.38 5.16 7.11 12.42 12.37-5.15zm-989.07 413.6 5.81 10.15-10.01 4.16-5.8-10.14zm101.28-108.58 21.24 37.12-36.59 15.24-21.24-37.12zm117.68-50.43-37.52 15.63 21.78 38.06 37.51-15.63zm78.44-30.7-34.35 14.32 19.93 34.85 34.36-14.31zm-276.16 117.28 18.63 32.58-32.11 13.38-18.64-32.58zm354.73-148.02-31.32 13.05 18.18 31.78 31.33-13.05zm78.63-30.94-28.56 11.9 16.58 28.98 28.56-11.9zm78.42-31.01-25.8 10.74 14.98 26.18 25.8-10.75zm78.69-31.13-23.17 9.65 13.52 23.64 23.17-9.65zm78.68-31.12-20.8 8.66 12.07 21.11 20.8-8.67zm78.61-31.26-18.43 7.68 10.62 18.56 18.43-7.68zm78.6-31.26-16.06 6.69 9.32 16.3 16.07-6.69zm78.61-31.26-13.69 5.71 7.95 13.89 13.69-5.7zm80.11-32.04-12.9 5.37 7.11 12.43 12.9-5.38zm-888.39 305.1 21.39 37.38-36.85 15.36-21.39-37.39zm117.57-50.06-37.25 15.52 21.62 37.79 37.25-15.52zm-197.44 85.65 19.24 33.65-33.16 13.81-19.25-33.65zm275.88-116.34-34.09 14.2 19.79 34.59 34.09-14.2zm78.58-30.75-31.07 12.94 18.03 31.52 31.07-12.94zm78.63-30.93-28.31 11.79 16.43 28.71 28.3-11.79zm78.55-31.07-25.67 10.69 14.82 25.91 25.67-10.69zm78.55-31.07-23.04 9.59 13.37 23.38 23.04-9.6zm78.68-31.13-20.53 8.56 11.91 20.83 20.54-8.55zm78.61-31.26-18.17 7.57 10.55 18.44 18.16-7.57zm78.61-31.25-15.8 6.58 9.17 16.03 15.8-6.58zm180.58-73.24-35.02 14.58 7.8 13.63 35.01-14.59zm-101.84 41.92-13.56 5.65 7.79 13.63 13.56-5.65zm-988.963 415.21 5.347 9.35-9.214 3.83-5.346-9.34zm180.663-142.48 21.54 37.66-37.12 15.46-21.54-37.66zm117.45-49.67-36.98 15.41 21.46 37.52 36.99-15.41zm-197.33 85.26 19.4 33.92-33.43 13.93-19.4-33.92zm275.78-115.96-33.83 14.1 19.63 34.32 33.83-14.1zm78.57-30.74-30.8 12.83 17.87 31.25 30.81-12.83zm-434.39 182.86 16.8 29.38-28.95 12.06-16.809-29.38zm513.02-213.8-28.04 11.68 16.27 28.45 28.04-11.68zm78.55-31.07-25.41 10.59 14.75 25.77 25.4-10.58zm78.55-31.07-22.77 9.49 13.21 23.1 22.78-9.48zm78.69-31.12-20.28 8.44 11.77 20.57 20.27-8.44zm78.6-31.26-17.9 7.46 10.39 18.16 17.9-7.46zm78.61-31.26-15.54 6.47 9.02 15.77 15.54-6.48zm79.4-31.58-13.96 5.81 7.72 13.49 13.95-5.81zm-808.85 272.62 21.69 37.92-37.38 15.57-21.69-37.92zm117.35-49.3-36.73 15.3 21.32 37.26 36.72-15.3zm-197.23 84.89 19.56 34.18-33.7 14.04-19.55-34.18zm275.67-115.58-33.57 13.98 19.48 34.06 33.57-13.99zm-355.55 151.17 17.42 30.45-30.01 12.5-17.41-30.45zm434.12-181.92-30.54 12.72 17.73 30.99 30.54-12.73zm78.63-30.93-27.77 11.57 16.11 28.18 27.78-11.57zm78.55-31.07-25.14 10.47 14.59 25.51 25.14-10.48zm78.55-31.07-22.51 9.38 13.07 22.83 22.51-9.38zm78.61-31.26-20.01 8.33 11.69 20.44 20.01-8.34zm78.61-31.26-17.64 7.35 10.31 18.03 17.64-7.35zm78.68-31.12-15.27 6.36 8.86 15.49 15.28-6.36zm101.13-41.469-35.81 14.915 8.33 14.564 35.81-14.919zm-1090.564 458.689 4.736 8.28-8.16 3.4-4.736-8.28zm260.094-176.56 21.85 38.19-37.64 15.68-21.85-38.19zm117.24-48.92-36.46 15.19 21.16 36.99 36.46-15.19zm-197.06 84.32 19.86 34.72-34.22 14.25-19.86-34.71zm275.5-115.02-33.3 13.88 19.32 33.78 33.31-13.87zm-355.43 150.8 17.57 30.71-30.28 12.61-17.56-30.71zm434-181.54-30.27 12.61 17.57 30.72 30.28-12.62zm78.63-30.94-27.51 11.46 15.97 27.91 27.51-11.46zm-592.677 248.64 14.972 26.17-25.796 10.74-14.971-26.17zm671.227-279.71-24.87 10.36 14.43 25.25 24.88-10.37zm78.69-31.12-22.38 9.32 12.91 22.57 22.38-9.32zm78.61-31.26-20.01 8.33 11.53 20.17 20.01-8.33zm78.47-31.204-17.51 7.294 10.16 17.77 17.51-7.3zm79.27-31.532-15.67 6.527 8.79 15.361 15.66-6.526zm-612.69 192.146-36.2 15.08 21.01 36.72 36.2-15.07zm-196.95 83.95 20.01 34.98-34.48 14.37-20.01-34.98zm275.39-114.64-33.04 13.76 19.18 33.52 33.04-13.76zm-355.26 150.23 17.87 31.24-30.8 12.83-17.87-31.24zm433.84-180.98-30.02 12.5 17.42 30.45 30.02-12.5zm-513.778 216.76 15.578 27.24-26.845 11.18-15.582-27.24zm592.328-247.83-27.25 11.35 15.89 27.78 27.25-11.35zm78.63-30.93-24.62 10.25 14.29 24.97 24.61-10.25zm78.68-31.129-22.12 9.209 12.84 22.44 22.12-9.21zm78.61-31.257-19.75 8.226 11.46 20.034 19.75-8.226zm78.61-31.259-17.38 7.24 10.01 17.499 17.38-7.24zm100.46-41.19-37.25 15.518 9.4 16.429 37.25-15.519zm-1090.509 460.485 4.278 7.48-7.371 3.07-4.277-7.48zm259.659-175.05 20.16 35.25-34.74 14.47-20.17-35.25zm196.83-83.57-35.93 14.97 20.85 36.45 35.94-14.97zm78.45-30.7-32.78 13.66 19.02 33.25 32.78-13.65zm-355.16 149.86 18.02 31.51-31.06 12.94-18.02-31.51zm433.86-180.66-29.88 12.45 17.26 30.18 29.89-12.45zm-513.79 216.44 15.73 27.5-27.112 11.3-15.735-27.51zm592.21-247.454-27.12 11.294 15.74 27.51 27.12-11.29zm78.63-30.936-24.35 10.145 14.13 24.705 24.35-10.141zm-750.887 314.54 13.138 22.97-22.638 9.43-13.138-22.97zm829.567-345.665-21.85 9.104 12.68 22.171 21.86-9.103zm78.61-31.257-19.48 8.116 11.31 19.769 19.48-8.117zm79.27-31.532-17.78 7.404 9.94 17.364 17.77-7.404zm-730.94 244.144 20.32 35.51-35.01 14.59-20.32-35.52zm196.73-83.2-35.68 14.86 20.71 36.19 35.67-14.86zm-276.61 118.79 18.18 31.78-31.32 13.04-18.18-31.78zm355.12-149.35-32.51 13.55 18.79 32.85 32.52-13.55zm78.63-30.935-29.62 12.339 17.19 30.046 29.62-12.34zm-513.68 216.055 15.89 27.78-27.38 11.4-15.887-27.77zm592.1-247.07-26.85 11.187 15.59 27.246 26.85-11.187zm-672.035 282.85 13.596 23.77-23.426 9.76-13.597-23.77zm750.665-313.785-24.09 10.035 13.98 24.44 24.09-10.035zm78.68-31.125-21.59 8.994 12.53 21.904 21.59-8.994zm78.54-31.391-19.22 8.007 11.23 19.633 19.22-8.007zm100.01-40.838-38.56 16.066 10.54 18.432 38.57-16.066zm-1090.589 462.339 3.666 6.41-6.317 2.63-3.666-6.41zm339.149-209.32 20.62 36.05-35.54 14.8-20.62-36.05zm196.5-82.446-35.27 14.695 20.47 35.791 35.28-14.7zm-276.38 118.036 18.48 32.31-31.85 13.27-18.48-32.32zm354.96-148.783-32.12 13.379 18.64 32.585 32.12-13.38zm78.63-30.937-29.36 12.229 17.04 29.781 29.35-12.228zm-513.52 215.49 16.19 28.31-27.9 11.62-16.2-28.3zm591.94-246.506-26.6 11.078 15.44 26.977 26.59-11.077zm-671.875 282.286 13.901 24.3-23.954 9.98-13.901-24.3zm750.495-313.22-23.82 9.925 13.83 24.174 23.82-9.926zm78.74-31.313-21.45 8.939 12.45 21.77 21.46-8.939zm-909.279 380.693 11.305 19.76-19.479 8.11-11.305-19.76zm988.419-412.17-19.75 8.226 11.08 19.367 19.75-8.227zm-651.98 212.07 20.78 36.32-35.8 14.92-20.78-36.32zm196.4-82.061-34.89 14.531 20.25 35.389 34.88-14.532zm-276.28 117.651 18.64 32.58-32.11 13.38-18.64-32.58zm354.85-148.4-31.86 13.27 18.49 32.319 31.86-13.27zm-434.78 184.18 16.35 28.58-28.17 11.73-16.35-28.58zm513.41-215.115-29.09 12.119 16.88 29.514 29.09-12.119zm78.42-31.015-26.33 10.967 15.28 26.711 26.33-10.968zm-671.764 281.91 14.055 24.57-24.216 10.09-14.055-24.57zm750.524-312.9-23.7 9.871 13.68 23.906 23.69-9.871zm78.61-31.258-21.33 8.884 12.38 21.636 21.32-8.884zm-909.066 379.938 11.763 20.56-20.269 8.45-11.762-20.57zm-82.252 43.69 3.055 5.34-5.264 2.19-3.055-5.34zm536.428-294.405-37.91 15.792 21.92 38.329 37.91-15.792zm-117.85 50.996 20.93 36.587-36.06 15.022-20.93-36.586zm196.29-81.688-34.62 14.422 20.09 35.122 34.62-14.422zm-276.17 117.279 18.79 32.848-32.37 13.49-18.79-32.851zm354.74-148.027-31.59 13.16 18.33 32.052 31.6-13.16zm-434.67 183.805 16.5 28.84-28.43 11.84-16.5-28.84zm513.3-214.74-28.83 12.009 16.73 29.246 28.83-12.009zm78.42-31.016-26.06 10.859 15.12 26.444 26.07-10.858zm-671.65 281.536 14.21 24.83-24.483 10.2-14.207-24.83zm750.33-312.66-23.43 9.762 13.68 23.906 23.43-9.761zm-830.263 348.44 11.916 20.83-20.531 8.55-11.916-20.83zm909.473-379.783-21.59 8.994 12.23 21.369 21.59-8.993zm-989.405 415.553 9.624 16.83-16.583 6.91-9.624-16.83zm416.265-235.49 21.08 36.853-36.33 15.132-21.08-36.853zm117.73-50.62-37.52 15.628 21.78 38.062 37.51-15.629zm78.44-30.693-34.35 14.312 19.93 34.856 34.36-14.312zm-276 116.714 19.1 33.383-32.9 13.706-19.1-33.382zm354.57-147.461-31.32 13.05 18.18 31.786 31.33-13.051zm-434.5 183.24 16.81 29.376-28.96 12.064-16.8-29.378zm513.13-214.175-28.56 11.9 16.58 28.979 28.56-11.899zm-593.06 249.953 14.51 25.372-25.006 10.41-14.513-25.37zm671.61-281.024-25.93 10.804 14.98 26.177 25.93-10.803zm78.56-31.069-23.3 9.707 13.52 23.64 23.3-9.707zm-830.105 347.875 12.221 21.36-21.058 8.77-12.221-21.36zm948.865-394.12 11.15 19.494-19.21 8.005-11.15-19.495zm-1028.799 429.89 9.931 17.36-17.11 7.13-9.93-17.36zm-81.754 42 2.597 4.54-4.475 1.86-2.597-4.54zm498.013-277.49 21.39 37.386-36.85 15.352-21.39-37.387zm117.57-50.054-37.25 15.518 21.62 37.792 37.25-15.518zm-197.44 85.644 19.25 33.649-33.17 13.816-19.25-33.649zm275.88-116.339-34.09 14.203 19.79 34.59 34.09-14.203zm78.58-30.747-31.07 12.941 18.03 31.518 31.07-12.941zm-434.4 182.863 16.96 29.643-29.22 12.171-16.95-29.642zm512.95-213.932-28.3 11.79 16.5 28.847 28.3-11.789zm-592.88 249.711 14.67 25.637-25.27 10.527-14.669-25.637zm671.51-280.646-25.67 10.693 14.9 26.043 25.67-10.693zm79.08-31.288-23.57 9.816 13.37 23.371 23.57-9.816zm-830.521 347.712 12.373 21.631-21.321 8.885-12.374-21.634zm-79.878 35.596 10.235 17.89-17.636 7.34-10.235-17.89zm-79.988 35.96 7.791 13.62-13.425 5.59-7.79-13.62zm496.197-271.273 21.54 37.654-37.12 15.462-21.54-37.655zm117.46-49.677-36.99 15.409 21.46 37.525 36.99-15.409zm-197.34 85.267 19.4 33.915-33.43 13.926-19.4-33.915zm275.78-115.96-33.83 14.092 19.63 34.321 33.83-14.092zm78.62-30.935-30.93 12.886 17.95 31.384 30.94-12.886zm-434.33 182.674 17.11 29.909-29.48 12.281-17.11-29.909zm512.83-213.556-28.17 11.735 16.35 28.581 28.17-11.735zm-592.77 249.334 14.82 25.904-25.53 10.636-14.82-25.904zm671.4-280.27-25.41 10.584 14.75 25.776 25.4-10.583zm-751.329 316.048 12.527 21.899-21.585 8.991-12.527-21.898zm869.489-360.222 10.69 18.694-18.43 7.676-10.69-18.694zm-949.367 395.812 10.388 18.159-17.899 7.456-10.388-18.159zm-79.877 35.59 8.249 14.418-14.214 5.92-8.249-14.417zm-81.37 40.678 1.987 3.47-3.422 1.42-1.986-3.47zm577.454-311.574 21.69 37.921-37.38 15.571-21.69-37.921zm117.35-49.301-36.73 15.298 21.32 37.259 36.72-15.299zm-197.23 84.89 19.56 34.182-33.7 14.036-19.55-34.182zm275.8-115.637-33.7 14.038 19.48 34.053 33.7-14.038zm-355.68 151.227 17.42 30.444-30.01 12.5-17.41-30.443zm434.25-181.976-30.8 12.832 17.8 31.118 30.8-12.832zm78.42-31.014-27.9 11.625 16.19 28.313 27.91-11.625zm-592.6 248.769 15.13 26.438-26.06 10.856-15.13-26.438zm671.76-279.924-25.67 10.693 14.59 25.509 25.67-10.694zm-751.691 315.702 12.832 22.432-22.111 9.211-12.832-22.432zm-79.933 35.778 10.541 18.426-18.163 7.566-10.54-18.426zm-79.877 35.591 8.402 14.687-14.477 6.031-8.402-14.688zm-79.878 35.589 6.264 10.949-10.793 4.496-6.263-10.949zm575.959-306.486 21.85 38.189-37.64 15.68-21.85-38.189zm117.24-48.925-36.46 15.189 21.16 36.992 36.46-15.189zm-197.12 84.515 19.71 34.45-33.95 14.145-19.71-34.45zm275.56-115.207-33.3 13.873 19.4 33.921 33.3-13.873zm-355.43 150.796 17.57 30.711-30.28 12.61-17.56-30.711zm434.14-181.599-30.41 12.667 17.65 30.851 30.4-12.667zm78.42-31.014-27.65 11.516 16.05 28.044 27.64-11.515zm-592.5 248.392 15.28 26.704-26.32 10.966-15.28-26.705zm-79.927 35.778 12.987 22.699-22.376 9.321-12.985-22.699zm-79.934 35.778 10.694 18.694-18.426 7.675-10.694-18.693zm869.981-361.917 10.24 17.892-17.64 7.347-10.23-17.892zm-949.858 397.507 8.555 14.955-14.741 6.141-8.555-14.955zm-79.823 35.402 6.568 11.483-11.318 4.715-6.569-11.483zm-80.927 39.168 1.528 2.67-2.633 1.097-1.527-2.67zm656.838-345.466 21.99 38.455-37.9 15.79-22-38.455zm117.12-48.548-36.2 15.079 21.01 36.726 36.2-15.08zm-196.95 83.95 20.02 34.984-34.49 14.364-20.01-34.983zm275.39-114.643-33.04 13.764 19.18 33.52 33.04-13.763zm-355.32 150.421 17.72 30.978-30.53 12.719-17.72-30.978zm434.03-181.223-30.15 12.558 17.5 30.582 30.14-12.558zm-513.91 216.812 15.59 27.239-26.85 11.185-15.59-27.239zm592.86-248.046-27.91 11.626 15.89 27.779 27.91-11.626zm-672.85 284.013 13.14 22.967-22.634 9.43-13.138-22.967zm-79.873 35.589 11 19.228-18.953 7.896-10.999-19.229zm-79.933 35.779 8.708 15.222-15.004 6.25-8.708-15.222zm-79.822 35.402 6.722 11.75-11.582 4.824-6.721-11.749zm-79.767 35.213 4.888 8.545-8.423 3.509-4.888-8.545zm575.855-306.111 20.16 35.252-34.74 14.474-20.17-35.251zm196.83-83.571-35.93 14.97 20.85 36.458 35.94-14.97zm78.45-30.693-32.78 13.654 19.02 33.253 32.78-13.654zm-355.16 149.855 18.03 31.512-31.07 12.94-18.02-31.513zm433.79-180.79-29.89 12.447 17.42 30.449 29.88-12.447zm-513.72 216.567 15.73 27.507-27.11 11.295-15.74-27.507zm-79.94 35.78 13.45 23.501-23.17 9.649-13.44-23.5zm-79.93 35.778 11.152 19.495-19.216 8.005-11.152-19.495zm790.55-327.835 9.77 17.092-16.84 7.018-9.78-17.092zm-870.428 363.424 9.014 15.756-15.531 6.47-9.013-15.756zm-79.877 35.591 6.875 12.017-11.845 4.934-6.875-12.017zm-79.712 35.024 5.194 9.08-8.949 3.728-5.194-9.079zm-80.54 37.85 1.222 2.136-2.106.878-1.222-2.137zm656.337-343.771 20.32 35.518-35.01 14.584-20.32-35.518zm196.73-83.196-35.68 14.861 20.71 36.191 35.67-14.861zm-276.61 118.786 18.18 31.779-31.32 13.049-18.18-31.779zm355.18-149.534-32.65 13.599 18.87 32.987 32.65-13.599zm79.1-30.966-30.28 12.613 17.19 30.048 30.28-12.612zm-514.21 216.279 15.89 27.773-27.38 11.404-15.89-27.773zm-79.93 35.778 13.59 23.767-23.43 9.759-13.59-23.767zm-79.937 35.778 11.305 19.762-19.478 8.114-11.305-19.761zm-79.877 35.59 9.166 16.023-15.794 6.579-9.165-16.023zm-79.878 35.59 7.027 12.285-12.108 5.043-7.027-12.284zm-79.713 35.024 5.348 9.348-9.213 3.837-5.347-9.347zm-79.765 35.214 3.513 6.142-6.054 2.522-3.513-6.142zm655.56-341.134 20.47 35.785-35.27 14.693-20.47-35.785zm196.62-82.82-35.41 14.751 20.55 35.924 35.41-14.751zm-276.5 118.41 18.34 32.046-31.59 13.158-18.33-32.046zm354.94-149.102-32.25 13.434 18.79 32.854 32.25-13.435zm-434.87 184.879 16.04 28.04-27.64 11.514-16.04-28.041zm-79.93 35.779 13.75 24.034-23.69 9.869-13.75-24.035zm-79.878 35.59 11.61 20.296-20.005 8.334-11.611-20.297zm-79.934 35.778 9.319 16.29-16.056 6.689-9.319-16.291zm791.042-329.53 9.32 16.29-16.06 6.689-9.31-16.29zm-870.864 364.932 7.333 12.818-12.635 5.264-7.333-12.819zm-79.767 35.211 5.5 9.615-9.476 3.947-5.5-9.614zm-79.711 35.026 3.819 6.677-6.581 2.741-3.819-6.676zm-80.155 36.532.917 1.602-1.58.658-.916-1.602zm735.717-377.666 20.78 36.319-35.8 14.913-20.78-36.319zm196.45-82.254-35.14 14.641 20.39 35.656 35.15-14.642zm-276.33 117.844 18.64 32.58-32.11 13.378-18.64-32.58zm355.43-148.811-32.64 13.599 18.56 32.452 32.65-13.599zm-435.36 184.589 16.35 28.574-28.17 11.733-16.34-28.574zm-79.93 35.779 14.05 24.568-24.22 10.088-14.05-24.568zm-79.936 35.779 11.766 20.562-20.271 8.444-11.763-20.563zm-79.933 35.776 9.472 16.557-16.32 6.799-9.472-16.557zm-79.823 35.403 7.486 13.085-12.898 5.373-7.485-13.086zm-79.766 35.212 5.652 9.881-9.739 4.057-5.652-9.881zm-79.712 35.025 3.972 6.943-6.844 2.851-3.972-6.943zm-79.602 34.649 2.597 4.54-4.475 1.864-2.597-4.54zm853.062-426.968-38.04 15.847 22.08 38.595 38.04-15.847zm-117.9 51.185 20.93 36.586-36.06 15.023-20.93-36.586zm196.34-81.877-34.88 14.531 20.25 35.389 34.88-14.531zm-276.21 117.467 18.79 32.847-32.38 13.488-18.79-32.847zm-79.94 35.778 16.5 28.841-28.43 11.843-16.5-28.842zm-79.93 35.779 14.21 24.836-24.48 10.197-14.21-24.836zm-79.93 35.778 11.91 20.83-20.53 8.553-11.914-20.83zm-79.88 35.589 9.777 17.092-16.847 7.018-9.777-17.092zm711.61-295.445 8.86 15.489-15.27 6.36-8.86-15.489zm-791.488 331.035 7.639 13.353-13.162 5.482-7.638-13.353zm-79.767 35.214 5.805 10.148-10.003 4.166-5.804-10.147zm-79.712 35.024 4.125 7.21-7.108 2.961-4.124-7.211zm-79.602 34.648 2.75 4.808-4.737 1.974-2.75-4.808zm-79.877 35.591.611 1.067-1.052.439-.611-1.068zm932.906-462.046-37.78 15.737 21.85 38.194 37.78-15.738zm-117.86 50.673 21.08 36.853-36.33 15.132-21.08-36.853zm196.7-81.531-35.02 14.587 20.02 34.989 35.01-14.587zm-276.58 117.121 18.94 33.115-32.64 13.597-18.94-33.115zm-79.93 35.779 16.65 29.108-28.69 11.952-16.66-29.108zm-79.94 35.777 14.36 25.102-24.74 10.308-14.36-25.103zm-79.87 35.59 12.22 21.364-21.06 8.772-12.22-21.363zm-79.938 35.778 9.93 17.359-17.11 7.127-9.93-17.358zm-79.877 35.59 7.791 13.62-13.424 5.592-7.791-13.619zm-79.767 35.213 5.958 10.416-10.266 4.276-5.958-10.415zm-79.712 35.025 4.277 7.478-7.37 3.07-4.278-7.477zm-79.602 34.648 2.903 5.074-5.001 2.084-2.903-5.075zm-79.492 34.271 1.834 3.206-3.158 1.315-1.834-3.205zm814.658-410.053 21.23 37.12-36.58 15.242-21.24-37.12zm117.62-50.243-37.25 15.518 21.7 37.928 37.25-15.518zm-197.44 85.645 19.24 33.649-33.16 13.816-19.25-33.649zm-79.94 35.778 16.96 29.643-29.22 12.171-16.95-29.642zm-79.93 35.778 14.67 25.637-25.27 10.526-14.67-25.637zm-79.93 35.778 12.37 21.631-21.32 8.882-12.37-21.631zm-79.935 35.779 10.082 17.625-17.373 7.237-10.082-17.625zm632.285-261.741 8.55 14.955-14.74 6.141-8.55-14.955zm-712.162 297.33 7.944 13.886-13.689 5.702-7.943-13.886zm-79.767 35.214 6.11 10.682-10.529 4.386-6.11-10.682zm-79.768 35.212 4.277 7.478-7.37 3.07-4.278-7.477zm-79.601 34.649 2.903 5.074-5.002 2.083-2.903-5.074zm-79.491 34.272 1.833 3.204-3.158 1.316-1.833-3.204zm-79.601 34.647.458.801-.789.329-.459-.801zm894.37-445.079 21.54 37.655-37.12 15.461-21.54-37.654zm117.98-49.897-37.51 15.629 21.46 37.526 37.52-15.628zm-197.86 85.488 19.4 33.916-33.43 13.926-19.4-33.916zm-79.93 35.778 17.11 29.91-29.48 12.281-17.11-29.91zm-79.94 35.778 14.82 25.904-25.53 10.636-14.82-25.903zm-79.93 35.779 12.53 21.898-21.59 8.991-12.52-21.898zm-79.877 35.589 10.388 18.16-17.899 7.456-10.388-18.159zm-79.932 35.779 8.096 14.153-13.95 5.811-8.096-14.153zm-79.768 35.212 6.264 10.949-10.792 4.496-6.264-10.95zm-79.767 35.214 4.43 7.744-7.633 3.18-4.43-7.744zm-79.6 34.648 3.055 5.341-5.265 2.193-3.055-5.341zm-79.492 34.271 1.986 3.471-3.422 1.426-1.986-3.471zm-79.381 33.894 1.222 2.137-2.105.877-1.223-2.136zm894.147-444.324 21.69 37.921-37.38 15.571-21.69-37.921zm-79.88 35.59 19.56 34.182-33.7 14.035-19.55-34.182zm-79.88 35.59 17.42 30.444-30.01 12.5-17.41-30.443zm-79.93 35.778 15.13 26.438-26.06 10.855-15.13-26.438zm-79.99 35.965 12.68 22.166-21.84 9.102-12.68-22.166zm-79.873 35.592 10.543 18.426-18.165 7.566-10.541-18.426zm-79.878 35.589 8.402 14.687-14.477 6.031-8.402-14.687zm632.721-263.2469 8.1 14.1539-13.95 5.812-8.1-14.1542zm-712.543 298.6479 6.416 11.217-11.056 4.605-6.416-11.216zm-79.769 35.214 4.584 8.012-7.897 3.289-4.583-8.012zm-79.6 34.647 3.208 5.608-5.528 2.303-3.208-5.608zm-79.49 34.272 2.138 3.739-3.685 1.535-2.139-3.739zm-79.436 34.083 1.222 2.136-2.106.878-1.222-2.137zm-79.437 34.084.306.534-.526.219-.305-.534zm973.635-478.5969 21.85 38.1879-37.64 15.68-21.85-38.1877zm-79.87 35.5899 19.7 34.449-33.95 14.146-19.71-34.45zm-79.88 35.59 17.57 30.711-30.28 12.61-17.56-30.711zm-79.94 35.778 15.28 26.705-26.32 10.965-15.28-26.704zm-79.93 35.778 12.99 22.699-22.38 9.321-12.98-22.7zm-79.93 35.778 10.69 18.694-18.42 7.676-10.696-18.694zm-79.878 35.59 8.555 14.955-14.741 6.14-8.555-14.955zm-79.823 35.402 6.569 11.483-11.318 4.715-6.569-11.483zm-79.767 35.213 4.736 8.279-8.16 3.399-4.736-8.279zm-79.656 34.837 3.208 5.607-5.527 2.303-3.208-5.608zm-79.491 34.271 2.139 3.738-3.685 1.536-2.139-3.739zm-79.381 33.895 1.375 2.403-2.369.987-1.374-2.404zm-79.325 33.705.764 1.336-1.316.548-.764-1.336zm973.531-478.2194 21.99 38.4555-37.9 15.7901-22-38.4555zm-79.83 35.4021 20.02 34.9835-34.49 14.3648-20.01-34.9838zm-79.93 35.7784 17.72 30.9779-30.53 12.72-17.72-30.978zm-79.93 35.7779 15.43 26.972-26.59 11.075-15.43-26.972zm-79.94 35.777 13.14 22.967-22.63 9.431-13.14-22.967zm-79.93 35.78 10.85 18.961-18.69 7.785-10.85-18.961zm-79.875 35.589 8.707 15.222-15.003 6.25-8.708-15.221zm553.345-229.35214 7.64 13.35284-13.16 5.4829-7.64-13.35289zm-633.168 264.75514 6.721 11.75-11.581 4.824-6.721-11.75zm-79.767 35.212 4.889 8.546-8.423 3.509-4.889-8.547zm-79.656 34.837 3.36 5.875-5.79 2.412-3.36-5.875zm-79.491 34.272 2.291 4.005-3.948 1.645-2.291-4.006zm-79.436 34.081 1.376 2.404-2.37.988-1.376-2.405zm-79.325 33.707.764 1.336-1.317.548-.764-1.336zm973.413-477.8423 21.7 37.92122-37.38 15.57068-21.69-37.9212zm-79.65 34.83551 20.16 35.25119-34.74 14.4743-20.17-35.25112zm-79.88 35.59069 18.02 31.5123-31.05 12.9388-18.03-31.5124zm-79.93 35.777 15.73 27.5069-27.11 11.2942-15.74-27.5066zm-79.94 35.7791 13.45 23.501-23.17 9.649-13.44-23.501zm-79.93 35.778 11.15 19.495-19.21 8.005-11.16-19.495zm-79.933 35.779 8.861 15.489-15.267 6.359-8.86-15.488zm-79.823 35.4 6.875 12.018-11.845 4.934-6.875-12.017zm-79.765 35.214 5.041 8.813-8.687 3.619-5.041-8.813zm-79.658 34.836 3.514 6.142-6.054 2.522-3.514-6.142zm-79.546 34.461 2.291 4.005-3.948 1.645-2.291-4.006zm-79.435 34.082 1.375 2.403-2.369.987-1.375-2.403zm-79.326 33.706.764 1.335-1.317.549-.764-1.336zm-79.215 33.33.459.801-.79.329-.458-.801zm973.031-476.5249 20.32 35.5179-35.01 14.5838-20.32-35.5178zm-79.88 35.5903 18.18 31.77905-31.32 13.04865-18.18-31.7791zm-79.93 35.77829 15.89 27.77261-27.38 11.4041-15.89-27.7727zm-79.93 35.77911 13.59 23.7672-23.43 9.7589-13.59-23.7671zm-79.94 35.7761 11.31 19.7631-19.48 8.114-11.31-19.7628zm-79.874 35.5921 9.165 16.022-15.793 6.58-9.166-16.023zm473.854-195.0814 7.02 12.2841-12.1 5.044-7.03-12.2841zm-553.732 230.6704 7.027 12.284-12.108 5.044-7.027-12.284zm-79.767 35.213 5.194 9.08-8.95 3.728-5.194-9.08zm-79.657 34.837 3.666 6.408-6.317 2.632-3.666-6.409zm-79.546 34.459 2.444 4.273-4.212 1.755-2.444-4.273zm-79.436 34.084 1.528 2.67-2.632 1.096-1.527-2.67zm-79.325 33.705.917 1.603-1.579.657-.917-1.602zm-79.269 33.519.458.801-.79.329-.458-.801zm972.972-476.337 20.17 35.2509-34.75 14.4744-20.16-35.2513zm-79.77 35.2141 18.34 32.0458-31.59 13.1583-18.33-32.0458zm-79.93 35.7775 16.04 28.0403-27.64 11.51354-16.04-28.04034zm-79.93 35.7774 13.75 24.0348-23.69 9.8688-13.75-24.03478zm-79.93 35.7797 11.45 20.0284-19.74 8.2238-11.46-20.0284zm-79.88 35.5893 9.32 16.2906-16.06 6.689-9.318-16.2906zm-79.879 35.5893 7.18 12.5517-12.372 5.154-7.18-12.552zm-79.767 35.2137 5.347 9.347-9.213 3.838-5.347-9.347zm-79.657 34.836 3.819 6.677-6.58 2.741-3.82-6.676zm-79.601 34.649 2.445 4.273-4.212 1.754-2.445-4.273zm-79.436 34.082 1.528 2.671-2.633 1.096-1.528-2.671zm-79.325 33.707.916 1.603-1.579.657-.916-1.602zm-79.27 33.518.458.801-.79.329-.458-.801zm-79.159 33.142.305.533-.527.22-.305-.534zm971.204-470.309 15.13 26.438-26.06 10.8553-15.13-26.4383zm-79.82 35.401 13.14 22.9667-22.64 9.43-13.14-22.967zm-79.77 35.2128 11.31 19.7616-19.48 8.1143-11.31-19.7616zm-79.76 35.213 9.47 16.5573-16.32 6.79853-9.47-16.55733zm-79.77 35.21274 7.64 13.35286-13.16 5.4828-7.64-13.3529zm-79.713 35.02496 5.958 10.4152-10.266 4.2765-5.958-10.4152zm474.513-197.3405 5.65 9.881-9.73 4.057-5.66-9.88zm-554.115 231.9892 4.583 8.011-7.897 3.2897-4.583-8.011zm-79.601 34.6488 3.207 5.608-5.527 2.302-3.208-5.608zm-79.491 34.271 2.139 3.738-3.685 1.536-2.139-3.739zm-79.381 33.894 1.376 2.404-2.369.987-1.376-2.405zm-79.324 33.706.764 1.336-1.317.548-.764-1.336zm-79.215 33.33.459.801-.791.33-.458-.801zm887.077-420.216 1.37 2.403-2.36.987-1.38-2.403zm-79.16 33.142 1.22 2.137-2.1.877-1.23-2.136zm-79.16 33.141 1.07 1.869-1.84.767-1.07-1.868zm-79.16 33.1403.92 1.6031-1.58.6579-.92-1.6031zm-79.16 33.1421.77 1.3355-1.32.5483-.77-1.3355zm-79.158 33.14202.611 1.06783-1.053.43843-.61-1.06783zm-79.16 33.14018.458.8011-.79.3293-.459-.8011zm-79.159 33.1421.305.5334-.526.219-.305-.5334z" fill="#a2abc8" fill-opacity=".1" fill-rule="evenodd"/></g></svg>