<svg fill="none" height="45" viewBox="0 0 45 45" width="45" xmlns="http://www.w3.org/2000/svg"><path d="m35.7715 26.543c-2.3707 0-4.7523.3257-6.5023 1.0165l-2.8866-1.7039c.0433-.2339.0726-.4727.0726-.7189 0-1.7165-1.1055-3.1662-2.6368-3.7122v-3.0016c4.1214-.2144 7.9102-1.4508 7.9102-3.921v-.7788c-.5417.3555-1.1908.6869-1.9691.9776-1.9332.722-4.5113 1.1196-7.2595 1.1196s-5.3263-.3976-7.2594-1.1196c-.7783-.2907-1.4274-.6221-1.9691-.9776v.7788c0 2.4702 3.7888 3.7067 7.9101 3.921v3.0016c-1.5312.546-2.6367 1.9957-2.6367 3.7122 0 .2463.0293.4851.0726.7189l-2.8867 1.7039c-1.75-.6908-4.1316-1.0165-6.50228-1.0165-4.59352 0-9.22852 1.2229-9.22852 3.955 0 2.7322 4.635 3.9551 9.22852 3.9551 4.59348 0 9.22848-1.2229 9.22848-3.9551 0-.46-.1319-.8771-.3724-1.2529l1.8632-1.1123c.6909.5895 1.5749.959 2.5522.959s1.8613-.3695 2.5523-.959l1.8631 1.1123c-.2405.3758-.3724.7929-.3724 1.2529 0 2.7322 4.635 3.9551 9.2285 3.9551s9.2285-1.2229 9.2285-3.9551c0-2.7321-4.635-3.955-9.2285-3.955z" fill="#fff"/><path d="m22.5 7.91016c5.0968 0 9.2285-1.77075 9.2285-3.95508s-4.1317-3.95508-9.2285-3.95508-9.2285 1.77075-9.2285 3.95508 4.1317 3.95508 9.2285 3.95508z" fill="#fff"/><path d="m16.1632 12.2306c1.6454.6145 3.8958.9529 6.3368.9529 2.4409 0 4.6914-.3384 6.3369-.9529 1.9188-.7167 2.8916-1.7267 2.8916-3.00213v-.77889c-.5417.35543-1.1909.68687-1.9691.97761-1.9331.72201-4.5112 1.11961-7.2594 1.11961s-5.3263-.3976-7.2594-1.11961c-.7783-.29065-1.4274-.62209-1.9691-.97752v.7788c0 1.27543.9728 2.28543 2.8917 3.00213z" fill="#f5bf2f"/><path d="m35.7715 37.0898c-2.7482 0-5.3263-.3976-7.2594-1.1196-.7783-.2907-1.4275-.6221-1.9691-.9776v.7788c0 1.2754.9728 2.2855 2.8917 3.0021 1.6454.6145 3.8958.953 6.3368.953 2.4409 0 4.6914-.3385 6.3369-.953 1.9187-.7166 2.8916-1.7267 2.8916-3.0021v-.7788c-.5417.3554-1.1909.6868-1.9691.9776-1.9332.722-4.5113 1.1196-7.2594 1.1196z" fill="#f5bf2f"/><path d="m35.7715 42.3633c-2.7482 0-5.3263-.3976-7.2594-1.1197-.7783-.2906-1.4275-.6221-1.9691-.9775v.7788c0 2.7322 4.635 3.9551 9.2285 3.9551s9.2285-1.2229 9.2285-3.9551v-.7788c-.5417.3554-1.1908.6869-1.9691.9775-1.9332.7221-4.5113 1.1197-7.2594 1.1197z" fill="#fff"/><path d="m9.22852 37.0898c-2.74817 0-5.32626-.3976-7.25942-1.1196-.77818-.2907-1.42743-.6221-1.9691-.9776v.7788c0 1.2754.972861 2.2855 2.89169 3.0021 1.6454.6145 3.89584.953 6.33683.953 2.44088 0 4.69138-.3385 6.33688-.953 1.9188-.7166 2.8916-1.7267 2.8916-3.0021v-.7788c-.5416.3554-1.1909.6868-1.9691.9776-1.9331.722-4.5112 1.1196-7.25938 1.1196z" fill="#f5bf2f"/><path d="m9.22852 42.3632c-2.74817 0-5.32626-.3976-7.25942-1.1196-.77818-.2907-1.42743-.6221-1.9691-.9776v.7789c0 2.7321 4.635 3.9551 9.22852 3.9551 4.59348 0 9.22848-1.223 9.22848-3.9551v-.7788c-.5416.3554-1.1908.6868-1.9691.9775-1.9331.722-4.5112 1.1196-7.25938 1.1196z" fill="#fff"/></svg>