<svg fill="none" height="54" viewBox="0 0 54 54" width="54" xmlns="http://www.w3.org/2000/svg"><path d="m48.7266 21.7266c-1.599 0-3.0331.7163-4.001 1.8439-1.3169-2.9476-4.2745-5.008-7.7061-5.008h-.5871c-.3121-.3491-.6444-.6812-.995-.9951v-.5869c0-3.4315-2.0604-6.3891-5.008-7.70614 1.1276-.96789 1.8439-2.40183 1.8439-4.00094 0-2.90777-2.3656-5.27342-5.2734-5.27342s-5.2734 2.36565-5.2734 5.27342c0 1.599.7163 3.03305 1.8439 4.00094-2.9476 1.31694-5.008 4.27454-5.008 7.70614v.587c-.3507.3139-.6828.646-.9949.9951h-.5872c-3.4316 0-6.3892 2.0604-7.70615 5.008-.96768-1.1277-2.40162-1.844-4.00073-1.844-2.90777 0-5.27342 2.3656-5.27342 5.2734s2.36565 5.2734 5.27342 5.2734c1.599 0 3.03305-.7163 4.00094-1.8439 1.31694 2.9476 4.27454 5.008 7.70614 5.008h.5948c.3109.3467.6405.6763.9872.9872v.5948c0 3.4316 2.0604 6.3892 5.008 7.7061-1.1276.9679-1.8439 2.402-1.8439 4.001 0 2.9077 2.3656 5.2734 5.2734 5.2734s5.2734-2.3657 5.2734-5.2734c0-1.599-.7163-3.0331-1.8439-4.001 2.9475-1.3169 5.0079-4.2745 5.0079-7.7061v-.5947c.3468-.3109.6764-.6404.9873-.9873h.5948c3.4315 0 6.3891-2.0604 7.7061-5.008.9679 1.1276 2.402 1.8439 4.001 1.8439 2.9077 0 5.2734-2.3656 5.2734-5.2734s-2.3655-5.2734-5.2734-5.2734zm-21.7265-19.61723c1.7447 0 3.1641 1.41939 3.1641 3.16405 0 1.74465-1.4194 3.16405-3.1641 3.16405s-3.164-1.4194-3.164-3.16405c0-1.74466 1.4193-3.16405 3.164-3.16405zm0 8.54303c3.1539 0 5.7759 2.3195 6.2508 5.3421-.3807-.2163-.7744-.4152-1.1815-.5934-.5337-.2336-1.1556.0098-1.389.5434-.2335.5337.0097 1.1555.5434 1.389 3.8412 1.681 6.3231 5.4753 6.3231 9.6664 0 5.8155-4.7313 10.5468-10.5468 10.5468-5.8156 0-10.5468-4.7313-10.5468-10.5468 0-4.1908 2.4817-7.9849 6.3225-9.6662.5337-.2335.7769-.8554.5432-1.389-.2335-.5337-.8555-.7769-1.389-.5433-.4068.1781-.8002.3769-1.1806.5931.4747-3.0225 3.0967-5.3421 6.2507-5.3421zm-21.72668 19.5117c-1.74466 0-3.16405-1.4194-3.16405-3.1641s1.41939-3.164 3.16405-3.164c1.74465 0 3.16405 1.4193 3.16405 3.164s-1.4194 3.1641-3.16405 3.1641zm5.37898-3.1641c0-3.1549 2.3208-5.7775 5.3447-6.2513-1.0617 1.8685-1.6533 4.0123-1.6533 6.2513 0 2.2722.6023 4.4063 1.6551 6.2516-3.0247-.4731-5.3465-3.0961-5.3465-6.2516zm16.3477 24.8906c-1.7447 0-3.164-1.4194-3.164-3.164 0-1.7447 1.4193-3.1641 3.164-3.1641s3.1641 1.4194 3.1641 3.1641c0 1.7446-1.4194 3.164-3.1641 3.164zm0-8.543c-3.1554 0-5.7785-2.3217-6.2516-5.3465 1.8452 1.0528 3.9793 1.6551 6.2516 1.6551 2.2722 0 4.4063-.6023 6.2515-1.655-.4731 3.0247-3.0961 5.3464-6.2515 5.3464zm11.0011-10.096c1.0528-1.8452 1.6551-3.9793 1.6551-6.2516 0-2.239-.5916-4.3828-1.6532-6.2513 3.0239.4738 5.3446 3.0964 5.3446 6.2513-.0001 3.1555-2.3218 5.7785-5.3465 6.2516zm10.7254-3.0875c-1.7447 0-3.1641-1.4194-3.1641-3.1641s1.4194-3.164 3.1641-3.164c1.7446 0 3.164 1.4193 3.164 3.164s-1.4194 3.1641-3.164 3.1641z" fill="#f1f2f7"/><path d="m20.6721 27.0001c0 3.4894 2.8388 6.3281 6.3281 6.3281 3.4894 0 6.3282-2.8387 6.3282-6.3281 0-3.4893-2.8388-6.3281-6.3282-6.3281-3.4893 0-6.3281 2.8388-6.3281 6.3281zm10.5469 0c0 2.3262-1.8925 4.2188-4.2188 4.2188-2.3262 0-4.2187-1.8926-4.2187-4.2188s1.8925-4.2187 4.2187-4.2187c2.3263 0 4.2188 1.8925 4.2188 4.2187z" fill="#f7cc59"/><path d="m27.0002 16.4532c.5825 0 1.0547-.4721 1.0547-1.0546s-.4722-1.0547-1.0547-1.0547h-.0009c-.5825 0-1.0542.4722-1.0542 1.0547s.4726 1.0546 1.0551 1.0546z" fill="#f1f2f7"/></svg>