<svg fill="none" height="40" viewBox="0 0 48 40" width="48" xmlns="http://www.w3.org/2000/svg"><path d="m40.9688 21.1448h-4.6988c-.6394 0-1.2581.0876-1.8478.2497-1.1625-2.2962-3.5353-3.8744-6.27-3.8744h-8.3053c-2.7338 0-5.1066 1.5782-6.2691 3.8744-.5897-.1621-1.2084-.2497-1.8478-.2497h-4.69875c-3.87656 0-7.03125 3.1705-7.03125 7.0664v7.5489c0 2.3376 1.89281 4.2399 4.21875 4.2399h39.56245c2.326 0 4.2188-1.9023 4.2188-4.2399v-7.5489c0-3.8959-3.1538-7.0664-7.0312-7.0664zm-28.1522 3.4418v12.5868h-8.59785c-.77531 0-1.40625-.6341-1.40625-1.4133v-7.5489c0-2.3375 1.89281-4.2398 4.21875-4.2398h4.69875c.3816 0 .7509.0527 1.1034.1488-.0103.1545-.0168.31-.0168.4664zm19.5553 12.5868h-16.7428v-12.5868c0-2.3376 1.8918-4.2399 4.2187-4.2399h8.3053c2.326 0 4.2188 1.9023 4.2188 4.2399zm12.8156-1.4133c0 .7792-.6309 1.4133-1.4063 1.4133h-8.5978v-12.5868c0-.1573-.0065-.3128-.0168-.4673.3525-.0952.7218-.1479 1.1034-.1479h4.6988c2.3259 0 4.2187 1.9023 4.2187 4.2398z" fill="#fff"/><path d="m32.372 24.5866v12.5868h-16.7428v-12.5868c0-2.3376 1.8918-4.2399 4.2187-4.2399h8.3053c2.326 0 4.2188 1.9023 4.2188 4.2399z" fill="#f5bf2f"/><g fill="#fff"><path d="m9.38064 7.79858c-3.44531 0-6.24844 2.81722-6.24844 6.27972 0 3.4626 2.80313 6.2798 6.24844 6.2798 3.44536 0 6.24846-2.8172 6.24846-6.2798 0-3.4625-2.8031-6.27972-6.24846-6.27972zm0 9.73292c-1.89469 0-3.43594-1.549-3.43594-3.4532s1.54125-3.4531 3.43594-3.4531c1.89466 0 3.43596 1.5489 3.43596 3.4531s-1.5413 3.4532-3.43596 3.4532z"/><path d="m24.0001 0c-4.6031 0-8.3475 3.76313-8.3475 8.38932 0 4.62528 3.7444 8.38838 8.3475 8.38838s8.3475-3.7631 8.3475-8.38838c0-4.62619-3.7444-8.38932-8.3475-8.38932zm0 13.9511c-3.0516 0-5.535-2.4949-5.535-5.56178 0-3.0678 2.4834-5.56273 5.535-5.56273s5.535 2.49493 5.535 5.56273c0 3.06688-2.4834 5.56178-5.535 5.56178z"/><path d="m38.6194 7.79858c-3.4453 0-6.2484 2.81722-6.2484 6.27972.0009 3.4626 2.8031 6.2798 6.2484 6.2798s6.2484-2.8172 6.2484-6.2798c0-3.4625-2.8031-6.27972-6.2484-6.27972zm0 9.73292c-1.8947 0-3.4359-1.549-3.4359-3.4532.0009-1.9042 1.5412-3.4531 3.4359-3.4531s3.4359 1.5489 3.4359 3.4531-1.5412 3.4532-3.4359 3.4532z"/></g></svg>