<svg fill="none" height="65" viewBox="0 0 65 65" width="65" xmlns="http://www.w3.org/2000/svg" xmlns:xlink="http://www.w3.org/1999/xlink"><clipPath id="a"><path d="m0 0h65v65h-65z"/></clipPath><g clip-path="url(#a)"><g fill="#f05f87"><path d="m26.7054 57.6224-.1909.9328.1839-.9338c-.5157-.1016-1.0166.2341-1.1182.7498-.1017.5163.234 1.0167.7503 1.1183.0015.0005.0158.003.0173.0035.0605.0114.1205.0173.18.0173.4479 0 .8471-.3173.9338-.7736.0992-.5167-.2395-1.0156-.7562-1.1143z"/><path d="m33.986 57.9284.0947.9472-.0977-.9467c-.5232.0535-.9035.5212-.8495 1.0443.0501.49.4637.855.9457.855.0328 0 .066-.002.0987-.005l.0263-.0029c.5207-.061.8902-.5307.8322-1.0514-.0586-.5202-.5297-.8951-1.0504-.8405z"/><path d="m30.341 58.0484s-.0133-.0005-.0138-.0005c-.5247-.0238-.9631.3838-.9869.909-.0233.5251.3893.97.9145.9938.0148.001.0292.001.0441.001.5058 0 .9274-.3982.9502-.909.0238-.5252-.3824-.9705-.9081-.9943z"/><path d="m23.1889 56.6547-.0119-.0045c-.495-.1775-1.0345.0814-1.212.5763-.1781.4949.0848 1.0424.5797 1.2204.1066.0382.2152.0561.3218.0561.3903 0 .7568-.2416.8961-.6304.1781-.4949-.0788-1.0404-.5737-1.2179z"/><path d="m37.5789 57.2617.2346.9229-.2376-.9219c-.5093.1309-.8158.6501-.6848 1.1594.1106.4295.4974.7151.9214.7151.0788 0 .1587-.0099.2385-.0307.004-.001.0208-.0055.0253-.0064.5053-.1379.8009-.6571.666-1.1635-.1349-.5058-.6561-.8068-1.1634-.6749z"/><path d="m41.021 56.0612.3774.8738-.3804-.8728c-.482.2102-.7027.7711-.4929 1.2531.1562.3586.5063.5723.8738.5723.1265 0 .2559-.0258.3794-.0793.0039-.002.0193-.0085.0233-.0105.4775-.2157.6883-.7751.4751-1.2536-.2133-.4791-.7756-.6938-1.2557-.483z"/><path d="m19.5517 12.6571c.1527 0 .308-.0367.4513-.1131.4642-.2474.6392-.8242.3918-1.2883-.2475-.4637-.8238-.6398-1.2879-.3918l-.0114.0059c-.4637.2475-.6338.8213-.3863 1.2854.1705.3204.5018.5019.8425.5019z"/><path d="m8.53833 23.292c.14133.0739.29259.1091.44185.1091.34268 0 .67395-.1854.84405-.5102l.01686-.0333c.23211-.4721.03769-1.0429-.43442-1.2745-.46864-.2311-1.03497-.0406-1.27003.425-.243.4652-.06348 1.04.40169 1.2839z"/><path d="m7.19765 26.874c.10116.0342.20382.0506.30548.0506.39673 0 .76717-.2505.90156-.6472l.0124-.0377c.15472-.5023-.12745-1.0354-.6303-1.1897-.49839-.1537-1.02753.123-1.18672.6189-.16712.4974.10018 1.037.59758 1.2051z"/><path d="m10.4164 19.961c.1691.123.365.1825.5594.1825.2941 0 .5847-.1364.7707-.3923l.0124-.0168c.3054-.4275.2058-1.0206-.2207-1.3261-.427-.306-1.0221-.2078-1.3286.2187l.7672.5644-.7701-.5604c-.30949.4255-.21526 1.0211.2097 1.33z"/><path d="m16.3192 14.7137c.1998 0 .4011-.063.5732-.1939.4245-.3104.5163-.906.2058-1.3305-.3109-.4245-.9065-.5163-1.3305-.2058l-.0238.0173c-.4186.3179-.5019.9165-.184 1.3355.1875.247.4716.3774.7593.3774z"/><path d="m6.34746 41.3137c.12596.4091.50186.6714.90851.6714.09273 0 .18745-.0139.28068-.0426.49988-.1533.78206-.6829.63229-1.1838-.14332-.4998-.66154-.7934-1.16589-.656-.50731.1383-.80635.662-.66799 1.1693.00298.0099.00942.0318.0124.0417z"/><path d="m13.443 17.223c.2475 0 .4949-.0957.6819-.2861.3714-.372.3714-.975 0-1.3464-.372-.372-.975-.372-1.3469 0l-.0159.0158c-.368.3754-.3605.9775.0149 1.3454.185.1816.4255.2713.666.2713z"/><path d="m7.40007 37.1624c-.06695-.5172-.53955-.8842-1.05728-.8227-.5217.0625-.89463.5361-.83264 1.0583l.00546.0382c.06942.4731.47558.8123.94024.8123.04563 0 .09224-.0035.13935-.0104.51823-.0754.87777-.5574.80487-1.0757z"/><path d="m6.204 34.4355c.00992 0 .01934.0005.02876.0005.51277 0 .93628-.4081.95116-.9244l.00099-.0407c0-.5261-.42648-.9521-.95215-.9521-.52219 0-.9457.4195-.95215.9397-.01388.5247.39921.9616.92339.977z"/><path d="m6.41245 30.6169c.05703.0099.11307.0148.16911.0148.45227 0 .85346-.3238.93628-.7845.00248-.0139.00446-.0278.00644-.0416.07687-.5202-.28266-1.0043-.80337-1.0806-.51426-.0764-.99579.2772-1.07861.79-.09025.5167.25391 1.0091.77015 1.1019z"/><path d="m51.3269 20.2614c.1845.2678.4811.4111.7836.4111.1859 0 .3744-.0545.539-.1681.433-.2975.5425-.8907.245-1.3241l-.7915.5297.7885-.5341c-.2955-.4355-.8877-.549-1.3226-.254-.4354.2951-.549.8872-.2539 1.3226z"/><path d="m56.1894 29.8429c-.5227.0586-.8986.5302-.8396 1.0529l.005.0411c.0679.4746.4756.8173.9417.8173.0447 0 .0903-.003.1359-.0094.5163-.0739.8763-.5495.8094-1.0653-.0601-.5212-.5332-.8951-1.0524-.8366z"/><path d="m54.5828 27.1562.004.0124c.122.4151.5014.6838.913.6838.0888 0 .179-.0124.2688-.0391.5048-.1483.7934-.6774.6451-1.1823l-.0039-.0124c-.1483-.5048-.6774-.7934-1.1823-.6447-.5043.1483-.7929.6774-.6447 1.1823z"/><path d="m53.2379 23.596c.1661.3377.5058.5346.8589.5346.1403 0 .2831-.0312.4175-.0977.4716-.2321.6675-.7994.4349-1.2715l-.8628.4022.8618-.4042c-.2231-.4761-.7899-.6809-1.266-.4577s-.6814.79-.4582 1.2661z"/><path d="m48.9293 17.2879c.1864.1904.4329.2856.6799.2856.2405 0 .481-.0902.6665-.2722.3729-.365.3813-.9616.0218-1.3375-.3566-.3843-.9576-.4076-1.3434-.0516-.3864.3566-.4102.9591-.0536 1.3454z"/><path d="m56.499 33.8187c-.5232-.0134-.9611.3967-.9794.9199-.0238.5212.3764.965.8981.9943.0183.001.0357.0015.054.0015.5014 0 .9214-.3923.9497-.8996l.0015-.0392c.0148-.5251-.3987-.9615-.9239-.9769z"/><path d="m42.8403 12.6126.0228.0124c.1419.0754.2941.1111.4439.1111.3387 0 .6665-.1825.8385-.5024.248-.4617.0734-1.0389-.3868-1.2888l-.4607.8331.4578-.8351c-.4612-.2529-1.04-.0838-1.2929.3774-.2524.4607-.0838 1.0399.3774 1.2923z"/><path d="m46.0605 14.7008.0149.0114c.172.1305.3739.1935.5747.1935.2876 0 .5718-.13.7593-.3769.3178-.4191.2355-1.0162-.183-1.334l-.0065-.0045c-.417-.3204-1.0146-.242-1.335.1751-.3203.417-.2415 1.0151.1756 1.3354z"/></g><path d="m64.4123 48.2333-4.4696-4.4776c-.3804-.3809-.8857-.5906-1.4238-.5906-.5375 0-1.0434.2097-1.4232.5906l-.1037.1036-.2935-.2935c-.3626-.3636-.6432-.7866-.8337-1.2473-.0168-.061-.0391-.1205-.0679-.1765-.1458-.4096-.2217-.8455-.2217-1.2933v-1.2666c.0868.0456.1815.0788.2832.0962.0545.0094.1086.0139.1621.0139.4518 0 .8515-.3223.9353-.7806.1017-.5147-.2321-1.0151-.7473-1.1182-.2266-.0452-.4508-.006-.6392.0962-.0586-1.3529-.6115-2.6165-1.5736-3.5805l-4.3362-4.3437c-.973-.9745-2.2668-1.511-3.643-1.511-1.0652 0-2.0798.3228-2.9358.9204l-.4602-.4627v-10.8902c0-1.3127-.4765-2.5792-1.3414-3.5656-.6154-.7012-.9541-1.6018-.9541-2.5361v-.7979h.0654c1.1099 0 2.0129-.9031 2.0129-2.01341v-6.33377c0-1.11035-.903-2.013401-2.0129-2.013401h-17.7858c-1.1098 0-2.0129.903051-2.0129 2.013401v6.33377c0 1.11031.9031 2.01341 2.0129 2.01341h.1468v.4175c0 1.0266-.3992 1.9916-1.1237 2.7171l-1.9197 1.9232c-1.0186 1.0206-1.5795 2.3769-1.5795 3.82v6.1428c0 .8346.2004 1.6226.5529 2.3209-1.2625.0729-2.4393.599-3.3409 1.5016l-4.3362 4.3437c-1.01864 1.0206-1.57952 2.3774-1.57952 3.82v2.7196c0 1.0265-.39871 1.9915-1.12324 2.7171l-.2901.2906c-.00149.0009-.00248.0019-.00347.0029l-.10315-.1036c-.38037-.3809-.8857-.5906-1.42376-.5906-.53757 0-1.0434.2097-1.42327.5906l-4.470136 4.4776c-.783539.785-.783539 2.0625 0 2.8475l1.530876 1.5328c.37144.3725.97446.373 1.3464.0015.37193-.3719.37292-.9744.00099-1.3469l-1.53038-1.5333c-.04314-.0432-.04314-.1131 0-.1562l4.47014-4.4776c.04165-.0417.10959-.0422.15125 0l.77709.7786h.0005l10.61098 10.6293 1.1887 1.1912c.0432.0431.0432.1131 0 .1562l-4.4696 4.4776c-.0422.0421-.1101.0421-.1518 0l-8.35111-8.3655c-.37144-.3725-.97446-.373-1.3464-.0015-.37243.3719-.37292.9744-.00149 1.3469l8.3516 8.3655c.3799.3808.8857.5906 1.4238.5906.5376 0 1.0429-.2098 1.4233-.5906l4.4696-4.4776c.7835-.7845.7835-2.062 0-2.847l-.0486-.0486.5639-.5649c.6585-.66 1.5333-1.0567 2.4631-1.1167 1.3087-.0848 2.5401-.6432 3.467-1.5721l4.1061-4.115c1.1842-.311 2.1061-1.2755 2.3566-2.4836.422.2009.8936.3139 1.3915.3139 1.7907 0 3.2477-1.4584 3.2477-3.2516v-2.2609c.4096.187.8644.2921 1.3434.2921 1.7908 0 3.2472-1.4585 3.2472-3.2517v-6.6839l2.9289 2.9433c.186.1869.4304.2801.6749.2801.243 0 .486-.0922.672-.2772.3724-.3709.3739-.9734.003-1.3464l-2.4419-2.4537c.4726-.2604 1.0052-.3992 1.5596-.3992.8669 0 1.6822.3382 2.2951.9526l4.3363 4.3432c.6595.661 1.023 1.5398 1.023 2.4746v2.7196c0 1.5348.5966 2.9774 1.6797 4.0625l.2955.296-1.3811 1.3836-8.3531 8.3675-.4657-.4666c-.0049-.0045-.0094-.0095-.0143-.0139l-.0819-.0824c-.9858-.9873-2.2955-1.5809-3.6871-1.6712-.8465-.055-1.6429-.416-2.2454-1.0191l-3.1287-3.1118c-.373-.3709-.976-.3695-1.3469.0035-.3705.3729-.369.9759.0039 1.3464l3.1267 3.1093c.9269.9289 2.1583 1.4873 3.4675 1.5721.9293.06 1.8041.4567 2.4626 1.1163l.0462.0461c.0248.0282.051.0545.0788.0793l.4389.4394-.0486.0491c-.7835.785-.7835 2.062 0 2.847l4.4696 4.4776c.3804.3808.8857.5906 1.4238.5906.5376 0 1.0434-.2098 1.4238-.5906l12.5772-12.5991c.7836-.785.7836-2.062 0-2.847zm-8.1988-9.468-.0179-.0029-.1736-.0353zm-30.6339 12.9418c-.5996.6011-1.396.9621-2.242 1.0171-1.3921.0903-2.7018.6839-3.6876 1.6712l-.5619.5629-.5058-.5068c-.0065-.0065-.0129-.0134-.0194-.0194l-9.20903-9.2249.29556-.296c1.08307-1.0851 1.67967-2.5277 1.67967-4.0625v-2.7196c0-.9348.363-1.8136 1.023-2.4746l4.3363-4.3432c.6129-.6144 1.4282-.9526 2.2951-.9526.5559 0 1.0905.1398 1.5646.4021l-2.4459 2.4498c-.3714.372-.3709.975.001 1.3464.186.1855.4295.2782.673.2782.244 0 .4879-.0932.6739-.2792l2.9214-2.9268v11.887c0 1.7932 1.457 3.2516 3.2477 3.2516.5049 0 .9829-.116 1.4094-.3223.1934.9437.7965 1.7392 1.6137 2.1924zm15.1366-13.4109c0 .7429-.603 1.3474-1.3434 1.3474-.7409 0-1.3434-.6045-1.3434-1.3474v-10.6209c0-.5257-.426-.9522-.9521-.9522-.5262 0-.9522.4265-.9522.9522v15.8414c0 .7428-.6025 1.3468-1.3434 1.3468-.665 0-1.217-.4869-1.3236-1.1242v-16.0749c0-.5262-.426-.9522-.9521-.9522-.1692 0-.3283.0447-.4662.122-.301.1602-.5058.4766-.5058.8411v15.8409c0 .121.0069.2395.0198.357v1.9187c0 .7429-.6025 1.3474-1.3434 1.3474-.7404 0-1.3429-.6045-1.3429-1.3474v-18.1389c0-.5257-.4265-.9522-.9522-.9522-.5262 0-.9526.4265-.9526.9522v15.8632c0 .7428-.6026 1.3473-1.343 1.3473-.7409 0-1.3434-.6045-1.3434-1.3473v-17.7115c0-.5262-.4265-.9526-.9521-.9526-.5262 0-.9522.4264-.9522.9526v3.276c-.0798.0258-.1572.062-.2291.1096-1.2313-.4627-2.1101-1.6539-2.1101-3.0474v-6.1428c0-.9348.3635-1.8136 1.0231-2.4746l1.9196-1.9232c1.0836-1.085 1.6802-2.5276 1.6802-4.0625v-.4175h1.9142c.5262 0 .9521-.4265.9521-.9522 0-.52613-.4259-.95211-.9521-.95211h-3.9653c-.06 0-.1086-.0491-.1086-.1091v-6.33377c0-.06001.0486-.1091.1086-.1091h17.7853c.0605 0 .1091.04909.1091.1091v6.33377c0 .0605-.0486.1091-.1091.1091h-9.3499c-.5256 0-.9521.42598-.9521.95211 0 .5257.4265.9522.9521.9522h7.3807v.7979c0 1.3965.5063 2.7429 1.4262 3.7922.5604.6388.8693 1.459.8693 2.3095zm22.3483 11.4387-12.5773 12.5991c-.0209.0213-.0461.0317-.0759.0317-.0293 0-.0545-.0104-.0759-.0317l-4.4696-4.4776c-.0432-.0431-.0432-.1131 0-.1562l.7196-.7211.0004-.0005 7.3013-7.3136 4.556-4.5639c.0416-.0422.1096-.0422.1512 0l4.4702 4.4776c.0431.0431.0431.113 0 .1562z" fill="#f1f2f7"/><path d="m25.6191 4.92651c-.5589 0-1.0136.45575-1.0136 1.01563 0 .56038.4547 1.01562 1.0136 1.01562.5594 0 1.0141-.45524 1.0141-1.01562 0-.55988-.4547-1.01563-1.0141-1.01563z" fill="#f05f87"/><path d="m58.8301 48.3296c-.5594 0-1.0142.4557-1.0142 1.0156s.4548 1.0156 1.0142 1.0156c.5588 0 1.0136-.4557 1.0136-1.0156s-.4548-1.0156-1.0136-1.0156z" fill="#f05f87"/><path d="m15.8671 58.0432c0-.5599-.4547-1.0156-1.0136-1.0156-.5594 0-1.0141.4557-1.0141 1.0156s.4547 1.0156 1.0141 1.0156c.5589 0 1.0136-.4557 1.0136-1.0156z" fill="#f05f87"/></g></svg>