<svg fill="none" height="39" viewBox="0 0 24 39" width="24" xmlns="http://www.w3.org/2000/svg" xmlns:xlink="http://www.w3.org/1999/xlink"><mask id="a" fill="#000" height="5" maskUnits="userSpaceOnUse" width="8" x="8" y="34"><path d="m8 34h8v5h-8z" fill="#fff"/><path clip-rule="evenodd" d="m16 36h-1l-1 1h-2-2l-1-1h-1" fill="#000" fill-rule="evenodd"/></mask><mask id="b" fill="#000" height="25" maskUnits="userSpaceOnUse" width="24" x="0" y="0"><path d="m0 0h24v25h-24z" fill="#fff"/><path clip-rule="evenodd" d="m17 25v-1c0-1.806.628-3.471 1.882-4.75 1.889-1.928 3.118-4.313 3.118-7.25 0-5.523-4.478-10-10-10s-10 4.477-10 10c0 2.937 1.229 5.322 3.118 7.25 1.254 1.279 1.882 2.944 1.882 4.75v1" fill="#000" fill-rule="evenodd"/></mask><mask id="c" fill="#000" height="6" maskUnits="userSpaceOnUse" width="8" x="8" y="14"><path d="m8 14h8v6h-8z" fill="#fff"/><path clip-rule="evenodd" d="m9 15 3 3 3-3" fill="#000" fill-rule="evenodd"/></mask><path d="m15 36v-1.2963c-.3438 0-.6735.1366-.9166.3797zm-1 1v1.2963c.3438 0 .6735-.1366.9166-.3797zm-4 0-.91662.9166c.2431.2431.57282.3797.91662.3797zm-1-1 .91662-.9166c-.2431-.2431-.57282-.3797-.91662-.3797zm7-1.2963h-1v2.5926h1zm-1.9166.3797-1 1 1.8332 1.8332 1-1zm-.0834.6203h-2v2.5926h2zm-2 0h-2v2.5926h2zm-1.0834.3797-.99998-1-1.83324 1.8332 1 1zm-1.9166-1.3797h-1v2.5926h1z" fill="#4a557d" mask="url(#a)"/><path d="m6 27.3519c-.35796 0-.64815.2901-.64815.6481s.29019.6481.64815.6481h12c.358 0 .6481-.2901.6481-.6481s-.2901-.6481-.6481-.6481z" stroke="#4a557d" stroke-linejoin="round" stroke-width="1.2963"/><path d="m6 31.3519c-.35796 0-.64815.2901-.64815.6481s.29019.6481.64815.6481h12c.358 0 .6481-.2901.6481-.6481s-.2901-.6481-.6481-.6481z" stroke="#4a557d" stroke-linejoin="round" stroke-width="1.2963"/><path d="m18.882 19.25.9256.9075.0003-.0003zm-13.764 0-.92594.9072.00032.0003zm13.1783 5.75v-1h-2.5926v1zm0-1c0-1.4948.5139-2.8252 1.5113-3.8425l-1.8512-1.815c-1.5106 1.5407-2.2527 3.5403-2.2527 5.6575zm1.5116-3.8428c2.077-2.1198 3.4884-4.8164 3.4884-8.1572h-2.5926c0 2.5332-1.0466 4.6066-2.7476 6.3428zm3.4884-8.1572c0-6.23901-5.0585-11.296296-11.2963-11.296296v2.592596c4.8062 0 8.7037 3.89671 8.7037 8.7037zm-11.2963-11.296296c-6.23784 0-11.296296 5.057286-11.296296 11.296296h2.592596c0-4.80699 3.89754-8.7037 8.7037-8.7037zm-11.296296 11.296296c0 3.3408 1.411396 6.0374 3.488356 8.1572l1.85188-1.8144c-1.70104-1.7362-2.74764-3.8096-2.74764-6.3428zm3.488676 8.1575c.99741 1.0173 1.51132 2.3477 1.51132 3.8425h2.5926c0-2.1172-.74209-4.1168-2.25268-5.6575zm1.51132 3.8425v1h2.5926v-1z" fill="#4a557d" mask="url(#b)"/><path d="m12 18-.9166.9166c.5062.5063 1.327.5063 1.8332 0zm-3.91662-2.0834 3.00002 3 1.8332-1.8332-2.99998-3zm4.83322 3 3-3-1.8332-1.8332-3 3z" fill="#f05f87" mask="url(#c)"/><g stroke-linejoin="round" stroke-width="1.2963"><path d="m12.6481 18c0-.358-.2901-.6481-.6481-.6481s-.6481.2901-.6481.6481v7c0 .358.2901.6481.6481.6481s.6481-.2901.6481-.6481z" stroke="#f05f87"/><path d="m5.35185 12c0 .2622.15792.4985.40011.5988.2422.1003.52098.0449.70635-.1405l5.99999-5.99999c.1854-.18537.2408-.46415.1405-.70635-.1003-.24219-.3366-.40011-.5988-.40011-3.67096 0-6.64815 2.97719-6.64815 6.64815z" stroke="#4a557d" stroke-linecap="round"/></g></svg>