<svg width="91" height="91" viewBox="0 0 91 91" fill="none" xmlns="http://www.w3.org/2000/svg">
<path d="M9.49414 70.4617C9.49401 70.6941 9.54 70.9246 9.62891 71.1394C9.71781 71.3542 9.84831 71.5492 10.0127 71.7136C10.1771 71.878 10.3721 72.0085 10.5869 72.0974C10.8017 72.1863 11.0312 72.2323 11.2637 72.2322H18.4639C18.9259 72.2212 19.3656 72.0296 19.6885 71.699C20.0114 71.3683 20.1924 70.9248 20.1924 70.4626C20.1924 70.0005 20.0114 69.556 19.6885 69.2253C19.3656 68.8947 18.9259 68.7041 18.4639 68.6931H11.2637C10.7944 68.6931 10.3446 68.879 10.0127 69.2107C9.68078 69.5424 9.49441 69.9924 9.49414 70.4617Z" fill="#6572A4"/>
<path d="M4.75879 68.6917H1.76904C1.30703 68.7026 0.867315 68.8942 0.544434 69.2249C0.221552 69.5555 0.0410156 69.999 0.0410156 70.4612C0.0410156 70.9233 0.221552 71.3669 0.544434 71.6975C0.867315 72.0282 1.30703 72.2197 1.76904 72.2307H4.75879C5.22081 72.2197 5.66052 72.0282 5.9834 71.6975C6.30628 71.3669 6.48682 70.9233 6.48682 70.4612C6.48682 69.999 6.30628 69.5555 5.9834 69.2249C5.66052 68.8942 5.22081 68.7026 4.75879 68.6917Z" fill="#6572A4"/>
<path d="M35.6191 68.1908C35.4379 68.0453 35.23 67.9366 35.0068 67.8715C34.7837 67.8064 34.5494 67.7866 34.3184 67.8119C34.0873 67.8373 33.8639 67.9071 33.6602 68.019C33.4564 68.1309 33.2762 68.2819 33.1309 68.4633L25.6582 77.7797H11.2627C10.8007 77.7907 10.3619 77.9823 10.0391 78.3129C9.71618 78.6436 9.53516 79.0871 9.53516 79.5492C9.53516 80.0114 9.71618 80.4549 10.0391 80.7856C10.3619 81.1162 10.8007 81.3078 11.2627 81.3188H26.5068C26.7716 81.3185 27.0328 81.2585 27.2715 81.144C27.5101 81.0294 27.72 80.863 27.8857 80.6567L35.8926 70.6762C36.1856 70.3102 36.3207 69.8434 36.2695 69.3774C36.2183 68.9113 35.9846 68.4845 35.6191 68.1908Z" fill="#6572A4"/>
<path d="M4.75879 77.7788H1.76904C1.30703 77.7898 0.867315 77.9804 0.544434 78.311C0.221552 78.6417 0.0410156 79.0862 0.0410156 79.5483C0.0410156 80.0105 0.221552 80.454 0.544434 80.7847C0.867315 81.1153 1.30703 81.3069 1.76904 81.3179H4.75879C5.22081 81.3069 5.66052 81.1153 5.9834 80.7847C6.30628 80.454 6.48682 80.0105 6.48682 79.5483C6.48682 79.0862 6.30628 78.6417 5.9834 78.311C5.66052 77.9804 5.22081 77.7898 4.75879 77.7788Z" fill="#6572A4"/>
<path d="M4.75879 86.866H1.76904C1.30703 86.877 0.867315 87.0685 0.544434 87.3992C0.221552 87.7298 0.0410156 88.1734 0.0410156 88.6355C0.0410156 89.0976 0.221552 89.5431 0.544434 89.8738C0.867315 90.2044 1.30703 90.394 1.76904 90.405H4.75879C5.22081 90.394 5.66052 90.2044 5.9834 89.8738C6.30628 89.5431 6.48682 89.0976 6.48682 88.6355C6.48682 88.1734 6.30628 87.7298 5.9834 87.3992C5.66052 87.0685 5.22081 86.877 4.75879 86.866Z" fill="#6572A4"/>
<path d="M26.5068 86.866H11.2646C10.8026 86.877 10.3629 87.0685 10.04 87.3992C9.71716 87.7298 9.53613 88.1734 9.53613 88.6355C9.53613 89.0976 9.71716 89.5431 10.04 89.8738C10.3629 90.2044 10.8026 90.394 11.2646 90.405H26.5068C26.9689 90.394 27.4076 90.2044 27.7305 89.8738C28.0534 89.5431 28.2344 89.0976 28.2344 88.6355C28.2344 88.1734 28.0534 87.7298 27.7305 87.3992C27.4076 87.0685 26.9689 86.877 26.5068 86.866Z" fill="#6572A4"/>
<path d="M84.8903 43.8278C84.8919 42.5337 84.5086 41.2678 83.7907 40.1911C83.0729 39.1143 82.0523 38.2752 80.8571 37.779C79.6619 37.2827 78.3472 37.1523 77.0778 37.404C75.8084 37.6556 74.6418 38.2774 73.7263 39.192C72.8108 40.1067 72.1861 41.2725 71.9333 42.5416C71.6805 43.8108 71.8112 45.1263 72.3063 46.3219C72.8015 47.5176 73.6404 48.5396 74.7165 49.2584C75.7926 49.9773 77.0571 50.3614 78.3513 50.361C80.0842 50.3602 81.7464 49.6718 82.9724 48.4469C84.1983 47.2221 84.8879 45.5607 84.8903 43.8278ZM75.3474 43.8278C75.3474 43.2344 75.5236 42.6541 75.8532 42.1608C76.1829 41.6674 76.6507 41.2834 77.1989 41.0563C77.7471 40.8292 78.3514 40.7696 78.9333 40.8854C79.5152 41.0012 80.0489 41.2871 80.4685 41.7067C80.888 42.1262 81.173 42.6609 81.2888 43.2428C81.4045 43.8248 81.3459 44.4271 81.1188 44.9752C80.8918 45.5234 80.5067 45.9923 80.0134 46.3219C79.52 46.6516 78.9407 46.8278 78.3474 46.8278C77.5517 46.8278 76.7889 46.5115 76.2263 45.9489C75.6637 45.3863 75.3474 44.6234 75.3474 43.8278Z" fill="#6572A4"/>
<path d="M18.4647 51.1341C18.4663 49.84 18.0838 48.5751 17.3661 47.4983C16.6483 46.4215 15.6275 45.5817 14.4325 45.0852C13.2374 44.5888 11.9217 44.458 10.6522 44.7093C9.38273 44.9605 8.21647 45.5821 7.30063 46.4964C6.3848 47.4107 5.76108 48.5759 5.50766 49.845C5.25425 51.114 5.38235 52.4303 5.8768 53.6262C6.37126 54.8222 7.2094 55.8442 8.28501 56.5637C9.36061 57.2833 10.6257 57.6676 11.9198 57.6682C13.6538 57.6685 15.3166 56.9803 16.5438 55.7551C17.771 54.53 18.462 52.8681 18.4647 51.1341ZM8.9188 51.1341C8.9188 50.5407 9.09501 49.9614 9.42466 49.468C9.7543 48.9747 10.2222 48.5896 10.7704 48.3626C11.3185 48.1355 11.9218 48.0759 12.5038 48.1917C13.0857 48.3074 13.6203 48.5934 14.0399 49.013C14.4594 49.4325 14.7454 49.9672 14.8612 50.5491C14.9769 51.131 14.9173 51.7343 14.6903 52.2825C14.4632 52.8307 14.0791 53.2995 13.5858 53.6292C13.0924 53.9588 12.5121 54.1341 11.9188 54.1341C11.1231 54.1341 10.3603 53.8178 9.7977 53.2551C9.23509 52.6925 8.9188 51.9297 8.9188 51.1341Z" fill="#6572A4"/>
<path d="M90.3506 21.6318L86.8623 15.6077L90.3506 9.57861C90.507 9.30935 90.5898 9.00353 90.5898 8.69214C90.5898 8.38075 90.507 8.07493 90.3506 7.80566L86.3506 0.889648C86.1958 0.620987 85.9735 0.397862 85.7051 0.242676C85.4367 0.0874897 85.1323 0.00568548 84.8223 0.00561523H76.8154C76.5054 0.00568548 76.201 0.0874897 75.9326 0.242676C75.6642 0.397862 75.4419 0.620987 75.2871 0.889648L71.793 6.92285H64.8135C64.5033 6.92298 64.1994 7.00445 63.9307 7.15942C63.662 7.3144 63.4386 7.53724 63.2832 7.80566L59.793 13.8386H52.8066C52.3373 13.8386 51.8875 14.0251 51.5557 14.3569C51.2238 14.6888 51.0371 15.1389 51.0371 15.6082C51.0371 16.0775 51.2238 16.5275 51.5557 16.8594C51.8875 17.1912 52.3373 17.3777 52.8066 17.3777H59.793L63.2832 23.4116C63.4386 23.6801 63.661 23.9031 63.9297 24.0581C64.1984 24.2131 64.5033 24.2947 64.8135 24.2947H71.7939L75.2861 30.3276C75.4411 30.596 75.6632 30.8188 75.9316 30.9736C76.2001 31.1285 76.5046 31.21 76.8145 31.2097H83.7988L87.291 37.2437C87.5261 37.6498 87.9127 37.9459 88.3662 38.0669C88.8197 38.1879 89.3028 38.1238 89.709 37.8887C90.1152 37.6536 90.4113 37.2667 90.5322 36.8132C90.6532 36.3598 90.5886 35.8769 90.3535 35.4707L86.8662 29.4407L90.3535 23.4106C90.5106 23.1404 90.5933 22.8333 90.5928 22.5208C90.5922 22.2082 90.5086 21.9015 90.3506 21.6318ZM71.7891 20.7507H65.8301L62.8525 15.6047L65.8301 10.4578H71.7891L74.7676 15.6038L71.7891 20.7507ZM83.7988 27.6658H77.834L74.8545 22.5208L77.834 17.3777H83.7988L86.7773 22.5208L83.7988 27.6658ZM83.7988 13.8398H77.834L74.8545 8.69263L77.834 3.54565H83.7988L86.7773 8.69263L83.7988 13.8398Z" fill="#6572A4"/>
<path d="M67.7397 53.2975C67.4189 45.304 64.0957 37.7254 58.4336 32.0739C52.7715 26.4223 45.1865 23.1134 37.1924 22.8075C37.1784 13.9285 33.6674 6.3465 27.0234 1.3075C26.016 0.540588 24.8038 0.0898468 23.54 0.0120855C22.2763 -0.0656758 21.0177 0.23312 19.9238 0.870728C18.8299 1.50834 17.9501 2.45592 17.395 3.59387C16.8399 4.73183 16.6348 6.009 16.8057 7.26355C16.9161 8.09693 17.1909 8.90004 17.6142 9.62634C18.0376 10.3527 18.6008 10.9877 19.2715 11.4945C19.9382 11.9979 20.5523 12.5675 21.1045 13.1945L13.2114 21.0704C12.5813 20.5184 12.0085 19.9043 11.5015 19.2374C10.469 17.8902 8.94565 17.0061 7.26366 16.778C5.58167 16.5498 3.87754 16.9959 2.52343 18.0194C1.17406 19.0466 0.287517 20.5676 0.0585826 22.2479C-0.170351 23.9283 0.277338 25.6308 1.30272 26.9816C6.29272 33.5316 13.8926 37.0896 22.8496 37.1176C23.0335 42.2343 24.466 47.2283 27.0224 51.6644C27.2568 52.071 27.643 52.3681 28.0962 52.4899C28.5494 52.6117 29.0324 52.5484 29.439 52.3141C29.8455 52.0798 30.1423 51.6935 30.2641 51.2404C30.386 50.7872 30.3227 50.3042 30.0884 49.8976C26.5343 43.7109 25.4721 36.4022 27.1177 29.4596C28.7067 22.6426 27.9333 16.7595 24.9643 12.4025C24.9307 12.3472 24.8938 12.2942 24.8535 12.2435C23.8991 10.8815 22.7371 9.67739 21.4097 8.67542C20.8094 8.21543 20.4154 7.53702 20.3135 6.78772C20.2116 6.03842 20.4101 5.27899 20.8657 4.67542C21.3277 4.07217 22.0092 3.67659 22.7622 3.57483C23.5152 3.47307 24.2778 3.67345 24.8833 4.13245C32.4603 9.87945 35.3105 19.5825 32.7065 30.7565C31.936 34.0519 31.9184 37.4786 32.6558 40.7816C33.3931 44.0846 34.866 47.1788 36.9648 49.8336C39.0637 52.4885 41.7346 54.6357 44.7783 56.1154C47.822 57.595 51.1602 58.3688 54.5444 58.3795C54.5104 58.5415 54.4775 58.7036 54.4385 58.8656C54.0375 60.58 53.7485 62.3185 53.5727 64.0704C48.9676 63.9147 44.4716 62.6251 40.4844 60.3156C40.079 60.09 39.6015 60.0326 39.1543 60.1556C38.7071 60.2787 38.3261 60.5724 38.0933 60.9735C37.8604 61.3747 37.7943 61.8513 37.9092 62.3007C38.0241 62.7501 38.3107 63.1364 38.7075 63.3766C43.1831 65.9696 48.2273 67.4228 53.3965 67.6085C53.4065 76.4885 56.9174 84.0725 63.5644 89.1085C64.2325 89.6262 64.9967 90.0063 65.8125 90.2272C66.6283 90.448 67.4794 90.5051 68.3174 90.3951C69.1553 90.2852 69.9632 90.0104 70.6943 89.5865C71.4255 89.1627 72.0653 88.5982 72.5771 87.9257C73.089 87.2532 73.4625 86.486 73.6763 85.6683C73.89 84.8507 73.94 83.9989 73.8227 83.162C73.7055 82.325 73.4238 81.5196 72.9936 80.7921C72.5635 80.0647 71.9933 79.4295 71.3164 78.9235C70.6504 78.4195 70.0366 77.8501 69.4844 77.2235L77.3843 69.3456C78.0139 69.8971 78.5869 70.5106 79.0937 71.1766C80.1205 72.5292 81.6422 73.4184 83.3247 73.6488C85.0072 73.8792 86.7123 73.4317 88.0649 72.4049C89.4175 71.3781 90.3067 69.8562 90.5371 68.1737C90.7675 66.4912 90.3202 64.7861 89.2934 63.4335C84.3015 56.8825 76.6997 53.3255 67.7397 53.2975ZM23.0615 16.2384C23.7683 16.6022 24.3792 17.1279 24.8442 17.7726C25.3093 18.4172 25.615 19.1627 25.7373 19.9481C25.8596 20.7336 25.7949 21.5368 25.5478 22.2924C25.3008 23.0479 24.8786 23.7344 24.3159 24.2958C23.7532 24.8572 23.0657 25.2775 22.3096 25.5228C21.5535 25.7681 20.75 25.8313 19.9648 25.7072C19.1797 25.583 18.4351 25.2753 17.7915 24.8087C17.1479 24.3422 16.6238 23.7302 16.2617 23.0226L23.0615 16.2384ZM4.11962 24.8385C3.66213 24.2357 3.46216 23.476 3.56395 22.7262C3.66575 21.9763 4.06096 21.2975 4.66259 20.8385C5.26918 20.3793 6.03259 20.1786 6.78661 20.2802C7.54063 20.3817 8.22398 20.7772 8.68749 21.3805C12.1275 25.8965 17.3397 28.1096 23.8467 27.8566C23.7907 28.1346 23.7323 28.4006 23.6733 28.6566C23.2952 30.2764 23.0429 31.9228 22.9184 33.5814C17.0434 33.5744 9.51362 31.9135 4.11962 24.8375V24.8385ZM35.6514 35.5875C38.3066 35.5366 40.943 36.0477 43.3867 37.0875L37.1514 43.3094C36.1103 40.8689 35.599 38.2354 35.6514 35.5826V35.5875ZM38.9233 46.5375L46.6235 38.8546C48.604 40.2019 50.3145 41.9083 51.6665 43.8856L43.9663 51.5685C41.9858 50.2208 40.2751 48.5145 38.9224 46.5375H38.9233ZM47.2056 53.3375L53.4394 47.1185C54.1539 47.4235 54.7827 47.8992 55.2705 48.5038C55.7583 49.1084 56.0903 49.8233 56.2373 50.5861C56.3843 51.3488 56.3414 52.1362 56.1133 52.8788C55.8851 53.6213 55.4782 54.2965 54.9282 54.8451C54.3783 55.3937 53.7021 55.7989 52.959 56.0253C52.2159 56.2516 51.4289 56.2923 50.6665 56.1434C49.9041 55.9946 49.1898 55.661 48.5864 55.1718C47.983 54.6825 47.5088 54.0527 47.2056 53.3375ZM70.2793 83.6376C70.3316 84.0083 70.31 84.3856 70.2148 84.7477C70.1197 85.1098 69.9533 85.4493 69.7256 85.7465C69.2634 86.351 68.5806 86.7481 67.8267 86.851C67.0727 86.9538 66.3089 86.7542 65.7017 86.2955C58.1247 80.5475 55.2747 70.8435 57.8857 59.6705C58.656 56.3752 58.6726 52.9487 57.935 49.6459C57.1975 46.3431 55.7244 43.249 53.6255 40.5944C51.5266 37.9397 48.8561 35.7928 45.8125 34.3134C42.7689 32.8339 39.4305 32.06 36.0464 32.0494C36.0804 31.8874 36.1144 31.7246 36.1514 31.5616C36.5539 29.8452 36.8431 28.1039 37.0166 26.3495C41.178 26.5018 45.2541 27.5731 48.9526 29.4865C52.6512 31.3998 55.8806 34.108 58.4092 37.4166C60.9377 40.7252 62.7025 44.5525 63.5776 48.6237C64.4527 52.6949 64.4164 56.9091 63.4707 60.9645C61.3657 69.9735 63.3908 77.3546 69.1768 81.7496C69.4754 81.9745 69.7265 82.256 69.916 82.5782C70.1055 82.9005 70.2296 83.2572 70.2808 83.6276L70.2793 83.6376ZM67.5264 74.1815C66.8194 73.8178 66.2084 73.292 65.7432 72.6473C65.2779 72.0026 64.972 71.2573 64.8496 70.4718C64.7272 69.6863 64.7921 68.8828 65.0391 68.1271C65.286 67.3714 65.7078 66.6848 66.2705 66.1232C66.8332 65.5615 67.5207 65.1409 68.2768 64.8954C69.033 64.6499 69.8368 64.5864 70.6221 64.7103C71.4074 64.8343 72.1521 65.1421 72.7959 65.6085C73.4397 66.075 73.9643 66.6868 74.3267 67.3944L67.5264 74.1815ZM87.0264 67.6925C86.95 68.2544 86.7088 68.7811 86.333 69.2057C85.9572 69.6303 85.4635 69.9337 84.915 70.0778C84.3666 70.2218 83.7879 70.1997 83.2519 70.0145C82.716 69.8293 82.2469 69.4893 81.9043 69.0375C78.4613 64.5185 73.2496 62.3076 66.7446 62.5646C66.8006 62.2896 66.8575 62.0225 66.9175 61.7645C67.2956 60.1451 67.5476 58.4988 67.6714 56.8405C73.5524 56.8405 81.0837 58.5045 86.4717 65.5775C86.6996 65.874 86.8661 66.2126 86.9624 66.5739C87.0587 66.9352 87.0828 67.312 87.0327 67.6825L87.0264 67.6925Z" fill="#6572A4"/>
<path d="M33.3938 58.8428C33.8043 58.8442 34.2027 58.7028 34.5208 58.4434C34.8389 58.184 35.0576 57.8223 35.139 57.42C35.2203 57.0177 35.1595 56.6 34.9671 56.2374C34.7747 55.8748 34.4621 55.5899 34.0833 55.4317C33.7046 55.2735 33.2831 55.2512 32.8899 55.3692C32.4968 55.4872 32.1561 55.7375 31.9271 56.0782C31.698 56.4188 31.595 56.8288 31.6341 57.2374C31.6732 57.646 31.8524 58.0284 32.1419 58.3194C32.3054 58.4853 32.5002 58.6173 32.7151 58.7071C32.9301 58.7969 33.1609 58.8432 33.3938 58.8428Z" fill="#6572A4"/>
</svg>
