<svg width="1440" height="419" viewBox="0 0 1440 419" fill="none" xmlns="http://www.w3.org/2000/svg">
<mask id="mask0" mask-type="alpha" maskUnits="userSpaceOnUse" x="-1" y="-1" width="1442" height="420">
<rect x="-1" y="-1" width="1442" height="420" fill="#C4C4C4"/>
</mask>
<g mask="url(#mask0)">
<path fill-rule="evenodd" clip-rule="evenodd" d="M2223.51 1346.49L2226.72 1352.1L2221.18 1354.4L2217.97 1348.8L2223.51 1346.49ZM2144.29 1379.45L2147.51 1385.05L2141.97 1387.36L2138.76 1381.75L2144.29 1379.45ZM2065.08 1412.4L2068.29 1418.01L2062.76 1420.31L2059.54 1414.7L2065.08 1412.4ZM1906.6 1478.49L1909.66 1483.83L1904.38 1486.03L1901.33 1480.68L1906.6 1478.49ZM1985.75 1445.73L1988.66 1450.8L1983.65 1452.88L1980.75 1447.81L1985.75 1445.73ZM1827.27 1511.82L1830.02 1516.63L1825.28 1518.6L1822.53 1513.8L1827.27 1511.82ZM1748.06 1544.78L1750.81 1549.58L1746.07 1551.55L1743.31 1546.75L1748.06 1544.78ZM1668.84 1577.73L1671.6 1582.53L1666.85 1584.51L1664.1 1579.7L1668.84 1577.73ZM1589.57 1610.87L1592.17 1615.41L1587.69 1617.27L1585.09 1612.73L1589.57 1610.87ZM1510.3 1644.01L1512.75 1648.28L1508.53 1650.04L1506.09 1645.76L1510.3 1644.01ZM1431.03 1677.15L1433.33 1681.16L1429.37 1682.8L1427.08 1678.8L1431.03 1677.15ZM1351.77 1710.29L1353.91 1714.03L1350.22 1715.57L1348.07 1711.83L1351.77 1710.29ZM1272.5 1743.43L1274.48 1746.9L1271.06 1748.33L1269.07 1744.86L1272.5 1743.43ZM1193.23 1776.58L1195.06 1779.78L1191.9 1781.1L1190.06 1777.89L1193.23 1776.58ZM1495.24 37.5603L1518.65 78.4191L1479.31 94.7856L1501.19 132.979L1541.72 116.12L1566.5 159.382L1527.28 175.695L1547.71 211.351L1588.24 194.491L1614.55 240.423L1575.21 256.79L1594.26 290.043L1634.66 273.238L1662.19 321.308L1623.11 337.565L1640.86 368.548L1681.13 351.798L1710.04 402.27L1670.83 418.581L1687.2 447.161L1727.6 430.356L1757.89 483.232L1718.67 499.544L1733.75 525.854L1774.01 509.104L1805.53 564.116L1766.31 580.427L1780.16 604.601L1820.43 587.851L1853.16 644.999L1813.95 661.311L1826.65 683.482L1866.79 666.787L1900.6 725.806L1861.38 742.117L1873.01 762.418L1912.82 745.858L1901.54 726.161L1921.31 717.937L1932.78 737.966L1913.34 746.054L1947.76 806.146L1967.33 798.003L1978.96 818.3L1960.31 826.058L1994.43 885.615L2013.47 877.691L2025.56 898.788L2007.56 906.274L2041.22 965.031L2059.61 957.381L2072.16 979.28L2054.56 986.6L2087.99 1044.96L2105.58 1037.64L2118.13 1059.53L2100.66 1066.8L2133.94 1124.89L2151.67 1117.51L2164.52 1139.95L2146.79 1147.32L2180.06 1205.41L2197.53 1198.14L2210.07 1220.04L2192.61 1227.31L2226.72 1286.87L2243.01 1280.09L2254.17 1299.59L2234.93 1307.59L2225.48 1291.1L2183.7 1308.48L2203.7 1343.4L2148.08 1366.54L2128.46 1332.29L2104.73 1342.16L2124.28 1376.28L2068.92 1399.3L2049.38 1365.19L2025.39 1375.17L2044.86 1409.15L1989.77 1432.07L1969.92 1397.41L1945.13 1407.72L1964.6 1441.71L1910.83 1464.08L1890.67 1428.89L1864.17 1439.91L1883.72 1474.03L1832.06 1495.52L1811.82 1460.21L1783.35 1472.05L1803.05 1506.44L1753.23 1527.16L1732.84 1491.57L1702.52 1504.18L1722.38 1538.84L1674.4 1558.79L1653.86 1522.94L1621.83 1536.26L1641.91 1571.32L1595.52 1590.62L1574.68 1554.23L1540.53 1568.43L1560.62 1603.48L1516.86 1621.69L1496.01 1585.3L1459.63 1600.43L1479.94 1635.89L1438.03 1653.32L1416.88 1616.4L1378.26 1632.47L1398.64 1668.05L1359.37 1684.39L1338.14 1647.33L1296.89 1664.5L1317.35 1700.22L1280.71 1715.46L1259.45 1678.34L1294.7 1663.67L1271.68 1623.48L1236.22 1638.23L1259.13 1678.22L1216.95 1695.76L1193.05 1654.04L1155.03 1669.85L1132.38 1630.33L1171.4 1614.1L1193.46 1652.63L1231.95 1636.61L1209.69 1597.75L1171.53 1613.63L1148.59 1573.57L1188.06 1557.15L1165 1516.89L1204.47 1500.46L1181.41 1460.2L1220.89 1443.78L1197.83 1403.52L1237.3 1387.1L1214.24 1346.84L1253.71 1330.42L1230.65 1290.16L1270.12 1273.74L1247.1 1233.54L1208.94 1249.41L1186.76 1210.69L1224.98 1194.79L1247.12 1233.45L1286.54 1217.05L1263.66 1177.12L1225.51 1193L1203.17 1154.01L1241.66 1138L1263.8 1176.66L1302.95 1160.37L1280.23 1120.71L1242.07 1136.58L1219.59 1097.33L1258.33 1081.21L1280.48 1119.87L1319.36 1103.69L1296.8 1064.29L1258.64 1080.17L1236 1040.64L1275.01 1024.41L1297.15 1063.07L1335.77 1047.01L1313.36 1007.88L1275.2 1023.75L1252.41 983.961L1291.69 967.622L1313.83 1006.28L1352.06 990.38L1329.79 951.518L1291.77 967.336L1268.82 927.278L1308.17 910.911L1285.03 870.517L1324.5 854.095L1301.44 813.835L1340.91 797.413L1317.85 757.153L1357.33 740.731L1334.26 700.471L1373.74 684.049L1350.68 643.788L1390.15 627.366L1367.28 587.437L1329.12 603.311L1306.79 564.321L1345.27 548.311L1367.41 586.969L1406.56 570.683L1383.84 531.02L1345.69 546.895L1323.2 507.638L1361.95 491.519L1384.09 530.178L1422.98 514.002L1400.41 474.606L1362.25 490.48L1339.61 450.956L1378.62 434.728L1400.77 473.386L1439.39 457.32L1416.97 418.191L1378.82 434.065L1356.02 394.274L1395.3 377.936L1417.44 416.594L1455.8 400.637L1433.54 361.776L1395.38 377.649L1372.44 337.592L1411.91 321.169L1388.85 280.909L1428.19 264.542L1405.05 224.149L1444.53 207.727L1421.47 167.466L1460.94 151.043L1437.88 110.783L1477.75 94.1974L1454.92 54.3372L1495.24 37.5603ZM1216.32 1697.93L1236.05 1732.38L1202.05 1746.53L1182.31 1712.08L1216.32 1697.93ZM1132.18 1747.65L1138.3 1758.33L1127.76 1762.72L1121.64 1752.04L1132.18 1747.65ZM1350.36 1592.73L1317.93 1606.22L1339.27 1643.48L1371.7 1629.99L1350.36 1592.73ZM1154.55 1671.46L1176.58 1709.91L1138.63 1725.7L1116.6 1687.25L1154.55 1671.46ZM1428.97 1561.85L1399.44 1574.13L1419.17 1608.58L1448.7 1596.3L1428.97 1561.85ZM1507.63 1530.78L1480.87 1541.91L1499.3 1574.09L1526.06 1562.96L1507.63 1530.78ZM1586.36 1499.84L1562.24 1509.88L1579.07 1539.26L1603.19 1529.22L1586.36 1499.84ZM1665.16 1468.72L1643.54 1477.71L1659.14 1504.96L1680.76 1495.96L1665.16 1468.72ZM1743.87 1437.46L1724.63 1445.47L1739.01 1470.57L1758.26 1462.57L1743.87 1437.46ZM1822.59 1406.2L1805.72 1413.22L1818.87 1436.19L1835.75 1429.17L1822.59 1406.2ZM1901.31 1374.94L1886.8 1380.98L1898.66 1401.68L1913.16 1395.65L1901.31 1374.94ZM1980.55 1343.47L1967.89 1348.73L1978.68 1367.56L1991.34 1362.3L1980.55 1343.47ZM2060.07 1311.05L2048.07 1316.04L2058.48 1334.2L2070.47 1329.21L2060.07 1311.05ZM2139.94 1277.82L2127.28 1283.09L2137.61 1301.12L2150.27 1295.85L2139.94 1277.82ZM1288.24 1567.06L1253.05 1581.7L1273.47 1617.36L1308.67 1602.72L1288.24 1567.06ZM1366.92 1536.31L1334.76 1549.69L1353.43 1582.28L1385.59 1568.9L1366.92 1536.31ZM1445.66 1505.38L1416.27 1517.61L1433.25 1547.25L1462.65 1535.03L1445.66 1505.38ZM1524.19 1474.36L1497.56 1485.44L1513.02 1512.42L1539.64 1501.34L1524.19 1474.36ZM1602.93 1443.43L1579.07 1453.35L1592.92 1477.53L1616.78 1467.6L1602.93 1443.43ZM1681.72 1412.3L1660.37 1421.19L1672.76 1442.82L1694.12 1433.94L1681.72 1412.3ZM1760.36 1380.91L1741.38 1388.81L1752.47 1408.18L1771.46 1400.28L1760.36 1380.91ZM1839.15 1349.79L1822.54 1356.7L1832.18 1373.53L1848.8 1366.62L1839.15 1349.79ZM2178.32 1211.34L2143.52 1225.82L2151.25 1239.31L2186.05 1224.83L2178.32 1211.34ZM1917.87 1318.53L1903.63 1324.45L1911.9 1338.88L1926.13 1332.95L1917.87 1318.53ZM1997.17 1286.86L1984.64 1292.07L1991.92 1304.77L2004.44 1299.55L1997.17 1286.86ZM2076.69 1254.44L2064.69 1259.44L2071.66 1271.59L2083.65 1266.6L2076.69 1254.44ZM1086.26 1667.21L1092.54 1678.16L1081.73 1682.65L1075.46 1671.7L1086.26 1667.21ZM1226.26 1541.34L1188.16 1557.18L1210.27 1595.78L1248.37 1579.93L1226.26 1541.34ZM1107.97 1593.28L1128.32 1628.79L1093.26 1643.38L1072.91 1607.86L1107.97 1593.28ZM1304.81 1510.65L1269.88 1525.18L1290.15 1560.57L1325.08 1546.03L1304.81 1510.65ZM1383.49 1479.9L1351.59 1493.17L1370.1 1525.49L1402 1512.22L1383.49 1479.9ZM1462.23 1448.96L1433.09 1461.08L1450 1490.6L1479.13 1478.48L1462.23 1448.96ZM1540.76 1417.95L1514.39 1428.91L1529.69 1455.62L1556.06 1444.66L1540.76 1417.95ZM1619.49 1387.01L1595.9 1396.83L1609.59 1420.73L1633.19 1410.92L1619.49 1387.01ZM1698.34 1355.7L1677.12 1364.53L1689.43 1386.03L1710.66 1377.2L1698.34 1355.7ZM1776.93 1324.5L1758.08 1332.34L1769.02 1351.44L1787.87 1343.6L1776.93 1324.5ZM1855.72 1293.37L1839.37 1300.17L1848.86 1316.73L1865.21 1309.93L1855.72 1293.37ZM1934.49 1261.93L1920.38 1267.79L1928.57 1282.09L1942.68 1276.22L1934.49 1261.93ZM2013.87 1230.39L2001.34 1235.6L2008.53 1248.16L2021.06 1242.95L2013.87 1230.39ZM2093.97 1197.57L2081.31 1202.83L2088.28 1214.99L2100.93 1209.72L2093.97 1197.57ZM1242.82 1484.92L1204.99 1500.66L1226.95 1538.99L1264.78 1523.25L1242.82 1484.92ZM1124.81 1535.92L1145.77 1572.5L1109.66 1587.53L1088.7 1550.94L1124.81 1535.92ZM1321.37 1454.23L1286.7 1468.65L1306.82 1503.77L1341.49 1489.35L1321.37 1454.23ZM1400.05 1423.48L1368.42 1436.64L1386.78 1468.69L1418.41 1455.53L1400.05 1423.48ZM1478.79 1392.55L1449.92 1404.56L1466.68 1433.8L1495.55 1421.79L1478.79 1392.55ZM1557.32 1361.53L1531.22 1372.39L1546.37 1398.83L1572.47 1387.97L1557.32 1361.53ZM1636.19 1330.54L1612.73 1340.3L1626.27 1363.94L1649.73 1354.18L1636.19 1330.54ZM1714.91 1299.28L1693.82 1308.06L1706.06 1329.43L1727.15 1320.65L1714.91 1299.28ZM1793.49 1268.08L1774.9 1275.81L1785.69 1294.64L1804.28 1286.91L1793.49 1268.08ZM1872.34 1236.77L1856.13 1243.51L1865.54 1259.94L1881.75 1253.2L1872.34 1236.77ZM2132.09 1131.19L2097.55 1145.56L2105.28 1159.05L2139.81 1144.69L2132.09 1131.19ZM1951.06 1205.51L1937.08 1211.32L1945.19 1225.48L1959.17 1219.67L1951.06 1205.51ZM2030.56 1173.92L2018.17 1179.08L2025.29 1191.5L2037.68 1186.35L2030.56 1173.92ZM1040.13 1587.52L1045.94 1597.67L1035.92 1601.83L1030.11 1591.69L1040.13 1587.52ZM1141.55 1478.94L1162.81 1516.06L1126.17 1531.3L1104.91 1494.18L1141.55 1478.94ZM1259.39 1428.51L1221.82 1444.14L1243.62 1482.2L1281.19 1466.57L1259.39 1428.51ZM1337.94 1397.81L1303.53 1412.13L1323.5 1446.98L1357.91 1432.67L1337.94 1397.81ZM1061.39 1515.09L1080.05 1547.67L1047.9 1561.05L1029.23 1528.47L1061.39 1515.09ZM1416.62 1367.07L1385.25 1380.12L1403.46 1411.9L1434.83 1398.85L1416.62 1367.07ZM1495.36 1336.13L1466.75 1348.03L1483.35 1377.01L1511.96 1365.11L1495.36 1336.13ZM1573.89 1305.12L1548.05 1315.86L1563.04 1342.04L1588.88 1331.29L1573.89 1305.12ZM1652.68 1273.99L1629.48 1283.64L1643.02 1307.28L1666.22 1297.63L1652.68 1273.99ZM1731.47 1242.87L1710.64 1251.53L1722.73 1272.64L1743.56 1263.97L1731.47 1242.87ZM1810.19 1211.61L1791.73 1219.29L1802.37 1237.85L1820.82 1230.17L1810.19 1211.61ZM1888.91 1180.35L1872.82 1187.04L1882.16 1203.34L1898.24 1196.65L1888.91 1180.35ZM1967.62 1149.09L1953.91 1154.8L1961.87 1168.69L1975.58 1162.99L1967.62 1149.09ZM2047.84 1117.05L2034.92 1122.42L2042.04 1134.85L2054.96 1129.47L2047.84 1117.05ZM1158.22 1422.15L1179.64 1459.53L1142.74 1474.89L1121.32 1437.5L1158.22 1422.15ZM1275.95 1372.09L1238.65 1387.61L1260.3 1425.4L1297.6 1409.88L1275.95 1372.09ZM1078.23 1457.74L1097.51 1491.39L1064.3 1505.2L1045.02 1471.55L1078.23 1457.74ZM1354.5 1341.4L1320.36 1355.6L1340.18 1390.19L1374.32 1375.99L1354.5 1341.4ZM1433.19 1310.65L1402.08 1323.59L1420.13 1355.11L1451.24 1342.17L1433.19 1310.65ZM1511.92 1279.72L1483.58 1291.51L1500.03 1320.22L1528.37 1308.43L1511.92 1279.72ZM1590.58 1248.65L1564.88 1259.34L1579.72 1285.25L1605.43 1274.56L1590.58 1248.65ZM1669.25 1217.58L1646.18 1227.17L1659.57 1250.55L1682.63 1240.95L1669.25 1217.58ZM1748.04 1186.45L1727.47 1195.01L1739.41 1215.84L1759.97 1207.29L1748.04 1186.45ZM1826.76 1155.19L1808.56 1162.76L1819.12 1181.2L1837.31 1173.63L1826.76 1155.19ZM1905.47 1123.94L1889.65 1130.52L1898.83 1146.55L1914.65 1139.97L1905.47 1123.94ZM2086.3 1050.7L2051.24 1065.28L2059.04 1078.91L2094.11 1064.32L2086.3 1050.7ZM1984.32 1092.62L1970.74 1098.27L1978.54 1111.9L1992.12 1106.25L1984.32 1092.62ZM993.987 1507.83L999.341 1517.18L990.115 1521.01L984.761 1511.67L993.987 1507.83ZM1174.9 1365.35L1196.47 1403.01L1159.3 1418.47L1137.73 1380.81L1174.9 1365.35ZM1292.52 1315.68L1255.48 1331.09L1276.97 1368.61L1314.01 1353.2L1292.52 1315.68ZM1094.91 1400.94L1114.34 1434.86L1080.86 1448.79L1061.43 1414.87L1094.91 1400.94ZM1371.07 1284.98L1337.19 1299.08L1356.85 1333.4L1390.73 1319.3L1371.07 1284.98ZM1449.75 1254.24L1418.91 1267.07L1436.81 1298.32L1467.65 1285.49L1449.75 1254.24ZM1014.76 1437.1L1031.58 1466.48L1002.59 1478.54L985.76 1449.16L1014.76 1437.1ZM1528.49 1223.3L1500.41 1234.98L1516.71 1263.43L1544.78 1251.75L1528.49 1223.3ZM1607.15 1192.23L1581.71 1202.82L1596.47 1228.59L1621.92 1218.01L1607.15 1192.23ZM1685.81 1161.16L1663 1170.65L1676.24 1193.75L1699.05 1184.27L1685.81 1161.16ZM1764.6 1130.04L1744.3 1138.48L1756.08 1159.05L1776.39 1150.61L1764.6 1130.04ZM1843.32 1098.78L1825.39 1106.24L1835.8 1124.4L1853.73 1116.94L1843.32 1098.78ZM1922.04 1067.52L1906.48 1073.99L1915.51 1089.75L1931.07 1083.28L1922.04 1067.52ZM2001.54 1035.94L1987.57 1041.75L1995.3 1055.24L2009.27 1049.43L2001.54 1035.94ZM1191.57 1308.56L1213.3 1346.48L1175.87 1362.05L1154.14 1324.13L1191.57 1308.56ZM1309.08 1259.26L1272.31 1274.56L1293.65 1311.82L1330.43 1296.52L1309.08 1259.26ZM1111.58 1344.15L1131.17 1378.33L1097.43 1392.37L1077.85 1358.19L1111.58 1344.15ZM1387.63 1228.57L1354.02 1242.55L1373.53 1276.61L1407.14 1262.62L1387.63 1228.57ZM1031.6 1379.74L1049.04 1410.19L1018.99 1422.69L1001.55 1392.24L1031.6 1379.74ZM1466.32 1197.82L1435.74 1210.54L1453.48 1241.53L1484.07 1228.8L1466.32 1197.82ZM1545.05 1166.89L1517.24 1178.46L1533.38 1206.64L1561.2 1195.06L1545.05 1166.89ZM1623.72 1135.82L1598.54 1146.29L1613.15 1171.8L1638.33 1161.32L1623.72 1135.82ZM1702.38 1104.75L1679.83 1114.13L1692.92 1136.96L1715.46 1127.58L1702.38 1104.75ZM1781.09 1073.49L1761.06 1081.82L1772.76 1102.26L1792.8 1093.92L1781.09 1073.49ZM1859.81 1042.23L1842.14 1049.58L1852.47 1067.61L1870.14 1060.26L1859.81 1042.23ZM1938.6 1011.11L1923.31 1017.47L1932.19 1032.96L1947.48 1026.6L1938.6 1011.11ZM2039.87 969.641L2004.01 984.556L2012.35 999.116L2048.21 984.201L2039.87 969.641ZM947.792 1428.33L952.535 1436.61L944.363 1440.01L939.621 1431.73L947.792 1428.33ZM1208.25 1251.77L1230.13 1289.96L1192.43 1305.64L1170.56 1267.45L1208.25 1251.77ZM1325.65 1202.85L1289.14 1218.04L1310.33 1255.03L1346.84 1239.84L1325.65 1202.85ZM1128.32 1287.17L1148.2 1321.89L1113.94 1336.14L1094.05 1301.43L1128.32 1287.17ZM1404.2 1172.15L1370.85 1186.03L1390.2 1219.81L1423.55 1205.94L1404.2 1172.15ZM1048.27 1322.95L1065.87 1353.66L1035.55 1366.27L1017.96 1335.56L1048.27 1322.95ZM1482.88 1141.41L1452.56 1154.02L1470.16 1184.74L1500.48 1172.12L1482.88 1141.41ZM1561.62 1110.47L1534.07 1121.93L1550.06 1149.84L1577.61 1138.38L1561.62 1110.47ZM968.118 1359.11L983.11 1385.28L957.278 1396.02L942.286 1369.85L968.118 1359.11ZM1640.28 1079.4L1615.37 1089.76L1629.83 1115.01L1654.74 1104.64L1640.28 1079.4ZM1719.07 1048.28L1696.66 1057.6L1709.59 1080.17L1732 1070.85L1719.07 1048.28ZM1797.79 1017.02L1777.75 1025.35L1789.31 1045.52L1809.34 1037.19L1797.79 1017.02ZM1876.37 985.816L1858.84 993.11L1869.02 1010.87L1886.55 1003.58L1876.37 985.816ZM1955.75 954.284L1940.06 960.811L1948.86 976.172L1964.55 969.646L1955.75 954.284ZM1342.21 1146.43L1305.97 1161.51L1327 1198.23L1363.25 1183.15L1342.21 1146.43ZM1144.99 1230.38L1165.03 1265.36L1130.5 1279.73L1110.46 1244.75L1144.99 1230.38ZM1420.77 1115.74L1387.68 1129.5L1406.88 1163.02L1439.97 1149.26L1420.77 1115.74ZM1065 1265.97L1082.9 1297.21L1052.06 1310.04L1034.16 1278.8L1065 1265.97ZM1499.45 1084.99L1469.39 1097.49L1486.84 1127.94L1516.89 1115.44L1499.45 1084.99ZM984.96 1301.75L1000.56 1328.99L973.677 1340.17L958.074 1312.93L984.96 1301.75ZM1578.11 1053.92L1550.82 1065.27L1566.74 1093.05L1594.02 1081.7L1578.11 1053.92ZM1656.85 1022.99L1632.2 1033.24L1646.5 1058.21L1671.15 1047.96L1656.85 1022.99ZM1735.64 991.861L1713.49 1001.07L1726.34 1023.51L1748.49 1014.3L1735.64 991.861ZM1814.36 960.604L1794.58 968.83L1806.06 988.864L1825.83 980.638L1814.36 960.604ZM1893.07 929.345L1875.67 936.585L1885.69 954.084L1903.1 946.844L1893.07 929.345ZM1993.68 888.155L1956.38 903.673L1965.79 920.102L2003.09 904.583L1993.68 888.155ZM901.653 1348.64L905.937 1356.12L898.556 1359.19L894.273 1351.71L901.653 1348.64ZM1161.67 1173.59L1181.86 1208.84L1147.07 1223.31L1126.87 1188.06L1161.67 1173.59ZM1358.78 1090.02L1322.79 1104.99L1343.68 1141.44L1379.66 1126.47L1358.78 1090.02ZM1437.33 1059.32L1404.51 1072.98L1423.56 1106.23L1456.38 1092.58L1437.33 1059.32ZM1081.68 1209.18L1099.73 1240.69L1068.63 1253.63L1050.58 1222.12L1081.68 1209.18ZM1516.15 1028.52L1486.22 1040.97L1503.51 1071.15L1533.43 1058.7L1516.15 1028.52ZM1001.64 1244.96L1017.39 1272.46L990.243 1283.76L974.486 1256.25L1001.64 1244.96ZM1594.67 997.506L1567.52 1008.8L1583.28 1036.31L1610.43 1025.02L1594.67 997.506ZM1673.41 966.57L1649.02 976.715L1663.18 1001.42L1687.57 991.279L1673.41 966.57ZM921.483 1281.11L934.638 1304.08L911.969 1313.51L898.813 1290.54L921.483 1281.11ZM1752.2 935.445L1730.32 944.549L1743.02 966.72L1764.9 957.617L1752.2 935.445ZM1830.92 904.188L1811.41 912.304L1822.73 932.073L1842.24 923.957L1830.92 904.188ZM1910.3 872.656L1892.5 880.06L1902.45 897.424L1920.24 890.02L1910.3 872.656ZM1178.34 1116.8L1198.69 1152.31L1163.63 1166.9L1143.29 1131.38L1178.34 1116.8ZM1375.35 1033.6L1339.62 1048.46L1360.35 1084.65L1396.08 1069.79L1375.35 1033.6ZM1098.36 1152.39L1116.56 1184.17L1085.19 1197.21L1066.99 1165.43L1098.36 1152.39ZM1453.97 1003.04L1421.41 1016.59L1440.23 1049.44L1472.79 1035.89L1453.97 1003.04ZM1532.71 972.105L1503.05 984.443L1520.26 1014.49L1549.92 1002.15L1532.71 972.105ZM1018.31 1188.16L1034.22 1215.94L1006.81 1227.34L990.899 1199.57L1018.31 1188.16ZM1611.24 941.09L1584.35 952.277L1599.96 979.523L1626.85 968.336L1611.24 941.09ZM938.268 1223.94L951.883 1247.71L928.424 1257.47L914.809 1233.7L938.268 1223.94ZM1689.98 910.155L1665.85 920.19L1679.85 944.63L1703.98 934.595L1689.98 910.155ZM1768.77 879.03L1747.15 888.024L1759.7 909.928L1781.32 900.934L1768.77 879.03ZM1847.41 847.639L1828.16 855.646L1839.41 875.279L1858.66 867.272L1847.41 847.639ZM1947.57 806.801L1908.95 822.867L1919.5 841.299L1958.13 825.233L1947.57 806.801ZM855.459 1269.14L859.13 1275.55L852.805 1278.18L849.134 1271.77L855.459 1269.14ZM1195.08 1059.82L1215.73 1095.87L1180.14 1110.67L1159.49 1074.62L1195.08 1059.82ZM1391.86 977.374L1356.53 992.069L1377.03 1027.86L1412.36 1013.16L1391.86 977.374ZM1115.09 1095.41L1133.6 1127.72L1101.7 1140.99L1083.19 1108.67L1115.09 1095.41ZM1470.54 946.627L1438.37 960.006L1457.04 992.591L1489.2 979.211L1470.54 946.627ZM1549.28 915.69L1519.88 927.919L1536.94 957.7L1566.34 945.472L1549.28 915.69ZM1035.04 1131.18L1051.26 1159.49L1023.32 1171.11L1007.1 1142.81L1035.04 1131.18ZM1627.81 884.674L1601.18 895.752L1616.63 922.729L1643.26 911.652L1627.81 884.674ZM955.001 1166.96L968.921 1191.26L944.934 1201.24L931.014 1176.94L955.001 1166.96ZM1706.54 853.74L1682.68 863.665L1696.53 887.839L1720.39 877.913L1706.54 853.74ZM1785.39 822.427L1763.9 831.366L1776.37 853.136L1797.86 844.197L1785.39 822.427ZM874.846 1203.12L886.166 1222.88L866.661 1230.99L855.34 1211.23L874.846 1203.12ZM1864.63 790.95L1844.86 799.176L1855.95 818.543L1875.73 810.316L1864.63 790.95ZM1211.75 1003.02L1232.56 1039.34L1196.71 1054.26L1175.9 1017.94L1211.75 1003.02ZM1408.42 920.959L1373.49 935.49L1393.76 970.879L1428.69 956.347L1408.42 920.959ZM1131.76 1038.61L1150.43 1071.19L1118.27 1084.57L1099.61 1051.99L1131.76 1038.61ZM1487.1 890.21L1455.2 903.48L1473.72 935.799L1505.62 922.529L1487.1 890.21ZM1051.72 1074.39L1068.09 1102.97L1039.88 1114.7L1023.52 1086.12L1051.72 1074.39ZM1565.84 859.275L1536.71 871.394L1553.62 900.908L1582.75 888.789L1565.84 859.275ZM1644.37 828.26L1618.01 839.227L1633.31 865.938L1659.67 854.97L1644.37 828.26ZM971.675 1110.17L985.75 1134.74L961.5 1144.83L947.426 1120.26L971.675 1110.17ZM1723.24 797.27L1699.51 807.141L1713.21 831.047L1736.93 821.176L1723.24 797.27ZM1801.96 766.012L1780.6 774.896L1792.99 796.532L1814.35 787.648L1801.96 766.012ZM891.632 1145.95L903.411 1166.51L883.115 1174.96L871.336 1154.39L891.632 1145.95ZM809.266 1189.64L812.325 1194.98L807.054 1197.17L803.994 1191.83L809.266 1189.64ZM1346.44 895.235L1308.47 911.027L1330.43 949.356L1368.39 933.564L1346.44 895.235ZM1228.43 946.231L1249.39 982.818L1213.27 997.84L1192.32 961.254L1228.43 946.231ZM1424.99 864.543L1390.32 878.965L1410.44 914.087L1445.11 899.665L1424.99 864.543ZM1148.44 981.822L1167.26 1014.67L1134.83 1028.16L1116.02 995.309L1148.44 981.822ZM1503.67 833.795L1472.03 846.955L1490.39 879.008L1522.03 865.847L1503.67 833.795ZM1068.4 1017.6L1084.92 1046.44L1056.45 1058.28L1039.93 1029.44L1068.4 1017.6ZM1582.41 802.86L1553.54 814.869L1570.29 844.115L1599.16 832.106L1582.41 802.86ZM1660.94 771.844L1634.83 782.703L1649.98 809.147L1676.08 798.288L1660.94 771.844ZM988.352 1053.38L1002.58 1078.21L978.065 1088.41L963.838 1063.58L988.352 1053.38ZM1739.73 740.72L1716.26 750.482L1729.96 774.388L1753.42 764.627L1739.73 740.72ZM908.309 1089.16L920.241 1109.99L899.681 1118.54L887.749 1097.71L908.309 1089.16ZM1819.05 709.377L1797.43 718.371L1809.67 739.74L1831.29 730.747L1819.05 709.377ZM828.265 1124.93L837.902 1141.76L821.296 1148.67L811.659 1131.84L828.265 1124.93ZM1245.1 889.44L1266.22 926.293L1229.84 941.425L1208.73 904.572L1245.1 889.44ZM1363 838.82L1325.43 854.448L1347.24 892.509L1384.8 876.881L1363 838.82ZM1441.55 808.127L1407.15 822.439L1427.12 857.295L1461.52 842.983L1441.55 808.127ZM1165.17 924.841L1184.29 958.224L1151.34 971.93L1132.22 938.548L1165.17 924.841ZM1520.23 777.38L1488.86 790.43L1507.07 822.216L1538.44 809.165L1520.23 777.38ZM1085.13 960.62L1101.95 989.996L1072.96 1002.06L1056.13 972.682L1085.13 960.62ZM1598.97 746.445L1570.37 758.345L1586.97 787.324L1615.57 775.425L1598.97 746.445ZM1005.08 996.398L1019.62 1021.77L994.575 1032.18L980.042 1006.81L1005.08 996.398ZM1677.63 715.374L1651.66 726.178L1666.66 752.355L1692.63 741.552L1677.63 715.374ZM1756.29 684.305L1732.96 694.012L1746.5 717.652L1769.84 707.945L1756.29 684.305ZM925.039 1032.18L937.278 1053.54L916.191 1062.31L903.952 1040.95L925.039 1032.18ZM1875.22 638.06L1886.39 657.554L1867.15 665.559L1855.98 646.065L1875.22 638.06ZM844.995 1067.95L854.939 1085.31L837.805 1092.44L827.861 1075.08L844.995 1067.95ZM763.126 1109.95L765.728 1114.49L761.247 1116.35L758.645 1111.81L763.126 1109.95ZM1261.84 832.46L1283.25 869.846L1246.35 885.198L1224.93 847.811L1261.84 832.46ZM1379.57 782.406L1342.26 797.924L1363.91 835.716L1401.22 820.198L1379.57 782.406ZM1181.85 868.05L1201.12 901.699L1167.91 915.515L1148.63 881.866L1181.85 868.05ZM1458.12 751.711L1423.98 765.914L1443.79 800.504L1477.93 786.301L1458.12 751.711ZM1536.8 720.964L1505.69 733.905L1523.75 765.423L1554.85 752.482L1536.8 720.964ZM1101.8 903.827L1118.78 933.47L1089.53 945.641L1072.55 915.999L1101.8 903.827ZM1615.46 689.895L1587.12 701.685L1603.65 730.532L1631.99 718.743L1615.46 689.895ZM1021.76 939.606L1036.45 965.243L1011.14 975.77L996.455 950.133L1021.76 939.606ZM1694.2 658.96L1668.49 669.653L1683.41 695.696L1709.12 685.003L1694.2 658.96ZM1773.39 627.672L1749.79 637.488L1763.18 660.859L1786.77 651.043L1773.39 627.672ZM941.716 975.384L954.107 997.015L932.756 1005.9L920.365 984.266L941.716 975.384ZM861.727 1010.98L871.976 1028.87L854.317 1036.21L844.067 1018.32L861.727 1010.98ZM781.629 1046.94L789.43 1060.56L775.987 1066.15L768.186 1052.53L781.629 1046.94ZM1278.51 775.667L1300.08 813.321L1262.91 828.783L1241.35 791.128L1278.51 775.667ZM1396.13 725.99L1359.09 741.399L1380.59 778.924L1417.63 763.515L1396.13 725.99ZM1198.52 811.257L1217.95 845.172L1184.47 859.098L1165.05 825.183L1198.52 811.257ZM1474.68 695.297L1440.81 709.389L1460.47 743.71L1494.34 729.618L1474.68 695.297ZM1553.42 664.362L1522.44 677.248L1540.42 708.632L1571.4 695.746L1553.42 664.362ZM1118.48 847.036L1135.61 876.945L1106.09 889.226L1088.96 859.317L1118.48 847.036ZM1632.03 633.48L1603.82 645.215L1620.19 673.796L1648.4 662.061L1632.03 633.48ZM1038.43 882.814L1053.27 908.718L1027.71 919.354L1012.87 893.45L1038.43 882.814ZM1710.76 602.544L1685.32 613.128L1700.09 638.904L1725.53 628.321L1710.76 602.544ZM958.391 918.592L970.936 940.49L949.321 949.482L936.777 927.584L958.391 918.592ZM1829.08 558.37L1839.79 577.064L1821.34 584.74L1810.63 566.046L1829.08 558.37ZM878.403 954.182L888.805 972.341L870.881 979.797L860.479 961.638L878.403 954.182ZM798.415 989.772L806.676 1004.19L792.442 1010.11L784.181 995.693L798.415 989.772ZM716.932 1030.45L718.921 1033.92L715.495 1035.34L713.506 1031.87L716.932 1030.45ZM1295.19 718.876L1316.91 756.797L1279.48 772.368L1257.76 734.447L1295.19 718.876ZM1412.7 669.575L1375.92 684.873L1397.27 722.132L1434.04 706.833L1412.7 669.575ZM1215.2 754.465L1234.78 788.647L1201.04 802.683L1181.46 768.501L1215.2 754.465ZM1491.38 638.828L1457.64 652.865L1477.14 686.919L1510.89 672.881L1491.38 638.828ZM1135.21 790.055L1152.65 820.499L1122.6 832.999L1105.16 802.556L1135.21 790.055ZM1570.06 608.079L1539.22 620.911L1557.04 652.029L1587.89 639.197L1570.06 608.079ZM1648.59 577.065L1620.65 588.69L1636.87 617.003L1664.81 605.378L1648.59 577.065ZM1055.17 825.834L1070.31 852.272L1044.22 863.128L1029.07 836.69L1055.17 825.834ZM1727.86 545.91L1702.15 556.603L1716.76 582.112L1742.47 571.418L1727.86 545.91ZM975.123 861.612L987.973 884.044L965.831 893.255L952.981 870.822L975.123 861.612ZM895.079 897.39L905.634 915.816L887.447 923.382L876.891 904.956L895.079 897.39ZM815.091 932.981L823.504 947.668L809.007 953.699L800.594 939.011L815.091 932.981ZM735.102 968.57L741.375 979.519L730.567 984.015L724.295 973.066L735.102 968.57ZM1311.86 662.084L1333.74 700.273L1296.05 715.953L1274.17 677.764L1311.86 662.084ZM1429.26 613.159L1392.75 628.348L1413.94 665.34L1450.45 650.151L1429.26 613.159ZM1231.87 697.674L1251.61 732.124L1217.61 746.269L1197.87 711.819L1231.87 697.674ZM1507.81 582.467L1474.46 596.34L1493.9 630.261L1527.24 616.388L1507.81 582.467ZM1151.89 733.263L1169.48 763.974L1139.17 776.584L1121.57 745.873L1151.89 733.263ZM1586.63 551.664L1556.18 564.331L1573.85 595.182L1604.3 582.515L1586.63 551.664ZM1665.16 520.65L1637.47 532.166L1653.54 560.21L1681.22 548.695L1665.16 520.65ZM1071.84 769.042L1087.14 795.746L1060.78 806.712L1045.48 780.007L1071.84 769.042ZM991.8 804.82L1004.8 827.519L982.398 836.84L969.394 814.141L991.8 804.82ZM911.755 840.598L922.464 859.292L904.012 866.967L893.303 848.274L911.755 840.598ZM1782.95 478.681L1793.19 496.573L1775.53 503.92L1765.29 486.028L1782.95 478.681ZM831.767 876.188L840.334 891.143L825.573 897.284L817.006 882.329L831.767 876.188ZM751.833 911.59L758.411 923.073L747.077 927.788L740.499 916.305L751.833 911.59ZM670.794 950.758L672.324 953.428L669.687 954.525L668.158 951.855L670.794 950.758ZM1328.54 605.292L1350.57 643.747L1312.61 659.537L1290.58 621.082L1328.54 605.292ZM1445.83 556.744L1409.58 571.823L1430.62 608.549L1466.87 593.469L1445.83 556.744ZM1248.61 640.694L1268.65 675.678L1234.12 690.042L1214.08 655.059L1248.61 640.694ZM1524.38 526.051L1491.29 539.815L1510.5 573.335L1543.58 559.572L1524.38 526.051ZM1168.56 676.472L1186.31 707.45L1155.73 720.169L1137.99 689.191L1168.56 676.472ZM1603.19 495.249L1573.01 507.806L1590.53 538.389L1620.71 525.831L1603.19 495.249ZM1088.57 712.061L1104.18 739.3L1077.29 750.485L1061.69 723.246L1088.57 712.061ZM1682.25 464.015L1654.3 475.641L1670.22 503.42L1698.16 491.794L1682.25 464.015ZM1008.47 748.028L1021.63 770.995L998.963 780.425L985.807 757.458L1008.47 748.028ZM928.486 783.617L939.501 802.845L920.522 810.741L909.507 791.512L928.486 783.617ZM848.442 819.396L857.162 834.618L842.137 840.868L833.418 825.646L848.442 819.396ZM768.51 854.798L775.24 866.548L763.643 871.372L756.912 859.623L768.51 854.798ZM688.632 890.011L693.527 898.556L685.092 902.065L680.197 893.52L688.632 890.011ZM1265.28 583.9L1285.48 619.152L1250.68 633.626L1230.49 598.375L1265.28 583.9ZM1462.39 500.329L1426.41 515.299L1447.29 551.757L1483.28 536.787L1462.39 500.329ZM1540.94 469.636L1508.12 483.29L1527.17 516.543L1559.99 502.889L1540.94 469.636ZM1185.29 619.491L1203.35 651.003L1172.24 663.943L1154.19 632.43L1185.29 619.491ZM1619.68 438.701L1589.76 451.148L1607.2 481.597L1637.13 469.15L1619.68 438.701ZM1105.25 655.268L1121.01 682.775L1093.86 694.07L1078.1 666.563L1105.25 655.268ZM1025.21 691.048L1038.67 714.549L1015.47 724.198L1002.01 700.698L1025.21 691.048ZM945.162 726.826L956.33 746.321L937.087 754.326L925.92 734.831L945.162 726.826ZM1736.81 398.991L1746.6 416.083L1729.73 423.101L1719.94 406.009L1736.81 398.991ZM865.174 762.415L874.2 778.171L858.648 784.641L849.622 768.885L865.174 762.415ZM785.186 798.006L792.07 810.023L780.208 814.957L773.324 802.94L785.186 798.006ZM705.363 833.03L710.564 842.11L701.602 845.838L696.401 836.759L705.363 833.03ZM624.711 870.88L625.935 873.016L623.826 873.894L622.602 871.757L624.711 870.88ZM1281.96 527.109L1302.3 562.627L1267.25 577.211L1246.9 541.693L1281.96 527.109ZM1478.96 443.913L1443.24 458.774L1463.97 494.965L1499.69 480.104L1478.96 443.913ZM1201.97 562.699L1220.17 594.478L1188.81 607.527L1170.6 575.748L1201.97 562.699ZM1557.64 413.165L1524.95 426.764L1543.85 459.751L1576.54 446.152L1557.64 413.165ZM1636.85 382.199L1606.53 394.812L1623.75 424.86L1654.06 412.248L1636.85 382.199ZM1121.93 598.478L1137.84 626.251L1110.42 637.655L1094.51 609.882L1121.93 598.478ZM1041.88 634.256L1055.5 658.023L1032.04 667.782L1018.42 644.015L1041.88 634.256ZM961.839 670.034L973.159 689.796L953.654 697.91L942.333 678.149L961.839 670.034ZM881.851 705.624L891.029 721.647L875.214 728.226L866.035 712.203L881.851 705.624ZM801.862 741.214L808.898 753.498L796.774 758.542L789.737 746.258L801.862 741.214ZM722.038 776.238L727.393 785.586L718.168 789.423L712.813 780.076L722.038 776.238ZM642.162 811.452L645.68 817.594L639.618 820.116L636.099 813.974L642.162 811.452ZM1298.63 470.318L1319.13 506.103L1283.81 520.796L1263.31 485.011L1298.63 470.318ZM1495.53 387.498L1460.07 402.249L1480.64 438.173L1516.1 423.422L1495.53 387.498ZM1218.65 505.908L1237 537.954L1205.37 551.112L1187.01 519.066L1218.65 505.908ZM1574.08 356.806L1541.78 370.24L1560.6 403.094L1592.9 389.659L1574.08 356.806ZM1138.6 541.685L1154.66 569.725L1126.99 581.239L1110.93 553.198L1138.6 541.685ZM1058.56 577.463L1072.33 601.498L1048.6 611.367L1034.84 587.332L1058.56 577.463ZM978.57 613.054L990.197 633.35L970.164 641.683L958.537 621.387L978.57 613.054ZM898.526 648.832L907.858 665.122L891.779 671.811L882.447 655.52L898.526 648.832ZM1690.67 319.302L1700 335.592L1683.92 342.281L1674.59 325.991L1690.67 319.302ZM818.593 684.234L825.936 697.052L813.284 702.316L805.941 689.497L818.593 684.234ZM738.715 719.445L744.223 729.06L734.733 733.007L729.226 723.393L738.715 719.445ZM658.893 754.471L662.718 761.148L656.128 763.889L652.303 757.213L658.893 754.471ZM578.627 791.003L579.545 792.605L577.964 793.263L577.046 791.661L578.627 791.003ZM1315.37 413.337L1336.17 449.656L1300.32 464.569L1279.52 428.25L1315.37 413.337ZM1512.09 331.083L1476.9 345.724L1497.32 381.38L1532.52 366.738L1512.09 331.083ZM1235.38 448.927L1254.04 481.507L1221.88 494.885L1203.22 462.305L1235.38 448.927ZM1591.3 300.116L1558.61 313.715L1577.2 346.167L1609.89 332.568L1591.3 300.116ZM1155.33 484.705L1171.7 513.279L1143.5 525.012L1127.13 496.438L1155.33 484.705ZM1075.29 520.484L1089.36 545.052L1065.11 555.14L1051.04 530.572L1075.29 520.484ZM995.246 556.263L1007.03 576.825L986.729 585.269L974.95 564.706L995.246 556.263ZM915.202 592.039L924.687 608.596L908.344 615.395L898.859 598.838L915.202 592.039ZM835.268 627.442L842.764 640.527L829.848 645.9L822.353 632.814L835.268 627.442ZM755.391 662.654L761.051 672.535L751.299 676.592L745.638 666.711L755.391 662.654ZM675.568 697.679L679.546 704.622L672.693 707.473L668.715 700.53L675.568 697.679ZM595.856 732.328L598.457 736.868L593.976 738.732L591.375 734.192L595.856 732.328ZM1450.1 305.36L1412.01 321.207L1434.12 359.802L1472.21 343.955L1450.1 305.36ZM1332.04 356.545L1353 393.131L1316.89 408.154L1295.93 371.568L1332.04 356.545ZM1528.66 274.668L1493.72 289.199L1514 324.588L1548.93 310.057L1528.66 274.668ZM1252.05 392.135L1270.87 424.982L1238.45 438.47L1219.63 405.623L1252.05 392.135ZM1172.01 427.913L1188.53 456.754L1160.06 468.597L1143.54 439.755L1172.01 427.913ZM1091.97 463.692L1106.19 488.528L1081.68 498.725L1067.45 473.889L1091.97 463.692ZM1011.92 499.47L1023.85 520.3L1003.29 528.853L991.362 508.023L1011.92 499.47ZM931.934 535.059L941.725 552.151L924.855 559.169L915.064 542.077L931.934 535.059ZM1644.53 239.614L1653.4 255.103L1638.11 261.463L1629.24 245.974L1644.53 239.614ZM851.945 570.649L859.594 584.002L846.415 589.484L838.766 576.131L851.945 570.649ZM772.067 605.863L777.88 616.011L767.864 620.177L762.051 610.03L772.067 605.863ZM692.245 640.887L696.375 648.097L689.258 651.058L685.127 643.847L692.245 640.887ZM612.532 675.535L615.286 680.343L610.542 682.317L607.788 677.509L612.532 675.535ZM532.544 711.126L533.156 712.193L532.102 712.632L531.49 711.564L532.544 711.126ZM1466.75 249.08L1428.92 264.817L1450.8 303.011L1488.63 287.273L1466.75 249.08ZM1348.72 299.753L1369.83 336.606L1333.45 351.738L1312.34 314.885L1348.72 299.753ZM1545.69 218.222L1510.63 232.809L1530.67 267.798L1565.74 253.211L1545.69 218.222ZM1268.73 335.343L1287.7 368.457L1255.01 382.055L1236.04 348.94L1268.73 335.343ZM1188.69 371.122L1205.36 400.23L1176.63 412.182L1159.95 383.074L1188.69 371.122ZM1108.64 406.899L1123.02 432.001L1098.24 442.309L1083.86 417.206L1108.64 406.899ZM1028.65 442.489L1040.89 463.853L1019.8 472.625L1007.57 451.262L1028.65 442.489ZM948.609 478.267L958.553 495.626L941.419 502.753L931.476 485.395L948.609 478.267ZM868.621 513.857L876.423 527.477L862.98 533.069L855.178 519.45L868.621 513.857ZM788.743 549.07L794.709 559.486L784.429 563.762L778.463 553.347L788.743 549.07ZM708.92 584.095L713.204 591.573L705.823 594.643L701.54 587.166L708.92 584.095ZM629.209 618.743L632.115 623.817L627.107 625.901L624.2 620.826L629.209 618.743ZM549.606 653.014L551.442 656.22L548.279 657.535L546.443 654.33L549.606 653.014ZM1365.39 242.961L1386.66 280.081L1350.02 295.323L1328.76 258.203L1365.39 242.961ZM1483.18 192.718L1445.88 208.236L1467.6 246.164L1504.91 230.646L1483.18 192.718ZM1285.46 278.363L1304.74 312.012L1271.52 325.828L1252.25 292.179L1285.46 278.363ZM1205.42 314.141L1222.4 343.784L1193.14 355.955L1176.16 326.312L1205.42 314.141ZM1125.37 349.919L1140.06 375.556L1114.75 386.082L1100.07 360.445L1125.37 349.919ZM1045.33 385.697L1057.72 407.328L1036.37 416.21L1023.98 394.579L1045.33 385.697ZM965.285 421.476L975.381 439.101L957.985 446.338L947.888 428.713L965.285 421.476ZM1598.45 159.735L1607.01 174.69L1592.25 180.831L1583.69 165.876L1598.45 159.735ZM885.297 457.065L893.252 470.951L879.545 476.653L871.59 462.767L885.297 457.065ZM805.419 492.279L811.538 502.961L800.995 507.347L794.876 496.665L805.419 492.279ZM725.54 527.491L729.824 534.969L722.443 538.039L718.16 530.562L725.54 527.491ZM645.829 562.14L648.736 567.214L643.727 569.298L640.821 564.223L645.829 562.14ZM566.228 596.412L568.064 599.616L564.901 600.932L563.065 597.728L566.228 596.412ZM486.516 631.059L486.975 631.86L486.184 632.189L485.726 631.388L486.516 631.059ZM1382.13 185.98L1403.7 223.635L1366.53 239.096L1344.96 201.442L1382.13 185.98ZM1500.27 136.083L1462.71 151.712L1484.2 189.238L1521.77 173.61L1500.27 136.083ZM1302.14 221.571L1321.57 255.487L1288.09 269.413L1268.66 235.497L1302.14 221.571ZM1222.09 257.349L1239.23 287.259L1209.7 299.54L1192.57 269.63L1222.09 257.349ZM1142.05 293.127L1156.89 319.031L1131.32 329.667L1116.48 303.763L1142.05 293.127ZM1062.01 328.906L1074.55 350.804L1052.94 359.795L1040.39 337.897L1062.01 328.906ZM982.016 364.495L992.419 382.655L974.495 390.111L964.092 371.952L982.016 364.495ZM901.973 400.274L910.081 414.427L896.111 420.238L888.004 406.085L901.973 400.274ZM822.095 435.486L828.367 446.435L817.56 450.931L811.288 439.981L822.095 435.486ZM742.217 470.7L746.653 478.444L739.009 481.624L734.573 473.88L742.217 470.7ZM662.506 505.348L665.565 510.689L660.294 512.882L657.234 507.541L662.506 505.348ZM582.904 539.619L584.893 543.09L581.466 544.516L579.477 541.045L582.904 539.619ZM503.413 573.513L504.637 575.65L502.528 576.527L501.304 574.391L503.413 573.513ZM1398.8 129.189L1420.52 167.11L1383.09 182.681L1361.37 144.76L1398.8 129.189ZM1318.81 164.779L1338.39 198.961L1304.65 212.996L1285.07 178.814L1318.81 164.779ZM1238.82 200.369L1256.26 230.813L1226.21 243.313L1208.78 212.87L1238.82 200.369ZM1158.78 236.147L1173.93 262.585L1147.83 273.44L1132.68 247.002L1158.78 236.147ZM1078.68 272.112L1091.38 294.278L1069.5 303.38L1056.8 281.214L1078.68 272.112ZM998.693 307.704L1009.25 326.13L991.061 333.696L980.506 315.27L998.693 307.704ZM918.705 343.293L927.118 357.98L912.621 364.011L904.208 349.324L918.705 343.293ZM1552.31 80.0461L1560.42 94.2L1546.44 100.012L1538.34 85.8578L1552.31 80.0461ZM838.771 378.694L845.197 389.911L834.126 394.516L827.7 383.3L838.771 378.694ZM758.892 413.908L763.482 421.92L755.575 425.209L750.985 417.197L758.892 413.908ZM679.181 448.555L682.394 454.163L676.858 456.466L673.646 450.858L679.181 448.555ZM599.581 482.827L601.722 486.566L598.032 488.101L595.89 484.362L599.581 482.827ZM520.034 516.91L521.258 519.046L519.149 519.924L517.926 517.787L520.034 516.91ZM440.488 550.994L440.793 551.528L440.267 551.747L439.961 551.213L440.488 550.994ZM1415.48 72.3971L1437.35 110.585L1399.66 126.265L1377.78 88.0773L1415.48 72.3971ZM1335.49 107.987L1355.22 142.436L1321.22 156.582L1301.49 122.132L1335.49 107.987ZM1255.5 143.577L1273.09 174.288L1242.78 186.898L1225.19 156.187L1255.5 143.577ZM1175.46 179.355L1190.75 206.06L1164.4 217.025L1149.1 190.321L1175.46 179.355ZM1095.41 215.133L1108.42 237.832L1086.01 247.153L1073.01 224.453L1095.41 215.133ZM1015.37 250.911L1026.08 269.605L1007.63 277.281L996.918 258.587L1015.37 250.911ZM935.381 286.501L943.948 301.456L929.186 307.596L920.62 292.641L935.381 286.501ZM855.447 321.903L862.025 333.386L850.691 338.101L844.113 326.618L855.447 321.903ZM775.569 357.116L780.311 365.395L772.14 368.794L767.398 360.515L775.569 357.116ZM695.803 391.953L699.015 397.56L693.48 399.863L690.268 394.255L695.803 391.953ZM616.201 426.224L618.343 429.962L614.653 431.498L612.511 427.759L616.201 426.224ZM536.71 460.119L538.087 462.522L535.715 463.509L534.338 461.105L536.71 460.119ZM457.275 493.824L458.04 495.16L456.722 495.708L455.957 494.372L457.275 493.824ZM1432.15 15.6046L1454.18 54.0601L1416.22 69.8502L1394.2 31.3947L1432.15 15.6046ZM1352.22 51.0067L1372.26 85.9902L1337.73 100.355L1317.69 65.3712L1352.22 51.0067ZM1272.18 86.7851L1289.92 117.763L1259.35 130.483L1241.6 99.5049L1272.18 86.7851ZM1192.13 122.563L1207.58 149.535L1180.96 160.61L1165.51 133.638L1192.13 122.563ZM1112.09 158.34L1125.25 181.307L1102.58 190.738L1089.42 167.771L1112.09 158.34ZM1032.05 194.12L1042.91 213.081L1024.19 220.866L1013.33 201.905L1032.05 194.12ZM952.057 229.709L960.776 244.931L945.752 251.181L937.032 235.96L952.057 229.709ZM1506.17 0.356859L1513.82 13.7097L1500.64 19.1926L1492.99 5.83969L1506.17 0.356859ZM872.123 265.112L878.854 276.862L867.256 281.686L860.526 269.936L872.123 265.112ZM792.245 300.324L797.141 308.87L788.706 312.379L783.811 303.832L792.245 300.324ZM712.478 335.161L715.843 341.036L710.045 343.448L706.68 337.573L712.478 335.161ZM632.877 369.433L635.171 373.438L631.218 375.083L628.923 371.077L632.877 369.433ZM553.331 403.514L554.708 405.918L552.335 406.906L550.958 404.501L553.331 403.514ZM473.895 437.221L474.66 438.557L473.342 439.105L472.577 437.769L473.895 437.221ZM1448.66 -40.6213L1470.39 -2.7001L1432.96 12.8706L1411.23 -25.0506L1448.66 -40.6213ZM1368.9 -5.78579L1389.09 29.4654L1354.3 43.9397L1334.1 8.68859L1368.9 -5.78579ZM1288.91 29.8049L1306.96 61.3172L1275.86 74.256L1257.8 42.7436L1288.91 29.8049ZM1208.86 65.5819L1224.62 93.0888L1197.47 104.383L1181.71 76.8764L1208.86 65.5819ZM1128.82 101.361L1142.28 124.861L1119.09 134.511L1105.62 111.01L1128.82 101.361ZM1048.78 137.139L1059.94 156.634L1040.7 164.639L1029.53 145.144L1048.78 137.139ZM968.732 172.918L977.605 188.407L962.317 194.766L953.445 179.278L968.732 172.918ZM888.799 208.318L895.683 220.336L883.821 225.27L876.937 213.253L888.799 208.318ZM808.922 243.532L813.971 252.345L805.272 255.964L800.223 247.151L808.922 243.532ZM729.154 278.368L732.672 284.51L726.61 287.032L723.092 280.89L729.154 278.368ZM649.497 312.829L651.791 316.834L647.838 318.479L645.543 314.473L649.497 312.829ZM569.952 346.911L571.328 349.314L568.956 350.301L567.58 347.898L569.952 346.911ZM490.515 380.617L491.28 381.952L489.962 382.501L489.197 381.165L490.515 380.617ZM411.191 413.947L411.65 414.748L410.859 415.077L410.4 414.276L411.191 413.947ZM1385.57 -62.5779L1405.92 -27.0601L1370.86 -12.4762L1350.51 -47.994L1385.57 -62.5779ZM1305.58 -26.9876L1323.79 4.79144L1292.42 17.8401L1274.22 -13.939L1305.58 -26.9876ZM1225.54 8.7907L1241.45 36.5633L1214.04 47.9674L1198.13 20.1947L1225.54 8.7907ZM1145.5 44.5698L1159.11 68.337L1135.65 78.0959L1122.04 54.3288L1145.5 44.5698ZM1065.45 80.3459L1076.77 100.109L1057.27 108.223L1045.95 88.4602L1065.45 80.3459ZM985.464 115.938L994.642 131.96L978.827 138.54L969.649 122.517L985.464 115.938ZM1459.97 -79.1435L1467.01 -66.8593L1454.89 -61.8153L1447.85 -74.0995L1459.97 -79.1435ZM905.475 151.527L912.512 163.811L900.387 168.855L893.35 156.571L905.475 151.527ZM825.597 186.74L830.799 195.82L821.837 199.548L816.635 190.468L825.597 186.74ZM745.83 221.577L749.501 227.985L743.175 230.617L739.504 224.208L745.83 221.577ZM666.173 256.036L668.621 260.309L664.403 262.064L661.955 257.791L666.173 256.036ZM586.628 290.12L588.157 292.79L585.522 293.886L583.992 291.216L586.628 290.12ZM507.192 323.825L508.11 325.428L506.529 326.085L505.611 324.483L507.192 323.825ZM427.813 357.344L428.272 358.145L427.481 358.474L427.022 357.673L427.813 357.344ZM1402.14 -118.993L1422.33 -83.7422L1387.54 -69.2678L1367.34 -104.519L1402.14 -118.993ZM1322.26 -83.7788L1340.62 -51.733L1308.99 -38.5749L1290.63 -70.6207L1322.26 -83.7788ZM1242.22 -48.0014L1258.28 -19.9611L1230.6 -8.44757L1214.54 -36.4879L1242.22 -48.0014ZM1162.17 -12.224L1175.94 11.8108L1152.22 21.6796L1138.45 -2.35518L1162.17 -12.224ZM1082.13 23.5557L1093.6 43.5841L1073.83 51.8079L1062.36 31.7795L1082.13 23.5557ZM1002.14 59.145L1011.47 75.4356L995.392 82.1246L986.061 65.834L1002.14 59.145ZM922.152 94.7343L929.342 107.286L916.953 112.44L909.763 99.8881L922.152 94.7343ZM842.274 129.948L847.628 139.295L838.402 143.133L833.048 133.786L842.274 129.948ZM762.506 164.784L766.331 171.461L759.741 174.202L755.916 167.526L762.506 164.784ZM682.795 199.433L685.243 203.706L681.025 205.46L678.577 201.187L682.795 199.433ZM603.248 233.515L604.778 236.186L602.142 237.282L600.612 234.611L603.248 233.515ZM523.813 267.222L524.731 268.825L523.149 269.482L522.231 267.88L523.813 267.222ZM444.433 300.74L444.892 301.541L444.101 301.87L443.642 301.069L444.433 300.74ZM365.164 333.882L365.469 334.415L364.942 334.635L364.636 334.101L365.164 333.882ZM1337.72 -136.427L1352.86 -109.989L1326.77 -99.1337L1311.62 -125.572L1337.72 -136.427ZM1257.79 -101.026L1270.94 -78.0593L1248.27 -68.6293L1235.12 -91.5963L1257.79 -101.026ZM1177.91 -65.8133L1189.23 -46.0516L1169.72 -37.9373L1158.4 -57.699L1177.91 -65.8133ZM1098.03 -30.6002L1107.51 -14.0429L1091.17 -7.24438L1081.69 -23.8017L1098.03 -30.6002ZM1018.15 4.61255L1025.8 17.9654L1012.62 23.4482L1004.97 10.0953L1018.15 4.61255ZM938.33 39.6375L944.296 50.0527L934.016 54.3292L928.05 43.914L938.33 39.6375ZM1413.5 -157.703L1419.16 -147.822L1409.41 -143.765L1403.75 -153.645L1413.5 -157.703ZM858.618 74.2862L863.207 82.2972L855.298 85.5869L850.709 77.576L858.618 74.2862ZM778.905 108.935L782.118 114.543L776.583 116.845L773.37 111.237L778.905 108.935ZM699.305 143.206L701.447 146.944L697.756 148.48L695.614 144.741L699.305 143.206ZM619.813 177.1L621.19 179.504L618.818 180.491L617.441 178.086L619.813 177.1ZM540.379 210.806L541.144 212.142L539.825 212.69L539.06 211.354L540.379 210.806ZM461.054 244.136L461.513 244.937L460.721 245.267L460.263 244.466L461.054 244.136ZM1349.36 -176.08L1350.74 -173.677L1348.37 -172.69L1346.99 -175.093L1349.36 -176.08ZM1270.09 -142.938L1271.32 -140.801L1269.21 -139.924L1267.98 -142.06L1270.09 -142.938ZM1190.82 -109.797L1191.89 -107.928L1190.05 -107.161L1188.98 -109.029L1190.82 -109.797ZM1111.55 -76.6567L1112.47 -75.0536L1110.89 -74.3957L1109.97 -75.9988L1111.55 -76.6567ZM1032.28 -43.5146L1033.05 -42.1791L1031.73 -41.6308L1030.97 -42.9663L1032.28 -43.5146ZM953.015 -10.3726L953.627 -9.30474L952.573 -8.86631L951.961 -9.93414L953.015 -10.3726ZM873.745 22.7676L874.204 23.5687L873.412 23.898L872.954 23.0969L873.745 22.7676ZM794.476 55.9097L794.782 56.4431L794.255 56.6622L793.95 56.1287L794.476 55.9097Z" fill="#A2ABC8" fill-opacity="0.1"/>
</g>
</svg>
