<svg width="1440" height="502" viewBox="0 0 1440 502" fill="none" xmlns="http://www.w3.org/2000/svg">
<mask id="mask0" mask-type="alpha" maskUnits="userSpaceOnUse" x="0" y="0" width="1440" height="502">
<rect width="1440" height="502" fill="#C4C4C4"/>
</mask>
<g mask="url(#mask0)">
<path fill-rule="evenodd" clip-rule="evenodd" d="M2221.42 1347.49L2224.63 1353.1L2219.1 1355.4L2215.89 1349.8L2221.42 1347.49ZM2142.32 1380.45L2145.53 1386.05L2140 1388.36L2136.79 1382.75L2142.32 1380.45ZM2063.21 1413.4L2066.42 1419.01L2060.89 1421.31L2057.69 1415.7L2063.21 1413.4ZM1904.95 1479.49L1908.01 1484.83L1902.74 1487.03L1899.69 1481.68L1904.95 1479.49ZM1984 1446.73L1986.9 1451.8L1981.9 1453.88L1979 1448.81L1984 1446.73ZM1825.73 1512.82L1828.48 1517.63L1823.75 1519.6L1821 1514.8L1825.73 1512.82ZM1746.63 1545.78L1749.38 1550.58L1744.64 1552.55L1741.89 1547.75L1746.63 1545.78ZM1667.53 1578.73L1670.28 1583.53L1665.54 1585.51L1662.79 1580.7L1667.53 1578.73ZM1588.37 1611.87L1590.96 1616.41L1586.49 1618.27L1583.89 1613.73L1588.37 1611.87ZM1509.21 1645.01L1511.65 1649.28L1507.44 1651.04L1505 1646.76L1509.21 1645.01ZM1430.05 1678.15L1432.34 1682.16L1428.39 1683.8L1426.1 1679.8L1430.05 1678.15ZM1350.89 1711.29L1353.03 1715.03L1349.34 1716.57L1347.2 1712.83L1350.89 1711.29ZM1271.73 1744.43L1273.71 1747.9L1270.29 1749.33L1268.31 1745.86L1271.73 1744.43ZM1192.57 1777.58L1194.4 1780.78L1191.24 1782.1L1189.41 1778.89L1192.57 1777.58ZM1494.17 38.5603L1517.54 79.4191L1478.25 95.7856L1500.1 133.979L1540.58 117.12L1565.32 160.382L1526.16 176.695L1546.56 212.351L1587.04 195.491L1613.31 241.423L1574.02 257.79L1593.04 291.043L1633.39 274.238L1660.89 322.308L1621.86 338.565L1639.58 369.548L1679.79 352.798L1708.67 403.27L1669.51 419.582L1685.86 448.161L1726.2 431.356L1756.45 484.232L1717.29 500.544L1732.34 526.854L1772.55 510.104L1804.02 565.116L1764.86 581.427L1778.69 605.601L1818.9 588.851L1851.59 646L1812.43 662.311L1825.12 684.482L1865.2 667.787L1898.96 726.806L1859.8 743.117L1871.41 763.418L1911.17 746.858L1899.9 727.161L1919.64 718.937L1931.1 738.966L1911.68 747.054L1946.06 807.146L1965.6 799.003L1977.21 819.299L1958.59 827.058L1992.66 886.615L2011.68 878.691L2023.75 899.788L2005.78 907.274L2039.39 966.031L2057.75 958.381L2070.28 980.28L2052.71 987.6L2086.09 1045.96L2103.66 1038.64L2116.19 1060.53L2098.75 1067.8L2131.98 1125.89L2149.68 1118.51L2162.51 1140.95L2144.81 1148.32L2178.04 1206.41L2195.48 1199.14L2208.01 1221.04L2190.56 1228.31L2224.63 1287.87L2240.89 1281.09L2252.04 1300.59L2232.83 1308.59L2223.39 1292.1L2181.67 1309.48L2201.64 1344.4L2146.1 1367.54L2126.51 1333.29L2102.81 1343.16L2122.33 1377.28L2067.05 1400.3L2047.54 1366.19L2023.58 1376.17L2043.02 1410.15L1988.01 1433.07L1968.18 1398.41L1943.43 1408.72L1962.88 1442.71L1909.18 1465.08L1889.05 1429.89L1862.59 1440.91L1882.11 1475.03L1830.51 1496.52L1810.31 1461.21L1781.88 1473.05L1801.55 1507.44L1751.8 1528.16L1731.44 1492.57L1701.16 1505.18L1720.99 1539.84L1673.08 1559.79L1652.57 1523.94L1620.58 1537.26L1640.63 1572.32L1594.31 1591.62L1573.49 1555.23L1539.4 1569.43L1559.45 1604.48L1515.75 1622.69L1494.94 1586.3L1458.61 1601.43L1478.89 1636.89L1437.04 1654.32L1415.91 1617.4L1377.35 1633.47L1397.7 1669.05L1358.48 1685.39L1337.29 1648.33L1296.09 1665.5L1316.52 1701.22L1279.93 1716.46L1258.7 1679.34L1293.91 1664.67L1270.91 1624.48L1235.5 1639.23L1258.38 1679.22L1216.27 1696.76L1192.39 1655.04L1154.42 1670.85L1131.81 1631.33L1170.77 1615.1L1192.81 1653.63L1231.24 1637.61L1209.01 1598.75L1170.91 1614.63L1147.99 1574.57L1187.41 1558.15L1164.38 1517.89L1203.8 1501.46L1180.77 1461.2L1220.19 1444.78L1197.16 1404.52L1236.58 1388.1L1213.55 1347.84L1252.97 1331.42L1229.94 1291.16L1269.36 1274.74L1246.37 1234.54L1208.26 1250.41L1186.11 1211.69L1224.28 1195.79L1246.39 1234.45L1285.75 1218.05L1262.91 1178.12L1224.81 1194L1202.5 1155.01L1240.93 1139L1263.05 1177.66L1302.14 1161.37L1279.45 1121.71L1241.35 1137.58L1218.89 1098.33L1257.59 1082.21L1279.7 1120.87L1318.53 1104.69L1296 1065.29L1257.89 1081.17L1235.28 1041.64L1274.24 1025.41L1296.35 1064.07L1334.92 1048.01L1312.54 1008.88L1274.43 1024.75L1251.67 984.961L1290.89 968.622L1313.01 1007.28L1351.18 991.38L1328.95 952.518L1290.98 968.336L1268.06 928.278L1307.35 911.911L1284.24 871.517L1323.66 855.095L1300.63 814.835L1340.05 798.413L1317.02 758.153L1356.44 741.731L1333.41 701.471L1372.83 685.049L1349.8 644.788L1389.22 628.366L1366.38 588.437L1328.28 604.311L1305.97 565.321L1344.4 549.311L1366.52 587.969L1405.61 571.684L1382.92 532.02L1344.82 547.895L1322.36 508.638L1361.06 492.519L1383.17 531.178L1422 515.002L1399.47 475.606L1361.36 491.48L1338.75 451.956L1377.71 435.728L1399.82 474.386L1438.39 458.32L1416.01 419.191L1377.9 435.065L1355.14 395.274L1394.36 378.936L1416.47 417.594L1454.78 401.637L1432.55 362.776L1394.45 378.649L1371.53 338.592L1410.95 322.169L1387.92 281.909L1427.21 265.542L1404.1 225.149L1443.52 208.727L1420.49 168.466L1459.91 152.043L1436.88 111.783L1476.7 95.1974L1453.9 55.3372L1494.17 38.5603ZM1215.63 1698.93L1235.34 1733.38L1201.38 1747.53L1181.67 1713.08L1215.63 1698.93ZM1131.61 1748.65L1137.72 1759.33L1127.19 1763.72L1121.08 1753.04L1131.61 1748.65ZM1349.49 1593.73L1317.1 1607.22L1338.42 1644.48L1370.8 1630.99L1349.49 1593.73ZM1153.95 1672.46L1175.95 1710.91L1138.04 1726.7L1116.05 1688.25L1153.95 1672.46ZM1427.98 1562.85L1398.49 1575.13L1418.2 1609.59L1447.69 1597.3L1427.98 1562.85ZM1506.53 1531.78L1479.81 1542.91L1498.22 1575.09L1524.95 1563.96L1506.53 1531.78ZM1585.16 1500.84L1561.07 1510.88L1577.88 1540.26L1601.97 1530.22L1585.16 1500.84ZM1663.85 1469.72L1642.26 1478.71L1657.84 1505.95L1679.43 1496.96L1663.85 1469.72ZM1742.45 1438.46L1723.23 1446.47L1737.6 1471.57L1756.82 1463.57L1742.45 1438.46ZM1821.06 1407.2L1804.21 1414.22L1817.35 1437.19L1834.2 1430.17L1821.06 1407.2ZM1899.67 1375.94L1885.19 1381.98L1897.03 1402.68L1911.51 1396.64L1899.67 1375.94ZM1978.8 1344.47L1966.16 1349.73L1976.93 1368.56L1989.57 1363.3L1978.8 1344.47ZM2058.21 1312.05L2046.23 1317.04L2056.62 1335.2L2068.6 1330.21L2058.21 1312.05ZM2137.97 1278.82L2125.33 1284.09L2135.65 1302.12L2148.29 1296.85L2137.97 1278.82ZM1287.45 1568.06L1252.31 1582.7L1272.71 1618.36L1307.85 1603.72L1287.45 1568.06ZM1366.03 1537.31L1333.91 1550.69L1352.55 1583.28L1384.67 1569.9L1366.03 1537.31ZM1444.66 1506.38L1415.3 1518.61L1432.26 1548.25L1461.62 1536.03L1444.66 1506.38ZM1523.08 1475.36L1496.48 1486.44L1511.92 1513.42L1538.51 1502.34L1523.08 1475.36ZM1601.7 1444.43L1577.88 1454.35L1591.71 1478.53L1615.53 1468.6L1601.7 1444.43ZM1680.39 1413.3L1659.06 1422.19L1671.44 1443.82L1692.77 1434.94L1680.39 1413.3ZM1758.92 1381.91L1739.96 1389.81L1751.04 1409.18L1770 1401.28L1758.92 1381.91ZM1837.6 1350.79L1821.01 1357.7L1830.64 1374.53L1847.23 1367.62L1837.6 1350.79ZM2176.3 1212.34L2141.55 1226.82L2149.27 1240.31L2184.02 1225.83L2176.3 1212.34ZM1916.21 1319.53L1901.99 1325.45L1910.24 1339.88L1924.46 1333.95L1916.21 1319.53ZM1995.4 1287.86L1982.89 1293.07L1990.15 1305.77L2002.66 1300.55L1995.4 1287.86ZM2074.81 1255.44L2062.83 1260.44L2069.78 1272.59L2081.76 1267.6L2074.81 1255.44ZM1085.76 1668.21L1092.02 1679.16L1081.23 1683.65L1074.96 1672.7L1085.76 1668.21ZM1225.56 1542.34L1187.51 1558.18L1209.59 1596.78L1247.63 1580.93L1225.56 1542.34ZM1107.43 1594.28L1127.75 1629.79L1092.74 1644.38L1072.43 1608.86L1107.43 1594.28ZM1304 1511.65L1269.11 1526.18L1289.36 1561.57L1324.24 1547.03L1304 1511.65ZM1382.57 1480.9L1350.71 1494.17L1369.2 1526.49L1401.06 1513.22L1382.57 1480.9ZM1461.2 1449.96L1432.11 1462.08L1448.99 1491.6L1478.08 1479.48L1461.2 1449.96ZM1539.62 1418.95L1513.29 1429.91L1528.57 1456.62L1554.9 1445.66L1539.62 1418.95ZM1618.25 1388.01L1594.68 1397.83L1608.36 1421.73L1631.92 1411.92L1618.25 1388.01ZM1696.99 1356.7L1675.79 1365.53L1688.09 1387.03L1709.29 1378.2L1696.99 1356.7ZM1775.46 1325.5L1756.64 1333.34L1767.56 1352.44L1786.39 1344.6L1775.46 1325.5ZM1854.14 1294.37L1837.82 1301.17L1847.29 1317.73L1863.62 1310.93L1854.14 1294.37ZM1932.81 1262.93L1918.72 1268.79L1926.9 1283.09L1940.98 1277.22L1932.81 1262.93ZM2012.07 1231.39L1999.56 1236.6L2006.75 1249.16L2019.25 1243.95L2012.07 1231.39ZM2092.07 1198.57L2079.42 1203.83L2086.38 1215.99L2099.02 1210.72L2092.07 1198.57ZM1242.1 1485.92L1204.32 1501.66L1226.24 1539.99L1264.02 1524.25L1242.1 1485.92ZM1124.25 1536.92L1145.18 1573.5L1109.12 1588.53L1088.19 1551.94L1124.25 1536.92ZM1320.54 1455.23L1285.92 1469.65L1306.01 1504.77L1340.63 1490.35L1320.54 1455.23ZM1399.11 1424.48L1367.52 1437.64L1385.86 1469.69L1417.45 1456.53L1399.11 1424.48ZM1477.74 1393.55L1448.91 1405.56L1465.64 1434.8L1494.47 1422.79L1477.74 1393.55ZM1556.16 1362.53L1530.09 1373.39L1545.22 1399.83L1571.29 1388.97L1556.16 1362.53ZM1634.92 1331.54L1611.49 1341.3L1625.01 1364.94L1648.44 1355.18L1634.92 1331.54ZM1713.53 1300.28L1692.47 1309.06L1704.69 1330.43L1725.75 1321.65L1713.53 1300.28ZM1792 1269.08L1773.44 1276.81L1784.21 1295.65L1802.78 1287.91L1792 1269.08ZM1870.74 1237.77L1854.55 1244.51L1863.95 1260.94L1880.14 1254.2L1870.74 1237.77ZM2130.13 1132.19L2095.64 1146.56L2103.36 1160.05L2137.84 1145.69L2130.13 1132.19ZM1949.35 1206.51L1935.39 1212.32L1943.49 1226.48L1957.45 1220.67L1949.35 1206.51ZM2028.75 1174.92L2016.37 1180.08L2023.48 1192.5L2035.85 1187.35L2028.75 1174.92ZM1039.68 1588.52L1045.49 1598.67L1035.48 1602.83L1029.68 1592.69L1039.68 1588.52ZM1140.96 1479.94L1162.2 1517.06L1125.61 1532.3L1104.37 1495.18L1140.96 1479.94ZM1258.64 1429.51L1221.12 1445.14L1242.9 1483.2L1280.41 1467.57L1258.64 1429.51ZM1337.08 1398.81L1302.73 1413.13L1322.66 1447.98L1357.02 1433.67L1337.08 1398.81ZM1060.92 1516.09L1079.55 1548.67L1047.44 1562.05L1028.8 1529.47L1060.92 1516.09ZM1415.65 1368.07L1384.33 1381.12L1402.51 1412.9L1433.84 1399.85L1415.65 1368.07ZM1494.28 1337.13L1465.72 1349.03L1482.3 1378.01L1510.86 1366.11L1494.28 1337.13ZM1572.7 1306.12L1546.9 1316.86L1561.88 1343.04L1587.68 1332.29L1572.7 1306.12ZM1651.39 1274.99L1628.22 1284.64L1641.74 1308.28L1664.91 1298.63L1651.39 1274.99ZM1730.07 1243.87L1709.27 1252.53L1721.34 1273.64L1742.14 1264.97L1730.07 1243.87ZM1808.68 1212.61L1790.25 1220.29L1800.87 1238.85L1819.3 1231.17L1808.68 1212.61ZM1887.28 1181.35L1871.22 1188.04L1880.54 1204.34L1896.61 1197.65L1887.28 1181.35ZM1965.89 1150.09L1952.2 1155.8L1960.15 1169.69L1973.84 1163.99L1965.89 1150.09ZM2046 1118.05L2033.1 1123.42L2040.21 1135.85L2053.11 1130.47L2046 1118.05ZM1157.61 1423.15L1179 1460.53L1142.15 1475.89L1120.76 1438.5L1157.61 1423.15ZM1275.18 1373.09L1237.93 1388.61L1259.55 1426.4L1296.8 1410.88L1275.18 1373.09ZM1077.74 1458.74L1096.98 1492.39L1063.82 1506.2L1044.57 1472.55L1077.74 1458.74ZM1353.62 1342.4L1319.53 1356.6L1339.32 1391.19L1373.41 1376.99L1353.62 1342.4ZM1432.2 1311.65L1401.13 1324.59L1419.16 1356.11L1450.23 1343.17L1432.2 1311.65ZM1510.83 1280.72L1482.52 1292.51L1498.95 1321.22L1527.25 1309.43L1510.83 1280.72ZM1589.38 1249.65L1563.71 1260.34L1578.53 1286.25L1604.2 1275.56L1589.38 1249.65ZM1667.93 1218.58L1644.89 1228.17L1658.26 1251.55L1681.3 1241.95L1667.93 1218.58ZM1746.61 1187.45L1726.08 1196.01L1737.99 1216.84L1758.53 1208.29L1746.61 1187.45ZM1825.22 1156.19L1807.05 1163.76L1817.6 1182.2L1835.76 1174.63L1825.22 1156.19ZM1903.83 1124.94L1888.03 1131.52L1897.2 1147.55L1913 1140.97L1903.83 1124.94ZM2084.41 1051.7L2049.39 1066.28L2057.19 1079.91L2092.2 1065.32L2084.41 1051.7ZM1982.57 1093.62L1969.01 1099.27L1976.8 1112.9L1990.36 1107.25L1982.57 1093.62ZM993.607 1508.83L998.954 1518.18L989.74 1522.01L984.394 1512.67L993.607 1508.83ZM1174.27 1366.35L1195.81 1404.01L1158.69 1419.47L1137.15 1381.81L1174.27 1366.35ZM1291.72 1316.68L1254.74 1332.09L1276.2 1369.61L1313.19 1354.2L1291.72 1316.68ZM1094.39 1401.94L1113.79 1435.86L1080.36 1449.79L1060.96 1415.87L1094.39 1401.94ZM1370.17 1285.98L1336.34 1300.08L1355.97 1334.4L1389.8 1320.3L1370.17 1285.98ZM1448.74 1255.24L1417.94 1268.07L1435.81 1299.32L1466.62 1286.49L1448.74 1255.24ZM1014.35 1438.1L1031.15 1467.48L1002.2 1479.54L985.391 1450.16L1014.35 1438.1ZM1527.37 1224.3L1499.33 1235.98L1515.6 1264.43L1543.64 1252.75L1527.37 1224.3ZM1605.92 1193.23L1580.51 1203.82L1595.26 1229.59L1620.66 1219.01L1605.92 1193.23ZM1684.47 1162.16L1661.7 1171.65L1674.91 1194.75L1697.69 1185.27L1684.47 1162.16ZM1763.16 1131.04L1742.88 1139.48L1754.65 1160.05L1774.92 1151.61L1763.16 1131.04ZM1841.76 1099.78L1823.86 1107.24L1834.25 1125.4L1852.15 1117.94L1841.76 1099.78ZM1920.37 1068.52L1904.83 1074.99L1913.85 1090.76L1929.39 1084.28L1920.37 1068.52ZM1999.77 1036.94L1985.81 1042.75L1993.53 1056.24L2007.48 1050.43L1999.77 1036.94ZM1190.92 1309.56L1212.61 1347.48L1175.23 1363.05L1153.54 1325.13L1190.92 1309.56ZM1308.27 1260.26L1271.54 1275.56L1292.86 1312.82L1329.58 1297.52L1308.27 1260.26ZM1111.04 1345.15L1130.6 1379.33L1096.9 1393.37L1077.35 1359.19L1111.04 1345.15ZM1386.71 1229.57L1353.14 1243.55L1372.62 1277.61L1406.19 1263.62L1386.71 1229.57ZM1031.16 1380.74L1048.58 1411.19L1018.57 1423.69L1001.16 1393.24L1031.16 1380.74ZM1465.28 1198.82L1434.74 1211.54L1452.47 1242.53L1483.01 1229.8L1465.28 1198.82ZM1543.91 1167.89L1516.14 1179.46L1532.25 1207.64L1560.03 1196.07L1543.91 1167.89ZM1622.46 1136.82L1597.32 1147.29L1611.91 1172.8L1637.05 1162.32L1622.46 1136.82ZM1701.01 1105.75L1678.5 1115.13L1691.57 1137.96L1714.08 1128.58L1701.01 1105.75ZM1779.62 1074.49L1759.61 1082.82L1771.3 1103.26L1791.31 1094.92L1779.62 1074.49ZM1858.23 1043.23L1840.59 1050.58L1850.9 1068.61L1868.54 1061.26L1858.23 1043.23ZM1936.91 1012.11L1921.64 1018.47L1930.5 1033.96L1945.78 1027.6L1936.91 1012.11ZM2038.04 970.641L2002.23 985.556L2010.56 1000.12L2046.37 985.201L2038.04 970.641ZM947.476 1429.33L952.212 1437.61L944.052 1441.01L939.316 1432.73L947.476 1429.33ZM1207.57 1252.77L1229.42 1290.96L1191.78 1306.64L1169.93 1268.45L1207.57 1252.77ZM1324.81 1203.85L1288.35 1219.04L1309.51 1256.03L1345.97 1240.84L1324.81 1203.85ZM1127.75 1288.17L1147.61 1322.89L1113.39 1337.14L1093.53 1302.43L1127.75 1288.17ZM1403.25 1173.15L1369.95 1187.03L1389.27 1220.81L1422.58 1206.94L1403.25 1173.15ZM1047.82 1323.95L1065.39 1354.66L1035.11 1367.27L1017.55 1336.56L1047.82 1323.95ZM1481.82 1142.41L1451.55 1155.02L1469.12 1185.74L1499.4 1173.12L1481.82 1142.41ZM1560.45 1111.47L1532.94 1122.93L1548.91 1150.84L1576.42 1139.38L1560.45 1111.47ZM967.773 1360.11L982.745 1386.28L956.949 1397.02L941.978 1370.85L967.773 1360.11ZM1639 1080.4L1614.13 1090.76L1628.56 1116.01L1653.44 1105.64L1639 1080.4ZM1717.69 1049.28L1695.31 1058.6L1708.22 1081.17L1730.6 1071.85L1717.69 1049.28ZM1796.3 1018.02L1776.29 1026.35L1787.82 1046.52L1807.83 1038.19L1796.3 1018.02ZM1874.77 986.816L1857.26 994.11L1867.42 1011.88L1884.93 1004.58L1874.77 986.816ZM1954.04 955.284L1938.37 961.811L1947.16 977.172L1962.82 970.646L1954.04 955.284ZM1341.35 1147.43L1305.15 1162.51L1326.16 1199.23L1362.36 1184.16L1341.35 1147.43ZM1144.4 1231.38L1164.41 1266.36L1129.93 1280.73L1109.92 1245.75L1144.4 1231.38ZM1419.79 1116.74L1386.75 1130.5L1405.93 1164.02L1438.97 1150.26L1419.79 1116.74ZM1064.53 1266.97L1082.4 1298.21L1051.6 1311.04L1033.73 1279.8L1064.53 1266.97ZM1498.37 1085.99L1468.35 1098.49L1485.77 1128.94L1515.79 1116.44L1498.37 1085.99ZM984.592 1302.75L1000.17 1329.99L973.325 1341.17L957.743 1313.93L984.592 1302.75ZM1576.92 1054.92L1549.67 1066.27L1565.56 1094.05L1592.81 1082.7L1576.92 1054.92ZM1655.55 1023.99L1630.93 1034.24L1645.22 1059.21L1669.83 1048.96L1655.55 1023.99ZM1734.23 992.861L1712.11 1002.07L1724.95 1024.51L1747.07 1015.3L1734.23 992.861ZM1812.84 961.604L1793.09 969.83L1804.55 989.864L1824.3 981.638L1812.84 961.604ZM1891.45 930.345L1874.07 937.585L1884.08 955.084L1901.46 947.844L1891.45 930.345ZM1991.91 889.155L1954.66 904.673L1964.06 921.102L2001.31 905.583L1991.91 889.155ZM901.401 1349.64L905.679 1357.12L898.308 1360.19L894.031 1352.71L901.401 1349.64ZM1161.06 1174.59L1181.22 1209.84L1146.48 1224.31L1126.31 1189.06L1161.06 1174.59ZM1357.89 1091.02L1321.96 1105.99L1342.81 1142.44L1378.75 1127.47L1357.89 1091.02ZM1436.34 1060.32L1403.56 1073.98L1422.58 1107.23L1455.36 1093.58L1436.34 1060.32ZM1081.18 1210.18L1099.2 1241.69L1068.14 1254.63L1050.12 1223.12L1081.18 1210.18ZM1515.04 1029.52L1485.16 1041.97L1502.42 1072.15L1532.31 1059.7L1515.04 1029.52ZM1001.25 1245.96L1016.98 1273.46L989.868 1284.76L974.133 1257.25L1001.25 1245.96ZM1593.46 998.506L1566.34 1009.8L1582.08 1037.31L1609.2 1026.02L1593.46 998.506ZM1672.09 967.57L1647.74 977.715L1661.87 1002.42L1686.22 992.279L1672.09 967.57ZM921.203 1282.11L934.341 1305.08L911.703 1314.51L898.565 1291.54L921.203 1282.11ZM1750.77 936.445L1728.92 945.549L1741.6 967.72L1763.46 958.617L1750.77 936.445ZM1829.38 905.188L1809.9 913.304L1821.21 933.073L1840.69 924.956L1829.38 905.188ZM1908.65 873.656L1890.87 881.06L1900.81 898.424L1918.58 891.02L1908.65 873.656ZM1177.71 1117.8L1198.03 1153.31L1163.02 1167.9L1142.7 1132.38L1177.71 1117.8ZM1374.44 1034.6L1338.76 1049.46L1359.47 1085.65L1395.14 1070.79L1374.44 1034.6ZM1097.83 1153.39L1116.01 1185.17L1084.69 1198.21L1066.51 1166.43L1097.83 1153.39ZM1452.95 1004.04L1420.44 1017.59L1439.23 1050.44L1471.75 1036.89L1452.95 1004.04ZM1531.58 973.105L1501.96 985.444L1519.15 1015.49L1548.77 1003.15L1531.58 973.105ZM1017.9 1189.16L1033.79 1216.94L1006.41 1228.34L990.523 1200.57L1017.9 1189.16ZM1610 942.09L1583.15 953.277L1598.74 980.523L1625.59 969.336L1610 942.09ZM937.965 1224.94L951.561 1248.71L928.135 1258.47L914.538 1234.7L937.965 1224.94ZM1688.63 911.155L1664.54 921.19L1678.52 945.63L1702.61 935.595L1688.63 911.155ZM1767.31 880.03L1745.72 889.024L1758.25 910.928L1779.84 901.934L1767.31 880.03ZM1845.85 848.639L1826.63 856.646L1837.86 876.279L1857.08 868.272L1845.85 848.639ZM1945.86 807.801L1907.3 823.867L1917.84 842.299L1956.41 826.233L1945.86 807.801ZM855.271 1270.14L858.937 1276.55L852.62 1279.18L848.954 1272.77L855.271 1270.14ZM1194.42 1060.82L1215.04 1096.87L1179.5 1111.67L1158.88 1075.62L1194.42 1060.82ZM1390.92 978.374L1355.65 993.069L1376.12 1028.86L1411.4 1014.16L1390.92 978.374ZM1114.54 1096.41L1133.02 1128.72L1101.17 1141.99L1082.69 1109.67L1114.54 1096.41ZM1469.5 947.627L1437.38 961.006L1456.02 993.591L1488.14 980.211L1469.5 947.627ZM1548.13 916.69L1518.77 928.919L1535.81 958.7L1565.16 946.472L1548.13 916.69ZM1034.61 1132.18L1050.8 1160.49L1022.9 1172.11L1006.7 1143.81L1034.61 1132.18ZM1626.55 885.674L1599.95 896.752L1615.39 923.729L1641.98 912.652L1626.55 885.674ZM954.675 1167.96L968.576 1192.26L944.622 1202.24L930.721 1177.94L954.675 1167.96ZM1705.17 854.74L1681.35 864.665L1695.18 888.839L1719 878.913L1705.17 854.74ZM1783.91 823.427L1762.46 832.366L1774.91 854.136L1796.37 845.197L1783.91 823.427ZM874.631 1204.12L885.936 1223.88L866.457 1231.99L855.152 1212.23L874.631 1204.12ZM1863.05 791.95L1843.3 800.176L1854.38 819.543L1874.13 811.316L1863.05 791.95ZM1211.07 1004.02L1231.85 1040.34L1196.05 1055.26L1175.27 1018.94L1211.07 1004.02ZM1407.47 921.959L1372.58 936.49L1392.83 971.879L1427.71 957.347L1407.47 921.959ZM1131.19 1039.61L1149.83 1072.19L1117.72 1085.57L1099.08 1052.99L1131.19 1039.61ZM1486.04 891.21L1454.18 904.48L1472.67 936.799L1504.53 923.529L1486.04 891.21ZM1051.26 1075.39L1067.61 1103.97L1039.44 1115.7L1023.09 1087.12L1051.26 1075.39ZM1564.67 860.275L1535.58 872.394L1552.46 901.908L1581.55 889.789L1564.67 860.275ZM1643.09 829.26L1616.76 840.227L1632.04 866.938L1658.37 855.97L1643.09 829.26ZM971.326 1111.17L985.381 1135.74L961.165 1145.83L947.11 1121.26L971.326 1111.17ZM1721.85 798.27L1698.15 808.141L1711.83 832.047L1735.52 822.176L1721.85 798.27ZM1800.46 767.012L1779.13 775.896L1791.51 797.532L1812.83 788.648L1800.46 767.012ZM891.394 1146.95L903.157 1167.51L882.888 1175.96L871.126 1155.39L891.394 1146.95ZM809.142 1190.64L812.197 1195.98L806.933 1198.17L803.878 1192.83L809.142 1190.64ZM1345.57 896.235L1307.66 912.027L1329.58 950.356L1367.49 934.564L1345.57 896.235ZM1227.72 947.231L1248.65 983.818L1212.59 998.84L1191.66 962.254L1227.72 947.231ZM1424.01 865.543L1389.39 879.965L1409.48 915.087L1444.1 900.665L1424.01 865.543ZM1147.84 982.822L1166.63 1015.67L1134.26 1029.16L1115.47 996.309L1147.84 982.822ZM1502.58 834.795L1470.99 847.955L1489.32 880.007L1520.92 866.847L1502.58 834.795ZM1067.91 1018.6L1084.41 1047.44L1055.98 1059.28L1039.48 1030.44L1067.91 1018.6ZM1581.21 803.86L1552.38 815.869L1569.11 845.115L1597.94 833.106L1581.21 803.86ZM1659.63 772.844L1633.57 783.703L1648.69 810.147L1674.76 799.289L1659.63 772.844ZM987.98 1054.38L1002.19 1079.21L977.707 1089.41L963.5 1064.58L987.98 1054.38ZM1738.31 741.72L1714.88 751.482L1728.56 775.388L1751.99 765.627L1738.31 741.72ZM908.047 1090.16L919.963 1110.99L899.432 1119.54L887.516 1098.71L908.047 1090.16ZM1817.52 710.377L1795.93 719.371L1808.16 740.74L1829.75 731.747L1817.52 710.377ZM828.115 1125.93L837.739 1142.76L821.156 1149.67L811.532 1132.84L828.115 1125.93ZM1244.38 890.44L1265.46 927.293L1229.13 942.425L1208.05 905.572L1244.38 890.44ZM1362.11 839.82L1324.59 855.448L1346.37 893.51L1383.88 877.881L1362.11 839.82ZM1440.55 809.127L1406.2 823.439L1426.13 858.295L1460.49 843.983L1440.55 809.127ZM1164.55 925.841L1183.65 959.224L1150.75 972.93L1131.65 939.548L1164.55 925.841ZM1519.12 778.38L1487.8 791.43L1505.98 823.216L1537.31 810.165L1519.12 778.38ZM1084.62 961.62L1101.43 990.996L1072.47 1003.06L1055.67 973.682L1084.62 961.62ZM1597.75 747.445L1569.19 759.345L1585.77 788.324L1614.33 776.425L1597.75 747.445ZM1004.69 997.398L1019.2 1022.77L994.194 1033.18L979.681 1007.81L1004.69 997.398ZM1676.3 716.374L1650.37 727.178L1665.35 753.355L1691.28 742.552L1676.3 716.374ZM1754.86 685.305L1731.56 695.012L1745.08 718.652L1768.38 708.945L1754.86 685.305ZM924.755 1033.18L936.976 1054.54L915.918 1063.31L903.697 1041.95L924.755 1033.18ZM1873.62 639.06L1884.77 658.554L1865.56 666.559L1854.41 647.064L1873.62 639.06ZM844.821 1068.95L854.752 1086.31L837.642 1093.44L827.712 1076.08L844.821 1068.95ZM763.067 1110.95L765.664 1115.49L761.189 1117.35L758.592 1112.81L763.067 1110.95ZM1261.08 833.46L1282.47 870.846L1245.62 886.198L1224.23 848.811L1261.08 833.46ZM1378.65 783.406L1341.4 798.924L1363.02 836.716L1400.27 821.198L1378.65 783.406ZM1181.21 869.05L1200.46 902.699L1167.29 916.515L1148.04 882.866L1181.21 869.05ZM1457.09 752.711L1423 766.914L1442.79 801.504L1476.88 787.301L1457.09 752.711ZM1535.67 721.964L1504.6 734.905L1522.63 766.423L1553.7 753.482L1535.67 721.964ZM1101.27 904.827L1118.23 934.47L1089.01 946.641L1072.06 916.999L1101.27 904.827ZM1614.22 690.895L1585.92 702.685L1602.42 731.532L1630.72 719.743L1614.22 690.895ZM1021.34 940.606L1036.01 966.243L1010.74 976.77L996.071 951.133L1021.34 940.606ZM1692.85 659.96L1667.18 670.653L1682.08 696.696L1707.75 686.003L1692.85 659.96ZM1771.93 628.672L1748.36 638.488L1761.73 661.859L1785.3 652.043L1771.93 628.672ZM941.409 976.384L953.782 998.015L932.461 1006.9L920.087 985.266L941.409 976.384ZM861.531 1011.98L871.766 1029.87L854.13 1037.21L843.895 1019.32L861.531 1011.98ZM781.543 1047.94L789.334 1061.56L775.909 1067.15L768.119 1053.53L781.543 1047.94ZM1277.74 776.667L1299.28 814.321L1262.16 829.783L1240.62 792.128L1277.74 776.667ZM1395.2 726.99L1358.21 742.399L1379.67 779.924L1416.66 764.515L1395.2 726.99ZM1197.86 812.257L1217.26 846.172L1183.83 860.098L1164.43 826.183L1197.86 812.257ZM1473.64 696.297L1439.81 710.389L1459.44 744.71L1493.27 730.618L1473.64 696.297ZM1552.26 665.362L1521.33 678.248L1539.28 709.632L1570.22 696.746L1552.26 665.362ZM1117.93 848.036L1135.04 877.945L1105.56 890.226L1088.45 860.317L1117.93 848.036ZM1630.76 634.48L1602.59 646.215L1618.94 674.796L1647.11 663.061L1630.76 634.48ZM1037.99 883.814L1052.81 909.718L1027.28 920.354L1012.46 894.45L1037.99 883.814ZM1709.39 603.544L1683.98 614.128L1698.73 639.904L1724.13 629.321L1709.39 603.544ZM958.061 919.592L970.588 941.491L949.003 950.482L936.476 928.584L958.061 919.592ZM1827.55 559.37L1838.24 578.064L1819.81 585.74L1809.12 567.046L1827.55 559.37ZM878.183 955.182L888.571 973.341L870.672 980.797L860.284 962.638L878.183 955.182ZM798.306 990.772L806.555 1005.19L792.341 1011.11L784.092 996.693L798.306 990.772ZM716.936 1031.45L718.923 1034.92L715.501 1036.34L713.515 1032.87L716.936 1031.45ZM1294.39 719.876L1316.08 757.797L1278.7 773.368L1257.01 735.447L1294.39 719.876ZM1411.74 670.575L1375.01 685.873L1396.33 723.132L1433.05 707.833L1411.74 670.575ZM1214.51 755.465L1234.07 789.647L1200.37 803.683L1180.82 769.501L1214.51 755.465ZM1490.31 639.828L1456.61 653.866L1476.09 687.919L1509.79 673.881L1490.31 639.828ZM1134.63 791.055L1152.05 821.499L1122.04 833.999L1104.63 803.556L1134.63 791.055ZM1568.88 609.079L1538.08 621.911L1555.88 653.029L1586.68 640.197L1568.88 609.079ZM1647.3 578.065L1619.4 589.69L1635.59 618.003L1663.5 606.378L1647.3 578.065ZM1054.7 826.834L1069.83 853.272L1043.77 864.128L1028.64 837.69L1054.7 826.834ZM1726.46 546.91L1700.79 557.603L1715.38 583.112L1741.05 572.418L1726.46 546.91ZM974.769 862.612L987.601 885.044L965.49 894.255L952.658 871.823L974.769 862.612ZM894.836 898.39L905.377 916.816L887.214 924.382L876.674 905.956L894.836 898.39ZM814.959 933.981L823.361 948.668L808.884 954.699L800.482 940.011L814.959 933.981ZM735.081 969.57L741.345 980.519L730.552 985.015L724.289 974.066L735.081 969.57ZM1311.04 663.084L1332.89 701.273L1295.25 716.953L1273.4 678.764L1311.04 663.084ZM1428.28 614.159L1391.82 629.348L1412.98 666.34L1449.44 651.151L1428.28 614.159ZM1231.16 698.674L1250.87 733.124L1216.92 747.269L1197.21 712.819L1231.16 698.674ZM1506.72 583.467L1473.42 597.34L1492.82 631.261L1526.12 617.388L1506.72 583.467ZM1151.29 734.263L1168.86 764.974L1138.58 777.584L1121.02 746.873L1151.29 734.263ZM1585.43 552.664L1555.02 565.331L1572.67 596.182L1603.07 583.515L1585.43 552.664ZM1663.85 521.65L1636.2 533.166L1652.25 561.21L1679.89 549.695L1663.85 521.65ZM1071.35 770.042L1086.63 796.746L1060.31 807.712L1045.03 781.007L1071.35 770.042ZM991.423 805.82L1004.41 828.519L982.034 837.84L969.049 815.141L991.423 805.82ZM911.489 841.598L922.183 860.292L903.757 867.967L893.063 849.274L911.489 841.598ZM1781.47 479.681L1791.71 497.573L1774.07 504.92L1763.84 487.028L1781.47 479.681ZM831.612 877.188L840.167 892.143L825.426 898.284L816.871 883.329L831.612 877.188ZM751.789 912.59L758.357 924.073L747.039 928.788L740.47 917.305L751.789 912.59ZM670.862 951.758L672.39 954.428L669.757 955.525L668.23 952.855L670.862 951.758ZM1327.7 606.292L1349.69 644.747L1311.79 660.537L1289.79 622.082L1327.7 606.292ZM1444.82 557.744L1408.62 572.823L1429.63 609.549L1465.83 594.469L1444.82 557.744ZM1247.87 641.694L1267.89 676.678L1233.4 691.042L1213.39 656.059L1247.87 641.694ZM1523.26 527.051L1490.22 540.815L1509.4 574.335L1542.44 560.572L1523.26 527.051ZM1167.94 677.472L1185.66 708.45L1155.13 721.169L1137.41 690.191L1167.94 677.472ZM1601.97 496.249L1571.82 508.807L1589.32 539.389L1619.46 526.831L1601.97 496.249ZM1088.06 713.061L1103.65 740.3L1076.8 751.485L1061.21 724.246L1088.06 713.061ZM1680.92 465.015L1653.01 476.641L1668.9 504.42L1696.81 492.794L1680.92 465.015ZM1008.07 749.028L1021.21 771.995L998.576 781.425L985.438 758.458L1008.07 749.028ZM928.197 784.617L939.197 803.845L920.244 811.741L909.245 792.512L928.197 784.617ZM848.264 820.396L856.972 835.618L841.968 841.868L833.26 826.646L848.264 820.396ZM768.442 855.798L775.164 867.548L763.582 872.372L756.861 860.623L768.442 855.798ZM688.675 891.011L693.563 899.556L685.14 903.065L680.252 894.52L688.675 891.011ZM1264.53 584.9L1284.69 620.152L1249.95 634.626L1229.78 599.375L1264.53 584.9ZM1461.36 501.329L1425.43 516.299L1446.28 552.757L1482.22 537.787L1461.36 501.329ZM1539.81 470.636L1507.03 484.29L1526.05 517.543L1558.83 503.889L1539.81 470.636ZM1184.65 620.491L1202.68 652.003L1171.61 664.943L1153.59 633.43L1184.65 620.491ZM1618.44 439.701L1588.55 452.148L1605.97 482.597L1635.85 470.15L1618.44 439.701ZM1104.72 656.268L1120.45 683.775L1093.34 695.07L1077.6 667.563L1104.72 656.268ZM1024.78 692.048L1038.23 715.549L1015.06 725.198L1001.62 701.698L1024.78 692.048ZM944.85 727.826L956.002 747.321L936.786 755.326L925.634 735.831L944.85 727.826ZM1735.4 399.991L1745.17 417.083L1728.33 424.101L1718.55 407.009L1735.4 399.991ZM864.972 763.415L873.986 779.171L858.455 785.641L849.442 769.885L864.972 763.415ZM785.095 799.006L791.97 811.023L780.125 815.957L773.25 803.94L785.095 799.006ZM705.383 834.03L710.577 843.11L701.628 846.838L696.434 837.759L705.383 834.03ZM624.843 871.88L626.065 874.016L623.959 874.894L622.737 872.757L624.843 871.88ZM1281.18 528.109L1301.5 563.627L1266.49 578.211L1246.17 542.693L1281.18 528.109ZM1477.91 444.913L1442.23 459.774L1462.94 495.965L1498.61 481.104L1477.91 444.913ZM1201.3 563.699L1219.48 595.478L1188.16 608.527L1169.98 576.748L1201.3 563.699ZM1556.48 414.165L1523.83 427.764L1542.7 460.751L1575.35 447.152L1556.48 414.165ZM1635.58 383.199L1605.3 395.812L1622.49 425.86L1652.77 413.248L1635.58 383.199ZM1121.37 599.478L1137.26 627.251L1109.88 638.655L1093.99 610.882L1121.37 599.478ZM1041.44 635.256L1055.03 659.023L1031.6 668.782L1018.01 645.015L1041.44 635.256ZM961.503 671.034L972.808 690.796L953.33 698.91L942.025 679.149L961.503 671.034ZM881.626 706.624L890.792 722.647L874.998 729.226L865.833 713.203L881.626 706.624ZM801.748 742.214L808.775 754.499L796.667 759.542L789.64 747.258L801.748 742.214ZM722.035 777.238L727.383 786.586L718.17 790.423L712.823 781.076L722.035 777.238ZM642.27 812.452L645.783 818.594L639.729 821.116L636.216 814.974L642.27 812.452ZM1297.83 471.318L1318.3 507.103L1283.03 521.796L1262.56 486.011L1297.83 471.318ZM1494.45 388.498L1459.04 403.249L1479.59 439.173L1515 424.422L1494.45 388.498ZM1217.95 506.908L1236.29 538.954L1204.7 552.112L1186.37 520.066L1217.95 506.908ZM1572.89 357.806L1540.64 371.24L1559.43 404.094L1591.68 390.659L1572.89 357.806ZM1138.02 542.685L1154.06 570.725L1126.42 582.239L1110.38 554.198L1138.02 542.685ZM1058.09 578.464L1071.84 602.498L1048.15 612.367L1034.4 588.332L1058.09 578.464ZM978.212 614.054L989.822 634.35L969.817 642.684L958.206 622.387L978.212 614.054ZM898.278 649.832L907.597 666.122L891.541 672.811L882.222 656.52L898.278 649.832ZM1689.32 320.302L1698.64 336.592L1682.58 343.281L1673.27 326.991L1689.32 320.302ZM818.456 685.234L825.789 698.052L813.154 703.316L805.821 690.497L818.456 685.234ZM738.689 720.445L744.189 730.06L734.713 734.007L729.213 724.393L738.689 720.445ZM658.978 755.471L662.797 762.148L656.216 764.889L652.397 758.213L658.978 755.471ZM578.823 792.003L579.74 793.605L578.16 794.263L577.244 792.661L578.823 792.003ZM1314.54 414.337L1335.32 450.656L1299.52 465.569L1278.74 429.25L1314.54 414.337ZM1510.99 332.083L1475.85 346.724L1496.24 382.38L1531.39 367.738L1510.99 332.083ZM1234.66 449.927L1253.3 482.507L1221.19 495.885L1202.55 463.305L1234.66 449.927ZM1590.09 301.116L1557.45 314.715L1576.01 347.167L1608.66 333.568L1590.09 301.116ZM1154.73 485.705L1171.08 514.279L1142.91 526.012L1126.57 497.438L1154.73 485.705ZM1074.8 521.484L1088.85 546.052L1064.63 556.14L1050.58 531.572L1074.8 521.484ZM994.864 557.263L1006.63 577.825L986.359 586.269L974.596 565.706L994.864 557.263ZM914.931 593.039L924.403 609.596L908.083 616.395L898.611 599.838L914.931 593.039ZM835.108 628.442L842.594 641.527L829.696 646.9L822.211 633.814L835.108 628.442ZM755.342 663.654L760.994 673.535L751.255 677.592L745.603 667.711L755.342 663.654ZM675.63 698.679L679.602 705.622L672.758 708.473L668.786 701.53L675.63 698.679ZM596.028 733.328L598.625 737.868L594.15 739.732L591.553 735.192L596.028 733.328ZM1449.09 306.36L1411.05 322.207L1433.13 360.802L1471.17 344.955L1449.09 306.36ZM1331.19 357.545L1352.12 394.131L1316.06 409.154L1295.13 372.568L1331.19 357.545ZM1527.53 275.668L1492.65 290.199L1512.9 325.588L1547.78 311.057L1527.53 275.668ZM1251.32 393.135L1270.11 425.982L1237.73 439.47L1218.94 406.623L1251.32 393.135ZM1171.38 428.913L1187.88 457.754L1159.45 469.597L1142.95 440.755L1171.38 428.913ZM1091.45 464.692L1105.66 489.528L1081.18 499.725L1066.97 474.889L1091.45 464.692ZM1011.52 500.47L1023.43 521.3L1002.9 529.853L990.986 509.023L1011.52 500.47ZM931.64 536.059L941.417 553.151L924.57 560.169L914.793 543.077L931.64 536.059ZM1643.25 240.614L1652.11 256.103L1636.84 262.463L1627.98 246.974L1643.25 240.614ZM851.762 571.649L859.401 585.002L846.239 590.484L838.601 577.131L851.762 571.649ZM771.995 606.863L777.8 617.011L767.797 621.177L761.993 611.03L771.995 606.863ZM692.283 641.887L696.408 649.097L689.3 652.058L685.176 644.847L692.283 641.887ZM612.681 676.535L615.431 681.343L610.694 683.317L607.944 678.509L612.681 676.535ZM532.804 712.126L533.415 713.193L532.363 713.632L531.752 712.564L532.804 712.126ZM1465.71 250.08L1427.93 265.817L1449.78 304.011L1487.56 288.273L1465.71 250.08ZM1347.85 300.753L1368.93 337.606L1332.6 352.738L1311.52 315.885L1347.85 300.753ZM1544.55 219.222L1509.53 233.809L1529.55 268.798L1564.56 254.211L1544.55 219.222ZM1267.97 336.343L1286.91 369.458L1254.27 383.055L1235.33 349.94L1267.97 336.343ZM1188.04 372.122L1204.69 401.23L1176 413.182L1159.34 384.074L1188.04 372.122ZM1108.1 407.899L1122.46 433.001L1097.72 443.309L1083.36 418.206L1108.1 407.899ZM1028.23 443.489L1040.45 464.853L1019.39 473.625L1007.17 452.262L1028.23 443.489ZM948.292 479.267L958.222 496.626L941.112 503.753L931.182 486.395L948.292 479.267ZM868.415 514.857L876.206 528.477L862.782 534.069L854.991 520.45L868.415 514.857ZM788.648 550.07L794.606 560.486L784.34 564.762L778.382 554.347L788.648 550.07ZM708.936 585.095L713.213 592.573L705.843 595.643L701.565 588.166L708.936 585.095ZM629.334 619.743L632.237 624.817L627.236 626.901L624.333 621.826L629.334 619.743ZM549.842 654.014L551.676 657.22L548.518 658.535L546.684 655.33L549.842 654.014ZM1364.5 243.961L1385.73 281.081L1349.15 296.323L1327.91 259.203L1364.5 243.961ZM1482.12 193.718L1444.87 209.236L1466.57 247.164L1503.82 231.646L1482.12 193.718ZM1284.68 279.363L1303.92 313.012L1270.76 326.828L1251.51 293.179L1284.68 279.363ZM1204.74 315.141L1221.7 344.784L1192.48 356.955L1175.53 327.313L1204.74 315.141ZM1124.81 350.919L1139.48 376.556L1114.21 387.082L1099.54 361.445L1124.81 350.919ZM1044.88 386.697L1057.25 408.328L1035.93 417.21L1023.56 395.579L1044.88 386.697ZM964.945 422.476L975.027 440.101L957.654 447.338L947.572 429.713L964.945 422.476ZM1597.23 160.735L1605.78 175.69L1591.04 181.831L1582.49 166.876L1597.23 160.735ZM885.068 458.065L893.012 471.951L879.323 477.653L871.38 463.767L885.068 458.065ZM805.301 493.279L811.411 503.961L800.882 508.347L794.772 497.665L805.301 493.279ZM725.533 528.491L729.81 535.969L722.44 539.039L718.162 531.562L725.533 528.491ZM645.932 563.14L648.835 568.214L643.833 570.297L640.93 565.223L645.932 563.14ZM566.441 597.412L568.274 600.616L565.116 601.932L563.283 598.728L566.441 597.412ZM486.84 632.059L487.298 632.86L486.509 633.189L486.05 632.388L486.84 632.059ZM1381.21 186.98L1402.75 224.635L1365.63 240.096L1344.09 202.442L1381.21 186.98ZM1499.19 137.083L1461.68 152.712L1483.14 190.238L1520.66 174.61L1499.19 137.083ZM1301.33 222.571L1320.73 256.487L1287.3 270.413L1267.9 236.497L1301.33 222.571ZM1221.4 258.349L1238.51 288.259L1209.03 300.54L1191.92 270.63L1221.4 258.349ZM1141.46 294.127L1156.28 320.031L1130.75 330.667L1115.93 304.764L1141.46 294.127ZM1061.53 329.906L1074.06 351.804L1052.47 360.795L1039.95 338.897L1061.53 329.906ZM981.653 365.495L992.041 383.655L974.142 391.111L963.754 372.952L981.653 365.495ZM901.721 401.274L909.817 415.427L895.867 421.238L887.771 407.085L901.721 401.274ZM821.953 436.486L828.217 447.435L817.425 451.931L811.161 440.981L821.953 436.486ZM742.186 471.7L746.616 479.444L738.983 482.624L734.553 474.88L742.186 471.7ZM662.586 506.348L665.641 511.689L660.376 513.882L657.321 508.541L662.586 506.348ZM583.094 540.619L585.08 544.09L581.658 545.516L579.672 542.045L583.094 540.619ZM503.713 574.513L504.935 576.65L502.83 577.527L501.607 575.391L503.713 574.513ZM1397.86 130.189L1419.55 168.11L1382.17 183.681L1360.48 145.76L1397.86 130.189ZM1317.98 165.779L1337.54 199.961L1303.84 213.996L1284.29 179.814L1317.98 165.779ZM1238.1 201.369L1255.52 231.813L1225.51 244.313L1208.1 213.87L1238.1 201.369ZM1158.17 237.147L1173.3 263.585L1147.24 274.44L1132.11 248.002L1158.17 237.147ZM1078.18 273.112L1090.86 295.278L1069.02 304.38L1056.34 282.214L1078.18 273.112ZM998.307 308.704L1008.85 327.13L990.685 334.696L980.144 316.27L998.307 308.704ZM918.429 344.293L926.831 358.98L912.354 365.011L903.952 350.324L918.429 344.293ZM1551.15 81.0461L1559.25 95.2L1545.3 101.012L1537.2 86.8578L1551.15 81.0461ZM838.607 379.694L845.023 390.911L833.967 395.516L827.551 384.3L838.607 379.694ZM758.838 414.908L763.422 422.92L755.525 426.209L750.942 418.197L758.838 414.908ZM679.238 449.555L682.446 455.163L676.918 457.466L673.71 451.858L679.238 449.555ZM599.748 483.827L601.886 487.566L598.201 489.101L596.062 485.362L599.748 483.827ZM520.312 517.91L521.534 520.046L519.428 520.924L518.206 518.787L520.312 517.91ZM440.875 551.994L441.181 552.528L440.655 552.747L440.35 552.213L440.875 551.994ZM1414.51 73.3971L1436.36 111.585L1398.72 127.265L1376.87 89.0773L1414.51 73.3971ZM1334.64 108.987L1354.34 143.436L1320.39 157.582L1300.68 123.132L1334.64 108.987ZM1254.76 144.577L1272.33 175.288L1242.05 187.898L1224.49 157.187L1254.76 144.577ZM1174.82 180.355L1190.1 207.06L1163.78 218.025L1148.5 191.321L1174.82 180.355ZM1094.89 216.133L1107.88 238.832L1085.5 248.153L1072.52 225.453L1094.89 216.133ZM1014.96 251.911L1025.65 270.605L1007.23 278.281L996.534 259.587L1014.96 251.911ZM935.082 287.501L943.637 302.456L928.896 308.596L920.341 293.641L935.082 287.501ZM855.259 322.903L861.828 334.386L850.51 339.101L843.941 327.618L855.259 322.903ZM775.492 358.116L780.228 366.395L772.068 369.794L767.332 361.515L775.492 358.116ZM695.836 392.953L699.044 398.56L693.517 400.863L690.309 395.255L695.836 392.953ZM616.345 427.224L618.484 430.962L614.799 432.498L612.66 428.759L616.345 427.224ZM536.964 461.119L538.339 463.522L535.97 464.509L534.596 462.105L536.964 461.119ZM457.639 494.824L458.403 496.16L457.087 496.708L456.323 495.372L457.639 494.824ZM1431.17 16.6046L1453.16 55.0601L1415.26 70.8502L1393.26 32.3947L1431.17 16.6046ZM1351.34 52.0067L1371.36 86.9902L1336.87 101.355L1316.86 66.3712L1351.34 52.0067ZM1271.41 87.7851L1289.13 118.763L1258.6 131.483L1240.88 100.505L1271.41 87.7851ZM1191.48 123.563L1206.91 150.535L1180.32 161.61L1164.89 134.638L1191.48 123.563ZM1111.54 159.34L1124.68 182.307L1102.05 191.738L1088.91 168.771L1111.54 159.34ZM1031.61 195.12L1042.46 214.081L1023.77 221.866L1012.92 202.905L1031.61 195.12ZM951.735 230.709L960.442 245.931L945.439 252.181L936.731 236.96L951.735 230.709ZM1505.08 1.35686L1512.72 14.7097L1499.56 20.1926L1491.92 6.83971L1505.08 1.35686ZM871.912 266.112L878.633 277.862L867.052 282.686L860.331 270.936L871.912 266.112ZM792.145 301.324L797.034 309.87L788.611 313.379L783.722 304.832L792.145 301.324ZM712.489 336.161L715.849 342.036L710.059 344.448L706.699 338.573L712.489 336.161ZM632.998 370.433L635.289 374.438L631.341 376.083L629.05 372.077L632.998 370.433ZM553.562 404.514L554.938 406.918L552.568 407.906L551.192 405.501L553.562 404.514ZM474.237 438.221L475.001 439.557L473.684 440.105L472.92 438.769L474.237 438.221ZM1447.65 -39.6213L1469.35 -1.70008L1431.97 13.8706L1410.28 -24.0506L1447.65 -39.6213ZM1368 -4.78579L1388.16 30.4654L1353.42 44.9397L1333.25 9.68858L1368 -4.78579ZM1288.12 30.8049L1306.14 62.3172L1275.09 75.256L1257.06 43.7436L1288.12 30.8049ZM1208.19 66.5819L1223.92 94.0888L1196.81 105.383L1181.07 77.8764L1208.19 66.5819ZM1128.25 102.361L1141.7 125.862L1118.53 135.511L1105.09 112.01L1128.25 102.361ZM1048.32 138.139L1059.47 157.634L1040.26 165.639L1029.1 146.144L1048.32 138.139ZM968.387 173.918L977.248 189.407L961.981 195.766L953.121 180.278L968.387 173.918ZM888.564 209.318L895.439 221.336L883.594 226.27L876.719 214.253L888.564 209.318ZM808.799 244.532L813.84 253.345L805.153 256.964L800.112 248.151L808.799 244.532ZM729.141 279.368L732.655 285.51L726.601 288.032L723.087 281.89L729.141 279.368ZM649.595 313.829L651.886 317.834L647.938 319.479L645.647 315.473L649.595 313.829ZM570.16 347.911L571.535 350.314L569.166 351.301L567.791 348.898L570.16 347.911ZM490.834 381.617L491.598 382.952L490.281 383.501L489.517 382.165L490.834 381.617ZM411.619 414.947L412.078 415.748L411.288 416.077L410.83 415.276L411.619 414.947ZM1384.65 -61.5779L1404.97 -26.06L1369.96 -11.4762L1349.64 -46.994L1384.65 -61.5779ZM1304.77 -25.9876L1322.95 5.79145L1291.63 18.8401L1273.45 -12.939L1304.77 -25.9876ZM1224.84 9.79069L1240.73 37.5633L1213.35 48.9674L1197.46 21.1947L1224.84 9.79069ZM1144.91 45.5698L1158.5 69.337L1135.07 79.0959L1121.48 55.3288L1144.91 45.5698ZM1064.97 81.3459L1076.28 101.109L1056.8 109.223L1045.49 89.4602L1064.97 81.3459ZM985.096 116.938L994.261 132.96L978.468 139.54L969.302 123.517L985.096 116.938ZM1458.95 -78.1434L1465.97 -65.8593L1453.87 -60.8153L1446.84 -73.0994L1458.95 -78.1434ZM905.218 152.527L912.245 164.811L900.137 169.855L893.11 157.571L905.218 152.527ZM825.451 187.74L830.645 196.82L821.695 200.548L816.501 191.468L825.451 187.74ZM745.794 222.577L749.46 228.985L743.143 231.617L739.477 225.208L745.794 222.577ZM666.248 257.036L668.692 261.309L664.48 263.064L662.036 258.791L666.248 257.036ZM586.812 291.12L588.34 293.79L585.708 294.886L584.181 292.216L586.812 291.12ZM507.487 324.825L508.404 326.428L506.825 327.085L505.908 325.483L507.487 324.825ZM428.218 358.344L428.676 359.145L427.886 359.474L427.428 358.673L428.218 358.344ZM1401.19 -117.993L1421.36 -82.7421L1386.61 -68.2677L1366.45 -103.519L1401.19 -117.993ZM1321.42 -82.7789L1339.76 -50.7331L1308.17 -37.5748L1289.84 -69.6206L1321.42 -82.7789ZM1241.49 -47.0014L1257.53 -18.9611L1229.89 -7.44756L1213.85 -35.4879L1241.49 -47.0014ZM1161.56 -11.224L1175.31 12.8108L1151.62 22.6796L1137.87 -1.35518L1161.56 -11.224ZM1081.63 24.5557L1093.08 44.5841L1073.34 52.8079L1061.88 32.7795L1081.63 24.5557ZM1001.75 60.145L1011.07 76.4356L995.01 83.1246L985.692 66.834L1001.75 60.145ZM921.871 95.7343L929.051 108.286L916.679 113.44L909.499 100.888L921.871 95.7343ZM842.104 130.948L847.451 140.295L838.238 144.133L832.891 134.786L842.104 130.948ZM762.447 165.784L766.266 172.461L759.686 175.202L755.866 168.526L762.447 165.784ZM682.846 200.433L685.291 204.706L681.079 206.46L678.634 202.187L682.846 200.433ZM603.41 234.515L604.938 237.186L602.305 238.282L600.777 235.611L603.41 234.515ZM524.085 268.222L525.001 269.825L523.422 270.482L522.506 268.88L524.085 268.222ZM444.815 301.74L445.273 302.541L444.483 302.87L444.025 302.069L444.815 301.74ZM365.656 334.882L365.961 335.415L365.434 335.635L365.129 335.101L365.656 334.882ZM1336.86 -135.427L1351.99 -108.989L1325.93 -98.1337L1310.8 -124.572L1336.86 -135.427ZM1257.04 -100.026L1270.18 -77.0593L1247.54 -67.6293L1234.4 -90.5963L1257.04 -100.026ZM1177.27 -64.8132L1188.58 -45.0516L1169.1 -36.9373L1157.79 -56.6989L1177.27 -64.8132ZM1097.51 -29.6002L1106.98 -13.0429L1090.66 -6.24437L1081.19 -22.8017L1097.51 -29.6002ZM1017.74 5.61254L1025.38 18.9654L1012.22 24.4482L1004.58 11.0953L1017.74 5.61254ZM938.027 40.6375L943.985 51.0527L933.719 55.3292L927.761 44.914L938.027 40.6375ZM1412.54 -156.703L1418.19 -146.822L1408.46 -142.765L1402.8 -152.645L1412.54 -156.703ZM858.425 75.2862L863.008 83.2972L855.111 86.5869L850.528 78.5759L858.425 75.2862ZM778.824 109.935L782.031 115.543L776.504 117.845L773.296 112.237L778.824 109.935ZM699.333 144.206L701.472 147.944L697.787 149.48L695.648 145.741L699.333 144.206ZM619.952 178.1L621.328 180.504L618.959 181.491L617.583 179.086L619.952 178.1ZM540.628 211.806L541.392 213.142L540.075 213.69L539.311 212.354L540.628 211.806ZM461.413 245.136L461.872 245.937L461.081 246.267L460.623 245.466L461.413 245.136ZM1348.49 -175.08L1349.86 -172.677L1347.5 -171.69L1346.12 -174.093L1348.49 -175.08ZM1269.33 -141.938L1270.55 -139.801L1268.45 -138.924L1267.22 -141.06L1269.33 -141.938ZM1190.17 -108.797L1191.24 -106.928L1189.4 -106.161L1188.33 -108.029L1190.17 -108.797ZM1111.01 -75.6567L1111.93 -74.0536L1110.35 -73.3957L1109.43 -74.9988L1111.01 -75.6567ZM1031.85 -42.5146L1032.62 -41.1791L1031.3 -40.6308L1030.53 -41.9663L1031.85 -42.5146ZM952.692 -9.37258L953.303 -8.30475L952.25 -7.86632L951.64 -8.93415L952.692 -9.37258ZM873.532 23.7676L873.99 24.5687L873.2 24.898L872.741 24.0969L873.532 23.7676ZM794.373 56.9097L794.678 57.4431L794.152 57.6621L793.847 57.1287L794.373 56.9097Z" fill="#A2ABC8" fill-opacity="0.1"/>
</g>
</svg>
