<svg fill="none" height="58" viewBox="0 0 35 58" width="35" xmlns="http://www.w3.org/2000/svg" xmlns:xlink="http://www.w3.org/1999/xlink"><mask id="a" fill="#000" height="6" maskUnits="userSpaceOnUse" width="13" x="11.2572" y="52.4571"><path d="m11.2572 52.4571h13v6h-13z" fill="#fff"/><path clip-rule="evenodd" d="m23.6001 54.4571h-1.5429l-1.5429 1.5429h-3.0857-3.0857l-1.5428-1.5429h-1.5429" fill="#000" fill-rule="evenodd"/></mask><mask id="b" fill="#000" height="38" maskUnits="userSpaceOnUse" width="35" x="0" y="0"><path d="m0 0h35v38h-35z" fill="#fff"/><path clip-rule="evenodd" d="m25.1429 37.4857v-1.5428c0-2.7864.9689-5.3553 2.9036-7.3286 2.9145-2.9746 4.8106-6.6544 4.8106-11.1857 0-8.52123-6.9089-15.4286-15.4285-15.4286-8.51969 0-15.4286 6.90737-15.4286 15.4286 0 4.5313 1.89617 8.2111 4.81063 11.1857 1.93474 1.9733 2.90366 4.5422 2.90366 7.3286v1.5428" fill="#000" fill-rule="evenodd"/></mask><mask id="c" fill="#000" height="9" maskUnits="userSpaceOnUse" width="13" x="10.8" y="20.0571"><path d="m10.8 20.0571h13v9h-13z" fill="#fff"/><path clip-rule="evenodd" d="m12.8 22.0571 4.6286 4.6286 4.6286-4.6286" fill="#000" fill-rule="evenodd"/></mask><path d="m22.0572 54.4571v-2c-.5304 0-1.0391.2108-1.4142.5858zm-1.5429 1.5429v2c.5305 0 1.0392-.2107 1.4143-.5858zm-6.1714 0-1.4142 1.4142c.3751.3751.8838.5858 1.4142.5858zm-1.5428-1.5429 1.4142-1.4142c-.3751-.375-.8838-.5858-1.4142-.5858zm10.8-2h-1.5429v4h1.5429zm-2.9571.5858-1.5429 1.5429 2.8285 2.8284 1.5428-1.5428zm-.1287.9571h-3.0857v4h3.0857zm-3.0857 0h-3.0857v4h3.0857zm-1.6715.5858-1.5428-1.5429-2.8285 2.8285 1.5429 1.5428zm-2.957-2.1287h-1.5429v4h1.5429z" fill="#4a557d" mask="url(#a)"/><path d="m8.17139 41.1143c-.55229 0-1 .4477-1 1s.44771 1 1 1h18.51431c.5523 0 1-.4477 1-1s-.4477-1-1-1z" stroke="#4a557d" stroke-linejoin="round" stroke-width="2"/><path d="m8.17139 47.2857c-.55229 0-1 .4477-1 1s.44771 1 1 1h18.51431c.5523 0 1-.4477 1-1s-.4477-1-1-1z" stroke="#4a557d" stroke-linejoin="round" stroke-width="2"/><path d="m28.0465 28.6143 1.4281 1.4002.0005-.0005zm-21.23587 0-1.42859 1.3997.00049.0005zm20.33227 8.8714v-1.5428h-4v1.5428zm0-1.5428c0-2.3063.7929-4.3589 2.3317-5.9284l-2.8562-2.8004c-2.3306 2.3771-3.4755 5.4622-3.4755 8.7288zm2.3322-5.9289c3.2045-3.2706 5.382-7.431 5.382-12.5854h-4c0 3.9083-1.6147 7.1074-4.2392 9.786zm5.382-12.5854c0-9.62593-7.8044-17.4286-17.4285-17.4286v4c7.4152 0 13.4285 6.0121 13.4285 13.4286zm-17.4285-17.4286c-9.62412 0-17.4286 7.80267-17.4286 17.4286h4c0-7.4165 6.0134-13.4286 13.4286-13.4286zm-17.4286 17.4286c0 5.1544 2.17758 9.3148 5.38204 12.5854l2.85718-2.7994c-2.62446-2.6786-4.23922-5.8777-4.23922-9.786zm5.38253 12.5859c1.53886 1.5695 2.33176 3.6221 2.33176 5.9284h4.00001c0-3.2666-1.1449-6.3517-3.47557-8.7288zm2.33176 5.9284v1.5428h4.00001v-1.5428z" fill="#4a557d" mask="url(#b)"/><path d="m17.4286 26.6857-1.4142 1.4142c.7811.7811 2.0474.7811 2.8284 0zm-6.0428-3.2143 4.6286 4.6285 2.8284-2.8284-4.6285-4.6286zm7.457 4.6285 4.6286-4.6285-2.8284-2.8285-4.6286 4.6286z" fill="#f05f87" mask="url(#c)"/><g stroke-linejoin="round" stroke-width="2"><path d="m18.4287 26.6857c0-.5523-.4478-1-1-1-.5523 0-1 .4477-1 1v10.8c0 .5523.4477 1 1 1 .5522 0 1-.4477 1-1z" stroke="#f05f87"/><path d="m7.17139 17.4286c0 .4044.24364.7691.61731.9239.37368.1547.8038.0692 1.08979-.2168l9.25711-9.25716c.286-.286.3716-.71612.2168-1.08979-.1548-.37368-.5194-.61732-.9239-.61732-5.6637 0-10.25711 4.59337-10.25711 10.25717z" stroke="#4a557d" stroke-linecap="round"/></g></svg>