<svg fill="none" height="37" viewBox="0 0 36 37" width="36" xmlns="http://www.w3.org/2000/svg"><path d="m0 .873291h26c5.5228 0 10 4.477149 10 10.000009v26h-26c-5.52285 0-10-4.4772-10-10z" fill="#f05f87"/><g fill="#fff"><path d="m17.8028 21.3814c-1.0169 0-1.8443.8275-1.8443 1.8443s.8274 1.8443 1.8443 1.8443c1.0168 0 1.8442-.8275 1.8442-1.8443s-.8274-1.8443-1.8442-1.8443zm0 2.4591c-.3394 0-.6148-.2767-.6148-.6148s.2754-.6148.6148-.6148c.3393 0 .6147.2767.6147.6148s-.2754.6148-.6147.6148z"/><path d="m19.7676 10.9036c-.348-.3737-.8398-.5877-1.35-.5877h-1.2295c-.5102 0-1.0008.214-1.3488.5877-.3479.3725-.5263.8779-.4906 1.3967l.5201 6.0578c.0713 1.0058.9172 1.7938 1.934 1.7938 1.0082 0 1.8541-.7881 1.9242-1.784l.5299-6.0762c.0369-.509-.1414-1.0143-.4893-1.3881zm-.7352 1.291-.5312 6.0775c-.0258.3651-.3332.6504-.7082.6504-.3664 0-.6725-.2853-.6996-.6603l-.5189-6.0578c-.0123-.1733.0455-.3381.1635-.4635.1181-.1254.2779-.1955.45-.1955h1.2296c.1721 0 .3319.0701.45.1955.118.1254.1758.2902.1648.4537z"/></g></svg>